<svg width="17" height="16" viewBox="0 0 17 16" fill="none" xmlns="http://www.w3.org/2000/svg">
  <circle cx="8.23492" cy="8" r="8" fill="#394959" />
  <path fill-rule="evenodd" clip-rule="evenodd"
    d="M5.1016 3.91927C5.1016 3.59711 5.36277 3.33594 5.68493 3.33594H7.62937C7.95153 3.33594 8.2127 3.59711 8.2127 3.91927C8.2127 4.24144 7.95153 4.50261 7.62937 4.50261H5.68493C5.36277 4.50261 5.1016 4.24144 5.1016 3.91927ZM11.2878 4.49539C11.3992 4.79769 11.2444 5.13305 10.9421 5.24442L5.88659 7.107C5.58429 7.21837 5.24894 7.06359 5.13757 6.76129C5.02619 6.45899 5.18097 6.12364 5.48327 6.01226L10.5388 4.14968C10.8411 4.03831 11.1765 4.19309 11.2878 4.49539ZM11.2878 9.24394C11.3992 9.54624 11.2444 9.8816 10.9421 9.99297L5.88659 11.8555C5.58429 11.9669 5.24894 11.8121 5.13757 11.5098C5.02619 11.2075 5.18097 10.8722 5.48327 10.7608L10.5388 8.89823C10.8411 8.78686 11.1765 8.94164 11.2878 9.24394ZM8.2127 12.086C8.2127 11.7638 8.47386 11.5026 8.79603 11.5026H10.7405C11.0626 11.5026 11.3238 11.7638 11.3238 12.086C11.3238 12.4081 11.0626 12.6693 10.7405 12.6693H8.79603C8.47386 12.6693 8.2127 12.4081 8.2127 12.086Z"
    fill="white" />
  <path fill-rule="evenodd" clip-rule="evenodd"
    d="M11.2849 6.82331C11.4006 7.12401 11.2506 7.46152 10.9499 7.57718L5.89433 9.52165C5.59364 9.6373 5.25613 9.48729 5.14048 9.1866C5.02483 8.8859 5.17483 8.54838 5.47553 8.43273L10.5311 6.48826C10.8318 6.37261 11.1693 6.52261 11.2849 6.82331Z"
    fill="white" />
</svg>
  