<svg width="18" height="18" viewBox="0 0 18 18" fill="none" xmlns="http://www.w3.org/2000/svg">
<path d="M5.04053 2.69922C4.14813 2.69922 3.39319 3.10731 2.87835 3.68731C2.36348 4.26732 2.05024 4.99929 1.84879 5.7528C1.26177 7.9477 0.674011 10.1419 0.0872468 12.3371C-0.278235 13.7038 0.538387 15.1234 1.90404 15.4899C2.61464 15.6806 3.28934 15.4355 3.74724 15.0843C4.20514 14.7331 4.54193 14.3053 4.88859 13.9581L7.12857 11.7144H10.8715L13.1115 13.9581C13.4581 14.3053 13.7936 14.7331 14.2515 15.0843C14.7094 15.4356 15.3841 15.6807 16.0947 15.4899C17.4604 15.1232 18.2784 13.7036 17.9128 12.3371C17.3253 10.1424 16.7383 7.9477 16.1513 5.7528C15.9496 4.99929 15.6352 4.26732 15.1204 3.68731C14.6055 3.10731 13.8508 2.69922 12.9584 2.69922H5.04053ZM5.04053 3.98494H12.9583C13.4906 3.98494 13.8374 4.1765 14.16 4.53981C14.4825 4.90329 14.7424 5.45903 14.9096 6.08425C15.4966 8.27916 16.0837 10.4748 16.6713 12.6697C16.8588 13.3708 16.4593 14.0604 15.7609 14.248C15.4395 14.3342 15.3114 14.2766 15.0353 14.0648C14.7591 13.853 14.4309 13.4586 14.0221 13.049L11.5937 10.6169L11.5936 10.6167C11.4727 10.4959 11.3087 10.4282 11.1378 10.4285H6.86118H6.86132C6.69085 10.4285 6.52726 10.4962 6.40673 10.6167L3.97838 13.0488C3.5697 13.4583 3.2414 13.8528 2.96531 14.0646C2.68908 14.2764 2.55964 14.3342 2.23821 14.2479C1.53981 14.0605 1.14161 13.3708 1.32918 12.6697C1.91594 10.4748 2.50355 8.27916 3.09072 6.08426C3.25789 5.45918 3.51776 4.90331 3.84033 4.53982C4.1629 4.17649 4.50857 3.98494 5.04067 3.98494L5.04053 3.98494Z" fill="white"/>
<path d="M11.8817 5.29102C10.8241 5.29102 9.95312 6.16203 9.95312 7.21959C9.95312 8.27715 10.8241 9.14817 11.8817 9.14817C12.9393 9.14817 13.8103 8.27715 13.8103 7.21959C13.8103 6.16203 12.9393 5.29102 11.8817 5.29102ZM11.8817 6.57673C12.2443 6.57673 12.5246 6.85698 12.5246 7.21959C12.5246 7.5822 12.2443 7.86245 11.8817 7.86245C11.5191 7.86245 11.2388 7.5822 11.2388 7.21959C11.2388 6.85698 11.5191 6.57673 11.8817 6.57673Z" fill="white"/>
<path d="M6.0834 5.2911C5.72495 5.28536 5.4292 5.58153 5.43437 5.94387V6.57784L4.80041 6.57799C3.93111 6.56565 3.93111 7.87461 4.80041 7.86227H5.43437V8.49624C5.42218 9.36553 6.73229 9.36553 6.71994 8.49624V7.86227H7.35406C7.70849 7.86672 7.99978 7.58418 8.00551 7.22573C8.01197 6.86728 7.71637 6.57284 7.35406 6.57799H6.71994V5.94402C6.7264 5.58944 6.44185 5.29701 6.0834 5.29124V5.2911Z" fill="white"/>
</svg>
