<svg width="20" height="21" viewBox="0 0 20 21" fill="none" xmlns="http://www.w3.org/2000/svg">
<path fill-rule="evenodd" clip-rule="evenodd" d="M7 5.25H14C14.6904 5.25 15.25 5.80964 15.25 6.5V13.5H16.75V6.5C16.75 4.98122 15.5188 3.75 14 3.75H7V5.25ZM5.5 6.75C4.25736 6.75 3.25 7.75736 3.25 9V15C3.25 16.2426 4.25736 17.25 5.5 17.25H11.5C12.7426 17.25 13.75 16.2426 13.75 15V9C13.75 7.75736 12.7426 6.75 11.5 6.75H5.5ZM4.75 9C4.75 8.58579 5.08579 8.25 5.5 8.25H11.5C11.9142 8.25 12.25 8.58579 12.25 9V15C12.25 15.4142 11.9142 15.75 11.5 15.75H5.5C5.08579 15.75 4.75 15.4142 4.75 15V9Z" fill="#20201E"/>
</svg>
