<svg width="20" height="20" viewBox="0 0 20 20" fill="none" xmlns="http://www.w3.org/2000/svg">
<path d="M2.88889 9.11111C2.63704 9.11111 2.42607 9.02578 2.256 8.85511C2.08533 8.68504 2 8.47407 2 8.22222V2.88889C2 2.63704 2.08533 2.42578 2.256 2.25511C2.42607 2.08504 2.63704 2 2.88889 2H8.22222C8.47407 2 8.68533 2.08504 8.856 2.25511C9.02607 2.42578 9.11111 2.63704 9.11111 2.88889V8.22222C9.11111 8.47407 9.02607 8.68504 8.856 8.85511C8.68533 9.02578 8.47407 9.11111 8.22222 9.11111H2.88889ZM11.7778 9.11111C11.5259 9.11111 11.315 9.02578 11.1449 8.85511C10.9742 8.68504 10.8889 8.47407 10.8889 8.22222V2.88889C10.8889 2.63704 10.9742 2.42578 11.1449 2.25511C11.315 2.08504 11.5259 2 11.7778 2H17.1111C17.363 2 17.5739 2.08504 17.744 2.25511C17.9147 2.42578 18 2.63704 18 2.88889V8.22222C18 8.47407 17.9147 8.68504 17.744 8.85511C17.5739 9.02578 17.363 9.11111 17.1111 9.11111H11.7778ZM2.88889 18C2.63704 18 2.42607 17.9147 2.256 17.744C2.08533 17.5739 2 17.363 2 17.1111V11.7778C2 11.5259 2.08533 11.3147 2.256 11.144C2.42607 10.9739 2.63704 10.8889 2.88889 10.8889H8.22222C8.47407 10.8889 8.68533 10.9739 8.856 11.144C9.02607 11.3147 9.11111 11.5259 9.11111 11.7778V17.1111C9.11111 17.363 9.02607 17.5739 8.856 17.744C8.68533 17.9147 8.47407 18 8.22222 18H2.88889ZM14.4444 18C14.1926 18 13.9816 17.9147 13.8116 17.744C13.6409 17.5739 13.5556 17.363 13.5556 17.1111V15.3333H11.7556C11.5037 15.3333 11.2963 15.248 11.1333 15.0773C10.9704 14.9073 10.8889 14.6963 10.8889 14.4444C10.8889 14.1926 10.9742 13.9816 11.1449 13.8116C11.315 13.6409 11.5259 13.5556 11.7778 13.5556H13.5556V11.7556C13.5556 11.5037 13.6409 11.2963 13.8116 11.1333C13.9816 10.9704 14.1926 10.8889 14.4444 10.8889C14.6963 10.8889 14.9073 10.9739 15.0773 11.144C15.248 11.3147 15.3333 11.5259 15.3333 11.7778V13.5556H17.1333C17.3852 13.5556 17.5926 13.6409 17.7556 13.8116C17.9185 13.9816 18 14.1926 18 14.4444C18 14.6963 17.9147 14.9073 17.744 15.0773C17.5739 15.248 17.363 15.3333 17.1111 15.3333H15.3333V17.1333C15.3333 17.3852 15.248 17.5926 15.0773 17.7556C14.9073 17.9185 14.6963 18 14.4444 18ZM12.6667 3.77778V7.33333H16.2222V3.77778H12.6667ZM3.77778 3.77778V7.33333H7.33333V3.77778H3.77778ZM3.77778 12.6667V16.2222H7.33333V12.6667H3.77778Z" fill="#121212" fill-opacity="0.6"/>
</svg>
