<svg width="17" height="17" viewBox="0 0 17 17" fill="none" xmlns="http://www.w3.org/2000/svg">
<path d="M3.58464 8.01009C3.39575 8.01009 3.23752 7.94609 3.10997 7.81809C2.98197 7.69054 2.91797 7.53231 2.91797 7.34342V3.34342C2.91797 3.15454 2.98197 2.99609 3.10997 2.86809C3.23752 2.74054 3.39575 2.67676 3.58464 2.67676H7.58464C7.77352 2.67676 7.93197 2.74054 8.05997 2.86809C8.18752 2.99609 8.2513 3.15454 8.2513 3.34342V7.34342C8.2513 7.53231 8.18752 7.69054 8.05997 7.81809C7.93197 7.94609 7.77352 8.01009 7.58464 8.01009H3.58464ZM10.2513 8.01009C10.0624 8.01009 9.90419 7.94609 9.77664 7.81809C9.64864 7.69054 9.58464 7.53231 9.58464 7.34342V3.34342C9.58464 3.15454 9.64864 2.99609 9.77664 2.86809C9.90419 2.74054 10.0624 2.67676 10.2513 2.67676H14.2513C14.4402 2.67676 14.5984 2.74054 14.726 2.86809C14.854 2.99609 14.918 3.15454 14.918 3.34342V7.34342C14.918 7.53231 14.854 7.69054 14.726 7.81809C14.5984 7.94609 14.4402 8.01009 14.2513 8.01009H10.2513ZM3.58464 14.6768C3.39575 14.6768 3.23752 14.6128 3.10997 14.4848C2.98197 14.3572 2.91797 14.199 2.91797 14.0101V10.0101C2.91797 9.8212 2.98197 9.66276 3.10997 9.53476C3.23752 9.4072 3.39575 9.34342 3.58464 9.34342H7.58464C7.77352 9.34342 7.93197 9.4072 8.05997 9.53476C8.18752 9.66276 8.2513 9.8212 8.2513 10.0101V14.0101C8.2513 14.199 8.18752 14.3572 8.05997 14.4848C7.93197 14.6128 7.77352 14.6768 7.58464 14.6768H3.58464ZM12.2513 14.6768C12.0624 14.6768 11.9042 14.6128 11.7766 14.4848C11.6486 14.3572 11.5846 14.199 11.5846 14.0101V12.6768H10.2346C10.0457 12.6768 9.89019 12.6128 9.76797 12.4848C9.64575 12.3572 9.58464 12.199 9.58464 12.0101C9.58464 11.8212 9.64864 11.663 9.77664 11.5354C9.90419 11.4074 10.0624 11.3434 10.2513 11.3434H11.5846V9.99342C11.5846 9.80454 11.6486 9.64898 11.7766 9.52676C11.9042 9.40454 12.0624 9.34342 12.2513 9.34342C12.4402 9.34342 12.5984 9.4072 12.726 9.53476C12.854 9.66276 12.918 9.8212 12.918 10.0101V11.3434H14.268C14.4569 11.3434 14.6124 11.4074 14.7346 11.5354C14.8569 11.663 14.918 11.8212 14.918 12.0101C14.918 12.199 14.854 12.3572 14.726 12.4848C14.5984 12.6128 14.4402 12.6768 14.2513 12.6768H12.918V14.0268C12.918 14.2156 12.854 14.3712 12.726 14.4934C12.5984 14.6156 12.4402 14.6768 12.2513 14.6768ZM10.918 4.01009V6.67676H13.5846V4.01009H10.918ZM4.2513 4.01009V6.67676H6.91797V4.01009H4.2513ZM4.2513 10.6768V13.3434H6.91797V10.6768H4.2513Z" fill="#171717" fill-opacity="0.5"/>
</svg>
