<svg width="24" height="24" viewBox="0 0 24 24" fill="none" xmlns="http://www.w3.org/2000/svg">
<rect width="24" height="24" rx="12" fill="#F6F7F3"/>
<path d="M12.0008 20C8.00078 20 4.80078 16.8 4.80078 12.8C4.80078 9.9 6.60078 7.2 9.30078 6.1H9.50078C9.80078 6.1 10.1008 6.4 10.1008 6.7C10.1008 6.9 9.90078 7.2 9.70078 7.2C7.40078 8.2 6.00078 10.4 6.00078 12.8C6.00078 16.2 8.70078 18.9 12.1008 18.9C15.5008 18.9 18.2008 16.2 18.2008 12.8C18.2008 10.4 16.7008 8.2 14.5008 7.2C14.2008 7.1 14.0008 6.9 14.0008 6.6C14.0008 6.3 14.3008 6 14.6008 6H14.8008C17.5008 7.1 19.3008 9.7 19.3008 12.7C19.3008 16.8 16.0008 20 12.0008 20ZM12.0008 12.1C11.7008 12.1 11.4008 11.8 11.4008 11.5V4.6C11.5008 4.3 11.7008 4 12.0008 4C12.3008 4 12.6008 4.3 12.6008 4.6V11.5C12.6008 11.8 12.4008 12.1 12.0008 12.1Z" fill="#444444"/>
</svg>
