<svg width="24" height="25" viewBox="0 0 24 25" fill="none" xmlns="http://www.w3.org/2000/svg">
<g clip-path="url(#clip0_5431_210434)">
<rect y="0.737061" width="24" height="24" rx="12" fill="#F6F7F3"/>
<path d="M15.4934 15.8246C15.361 15.6681 15.2948 15.4907 15.2948 15.2923C15.2948 15.0939 15.361 14.9283 15.4934 14.7954L16.8295 13.4593H11.6475C11.4429 13.4593 11.2713 13.3899 11.1326 13.2513C10.9939 13.1126 10.9248 12.9412 10.9253 12.7371C10.9253 12.5324 10.9946 12.3608 11.1333 12.2221C11.272 12.0834 11.4434 12.0144 11.6475 12.0148H16.8295L15.4934 10.6787C15.3489 10.5343 15.2767 10.3626 15.2767 10.1638C15.2767 9.96493 15.3489 9.79352 15.4934 9.64956C15.6258 9.50512 15.7914 9.43289 15.9903 9.43289C16.1891 9.43289 16.3545 9.4991 16.4864 9.63151L19.0864 12.2315C19.1586 12.3037 19.2099 12.382 19.2403 12.4662C19.2706 12.5505 19.2855 12.6408 19.285 12.7371C19.285 12.8334 19.2701 12.9236 19.2403 13.0079C19.2104 13.0922 19.1591 13.1704 19.0864 13.2426L16.4864 15.8426C16.3299 15.9991 16.1583 16.0684 15.9715 16.0506C15.7847 16.0328 15.6253 15.9574 15.4934 15.8246ZM8.03643 19.2371C7.6392 19.2371 7.29904 19.0955 7.01593 18.8124C6.73281 18.5293 6.5915 18.1894 6.59198 17.7926V7.68151C6.59198 7.28428 6.73354 6.94412 7.01665 6.66101C7.29976 6.37789 7.63968 6.23658 8.03643 6.23706H12.3698C12.5744 6.23706 12.746 6.3064 12.8847 6.44506C13.0234 6.58373 13.0925 6.75514 13.092 6.95928C13.092 7.16391 13.0226 7.33556 12.884 7.47423C12.7453 7.61289 12.5739 7.68199 12.3698 7.68151H8.03643V17.7926H12.3698C12.5744 17.7926 12.746 17.8619 12.8847 18.0006C13.0234 18.1393 13.0925 18.3107 13.092 18.5148C13.092 18.7195 13.0226 18.8911 12.884 19.0298C12.7453 19.1684 12.5739 19.2375 12.3698 19.2371H8.03643Z" fill="#444444"/>
</g>
<defs>
<clipPath id="clip0_5431_210434">
<rect y="0.737061" width="24" height="24" rx="12" fill="white"/>
</clipPath>
</defs>
</svg>
