<svg width="20" height="20" viewBox="0 0 20 20" fill="none" xmlns="http://www.w3.org/2000/svg">
<path d="M3.68442 17.5C3.25021 17.5 2.87863 17.3455 2.56968 17.0366C2.26021 16.7271 2.10547 16.3553 2.10547 15.9211V7.23684C2.10547 6.80263 2.26021 6.43105 2.56968 6.12211C2.87863 5.81263 3.25021 5.65789 3.68442 5.65789H6.84231V4.07895C6.84231 3.64474 6.99705 3.27289 7.30652 2.96342C7.61547 2.65447 7.98705 2.5 8.42126 2.5H11.5792C12.0134 2.5 12.3852 2.65447 12.6947 2.96342C13.0036 3.27289 13.1581 3.64474 13.1581 4.07895V5.65789H16.316C16.7502 5.65789 17.122 5.81263 17.4315 6.12211C17.7405 6.43105 17.8949 6.80263 17.8949 7.23684V15.9211C17.8949 16.3553 17.7405 16.7271 17.4315 17.0366C17.122 17.3455 16.7502 17.5 16.316 17.5H3.68442ZM3.68442 15.9211H16.316V7.23684H3.68442V15.9211ZM8.42126 5.65789H11.5792V4.07895H8.42126V5.65789Z" fill="#121212" fill-opacity="0.6"/>
</svg>
