<svg width="17" height="17" viewBox="0 0 17 17" fill="none" xmlns="http://www.w3.org/2000/svg">
<path d="M3.16941 14.8633C2.82204 14.8633 2.52478 14.7397 2.27762 14.4925C2.03004 14.245 1.90625 13.9475 1.90625 13.6001V6.65275C1.90625 6.30539 2.03004 6.00812 2.27762 5.76097C2.52478 5.51339 2.82204 5.3896 3.16941 5.3896H5.69572V4.12644C5.69572 3.77907 5.81951 3.4816 6.06709 3.23402C6.31425 2.98686 6.61151 2.86328 6.95888 2.86328H9.4852C9.83257 2.86328 10.13 2.98686 10.3776 3.23402C10.6248 3.4816 10.7484 3.77907 10.7484 4.12644V5.3896H13.2747C13.622 5.3896 13.9195 5.51339 14.1671 5.76097C14.4142 6.00812 14.5378 6.30539 14.5378 6.65275V13.6001C14.5378 13.9475 14.4142 14.245 14.1671 14.4925C13.9195 14.7397 13.622 14.8633 13.2747 14.8633H3.16941ZM3.16941 13.6001H13.2747V6.65275H3.16941V13.6001ZM6.95888 5.3896H9.4852V4.12644H6.95888V5.3896Z" fill="#171717" fill-opacity="0.5"/>
</svg>
