<svg width="20" height="20" viewBox="0 0 20 20" fill="none" xmlns="http://www.w3.org/2000/svg">
<path fill-rule="evenodd" clip-rule="evenodd" d="M13.4102 7.78177C12.5219 7.78177 11.8018 8.05517 11.2846 8.59313C10.768 9.14072 10.5158 9.88983 10.5158 10.8232V10.9016C10.5158 11.8527 10.7563 12.6018 11.2641 13.1407C11.7722 13.6798 12.4735 13.9431 13.3612 13.9431C13.9072 13.9431 14.3793 13.8317 14.7829 13.6041L14.7841 13.6034C15.0474 13.4509 15.2692 13.2476 15.4459 13.0003C15.4472 12.9985 15.4496 12.9962 15.4552 12.9943C15.4616 12.9922 15.4702 12.9915 15.4792 12.9933C15.4882 12.9951 15.4932 12.9985 15.4949 13.0001L15.5611 13.5906C15.5748 13.7132 15.6785 13.8059 15.8019 13.8059H16.7876C16.9214 13.8059 17.0299 13.6974 17.0299 13.5636V6.29933C17.0299 6.16551 16.9214 6.05702 16.7876 6.05702H15.6285C15.4947 6.05702 15.3862 6.16551 15.3862 6.29933V8.55173C15.3846 8.55363 15.3796 8.55787 15.3702 8.56082C15.361 8.56375 15.3518 8.56402 15.3449 8.5626C15.3387 8.56131 15.3346 8.55755 15.3346 8.55755C15.1602 8.36334 14.9547 8.20324 14.7211 8.07997C14.3483 7.88318 13.9069 7.78177 13.4102 7.78177ZM15.5564 10.8918C15.5564 11.4406 15.3996 11.8718 15.0958 12.1658C14.7909 12.4611 14.3749 12.6083 13.8388 12.6162C14.3758 12.6086 14.7924 12.4614 15.0975 12.1658C15.4013 11.8718 15.5581 11.4406 15.5581 10.8918V10.833C15.5581 10.294 15.4013 9.86283 15.0975 9.54924C14.7839 9.23565 14.3626 9.06906 13.8334 9.06906C13.8175 9.06906 13.8018 9.06918 13.7862 9.06943C13.8012 9.0692 13.8164 9.06909 13.8316 9.06909C14.3608 9.06909 14.7822 9.23568 15.0958 9.54927C15.3996 9.86286 15.5564 10.2941 15.5564 10.833V10.8918ZM12.2378 10.833C12.2378 10.2831 12.3704 9.8779 12.6342 9.60484C12.8996 9.33986 13.2865 9.19025 13.8316 9.19025C14.333 9.19025 14.7218 9.34698 15.0094 9.63428C15.2864 9.92055 15.4352 10.3188 15.4352 10.833V10.8918C15.4352 11.4178 15.2854 11.8137 15.0115 12.0788C14.7267 12.3547 14.3293 12.4954 13.7924 12.4954C13.2623 12.4954 12.8783 12.363 12.6252 12.1012C12.3703 11.8375 12.2378 11.4514 12.2378 10.9016V10.833ZM10.4879 13.468L7.59323 6.72315C7.55501 6.63412 7.46744 6.5764 7.37055 6.5764H6.04131C5.9438 6.5764 5.85578 6.63486 5.81796 6.72474L2.98001 13.4696C2.91281 13.6293 3.03008 13.8059 3.20336 13.8059H4.43768C4.53734 13.8059 4.62684 13.7449 4.66325 13.6521L5.21048 12.2576H8.25121L8.82643 13.6558C8.86379 13.7466 8.9523 13.8059 9.05052 13.8059H10.2653C10.4393 13.8059 10.5566 13.6279 10.4879 13.468ZM5.77686 10.8295L6.70709 8.49154L7.66203 10.8295H5.77686ZM13.4242 13.8214C13.4033 13.8218 13.3823 13.8219 13.3612 13.8219C12.4989 13.8219 11.8325 13.5672 11.3523 13.0576C10.8721 12.548 10.6369 11.8326 10.6369 10.9016V10.8232C10.6369 9.91186 10.8819 9.19648 11.3719 8.6771C11.8488 8.18111 12.5114 7.91721 13.3416 7.90349C12.5122 7.91756 11.8502 8.18143 11.3737 8.67707C10.8837 9.19646 10.6387 9.91183 10.6387 10.8232V10.9016C10.6387 11.8326 10.8739 12.548 11.3541 13.0575C11.8342 13.5671 12.5006 13.8219 13.363 13.8219C13.3835 13.8219 13.4039 13.8218 13.4242 13.8214ZM15.4669 12.8712C15.5375 12.8696 15.6087 12.9114 15.617 12.986L15.6833 13.5771C15.6901 13.6384 15.742 13.6847 15.8037 13.6847H16.7893L16.7876 13.6847H15.8019C15.7402 13.6847 15.6884 13.6384 15.6815 13.5771L15.6153 12.9861C15.607 12.9121 15.5369 12.8704 15.4669 12.8712ZM15.6275 6.17818C15.561 6.17873 15.5074 6.23276 15.5074 6.29933V8.55234C15.5074 8.63222 15.4321 8.68324 15.3566 8.68457C15.4327 8.68402 15.5091 8.63281 15.5091 8.55231V6.2993C15.5091 6.23332 15.5619 6.17966 15.6275 6.17818ZM6.04026 6.69757C5.99263 6.69867 5.94995 6.72763 5.9314 6.7717L3.09345 13.5166C3.05985 13.5964 3.11849 13.6847 3.20512 13.6847H4.43945L4.44089 13.6847L4.43768 13.6847H3.20336C3.11672 13.6847 3.05808 13.5965 3.09168 13.5166L5.92964 6.77173C5.94841 6.72711 5.99192 6.69798 6.04026 6.69757ZM5.20903 12.1364L5.21048 12.1364H8.25121C8.30032 12.1364 8.34457 12.166 8.36325 12.2115L8.93847 13.6097C8.95716 13.6551 9.00141 13.6847 9.05052 13.6847H10.2653L10.2682 13.6847L9.05228 13.6847C9.00317 13.6847 8.95892 13.6551 8.94024 13.6097L8.36502 12.2114C8.34633 12.166 8.30208 12.1364 8.25297 12.1364H5.21224L5.20903 12.1364ZM7.66492 10.9506C7.75039 10.9498 7.80836 10.863 7.77595 10.7836L6.82102 8.44569C6.80004 8.39434 6.75269 8.36928 6.70591 8.37038C6.75211 8.36994 6.79854 8.39501 6.81925 8.44572L7.77419 10.7837C7.80637 10.8625 7.74942 10.9487 7.66492 10.9506Z" fill="#121212" fill-opacity="0.6"/>
<path fill-rule="evenodd" clip-rule="evenodd" d="M18.6667 3.33333H1.33333L1.33333 16.6667H18.6667V3.33333ZM1.33333 2C0.596954 2 0 2.59695 0 3.33333V16.6667C0 17.403 0.596954 18 1.33333 18H18.6667C19.403 18 20 17.403 20 16.6667V3.33333C20 2.59695 19.403 2 18.6667 2H1.33333Z" fill="#121212" fill-opacity="0.6"/>
</svg>
