<svg width="17" height="17" viewBox="0 0 17 17" fill="none" xmlns="http://www.w3.org/2000/svg">
<g clip-path="url(#clip0_2059_47572)">
<path fill-rule="evenodd" clip-rule="evenodd" d="M10.7803 7.19961C10.1141 7.19961 9.57402 7.40466 9.18607 7.80813C8.79862 8.21882 8.60947 8.78065 8.60947 9.48071V9.53951C8.60947 10.2528 8.7899 10.8146 9.17074 11.2188C9.55179 11.6232 10.0778 11.8206 10.7436 11.8206C11.1531 11.8206 11.5071 11.7371 11.8098 11.5663L11.8107 11.5658C12.0082 11.4515 12.1746 11.299 12.3071 11.1135C12.3081 11.1122 12.3098 11.1104 12.3141 11.109C12.3188 11.1075 12.3253 11.1069 12.3321 11.1083C12.3388 11.1096 12.3425 11.1122 12.3438 11.1133L12.3935 11.5562C12.4038 11.6482 12.4815 11.7177 12.5741 11.7177H13.3133C13.4137 11.7177 13.4951 11.6363 13.4951 11.536V6.08778C13.4951 5.98741 13.4137 5.90605 13.3133 5.90605H12.444C12.3437 5.90605 12.2623 5.98741 12.2623 6.08778V7.77708C12.2611 7.7785 12.2573 7.78168 12.2503 7.7839C12.2434 7.78609 12.2365 7.7863 12.2314 7.78523C12.2267 7.78426 12.2247 7.78261 12.2236 7.78144C12.0928 7.63578 11.9387 7.51571 11.7635 7.42326C11.4839 7.27567 11.1528 7.19961 10.7803 7.19961ZM12.3899 9.53216C12.3899 9.94374 12.2723 10.2671 12.0445 10.4876C11.8158 10.7091 11.5039 10.8195 11.1018 10.8255C11.5045 10.8197 11.8169 10.7093 12.0458 10.4876C12.2737 10.2671 12.3912 9.94372 12.3912 9.53213V9.48803C12.3912 9.0838 12.2737 8.76041 12.0458 8.52521C11.8106 8.29002 11.4946 8.16508 11.0977 8.16508C11.0858 8.16508 11.074 8.16517 11.0623 8.16535C11.0736 8.16518 11.0849 8.1651 11.0964 8.1651C11.4933 8.1651 11.8093 8.29004 12.0445 8.52524C12.2723 8.76043 12.3899 9.08382 12.3899 9.48806V9.53216ZM9.90102 9.48806C9.90102 9.0756 10.0005 8.77171 10.1983 8.56691C10.3974 8.36818 10.6875 8.25597 11.0964 8.25597C11.4724 8.25597 11.764 8.37352 11.9797 8.58899C12.1874 8.80369 12.2991 9.10236 12.2991 9.48806V9.53216C12.2991 9.92661 12.1867 10.2236 11.9813 10.4224C11.7677 10.6293 11.4697 10.7348 11.067 10.7348C10.6694 10.7348 10.3814 10.6356 10.1915 10.4392C10.0004 10.2414 9.90102 9.9518 9.90102 9.53951V9.48806ZM8.58861 11.4643L6.41757 6.40565C6.38892 6.33887 6.32324 6.29558 6.25057 6.29558H5.25364C5.1805 6.29558 5.11449 6.33943 5.08613 6.40684L2.95766 11.4655C2.90726 11.5853 2.99522 11.7177 3.12517 11.7177H4.05092C4.12566 11.7177 4.19279 11.6719 4.22009 11.6024L4.63051 10.5564H6.91106L7.34248 11.6051C7.3705 11.6732 7.43688 11.7177 7.51054 11.7177H8.4216C8.55212 11.7177 8.64008 11.5842 8.58861 11.4643ZM5.0553 9.48539L5.75298 7.73193L6.46917 9.48539H5.0553ZM10.7908 11.7294C10.7751 11.7296 10.7594 11.7297 10.7436 11.7297C10.0968 11.7297 9.59701 11.5386 9.23687 11.1565C8.87673 10.7743 8.70034 10.2377 8.70034 9.53951V9.48071C8.70034 8.79718 8.88408 8.26064 9.25157 7.87111C9.60926 7.49911 10.1062 7.30119 10.7289 7.2909C10.1068 7.30145 9.61033 7.49935 9.25289 7.87108C8.88541 8.26062 8.70166 8.79716 8.70166 9.48069V9.53948C8.70166 10.2377 8.87806 10.7742 9.2382 11.1564C9.59833 11.5386 10.0981 11.7297 10.7449 11.7297C10.7603 11.7297 10.7756 11.7296 10.7908 11.7294ZM12.3229 11.0166C12.3757 11.0155 12.4291 11.0468 12.4354 11.1028L12.4851 11.5461C12.4902 11.5921 12.5291 11.6268 12.5754 11.6268H13.3146C13.3145 11.6268 13.3148 11.6268 13.3146 11.6268C13.314 11.6268 13.3139 11.6268 13.3133 11.6268H12.5741C12.5278 11.6268 12.4889 11.5921 12.4838 11.5461L12.4341 11.1028C12.4279 11.0473 12.3753 11.0161 12.3229 11.0166ZM12.4433 5.99692C12.3934 5.99733 12.3532 6.03785 12.3532 6.08778V7.77753C12.3532 7.83745 12.2968 7.87571 12.2401 7.87671C12.2972 7.87629 12.3545 7.83789 12.3545 7.77751V6.08776C12.3545 6.03827 12.3941 5.99803 12.4433 5.99692ZM5.25285 6.38646C5.21713 6.38728 5.18512 6.409 5.17121 6.44206L3.04274 11.5007C3.01754 11.5606 3.06152 11.6268 3.1265 11.6268H4.05224C4.0526 11.6268 4.05296 11.6268 4.05333 11.6268C4.05252 11.6268 4.05172 11.6268 4.05092 11.6268H3.12517C3.0602 11.6268 3.01622 11.5606 3.04142 11.5007L5.16988 6.44208C5.18396 6.40861 5.2166 6.38677 5.25285 6.38646ZM4.62943 10.4656C4.62979 10.4656 4.63015 10.4656 4.63051 10.4656H6.91106C6.94789 10.4656 6.98108 10.4878 6.99509 10.5219L7.42651 11.5705C7.44052 11.6046 7.47371 11.6268 7.51054 11.6268H8.4216C8.42234 11.6268 8.42306 11.6268 8.42379 11.6268C8.4235 11.6268 8.42408 11.6268 8.42379 11.6268L7.51187 11.6268C7.47504 11.6268 7.44185 11.6046 7.42783 11.5705L6.99642 10.5219C6.98241 10.4878 6.94922 10.4656 6.91238 10.4656H4.63184C4.63103 10.4656 4.63023 10.4656 4.62943 10.4656ZM6.47134 9.57623C6.53545 9.57566 6.57893 9.51052 6.55462 9.451L5.83842 7.69755C5.82269 7.65904 5.78717 7.64024 5.75209 7.64107C5.78674 7.64074 5.82156 7.65954 5.8371 7.69757L6.5533 9.45103C6.57744 9.51013 6.53472 9.57478 6.47134 9.57623Z" fill="#171717" fill-opacity="0.5"/>
<path fill-rule="evenodd" clip-rule="evenodd" d="M14.7227 3.86328H1.72266L1.72266 13.8633H14.7227V3.86328ZM1.72266 2.86328C1.17037 2.86328 0.722656 3.311 0.722656 3.86328V13.8633C0.722656 14.4156 1.17037 14.8633 1.72266 14.8633H14.7227C15.2749 14.8633 15.7227 14.4156 15.7227 13.8633V3.86328C15.7227 3.311 15.2749 2.86328 14.7227 2.86328H1.72266Z" fill="#171717" fill-opacity="0.5"/>
</g>
<defs>
<clipPath id="clip0_2059_47572">
<rect width="16" height="16" fill="white" transform="translate(0.222656 0.863281)"/>
</clipPath>
</defs>
</svg>
