<svg width="17" height="17" viewBox="0 0 17 17" fill="none" xmlns="http://www.w3.org/2000/svg">
<path d="M8.22266 2.36328C7.36906 2.36328 6.52383 2.53141 5.73521 2.85806C4.9466 3.18472 4.23004 3.66351 3.62646 4.26709C2.40748 5.48607 1.72266 7.13937 1.72266 8.86328C1.72266 10.5872 2.40748 12.2405 3.62646 13.4595C4.23004 14.0631 4.9466 14.5418 5.73521 14.8685C6.52383 15.1952 7.36906 15.3633 8.22266 15.3633C9.94656 15.3633 11.5999 14.6785 12.8188 13.4595C14.0378 12.2405 14.7227 10.5872 14.7227 8.86328C14.7227 8.00969 14.5545 7.16445 14.2279 6.37584C13.9012 5.58722 13.4224 4.87067 12.8188 4.26709C12.2153 3.66351 11.4987 3.18472 10.7101 2.85806C9.92148 2.53141 9.07625 2.36328 8.22266 2.36328ZM5.01816 12.9453C5.29766 12.3603 7.00066 11.7883 8.22266 11.7883C9.44466 11.7883 11.1477 12.3603 11.4272 12.9453C10.5168 13.6707 9.38672 14.0649 8.22266 14.0633C7.01366 14.0633 5.90216 13.6473 5.01816 12.9453ZM12.3567 12.0028C11.4272 10.8718 9.17166 10.4883 8.22266 10.4883C7.27366 10.4883 5.01816 10.8718 4.08866 12.0028C3.39718 11.1023 3.02244 9.99864 3.02266 8.86328C3.02266 5.99678 5.35616 3.66328 8.22266 3.66328C11.0892 3.66328 13.4227 5.99678 13.4227 8.86328C13.4227 10.0463 13.0197 11.1383 12.3567 12.0028ZM8.22266 4.96328C6.96166 4.96328 5.94766 5.97728 5.94766 7.23828C5.94766 8.49928 6.96166 9.51328 8.22266 9.51328C9.48366 9.51328 10.4977 8.49928 10.4977 7.23828C10.4977 5.97728 9.48366 4.96328 8.22266 4.96328ZM8.22266 8.21328C7.96407 8.21328 7.71607 8.11056 7.53323 7.92771C7.35038 7.74486 7.24766 7.49687 7.24766 7.23828C7.24766 6.97969 7.35038 6.7317 7.53323 6.54885C7.71607 6.366 7.96407 6.26328 8.22266 6.26328C8.48124 6.26328 8.72924 6.366 8.91209 6.54885C9.09493 6.7317 9.19766 6.97969 9.19766 7.23828C9.19766 7.49687 9.09493 7.74486 8.91209 7.92771C8.72924 8.11056 8.48124 8.21328 8.22266 8.21328Z" fill="#171717" fill-opacity="0.5"/>
</svg>
