<svg width="20" height="20" viewBox="0 0 20 20" fill="none" xmlns="http://www.w3.org/2000/svg">
<g clip-path="url(#clip0_2609_156850)">
<path d="M8.65145 0.557806C8.98905 0.220636 9.44076 0.0222399 9.91745 0.00175941C10.3941 -0.0187211 10.8612 0.140202 11.2265 0.447173L11.3486 0.55876L13.1606 2.3699H15.7223C16.2033 2.36999 16.6666 2.55185 17.0193 2.87904C17.3719 3.20623 17.5879 3.6546 17.624 4.13431L17.6297 4.27737V6.8391L19.4418 8.6512C19.7792 8.98886 19.9778 9.44077 19.9982 9.9177C20.0187 10.3946 19.8596 10.8619 19.5524 11.2272L19.4408 11.3484L17.6288 13.1605V15.7222C17.6289 16.2034 17.4472 16.6669 17.12 17.0198C16.7927 17.3727 16.3443 17.5888 15.8644 17.6249L15.7223 17.6297H13.1616L11.3495 19.4418C11.0119 19.7792 10.56 19.9778 10.083 19.9982C9.60612 20.0187 9.13886 19.8596 8.77352 19.5524L8.6524 19.4418L6.84035 17.6297H4.27771C3.79649 17.6298 3.333 17.4481 2.98014 17.1208C2.62728 16.7936 2.41115 16.3451 2.37506 15.8653L2.37029 15.7222V13.1605L0.55823 11.3484C0.2208 11.0107 0.0222402 10.5588 0.00175807 10.0819C-0.018724 9.60494 0.140361 9.13767 0.447599 8.77233L0.55823 8.6512L2.37029 6.8391V4.27737C2.37037 3.7963 2.55223 3.33304 2.87941 2.98037C3.2066 2.62771 3.65496 2.41171 4.13466 2.37563L4.27771 2.3699H6.83939L8.65145 0.557806ZM10 1.90829L8.18794 3.72039C7.87115 4.0367 7.45319 4.2315 7.00725 4.2707L6.83939 4.27737H4.27771V6.8391C4.27783 7.28726 4.12015 7.72114 3.83233 8.06465L3.71884 8.18864L1.90678 10.0007L3.71884 11.8119C4.03549 12.1285 4.23063 12.5465 4.27009 12.9926L4.27771 13.1605V15.7222H6.83939C7.28754 15.7221 7.72141 15.8798 8.06491 16.1676L8.1889 16.2811L10 18.0932L11.8121 16.2811C12.1287 15.9644 12.5467 15.7693 12.9928 15.7298L13.1606 15.7222H15.7223V13.1605C15.7222 12.7123 15.8798 12.2784 16.1677 11.9349L16.2812 11.8109L18.0932 9.99978L16.2812 8.18769C15.9645 7.87102 15.7694 7.45304 15.7299 7.00696L15.7223 6.8391V4.27737H13.1606C12.7125 4.27749 12.2786 4.1198 11.9351 3.83198L11.8111 3.71848L9.99905 1.90639L10 1.90829ZM12.9374 7.12332C13.1091 6.95227 13.3394 6.85296 13.5816 6.84556C13.8238 6.83817 14.0597 6.92324 14.2414 7.0835C14.4232 7.24376 14.5371 7.46719 14.5601 7.70841C14.5831 7.94963 14.5134 8.19055 14.3651 8.38225L14.285 8.4719L9.63091 13.1261C9.4492 13.3081 9.207 13.4169 8.95031 13.4321C8.69361 13.4472 8.4403 13.3675 8.23849 13.2081L8.14693 13.1271L5.8542 10.8343C5.68134 10.6631 5.58046 10.4322 5.57221 10.1891C5.56396 9.94587 5.64896 9.70873 5.80982 9.52618C5.97069 9.34362 6.19524 9.22945 6.43752 9.20703C6.6798 9.18462 6.92149 9.25566 7.11311 9.4056L7.20276 9.48476L8.88892 11.171L12.9374 7.12332Z" fill="#121212" fill-opacity="0.6"/>
</g>
<defs>
<clipPath id="clip0_2609_156850">
<rect width="20" height="20" fill="white"/>
</clipPath>
</defs>
</svg>
