<svg width="20" height="20" viewBox="0 0 20 20" fill="none" xmlns="http://www.w3.org/2000/svg">
<g clip-path="url(#clip0_2609_156838)">
<path fill-rule="evenodd" clip-rule="evenodd" d="M17.2 2C17.6774 2 18.1352 2.1873 18.4728 2.5207C18.8104 2.8541 19 3.30628 19 3.77778V16.2222C19 16.6937 18.8104 17.1459 18.4728 17.4793C18.1352 17.8127 17.6774 18 17.2 18H2.8C2.32261 18 1.86477 17.8127 1.52721 17.4793C1.18964 17.1459 1 16.6937 1 16.2222V3.77778C1 3.30628 1.18964 2.8541 1.52721 2.5207C1.86477 2.1873 2.32261 2 2.8 2H17.2ZM17.2 3.77778H2.8V16.2222H17.2V3.77778ZM14.5 12.6667C14.7294 12.6669 14.95 12.7537 15.1168 12.9092C15.2836 13.0647 15.384 13.2773 15.3975 13.5035C15.4109 13.7296 15.3364 13.9523 15.1892 14.1261C15.0419 14.2998 14.8331 14.4115 14.6053 14.4382L14.5 14.4444H5.5C5.27061 14.4442 5.04997 14.3574 4.88317 14.2019C4.71637 14.0464 4.61599 13.8338 4.60255 13.6076C4.5891 13.3815 4.66361 13.1588 4.81084 12.985C4.95807 12.8113 5.16691 12.6996 5.3947 12.6729L5.5 12.6667H14.5ZM8.2 5.55556C8.67739 5.55556 9.13523 5.74286 9.47279 6.07625C9.81036 6.40965 10 6.86184 10 7.33333V9.11111C10 9.58261 9.81036 10.0348 9.47279 10.3682C9.13523 10.7016 8.67739 10.8889 8.2 10.8889H6.4C5.92261 10.8889 5.46477 10.7016 5.12721 10.3682C4.78964 10.0348 4.6 9.58261 4.6 9.11111V7.33333C4.6 6.86184 4.78964 6.40965 5.12721 6.07625C5.46477 5.74286 5.92261 5.55556 6.4 5.55556H8.2ZM14.5 9.11111C14.7387 9.11111 14.9676 9.20476 15.1364 9.37146C15.3052 9.53816 15.4 9.76425 15.4 10C15.4 10.2357 15.3052 10.4618 15.1364 10.6285C14.9676 10.7952 14.7387 10.8889 14.5 10.8889H11.8C11.5613 10.8889 11.3324 10.7952 11.1636 10.6285C10.9948 10.4618 10.9 10.2357 10.9 10C10.9 9.76425 10.9948 9.53816 11.1636 9.37146C11.3324 9.20476 11.5613 9.11111 11.8 9.11111H14.5ZM8.2 7.33333H6.4V9.11111H8.2V7.33333ZM14.5 5.55556C14.7294 5.55581 14.95 5.64256 15.1168 5.79809C15.2836 5.95362 15.384 6.16618 15.3975 6.39235C15.4109 6.61852 15.3364 6.84123 15.1892 7.01496C15.0419 7.1887 14.8331 7.30035 14.6053 7.32711L14.5 7.33333H11.8C11.5706 7.33308 11.35 7.24633 11.1832 7.0908C11.0164 6.93527 10.916 6.72271 10.9025 6.49654C10.8891 6.27037 10.9636 6.04766 11.1108 5.87393C11.2581 5.70019 11.4669 5.58854 11.6947 5.56178L11.8 5.55556H14.5Z" fill="#121212" fill-opacity="0.6"/>
</g>
<defs>
<clipPath id="clip0_2609_156838">
<rect width="20" height="20" fill="white"/>
</clipPath>
</defs>
</svg>
