<svg width="17" height="17" viewBox="0 0 17 17" fill="none" xmlns="http://www.w3.org/2000/svg">
<g clip-path="url(#clip0_2059_47550)">
<path fill-rule="evenodd" clip-rule="evenodd" d="M13.5547 2.86328C13.9083 2.86328 14.2474 3.00376 14.4975 3.25381C14.7475 3.50385 14.888 3.84299 14.888 4.19661V13.5299C14.888 13.8836 14.7475 14.2227 14.4975 14.4728C14.2474 14.7228 13.9083 14.8633 13.5547 14.8633H2.88802C2.5344 14.8633 2.19526 14.7228 1.94521 14.4728C1.69516 14.2227 1.55469 13.8836 1.55469 13.5299V4.19661C1.55469 3.84299 1.69516 3.50385 1.94521 3.25381C2.19526 3.00376 2.5344 2.86328 2.88802 2.86328H13.5547ZM13.5547 4.19661H2.88802V13.5299H13.5547V4.19661ZM11.5547 10.8633C11.7246 10.8635 11.888 10.9285 12.0116 11.0452C12.1352 11.1618 12.2095 11.3212 12.2195 11.4909C12.2294 11.6605 12.1742 11.8275 12.0652 11.9578C11.9561 12.0881 11.8014 12.1719 11.6327 12.1919L11.5547 12.1966H4.88802C4.7181 12.1964 4.55467 12.1314 4.43111 12.0147C4.30755 11.8981 4.2332 11.7386 4.22324 11.569C4.21328 11.3994 4.26847 11.2324 4.37753 11.1021C4.48659 10.9718 4.64129 10.888 4.81002 10.8679L4.88802 10.8633H11.5547ZM6.88802 5.52995C7.24164 5.52995 7.58078 5.67042 7.83083 5.92047C8.08088 6.17052 8.22135 6.50966 8.22135 6.86328V8.19661C8.22135 8.55024 8.08088 8.88938 7.83083 9.13942C7.58078 9.38947 7.24164 9.52995 6.88802 9.52995H5.55469C5.20107 9.52995 4.86193 9.38947 4.61188 9.13942C4.36183 8.88938 4.22135 8.55024 4.22135 8.19661V6.86328C4.22135 6.50966 4.36183 6.17052 4.61188 5.92047C4.86193 5.67042 5.20107 5.52995 5.55469 5.52995H6.88802ZM11.5547 8.19661C11.7315 8.19661 11.9011 8.26685 12.0261 8.39188C12.1511 8.5169 12.2214 8.68647 12.2214 8.86328C12.2214 9.04009 12.1511 9.20966 12.0261 9.33469C11.9011 9.45971 11.7315 9.52995 11.5547 9.52995H9.55469C9.37788 9.52995 9.20831 9.45971 9.08328 9.33469C8.95826 9.20966 8.88802 9.04009 8.88802 8.86328C8.88802 8.68647 8.95826 8.5169 9.08328 8.39188C9.20831 8.26685 9.37788 8.19661 9.55469 8.19661H11.5547ZM6.88802 6.86328H5.55469V8.19661H6.88802V6.86328ZM11.5547 5.52995C11.7246 5.53014 11.888 5.5952 12.0116 5.71185C12.1352 5.82849 12.2095 5.98792 12.2195 6.15754C12.2294 6.32717 12.1742 6.4942 12.0652 6.6245C11.9561 6.75481 11.8014 6.83855 11.6327 6.85861L11.5547 6.86328H9.55469C9.38477 6.86309 9.22133 6.79803 9.09777 6.68138C8.97422 6.56474 8.89986 6.40531 8.88991 6.23568C8.87995 6.06606 8.93514 5.89903 9.0442 5.76873C9.15326 5.63842 9.30796 5.55468 9.47669 5.53461L9.55469 5.52995H11.5547Z" fill="#171717" fill-opacity="0.5"/>
</g>
<defs>
<clipPath id="clip0_2059_47550">
<rect width="16" height="16" fill="white" transform="translate(0.222656 0.863281)"/>
</clipPath>
</defs>
</svg>
