<svg width="20" height="20" viewBox="0 0 20 20" fill="none" xmlns="http://www.w3.org/2000/svg">
<g clip-path="url(#clip0_2609_156870)">
<path fill-rule="evenodd" clip-rule="evenodd" d="M9.66715 0.154863C9.8783 0.0492904 10.1268 0.0492904 10.338 0.154863L14.8901 2.43093C14.9158 2.44202 14.9409 2.45455 14.9652 2.46848L19.5122 4.742C19.7663 4.86904 19.9268 5.12874 19.9268 5.41282V14.5871C19.9268 14.8712 19.7663 15.1309 19.5122 15.2579L10.338 19.8451C10.2362 19.896 10.1256 19.9223 10.0148 19.9241L10 19.9243C9.86359 19.9243 9.73568 19.8879 9.62547 19.8242L0.492879 15.2579C0.238791 15.1309 0.0782893 14.8712 0.0782893 14.5871V5.42786C0.0758201 5.3101 0.101134 5.19003 0.157469 5.07736C0.234704 4.92289 0.358052 4.80673 0.502487 4.7372L9.66715 0.154863ZM12.9139 3.11989L10.0026 1.66421L2.50539 5.4128L5.41675 6.86848L12.9139 3.11989ZM7.0938 7.70701L14.591 3.95842L17.4984 5.41213L10.0012 9.16072L7.0938 7.70701ZM10.75 17.962L18.4268 14.1236V6.62496L10.75 10.4634V17.962ZM9.25 10.4622V17.9594L1.57829 14.1236V6.6263L9.25 10.4622Z" fill="#121212" fill-opacity="0.6"/>
</g>
<defs>
<clipPath id="clip0_2609_156870">
<rect width="20" height="20" fill="white"/>
</clipPath>
</defs>
</svg>
