<svg width="17" height="17" viewBox="0 0 17 17" fill="none" xmlns="http://www.w3.org/2000/svg">
<path fill-rule="evenodd" clip-rule="evenodd" d="M6.35293 3.42566C6.39287 3.38572 6.44704 3.36328 6.50352 3.36328H9.7134C9.76988 3.36328 9.82405 3.38572 9.86399 3.42566C9.90392 3.46559 9.92636 3.51976 9.92636 3.57624C9.92636 3.97325 9.76865 4.354 9.48792 4.63472C9.2072 4.91545 8.82645 5.07316 8.42945 5.07316H8.10846H7.78747C7.39047 5.07316 7.00972 4.91545 6.72899 4.63472C6.44827 4.354 6.29056 3.97325 6.29056 3.57624C6.29056 3.51976 6.31299 3.46559 6.35293 3.42566ZM10.6106 5.63149C11.1338 5.07629 11.4264 4.34135 11.4264 3.57624C11.4264 3.12194 11.2459 2.68624 10.9246 2.365C10.6034 2.04375 10.1677 1.86328 9.7134 1.86328H6.50352C6.04921 1.86328 5.61352 2.04375 5.29227 2.365C4.97103 2.68624 4.79056 3.12194 4.79056 3.57624C4.79056 4.34135 5.08313 5.07629 5.60631 5.63149C4.9955 5.91835 4.43287 6.31077 3.94657 6.79707C2.84277 7.90087 2.22266 9.39795 2.22266 10.959V11.6009C2.22266 12.4809 2.57222 13.3248 3.19445 13.947C3.81667 14.5693 4.6606 14.9188 5.54056 14.9188H10.6764C11.5563 14.9188 12.4002 14.5693 13.0225 13.947C13.6447 13.3248 13.9943 12.4809 13.9943 11.6009V10.959C13.9943 9.39795 13.3742 7.90087 12.2704 6.79707C11.784 6.31077 11.2214 5.91836 10.6106 5.63149ZM8.10846 6.57316C6.94527 6.57316 5.82973 7.03523 5.00723 7.85773C4.18473 8.68023 3.72266 9.79577 3.72266 10.959V11.6009C3.72266 12.0831 3.91418 12.5455 4.25511 12.8864C4.59603 13.2273 5.05842 13.4188 5.54056 13.4188H10.6764C11.1585 13.4188 11.6209 13.2273 11.9618 12.8864C12.3027 12.5455 12.4943 12.0831 12.4943 11.6009V10.959C12.4943 9.79577 12.0322 8.68023 11.2097 7.85773C10.3872 7.03523 9.27165 6.57316 8.10846 6.57316Z" fill="#171717" fill-opacity="0.5"/>
</svg>
