<svg width="20" height="20" viewBox="0 0 20 20" fill="none" xmlns="http://www.w3.org/2000/svg">
<path d="M17.1054 4.386C15.2545 3.4795 12.7973 3 10 3C7.20268 3 4.74554 3.4795 2.89464 4.386C1.04375 5.2925 0 6.56825 0 7.9V12.1C0 13.4318 1.05536 14.7119 2.89464 15.614C4.73393 16.5161 7.20268 17 10 17C12.7973 17 15.2545 16.5205 17.1054 15.614C18.9563 14.7075 20 13.4318 20 12.1V7.9C20 6.56825 18.9446 5.28813 17.1054 4.386ZM10 4.4C15.5929 4.4 18.5714 6.43262 18.5714 7.9C18.5714 9.36737 15.5929 11.4 10 11.4C4.40714 11.4 1.42857 9.36737 1.42857 7.9C1.42857 6.43262 4.40714 4.4 10 4.4ZM9.28571 12.7878V15.5877C7.58929 15.5335 6.16071 15.2885 5 14.9324V12.1919C6.39923 12.5572 7.83801 12.7573 9.28571 12.7878ZM10.7143 12.7878C12.162 12.7573 13.6008 12.5572 15 12.1919V14.9315C13.8393 15.2876 12.4107 15.5326 10.7143 15.5869V12.7878ZM1.42857 12.1V10.4839C1.87808 10.8495 2.3702 11.1618 2.89464 11.414C3.11161 11.5199 3.34107 11.6196 3.57143 11.7141V14.375C2.15804 13.689 1.42857 12.8254 1.42857 12.1ZM16.4286 14.375V11.7141C16.6616 11.6196 16.8884 11.5199 17.1054 11.414C17.6298 11.1618 18.1219 10.8495 18.5714 10.4839V12.1C18.5714 12.8254 17.842 13.689 16.4286 14.375Z" fill="#121212" fill-opacity="0.6"/>
</svg>
