<svg width="17" height="17" viewBox="0 0 17 17" fill="none" xmlns="http://www.w3.org/2000/svg">
<path d="M4.63095 8.28061C4.62934 8.26848 4.64583 8.26327 4.65147 8.27412L4.67553 8.3204C4.67602 8.32133 4.67658 8.32223 4.6772 8.32307L6.13331 10.2914C6.15217 10.3169 6.182 10.332 6.2137 10.332H6.62762C6.68285 10.332 6.72762 10.2872 6.72762 10.232V7.49498C6.72762 7.43975 6.68285 7.39498 6.62762 7.39498H6.25505C6.19982 7.39498 6.15505 7.43975 6.15505 7.49498V9.40515C6.15675 9.42301 6.13246 9.42998 6.12443 9.41393L6.11059 9.38624C6.11002 9.38512 6.10937 9.38404 6.10862 9.38303L4.67329 7.43565C4.65444 7.41008 4.62456 7.39498 4.59279 7.39498H4.15427C4.09904 7.39498 4.05427 7.43975 4.05427 7.49498V10.232C4.05427 10.2872 4.09904 10.332 4.15427 10.332H4.53095C4.58618 10.332 4.63095 10.2872 4.63095 10.232V8.28061Z" fill="#171717" fill-opacity="0.5"/>
<path d="M9.51187 8.78017C9.51187 8.72494 9.4671 8.68017 9.41187 8.68017H8.01774C7.96252 8.68017 7.91774 8.6354 7.91774 8.58017V8.02636C7.91774 7.97113 7.96252 7.92636 8.01774 7.92636H9.48602C9.54124 7.92636 9.58602 7.88159 9.58602 7.82636V7.49498C9.58602 7.43975 9.54124 7.39498 9.48602 7.39498H7.4287C7.37347 7.39498 7.3287 7.43975 7.3287 7.49498V10.232C7.3287 10.2872 7.37347 10.332 7.4287 10.332H7.81774C7.87297 10.332 7.91774 10.2872 7.91774 10.232V9.31978C7.91774 9.26455 7.96252 9.21978 8.01774 9.21978H9.41187C9.4671 9.21978 9.51187 9.17501 9.51187 9.11978V8.78017Z" fill="#171717" fill-opacity="0.5"/>
<path d="M12.3865 7.49498C12.3865 7.43975 12.3417 7.39498 12.2865 7.39498H10.0232C9.96795 7.39498 9.92318 7.43975 9.92318 7.49498V7.81812C9.92318 7.87335 9.96795 7.91812 10.0232 7.91812H10.7294C10.7846 7.91812 10.8294 7.96289 10.8294 8.01812V10.232C10.8294 10.2872 10.8742 10.332 10.9294 10.332H11.339C11.3943 10.332 11.439 10.2872 11.439 10.232V8.01812C11.439 7.96289 11.4838 7.91812 11.539 7.91812H12.2865C12.3417 7.91812 12.3865 7.87335 12.3865 7.81812V7.49498Z" fill="#171717" fill-opacity="0.5"/>
<path fill-rule="evenodd" clip-rule="evenodd" d="M4.67329 7.43565C4.65444 7.41008 4.62456 7.39498 4.59279 7.39498H4.15427C4.09904 7.39498 4.05427 7.43975 4.05427 7.49498V10.232C4.05427 10.2872 4.09904 10.332 4.15427 10.332H4.53095C4.58618 10.332 4.63095 10.2872 4.63095 10.232V8.28061H4.65484L4.67553 8.3204L4.6772 8.32307L6.13331 10.2914C6.15217 10.3169 6.182 10.332 6.2137 10.332H6.62762C6.68285 10.332 6.72762 10.2872 6.72762 10.232V7.49498C6.72762 7.43975 6.68285 7.39498 6.62762 7.39498H6.25505C6.19982 7.39498 6.15505 7.43975 6.15505 7.49498V9.40515C6.15675 9.42301 6.13246 9.42998 6.12443 9.41393L6.11059 9.38624C6.11002 9.38512 6.10937 9.38404 6.10862 9.38303L4.67329 7.43565ZM6.05505 9.14181L4.75378 7.37632C4.71608 7.32517 4.65633 7.29498 4.59279 7.29498H4.15427C4.04381 7.29498 3.95427 7.38453 3.95427 7.49498V10.232C3.95427 10.3424 4.04381 10.432 4.15427 10.432H4.53095C4.64141 10.432 4.73095 10.3424 4.73095 10.232V8.56388L6.05292 10.3509C6.09063 10.4019 6.15029 10.432 6.2137 10.432H6.62762C6.73808 10.432 6.82762 10.3424 6.82762 10.232V7.49498C6.82762 7.38453 6.73808 7.29498 6.62762 7.29498H6.25505C6.1446 7.29498 6.05505 7.38453 6.05505 7.49498V9.14181ZM4.6533 8.27763L4.63095 8.28061C4.62934 8.26848 4.64583 8.26327 4.65147 8.27412L4.6533 8.27763ZM8.01774 8.58017H9.41187C9.52233 8.58017 9.61187 8.66971 9.61187 8.78017V9.11978C9.61187 9.23024 9.52233 9.31978 9.41187 9.31978H8.01774V10.232C8.01774 10.3424 7.9282 10.432 7.81774 10.432H7.4287C7.31824 10.432 7.2287 10.3424 7.2287 10.232V7.49498C7.2287 7.38453 7.31824 7.29498 7.4287 7.29498H9.48602C9.59647 7.29498 9.68602 7.38453 9.68602 7.49498V7.82636C9.68602 7.93681 9.59647 8.02636 9.48602 8.02636H8.01774V8.58017ZM10.0232 7.29498H12.2865C12.3969 7.29498 12.4865 7.38453 12.4865 7.49498V7.81812C12.4865 7.92858 12.3969 8.01812 12.2865 8.01812H11.539V10.232C11.539 10.3424 11.4495 10.432 11.339 10.432H10.9294C10.8189 10.432 10.7294 10.3424 10.7294 10.232V8.01812H10.0232C9.91272 8.01812 9.82318 7.92858 9.82318 7.81812V7.49498C9.82318 7.38453 9.91272 7.29498 10.0232 7.29498ZM9.51187 8.78017C9.51187 8.72494 9.4671 8.68017 9.41187 8.68017H8.01774C7.96252 8.68017 7.91774 8.6354 7.91774 8.58017V8.02636C7.91774 7.97113 7.96252 7.92636 8.01774 7.92636H9.48602C9.54124 7.92636 9.58602 7.88159 9.58602 7.82636V7.49498C9.58602 7.43975 9.54124 7.39498 9.48602 7.39498H7.4287C7.37347 7.39498 7.3287 7.43975 7.3287 7.49498V10.232C7.3287 10.2872 7.37347 10.332 7.4287 10.332H7.81774C7.87297 10.332 7.91774 10.2872 7.91774 10.232V9.31978C7.91774 9.26455 7.96252 9.21978 8.01774 9.21978H9.41187C9.4671 9.21978 9.51187 9.17501 9.51187 9.11978V8.78017ZM12.2865 7.39498C12.3417 7.39498 12.3865 7.43975 12.3865 7.49498V7.81812C12.3865 7.87335 12.3417 7.91812 12.2865 7.91812H11.539C11.4838 7.91812 11.439 7.96289 11.439 8.01812V10.232C11.439 10.2872 11.3943 10.332 11.339 10.332H10.9294C10.8742 10.332 10.8294 10.2872 10.8294 10.232V8.01812C10.8294 7.96289 10.7846 7.91812 10.7294 7.91812H10.0232C9.96795 7.91812 9.92318 7.87335 9.92318 7.81812V7.49498C9.92318 7.43975 9.96795 7.39498 10.0232 7.39498H12.2865Z" fill="#171717" fill-opacity="0.5"/>
<path fill-rule="evenodd" clip-rule="evenodd" d="M13.1067 6.04405L8.22326 3.22461L3.33984 6.04405L3.33984 11.6829L8.22326 14.5024L13.1067 11.6829V6.04405ZM8.72326 2.35858C8.41385 2.17995 8.03266 2.17995 7.72326 2.35858L2.83984 5.17802C2.53044 5.35666 2.33984 5.68678 2.33984 6.04405V11.6829C2.33984 12.0402 2.53044 12.3703 2.83984 12.549L7.72326 15.3684C8.03266 15.547 8.41385 15.547 8.72326 15.3684L13.6067 12.549C13.9161 12.3703 14.1067 12.0402 14.1067 11.6829V6.04405C14.1067 5.68678 13.9161 5.35666 13.6067 5.17802L8.72326 2.35858Z" fill="#171717" fill-opacity="0.5"/>
</svg>
