<svg width="20" height="20" viewBox="0 0 20 20" fill="none" xmlns="http://www.w3.org/2000/svg">
<path d="M5.7358 15.9469V16.7423H13.6903V15.9469H5.7358ZM5.7358 3.21962H13.6903V2.42416H5.7358V3.21962ZM4.14489 5.60598V2.42416C4.14489 1.98666 4.3008 1.612 4.61261 1.30018C4.9239 0.988896 5.2983 0.833252 5.7358 0.833252H13.6903C14.1278 0.833252 14.5025 0.988896 14.8143 1.30018C15.1256 1.612 15.2812 1.98666 15.2812 2.42416V5.60598H13.6903V4.81052H5.7358V5.60598H4.14489ZM5.7358 18.3333C5.2983 18.3333 4.9239 18.1776 4.61261 17.8663C4.3008 17.5545 4.14489 17.1798 4.14489 16.7423V13.5605H5.7358V14.356H13.6903V13.5605H15.2812V16.7423C15.2812 17.1798 15.1256 17.5545 14.8143 17.8663C14.5025 18.1776 14.1278 18.3333 13.6903 18.3333H5.7358ZM11.8608 12.6458C11.715 12.4867 11.6389 12.3011 11.6325 12.0889C11.6256 11.8768 11.7017 11.6912 11.8608 11.5321L13.8097 9.58325L11.8608 7.63439C11.7017 7.4753 11.6256 7.28969 11.6325 7.07757C11.6389 6.86545 11.715 6.67984 11.8608 6.52075C12.0199 6.36166 12.2089 6.27867 12.428 6.27177C12.6464 6.26541 12.8352 6.34177 12.9943 6.50087L15.5199 9.02643C15.5994 9.10598 15.6559 9.19215 15.6893 9.28496C15.7222 9.37776 15.7386 9.47719 15.7386 9.58325C15.7386 9.68931 15.7222 9.78874 15.6893 9.88155C15.6559 9.97435 15.5994 10.0605 15.5199 10.1401L12.9943 12.6656C12.8352 12.8247 12.6464 12.9011 12.428 12.8947C12.2089 12.8878 12.0199 12.8048 11.8608 12.6458ZM6.43182 12.6656L3.90625 10.1401C3.8267 10.0605 3.77023 9.97435 3.73682 9.88155C3.70394 9.78874 3.6875 9.68931 3.6875 9.58325C3.6875 9.47719 3.70394 9.37776 3.73682 9.28496C3.77023 9.19215 3.8267 9.10598 3.90625 9.02643L6.43182 6.50087C6.59091 6.34177 6.77996 6.26541 6.99898 6.27177C7.21746 6.27867 7.40625 6.36166 7.56534 6.52075C7.71117 6.67984 7.78754 6.86545 7.79443 7.07757C7.8008 7.28969 7.72443 7.4753 7.56534 7.63439L5.61648 9.58325L7.56534 11.5321C7.72443 11.6912 7.8008 11.8768 7.79443 12.0889C7.78754 12.3011 7.71117 12.4867 7.56534 12.6458C7.40625 12.8048 7.21746 12.8878 6.99898 12.8947C6.77996 12.9011 6.59091 12.8247 6.43182 12.6656Z" fill="#121212" fill-opacity="0.6"/>
</svg>
