<svg width="17" height="17" viewBox="0 0 17 17" fill="none" xmlns="http://www.w3.org/2000/svg">
<path d="M4.81051 13.6202V14.2566H11.1741V13.6202H4.81051ZM4.81051 3.43839H11.1741V2.80202H4.81051V3.43839ZM3.53778 5.34748V2.80202C3.53778 2.45202 3.66251 2.1523 3.91197 1.90284C4.161 1.65381 4.46051 1.5293 4.81051 1.5293H11.1741C11.5241 1.5293 11.8239 1.65381 12.0733 1.90284C12.3224 2.1523 12.4469 2.45202 12.4469 2.80202V5.34748H11.1741V4.71111H4.81051V5.34748H3.53778ZM4.81051 15.5293C4.46051 15.5293 4.161 15.4048 3.91197 15.1558C3.66251 14.9063 3.53778 14.6066 3.53778 14.2566V11.7111H4.81051V12.3475H11.1741V11.7111H12.4469V14.2566C12.4469 14.6066 12.3224 14.9063 12.0733 15.1558C11.8239 15.4048 11.5241 15.5293 11.1741 15.5293H4.81051ZM9.71051 10.9793C9.59384 10.852 9.53297 10.7035 9.52787 10.5338C9.52236 10.3641 9.58324 10.2157 9.71051 10.0884L11.2696 8.5293L9.71051 6.97021C9.58324 6.84293 9.52236 6.69445 9.52787 6.52475C9.53297 6.35505 9.59384 6.20657 9.71051 6.0793C9.83778 5.95202 9.98903 5.88563 10.1642 5.88012C10.339 5.87502 10.4901 5.93611 10.6173 6.06339L12.6378 8.08384C12.7014 8.14748 12.7466 8.21642 12.7733 8.29066C12.7996 8.3649 12.8128 8.44445 12.8128 8.5293C12.8128 8.61415 12.7996 8.69369 12.7733 8.76793C12.7466 8.84218 12.7014 8.91111 12.6378 8.97475L10.6173 10.9952C10.4901 11.1225 10.339 11.1836 10.1642 11.1785C9.98903 11.173 9.83778 11.1066 9.71051 10.9793ZM5.36733 10.9952L3.34687 8.97475C3.28324 8.91111 3.23806 8.84218 3.21133 8.76793C3.18503 8.69369 3.17188 8.61415 3.17188 8.5293C3.17188 8.44445 3.18503 8.3649 3.21133 8.29066C3.23806 8.21642 3.28324 8.14748 3.34687 8.08384L5.36733 6.06339C5.4946 5.93611 5.64584 5.87502 5.82106 5.88012C5.99584 5.88563 6.14687 5.95202 6.27415 6.0793C6.39081 6.20657 6.45191 6.35505 6.45742 6.52475C6.46251 6.69445 6.40142 6.84293 6.27415 6.97021L4.71506 8.5293L6.27415 10.0884C6.40142 10.2157 6.46251 10.3641 6.45742 10.5338C6.45191 10.7035 6.39081 10.852 6.27415 10.9793C6.14687 11.1066 5.99584 11.173 5.82106 11.1785C5.64584 11.1836 5.4946 11.1225 5.36733 10.9952Z" fill="#171717" fill-opacity="0.5"/>
</svg>
