<svg width="24" height="25" viewBox="0 0 24 25" fill="none" xmlns="http://www.w3.org/2000/svg">
<rect y="0.737061" width="24" height="24" rx="12" fill="#F6F7F3"/>
<path d="M12 19.2371C10.4833 19.2371 9.14121 18.7765 7.97361 17.8554C6.80602 16.9344 6.04769 15.7579 5.69861 14.3259C5.65047 14.1454 5.68658 13.98 5.80695 13.8298C5.92732 13.6796 6.08982 13.5922 6.29445 13.5676C6.48704 13.5435 6.66158 13.5797 6.81806 13.6759C6.97454 13.7722 7.08287 13.9167 7.14306 14.1093C7.43195 15.1926 8.02778 16.0773 8.93056 16.7634C9.83334 17.4496 10.8565 17.7926 12 17.7926C13.4083 17.7926 14.6031 17.302 15.5844 16.3207C16.5656 15.3395 17.056 14.1449 17.0556 12.7371C17.0556 11.3287 16.5649 10.1339 15.5837 9.15267C14.6024 8.17141 13.4079 7.68102 12 7.6815C11.1694 7.6815 10.3931 7.8741 9.67084 8.25928C8.94861 8.64447 8.34074 9.1741 7.84722 9.84817H9.11111C9.31574 9.84817 9.48739 9.9175 9.62606 10.0562C9.76472 10.1948 9.83382 10.3662 9.83334 10.5704C9.83334 10.775 9.764 10.9467 9.62534 11.0853C9.48667 11.224 9.31526 11.2931 9.11111 11.2926H6.22222C6.0176 11.2926 5.84595 11.2233 5.70728 11.0846C5.56861 10.9459 5.49952 10.7745 5.5 10.5704V7.6815C5.5 7.47688 5.56934 7.30523 5.708 7.16656C5.84667 7.02789 6.01808 6.9588 6.22222 6.95928C6.42685 6.95928 6.5985 7.02862 6.73717 7.16728C6.87584 7.30595 6.94493 7.47736 6.94445 7.6815V8.6565C7.55834 7.88613 8.30776 7.2903 9.19272 6.869C10.0777 6.44771 11.0134 6.23706 12 6.23706C12.9028 6.23706 13.7485 6.40871 14.5372 6.752C15.3258 7.0953 16.0119 7.55849 16.5955 8.14156C17.1791 8.7256 17.6425 9.41171 17.9858 10.1999C18.3291 10.9881 18.5005 11.8338 18.5 12.7371C18.5 13.6398 18.3284 14.4856 17.9851 15.2742C17.6418 16.0629 17.1786 16.749 16.5955 17.3326C16.0115 17.9161 15.3254 18.3795 14.5372 18.7228C13.749 19.0661 12.9033 19.2375 12 19.2371ZM12.7222 12.4482L14.5278 14.2537C14.6602 14.3861 14.7264 14.5547 14.7264 14.7593C14.7264 14.9639 14.6602 15.1324 14.5278 15.2648C14.3954 15.3972 14.2269 15.4634 14.0222 15.4634C13.8176 15.4634 13.6491 15.3972 13.5167 15.2648L11.4944 13.2426C11.4222 13.1704 11.3681 13.0893 11.3319 12.9992C11.2958 12.9092 11.2778 12.8158 11.2778 12.719V9.84817C11.2778 9.64354 11.3471 9.47189 11.4858 9.33323C11.6244 9.19456 11.7959 9.12547 12 9.12595C12.2046 9.12595 12.3763 9.19528 12.5149 9.33395C12.6536 9.47262 12.7227 9.64402 12.7222 9.84817V12.4482Z" fill="#444444"/>
</svg>
