<svg width="25" height="25" viewBox="0 0 25 25" fill="none" xmlns="http://www.w3.org/2000/svg">
<path d="M5.11829 18.8825C6.13829 18.1025 7.27829 17.4873 8.53829 17.0369C9.79829 16.5865 11.1183 16.3617 12.4983 16.3625C13.8783 16.3625 15.1983 16.5877 16.4583 17.0381C17.7183 17.4885 18.8583 18.1033 19.8783 18.8825C20.5783 18.0625 21.1235 17.1325 21.5139 16.0925C21.9043 15.0525 22.0991 13.9425 22.0983 12.7625C22.0983 10.1025 21.1635 7.83731 19.2939 5.96691C17.4243 4.09651 15.1591 3.16171 12.4983 3.16251C9.83829 3.16251 7.57309 4.09731 5.70269 5.96691C3.83229 7.83651 2.89749 10.1017 2.89829 12.7625C2.89829 13.9425 3.09349 15.0525 3.48389 16.0925C3.87429 17.1325 4.41909 18.0625 5.11829 18.8825ZM12.4983 13.9625C11.3183 13.9625 10.3231 13.5577 9.51269 12.7481C8.70229 11.9385 8.29749 10.9433 8.29829 9.76251C8.29829 8.58251 8.70309 7.58731 9.51269 6.77691C10.3223 5.96651 11.3175 5.56171 12.4983 5.56251C13.6783 5.56251 14.6735 5.96731 15.4839 6.77691C16.2943 7.58651 16.6991 8.58171 16.6983 9.76251C16.6983 10.9425 16.2935 11.9377 15.4839 12.7481C14.6743 13.5585 13.6791 13.9633 12.4983 13.9625ZM12.4983 24.7625C10.8383 24.7625 9.27829 24.4473 7.81829 23.8169C6.35829 23.1865 5.08829 22.3317 4.00829 21.2525C2.92829 20.1725 2.07349 18.9025 1.44389 17.4425C0.814291 15.9825 0.499091 14.4225 0.498291 12.7625C0.498291 11.1025 0.813491 9.54251 1.44389 8.08251C2.07429 6.62251 2.92909 5.35251 4.00829 4.27251C5.08829 3.19251 6.35829 2.33771 7.81829 1.70811C9.27829 1.07851 10.8383 0.763312 12.4983 0.762512C14.1583 0.762512 15.7183 1.07771 17.1783 1.70811C18.6383 2.33851 19.9083 3.19331 20.9883 4.27251C22.0683 5.35251 22.9235 6.62251 23.5539 8.08251C24.1843 9.54251 24.4991 11.1025 24.4983 12.7625C24.4983 14.4225 24.1831 15.9825 23.5527 17.4425C22.9223 18.9025 22.0675 20.1725 20.9883 21.2525C19.9083 22.3325 18.6383 23.1877 17.1783 23.8181C15.7183 24.4485 14.1583 24.7633 12.4983 24.7625ZM12.4983 22.3625C13.5583 22.3625 14.5583 22.2073 15.4983 21.8969C16.4383 21.5865 17.2983 21.1417 18.0783 20.5625C17.2983 19.9825 16.4383 19.5373 15.4983 19.2269C14.5583 18.9165 13.5583 18.7617 12.4983 18.7625C11.4383 18.7625 10.4383 18.9177 9.49829 19.2281C8.55829 19.5385 7.69829 19.9833 6.91829 20.5625C7.69829 21.1425 8.55829 21.5877 9.49829 21.8981C10.4383 22.2085 11.4383 22.3633 12.4983 22.3625ZM12.4983 11.5625C13.0183 11.5625 13.4483 11.3925 13.7883 11.0525C14.1283 10.7125 14.2983 10.2825 14.2983 9.76251C14.2983 9.24251 14.1283 8.81251 13.7883 8.47251C13.4483 8.13251 13.0183 7.96251 12.4983 7.96251C11.9783 7.96251 11.5483 8.13251 11.2083 8.47251C10.8683 8.81251 10.6983 9.24251 10.6983 9.76251C10.6983 10.2825 10.8683 10.7125 11.2083 11.0525C11.5483 11.3925 11.9783 11.5625 12.4983 11.5625Z" fill="#20201E"/>
</svg>
