<svg width="14" height="13" viewBox="0 0 14 13" fill="none" xmlns="http://www.w3.org/2000/svg">
<path d="M9.16496 7.76251C9.45385 7.76251 9.69274 7.66807 9.88163 7.47918C10.0705 7.29029 10.165 7.0514 10.165 6.76251C10.165 6.47363 10.0705 6.23474 9.88163 6.04585C9.69274 5.85696 9.45385 5.76251 9.16496 5.76251C8.87607 5.76251 8.63718 5.85696 8.44829 6.04585C8.2594 6.23474 8.16496 6.47363 8.16496 6.76251C8.16496 7.0514 8.2594 7.29029 8.44829 7.47918C8.63718 7.66807 8.87607 7.76251 9.16496 7.76251ZM1.83163 12.7625C1.46496 12.7625 1.15096 12.6318 0.889625 12.3705C0.628292 12.1092 0.497848 11.7954 0.498292 11.4292V2.09585C0.498292 1.72918 0.628959 1.41518 0.890292 1.15385C1.15163 0.892513 1.4654 0.762069 1.83163 0.762513H11.165C11.5316 0.762513 11.8456 0.89318 12.107 1.15451C12.3683 1.41585 12.4987 1.72962 12.4983 2.09585V3.76251H11.165V2.09585H1.83163V11.4292H11.165V9.76251H12.4983V11.4292C12.4983 11.7958 12.3676 12.1098 12.1063 12.3712C11.845 12.6325 11.5312 12.763 11.165 12.7625H1.83163ZM7.16496 10.0958C6.79829 10.0958 6.48429 9.96518 6.22296 9.70385C5.96163 9.44252 5.83118 9.12874 5.83163 8.76251V4.76251C5.83163 4.39585 5.96229 4.08185 6.22363 3.82051C6.48496 3.55918 6.79874 3.42874 7.16496 3.42918H11.8316C12.1983 3.42918 12.5123 3.55985 12.7736 3.82118C13.035 4.08251 13.1654 4.39629 13.165 4.76251V8.76251C13.165 9.12918 13.0343 9.44318 12.773 9.70451C12.5116 9.96585 12.1978 10.0963 11.8316 10.0958H7.16496ZM11.8316 8.76251V4.76251H7.16496V8.76251H11.8316Z" fill="#121212"/>
</svg>
