<svg width="18" height="18" viewBox="0 0 18 18" fill="none" xmlns="http://www.w3.org/2000/svg"><path d="M17.796 5.543a.862.862 0 0 0-.653-.299h-4.724l.918-4.214a.842.842 0 0 0-.171-.713.858.858 0 0 0-.667-.317H9.642a.858.858 0 0 0-.754.446L6.274 5.244h-.613a.855.855 0 0 0-.804-.567h-4a.854.854 0 0 0-.857.85V17.15c0 .47.384.85.857.85h4a.855.855 0 0 0 .804-.567h9.768c.42 0 .779-.302.846-.714L17.989 6.23a.846.846 0 0 0-.193-.687zm-16.081.835H4V16.3H1.715V6.378zm12.984 9.355H5.714V6.945h1.072a.858.858 0 0 0 .753-.446l2.615-4.798h1.283l-.917 4.214a.842.842 0 0 0 .17.713c.163.2.409.317.667.317h4.779l-1.437 8.788z" fill="currentColor"/></svg>