<svg height="auto" viewBox="0 0 1200 371" fill="currentColor" xmlns="http://www.w3.org/2000/svg">
  <path
    d="M856.476 279.02H313.389c-.556 0-1.089-.1-1.482-.279-.393-.178-.614-.42-.614-.673 0-.252.221-.494.614-.672.393-.179.926-.279 1.482-.279h543.087c.556 0 1.089.1 1.482.279.393.178.614.42.614.672 0 .253-.221.495-.614.673-.393.179-.926.279-1.482.279zm21.005 7.522H292.379c-.556 0-1.089-.1-1.482-.279-.393-.178-.613-.42-.613-.672 0-.253.22-.495.613-.673.393-.178.926-.279 1.482-.279h585.102c.556 0 1.089.101 1.482.279.393.178.614.42.614.673 0 .252-.221.494-.614.672-.393.179-.926.279-1.482.279zm14.324 9.917h-613.75c-.556 0-1.089-.1-1.482-.278-.393-.179-.614-.421-.614-.673 0-.252.221-.494.614-.673.393-.178.926-.278 1.482-.278h613.75c.556 0 1.089.1 1.482.278.393.179.614.421.614.673 0 .252-.221.494-.614.673-.393.178-.926.278-1.482.278zm23.944 12.55H254.117c-.556 0-1.089-.1-1.482-.279-.393-.178-.614-.42-.614-.672 0-.253.221-.495.614-.673.393-.178.926-.279 1.482-.279h661.632c.556 0 1.089.101 1.482.279.393.178.613.42.613.673 0 .252-.22.494-.613.672-.393.179-.926.279-1.482.279zm71.378 15.037l-800.75.357c-.556 0-1.089-.1-1.482-.279-.393-.178-.614-.42-.614-.672 0-.253.221-.494.614-.673.393-.178.926-.279 1.482-.279l800.75-.356c.556 0 1.089.1 1.482.278.393.179.614.421.614.673 0 .252-.221.494-.614.673-.393.178-.926.278-1.482.278z" />
  <path
    d="M584.93 340.157c-.555 0-1.089-.1-1.482-.278-.393-.179-.613-.421-.613-.673v-60.844c0-.252.22-.494.613-.673.393-.178.927-.278 1.482-.278.556 0 1.089.1 1.482.278.393.179.614.421.614.673v60.844c0 .252-.221.494-.614.673-.393.178-.926.278-1.482.278zm-68.886 0c-.1.003-.199.003-.299 0-.55-.035-1.047-.168-1.381-.37-.334-.201-.478-.455-.4-.705l18.888-60.844c.077-.25.371-.475.815-.627.445-.152 1.004-.218 1.555-.182.551.035 1.049.168 1.383.37.335.202.479.456.401.706l-18.893 60.844c-.075.225-.325.43-.705.578-.379.148-.863.23-1.364.23zm-82.226 0a4.214 4.214 0 0 1-.951-.103 2.465 2.465 0 0 1-.745-.288c-.195-.121-.323-.262-.375-.41a.464.464 0 0 1 .075-.442l43.056-60.842c.085-.119.22-.229.398-.325a2.65 2.65 0 0 1 .641-.23c.245-.057.512-.092.787-.102.274-.01.55.004.812.042.263.038.506.1.716.181.209.081.382.179.508.291a.642.642 0 0 1 .225.357.484.484 0 0 1-.094.369l-43.036 60.841c-.136.194-.406.362-.769.481s-.8.182-1.248.18zm-100.008 0c-.372 0-.737-.045-1.057-.13-.321-.086-.586-.208-.768-.356-.181-.147-.274-.313-.267-.482.007-.169.112-.333.305-.478l81.555-60.844c.297-.208.761-.355 1.293-.411a4.353 4.353 0 0 1 1.558.115c.466.129.803.336.939.576.136.24.06.495-.211.71l-81.55 60.844c-.188.14-.452.255-.766.335a4.2 4.2 0 0 1-1.031.121zm-111.11 0c-.408 0-.807-.054-1.148-.155-.341-.102-.609-.246-.772-.416-.163-.169-.213-.357-.145-.539.068-.183.252-.352.53-.488l124.171-60.844c.378-.185.903-.294 1.458-.304.556-.009 1.097.082 1.505.253.408.172.649.41.67.662.021.252-.179.498-.557.683L224.24 339.846a2.873 2.873 0 0 1-.698.229 4.256 4.256 0 0 1-.842.082zm432.228 0c-.509.003-1.002-.079-1.388-.23-.385-.15-.637-.359-.708-.588l-18.862-60.844a.455.455 0 0 1 .034-.375.951.951 0 0 1 .35-.339c.166-.102.374-.188.613-.252.239-.065.504-.107.78-.125.275-.018.556-.01.825.022.269.032.521.088.742.165.221.076.406.172.545.282.138.11.227.231.261.356l18.893 60.844a.457.457 0 0 1-.046.371.982.982 0 0 1-.356.335 2.446 2.446 0 0 1-.612.247c-.237.063-.5.105-.773.122a4.941 4.941 0 0 1-.298.009zm82.225 0a4.04 4.04 0 0 1-1.235-.182c-.359-.119-.625-.287-.761-.479l-43.035-60.841a.476.476 0 0 1-.094-.369.64.64 0 0 1 .224-.357c.126-.112.299-.21.509-.291.21-.081.453-.143.715-.181.262-.038.538-.052.813-.042.274.01.541.045.786.102.245.057.463.135.641.23.179.096.314.206.398.325l43.036 60.842c.164.239.114.498-.14.721-.254.223-.692.391-1.217.468a4.305 4.305 0 0 1-.64.054zm100.003 0a4.16 4.16 0 0 1-1.027-.121 2.228 2.228 0 0 1-.765-.335l-81.571-60.844c-.271-.215-.347-.47-.211-.71.136-.24.473-.447.94-.576a4.346 4.346 0 0 1 1.557-.115c.533.056.997.203 1.293.411l81.576 60.844c.288.216.376.474.244.719s-.472.456-.946.587c-.328.091-.705.14-1.09.14zm111.11 0a4.3 4.3 0 0 1-.838-.08 2.896 2.896 0 0 1-.697-.226l-124.172-60.842a1.278 1.278 0 0 1-.428-.316.515.515 0 0 1-.129-.367.584.584 0 0 1 .19-.361c.115-.114.278-.216.48-.301a3.15 3.15 0 0 1 .697-.194c.258-.044.533-.064.808-.059.275.005.545.034.796.086.25.053.475.127.662.218l124.172 60.844c.277.136.461.306.529.488.069.183.018.371-.146.54-.163.17-.433.314-.774.416a4.1 4.1 0 0 1-1.15.154z" />
  <path
    d="M906.539 296.457H263.313c-.556 0-1.089-.1-1.482-.278-.393-.179-.613-.421-.613-.673 0-.252.22-.494.613-.673.393-.178.926-.278 1.482-.278h643.226c.556 0 1.089.1 1.482.278.393.179.614.421.614.673 0 .252-.221.494-.614.673-.393.178-.926.278-1.482.278zm9.205 12.55H226.533c-.556 0-1.089-.1-1.482-.279-.393-.178-.613-.42-.613-.672 0-.253.22-.494.613-.673.393-.178.926-.279 1.482-.279h689.211c.556 0 1.089.101 1.482.279.393.179.614.42.614.673 0 .252-.221.494-.614.672-.393.179-.926.279-1.482.279z" />
  <path
    d="M944.785 309.008H257.019c-.555 0-1.089-.1-1.482-.278-.393-.179-.613-.421-.613-.673 0-.252.22-.494.613-.673.393-.178.927-.278 1.482-.278h687.766c.556 0 1.089.1 1.482.278.393.179.613.421.613.673 0 .252-.22.494-.613.673-.393.178-.926.278-1.482.278zm-88.309-214.54H313.389c-.556 0-1.089-.1-1.482-.278-.393-.179-.614-.42-.614-.673 0-.252.221-.494.614-.673.393-.178.926-.278 1.482-.278h543.087c.556 0 1.089.1 1.482.278.393.179.614.42.614.673 0 .252-.221.494-.614.673-.393.178-.926.278-1.482.278zm21.004-7.525H292.379c-.555 0-1.088-.1-1.481-.278-.393-.178-.614-.42-.614-.673 0-.252.221-.494.614-.672.393-.179.926-.279 1.481-.279H877.48c.556 0 1.089.1 1.482.279.393.178.614.42.614.672 0 .252-.221.495-.614.673-.393.178-.926.278-1.482.278zm29.063-9.914H263.317c-.556 0-1.089-.1-1.482-.279-.393-.178-.614-.42-.614-.672 0-.253.221-.495.614-.673.393-.179.926-.279 1.482-.279h643.226c.556 0 1.089.1 1.482.279.393.178.614.42.614.672 0 .253-.221.495-.614.673-.393.178-.926.279-1.482.279zm9.205-12.55H254.117c-.556 0-1.089-.1-1.482-.279-.393-.178-.614-.42-.614-.672 0-.253.221-.495.614-.673.393-.178.926-.279 1.482-.279h661.631c.556 0 1.089.1 1.482.279.393.178.614.42.614.673 0 .252-.221.494-.614.672-.393.179-.926.279-1.482.279zm71.658-14.963l-804.029-.074c-.556 0-1.089-.1-1.482-.279-.393-.178-.614-.42-.614-.673 0-.252.221-.494.614-.672.393-.179.926-.279 1.482-.279l804.029.074c.556 0 1.089.1 1.482.279.393.178.613.42.613.672 0 .252-.22.495-.613.673-.393.178-.926.279-1.482.279z" />
  <path
    d="M584.93 94.178c-.556 0-1.089-.1-1.482-.279-.393-.178-.614-.42-.614-.672V32.383c0-.253.221-.495.614-.673.393-.178.926-.279 1.482-.279.556 0 1.089.1 1.482.279.393.178.614.42.614.673v60.844c0 .252-.221.494-.614.672-.393.179-.926.279-1.482.279zm-50.004 0c-.508.002-1.001-.08-1.387-.23-.386-.15-.638-.36-.709-.588l-18.866-60.844c-.068-.248.081-.497.416-.695.334-.199.826-.329 1.37-.364.544-.035 1.097.029 1.539.177.442.148.738.37.824.615l18.893 60.842a.457.457 0 0 1-.046.371.98.98 0 0 1-.356.335c-.166.1-.374.184-.611.247a4.028 4.028 0 0 1-.774.122 4.053 4.053 0 0 1-.293.012zm-58.072 0c-.445 0-.877-.064-1.236-.183s-.625-.286-.761-.478l-43.035-60.844c-.171-.24-.124-.502.13-.726.254-.225.695-.394 1.224-.472a4.44 4.44 0 0 1 1.599.06c.495.115.869.315 1.039.555l43.036 60.844c.1.143.125.294.073.442-.053.148-.182.288-.376.41-.195.12-.45.218-.744.286a4.272 4.272 0 0 1-.949.104v.002zm-61.463 0c-.36 0-.714-.042-1.028-.122-.313-.08-.577-.195-.764-.335l-81.576-60.844c-.289-.215-.377-.474-.246-.72.132-.245.473-.456.948-.588a4.353 4.353 0 0 1 1.586-.111c.541.06 1.007.214 1.296.43l81.571 60.842c.193.144.298.309.305.477.007.169-.086.336-.268.483-.181.147-.446.27-.767.355-.32.085-.685.13-1.057.13v.003zm-68.53 0c-.289 0-.575-.027-.84-.08a2.876 2.876 0 0 1-.701-.224L221.149 33.032a1.278 1.278 0 0 1-.429-.316.513.513 0 0 1-.129-.367.586.586 0 0 1 .19-.361c.115-.114.278-.216.48-.301.202-.085.439-.151.697-.194a4.446 4.446 0 0 1 1.604.027c.25.053.475.127.662.218L348.396 92.58c.277.136.461.305.529.487.069.183.018.37-.145.54-.163.17-.431.314-.772.415-.341.102-.74.156-1.147.156zm289.184 0a4.14 4.14 0 0 1-.299 0c-.55-.035-1.047-.168-1.381-.37-.334-.202-.478-.455-.4-.705l18.861-60.842c.078-.25.372-.476.816-.627.445-.152 1.004-.218 1.555-.182.551.035 1.049.168 1.383.37.335.202.479.456.401.706l-18.893 60.841c-.074.223-.32.427-.695.575-.374.148-.852.23-1.348.234zm58.072 0c-.218 0-.436-.015-.644-.045-.525-.078-.961-.246-1.214-.469-.253-.222-.303-.481-.138-.72L735.157 32.1c.17-.24.544-.44 1.038-.556a4.446 4.446 0 0 1 1.6-.06c.529.078.97.248 1.223.472.255.225.302.486.131.726l-43.035 60.842c-.139.19-.406.356-.765.474-.358.117-.789.18-1.232.18zm61.463 0c-.372 0-.737-.046-1.057-.13-.321-.086-.586-.209-.768-.356-.181-.147-.274-.314-.267-.482.007-.169.112-.334.305-.478l81.55-60.844c.289-.216.755-.37 1.296-.43.54-.06 1.111-.02 1.586.111.475.132.816.343.948.588.131.246.043.505-.246.72L757.351 93.72a2.195 2.195 0 0 1-.754.334c-.31.08-.66.123-1.017.125zm68.53 0c-.408 0-.807-.053-1.149-.155-.342-.101-.611-.245-.775-.415-.163-.17-.214-.358-.146-.54.068-.183.252-.352.53-.488l124.172-60.842c.187-.091.412-.165.662-.218a4.435 4.435 0 0 1 1.603-.028c.259.044.495.11.697.195.202.085.365.187.48.3.115.114.18.237.19.362a.505.505 0 0 1-.129.367 1.263 1.263 0 0 1-.428.316L825.645 93.874a2.87 2.87 0 0 1-.697.224c-.265.053-.55.08-.838.08z" />
  <path
    d="M943.329 64.48H226.533c-.556 0-1.089-.1-1.482-.278-.393-.178-.613-.42-.613-.673 0-.252.22-.494.613-.672.393-.179.926-.279 1.482-.279h716.796c.556 0 1.089.1 1.482.279.393.178.614.42.614.672 0 .253-.221.495-.614.673-.393.178-.926.279-1.482.279z" />
  <path
    d="M139.363 340.158a4.002 4.002 0 0 1-1.222-.177c-.357-.115-.625-.278-.767-.467-.141-.188-.15-.391-.023-.582.126-.19.381-.358.728-.479l173.212-60.851V93.985l-173.212-60.85c-.439-.155-.726-.383-.796-.633-.071-.25.081-.504.422-.703.34-.2.841-.33 1.393-.362.552-.032 1.109.037 1.549.192L314.67 92.768c.253.089.458.203.598.333.141.13.214.273.215.418v184.549c-.001.145-.074.288-.215.418-.14.131-.345.245-.598.333l-174.023 61.139c-.368.13-.819.2-1.284.2z" />
  <path
    d="M292.375 286.543c-.556 0-1.089-.1-1.482-.279-.393-.178-.614-.42-.614-.672V85.994c0-.253.221-.495.614-.673.393-.178.926-.279 1.482-.279.556 0 1.089.1 1.482.279.393.178.614.42.614.673v199.598c0 .252-.221.494-.614.672-.393.179-.926.279-1.482.279zm-29.062 9.917c-.556 0-1.089-.1-1.482-.279-.393-.178-.614-.42-.614-.672V76.079c0-.252.221-.494.614-.673.393-.178.926-.278 1.482-.278.556 0 1.089.1 1.482.278.393.179.613.42.613.673v219.43c0 .252-.22.494-.613.672-.393.179-.926.279-1.482.279zm-36.78 12.55c-.556 0-1.089-.1-1.482-.279-.393-.178-.614-.42-.614-.672V63.529c0-.252.221-.494.614-.673.393-.178.926-.278 1.482-.278.555 0 1.088.1 1.482.278.393.179.613.42.613.673v244.53c0 .252-.22.494-.613.672-.394.179-.927.279-1.482.279zm-45.008 16.447c-.555 0-1.088-.1-1.481-.279-.394-.178-.614-.42-.614-.672l.95-277.055c0-.252.221-.494.614-.672.393-.179.926-.279 1.482-.279.555 0 1.089.1 1.482.279.393.178.613.42.613.672l-.95 277.055c0 .252-.221.494-.614.672-.393.179-.926.279-1.482.279z" />
  <path
    d="M313.576 186.746H139.363c-.555 0-1.088-.1-1.481-.278-.393-.179-.614-.421-.614-.673 0-.252.221-.494.614-.673.393-.178.926-.278 1.481-.278h174.213c.556 0 1.089.1 1.482.278.393.179.614.421.614.673 0 .252-.221.494-.614.673-.393.178-.926.278-1.482.278zm0-16.925h-.173l-174.207-6.398a4.19 4.19 0 0 1-.789-.101 2.675 2.675 0 0 1-.644-.231 1.154 1.154 0 0 1-.4-.325.483.483 0 0 1-.095-.37.64.64 0 0 1 .223-.358c.126-.112.299-.211.509-.293.21-.081.454-.143.716-.181.263-.039.54-.053.815-.043l174.213 6.395c.555.01 1.08.12 1.457.305.377.186.577.432.554.684-.022.252-.264.49-.673.661-.408.172-.95.262-1.506.252v.003zm0-19.659c-.128 0-.256-.005-.383-.014l-174.212-14.569c-.547-.046-1.031-.188-1.347-.396-.315-.208-.436-.464-.335-.712.101-.248.415-.468.873-.611a4.24 4.24 0 0 1 1.569-.153l174.212 14.569c.512.044.969.173 1.283.362.314.189.461.424.414.659-.047.235-.285.454-.669.614-.383.16-.884.25-1.405.251zm0-20.804a4.468 4.468 0 0 1-.692-.055L138.672 101.69a3.358 3.358 0 0 1-.721-.185 1.62 1.62 0 0 1-.507-.298.62.62 0 0 1-.214-.363.497.497 0 0 1 .114-.373c.092-.119.236-.229.422-.323.187-.094.414-.17.666-.224a4.442 4.442 0 0 1 1.623-.03l174.213 27.613c.468.074.864.221 1.117.415.253.193.346.422.263.644-.083.222-.336.423-.716.568-.379.145-.86.224-1.356.224zm-.005-23.197a4.275 4.275 0 0 1-.98-.112L138.378 64.021c-.491-.118-.858-.32-1.021-.562-.162-.242-.107-.503.154-.726.262-.222.707-.39 1.239-.463a4.431 4.431 0 0 1 1.598.07l174.208 42.028c.415.099.745.258.937.453.191.194.234.412.12.619-.113.206-.376.39-.746.52a3.961 3.961 0 0 1-1.296.201zM139.358 210.443c-.556.009-1.097-.081-1.505-.253-.409-.171-.65-.409-.672-.662-.021-.252.179-.498.557-.683.377-.186.902-.295 1.458-.305l174.207-6.39c.275-.01.552.004.815.043.263.038.506.1.717.181.21.081.383.18.509.292a.638.638 0 0 1 .225.358.486.486 0 0 1-.094.37c-.085.119-.221.23-.399.325a2.64 2.64 0 0 1-.643.231 4.119 4.119 0 0 1-.789.102l-174.213 6.388-.173.003zm0 27.832c-.521-.002-1.022-.091-1.405-.251s-.622-.379-.669-.614c-.047-.236.101-.471.414-.66.314-.188.771-.317 1.283-.361l174.212-14.569a4.249 4.249 0 0 1 1.57.152c.457.143.771.363.872.611.101.249-.02.505-.335.713-.316.207-.8.35-1.347.396l-174.212 14.566a4.044 4.044 0 0 1-.383.017zm.005 33.851c-.496.001-.976-.078-1.356-.223-.379-.146-.633-.347-.716-.569-.083-.222.01-.45.263-.644s.649-.34 1.118-.414l174.212-27.613a4.441 4.441 0 0 1 1.603.041c.501.11.886.305 1.069.544.184.238.151.5-.091.727-.241.228-.672.402-1.197.485l-174.213 27.609a4.215 4.215 0 0 1-.692.057zm0 37.611c-.467 0-.921-.071-1.289-.201-.368-.131-.63-.314-.743-.519-.113-.206-.072-.423.118-.617s.517-.354.929-.453l174.213-42.028a4 4 0 0 1 .793-.121c.28-.016.564-.006.835.029s.524.094.743.175c.22.08.401.18.533.293a.654.654 0 0 1 .237.365.478.478 0 0 1-.096.377 1.176 1.176 0 0 1-.414.331 2.76 2.76 0 0 1-.666.23l-174.208 42.028a4.258 4.258 0 0 1-.985.111zm895.277 30.422c-.46 0-.9-.067-1.27-.192L855.206 278.83a1.749 1.749 0 0 1-.61-.335c-.144-.132-.218-.276-.218-.423V93.522c0-.146.074-.29.218-.422.144-.132.352-.247.61-.336l178.184-61.131c.22-.08.47-.14.74-.175.27-.035.55-.045.83-.029.28.016.55.056.79.12.25.064.46.149.63.25.17.102.29.218.36.342a.46.46 0 0 1 .04.378.878.878 0 0 1-.29.355 2.17 2.17 0 0 1-.57.276L858.57 93.994V277.59l177.33 60.851c.35.121.61.288.74.478s.12.394-.02.583c-.14.189-.4.354-.76.47-.36.116-.78.179-1.22.179v.007z" />
  <path
    d="M877.479 286.543c-.556 0-1.089-.1-1.482-.279-.393-.178-.614-.42-.614-.672V85.994c0-.253.221-.495.614-.673.393-.178.926-.279 1.482-.279.555 0 1.088.1 1.481.279.393.178.614.42.614.673v199.598c0 .252-.221.494-.614.672-.393.179-.926.279-1.481.279zm29.062 9.917c-.556 0-1.089-.1-1.482-.279-.393-.178-.614-.42-.614-.672V76.079c0-.252.221-.494.614-.673.393-.178.926-.278 1.482-.278.556 0 1.089.1 1.482.278.393.179.614.42.614.673v219.43c0 .252-.221.494-.614.672-.393.179-.926.279-1.482.279zm38.242 12.55c-.556 0-1.089-.1-1.482-.279-.393-.178-.614-.42-.614-.672l-1.451-244.53c0-.252.221-.494.614-.673.393-.178.926-.278 1.481-.278.556 0 1.089.1 1.482.278.393.179.614.42.614.673l1.452 244.53c0 .252-.221.494-.614.672-.393.179-.926.279-1.482.279zm43.544 15.09c-.556 0-1.089-.1-1.482-.278-.393-.179-.614-.421-.614-.673l.163-274.698c0-.252.221-.494.614-.672.393-.179.926-.279 1.482-.279.555 0 1.089.1 1.482.279.393.178.613.42.613.672l-.162 274.698c0 .252-.221.494-.614.673-.393.178-.926.278-1.482.278z" />
  <path
    d="M1034.64 186.746H856.304c-.556 0-1.089-.1-1.482-.278-.393-.179-.614-.421-.614-.673 0-.252.221-.494.614-.673.393-.178.926-.278 1.482-.278h178.356c.55 0 1.08.1 1.48.278.39.179.61.421.61.673 0 .252-.22.494-.61.673-.4.178-.93.278-1.48.278h-.02zm-178.336-16.925c-.556.009-1.098-.081-1.506-.253-.408-.171-.65-.409-.671-.662-.022-.252.178-.498.556-.683.378-.185.902-.295 1.458-.305l178.359-6.395c.55-.02 1.1.061 1.53.226.42.164.68.398.73.65.04.253-.14.503-.5.695-.36.193-.88.312-1.43.332l-178.359 6.392-.167.003zm0-19.659c-.52-.002-1.02-.092-1.401-.253-.382-.16-.618-.379-.664-.614-.046-.235.103-.47.416-.658.314-.188.771-.317 1.282-.36l178.353-14.569c.27-.026.56-.027.83-.003.27.025.54.074.77.145.23.071.43.163.58.269.15.107.26.226.31.351.05.125.04.253-.02.377a.92.92 0 0 1-.34.345c-.16.103-.37.191-.61.257-.24.067-.5.111-.78.13l-178.349 14.569c-.125.01-.251.014-.377.014zm0-20.804c-.498.001-.98-.079-1.359-.225-.38-.146-.634-.348-.715-.571-.081-.223.015-.451.271-.645s.655-.34 1.127-.412l178.332-27.618a4.49 4.49 0 0 1 1.63.034c.25.055.48.132.66.226.19.095.33.206.42.326.09.12.13.247.11.374-.02.126-.1.25-.22.363-.13.113-.3.214-.52.296-.21.082-.46.144-.72.181l-178.356 27.619a4.454 4.454 0 0 1-.66.052zm0-23.197c-.47 0-.925-.072-1.294-.204-.369-.131-.63-.315-.741-.522-.111-.207-.066-.425.128-.619s.526-.353.943-.451l178.35-42.027c.25-.062.52-.1.79-.114.28-.013.56-.001.83.036.27.036.52.097.73.178.22.081.4.181.53.294.13.113.2.237.23.363a.493.493 0 0 1-.11.375c-.08.12-.22.232-.41.328-.18.095-.41.173-.66.228l-178.368 42.028a4.369 4.369 0 0 1-.948.107zm178.336 104.282h-.16l-178.36-6.39a4.2 4.2 0 0 1-.789-.102 2.634 2.634 0 0 1-.644-.23 1.139 1.139 0 0 1-.401-.325.487.487 0 0 1-.097-.37.643.643 0 0 1 .223-.358c.125-.112.298-.211.508-.292.21-.082.453-.144.716-.182.262-.039.539-.054.814-.044l178.36 6.393c.27.005.54.034.79.087.25.052.48.126.66.218.19.092.34.2.43.317.1.117.14.242.13.367a.605.605 0 0 1-.19.361 1.58 1.58 0 0 1-.48.3c-.21.085-.44.151-.7.194-.26.044-.54.063-.81.058v-.002zm0 27.832c-.12 0-.25-.005-.37-.014l-178.354-14.569a3.98 3.98 0 0 1-.781-.13 2.284 2.284 0 0 1-.608-.258.91.91 0 0 1-.34-.344.45.45 0 0 1-.017-.378.808.808 0 0 1 .307-.35c.153-.107.351-.198.583-.269.232-.071.493-.121.768-.145.275-.025.558-.024.832.002l178.35 14.576c.52.041.98.169 1.3.358.32.189.47.425.43.663-.05.237-.29.458-.68.619-.38.16-.89.249-1.42.248v-.009zm0 33.851c-.23 0-.46-.017-.68-.052l-178.348-27.611a3.22 3.22 0 0 1-.708-.186 1.608 1.608 0 0 1-.498-.295.61.61 0 0 1-.211-.359.486.486 0 0 1 .107-.368c.089-.118.228-.228.41-.322.182-.094.402-.17.65-.226.247-.055.515-.087.79-.095.275-.009.551.008.812.048l178.356 27.614c.47.072.87.218 1.12.411.26.194.35.423.27.645-.08.223-.33.426-.71.571-.38.146-.86.226-1.36.225zm0 37.612c-.34 0-.67-.037-.96-.107l-178.356-42.028c-.478-.12-.834-.32-.991-.557-.158-.237-.106-.493.145-.713.251-.22.682-.387 1.2-.465a4.461 4.461 0 0 1 1.574.046l178.348 42.028c.42.098.75.257.95.451.19.194.23.412.12.619-.11.207-.37.391-.74.522a3.94 3.94 0 0 1-1.29.204zM178.336 236.808l1.163-.097c.283.713 0 1.353-.644 1.407l-.519-1.31zm16.037-.05c-.639.057-1.383-.449-1.65-1.134l1.163-.095.487 1.229zm8.446-1.967l-2.331.193c0-.055-.032-.107-.047-.159l2.3-.188c.026.05.057.102.078.154z" />
</svg>