<svg width="900" height="534" viewBox="0 0 900 534" fill="none" xmlns="http://www.w3.org/2000/svg">
<path d="M719.297 428.337H176.209C175.653 428.337 175.12 428.164 174.727 427.855C174.334 427.547 174.114 427.129 174.114 426.693C174.114 426.257 174.334 425.839 174.727 425.53C175.12 425.222 175.653 425.049 176.209 425.049H719.297C719.853 425.049 720.386 425.222 720.779 425.53C721.172 425.839 721.392 426.257 721.392 426.693C721.392 427.129 721.172 427.547 720.779 427.855C720.386 428.164 719.853 428.337 719.297 428.337ZM740.301 441.337H155.2C154.644 441.337 154.111 441.164 153.718 440.856C153.325 440.548 153.104 440.129 153.104 439.693C153.104 439.257 153.325 438.839 153.718 438.531C154.111 438.222 154.644 438.049 155.2 438.049H740.301C740.857 438.049 741.39 438.222 741.783 438.531C742.176 438.839 742.397 439.257 742.397 439.693C742.397 440.129 742.176 440.548 741.783 440.856C741.39 441.164 740.857 441.337 740.301 441.337ZM754.625 458.477H140.875C140.319 458.477 139.786 458.303 139.393 457.995C139 457.687 138.78 457.269 138.78 456.833C138.78 456.397 139 455.978 139.393 455.67C139.786 455.362 140.319 455.188 140.875 455.188H754.625C755.181 455.188 755.714 455.362 756.107 455.67C756.5 455.978 756.721 456.397 756.721 456.833C756.721 457.269 756.5 457.687 756.107 457.995C755.714 458.303 755.181 458.477 754.625 458.477ZM778.569 480.166H116.937C116.381 480.166 115.848 479.993 115.455 479.684C115.062 479.376 114.841 478.958 114.841 478.522C114.841 478.086 115.062 477.668 115.455 477.359C115.848 477.051 116.381 476.878 116.937 476.878H778.569C779.125 476.878 779.658 477.051 780.051 477.359C780.444 477.668 780.665 478.086 780.665 478.522C780.665 478.958 780.444 479.376 780.051 479.684C779.658 479.993 779.125 480.166 778.569 480.166ZM849.947 506.154L49.1972 506.771C48.6414 506.771 48.1083 506.598 47.7153 506.289C47.3223 505.981 47.1015 505.563 47.1015 505.127C47.1015 504.691 47.3223 504.273 47.7153 503.964C48.1083 503.656 48.6414 503.483 49.1972 503.483L849.947 502.866C850.503 502.866 851.036 503.039 851.429 503.348C851.822 503.656 852.043 504.074 852.043 504.51C852.043 504.946 851.822 505.364 851.429 505.673C851.036 505.981 850.503 506.154 849.947 506.154Z" fill="#F1F1F1"/>
<path d="M447.751 533.997C447.195 533.997 446.662 533.823 446.269 533.515C445.876 533.207 445.655 532.789 445.655 532.353V427.199C445.655 426.763 445.876 426.344 446.269 426.036C446.662 425.728 447.195 425.555 447.751 425.555C448.306 425.555 448.84 425.728 449.233 426.036C449.626 426.344 449.846 426.763 449.846 427.199V532.353C449.846 532.789 449.626 533.207 449.233 533.515C448.84 533.823 448.306 533.997 447.751 533.997ZM378.864 533.997C378.765 534.001 378.665 534.001 378.565 533.997C378.015 533.936 377.519 533.705 377.184 533.357C376.85 533.009 376.706 532.57 376.784 532.139L395.672 426.985C395.75 426.553 396.043 426.162 396.488 425.9C396.932 425.637 397.492 425.524 398.043 425.585C398.594 425.646 399.091 425.877 399.426 426.225C399.76 426.574 399.904 427.013 399.827 427.445L380.934 532.599C380.859 532.988 380.608 533.342 380.229 533.599C379.849 533.855 379.365 533.996 378.864 533.997ZM296.638 533.997C296.308 533.997 295.982 533.936 295.687 533.818C295.392 533.701 295.137 533.53 294.942 533.321C294.748 533.111 294.619 532.868 294.567 532.612C294.515 532.356 294.54 532.094 294.642 531.847L337.699 426.697C337.783 426.492 337.918 426.301 338.096 426.136C338.275 425.972 338.492 425.836 338.737 425.737C338.982 425.639 339.25 425.579 339.524 425.561C339.798 425.544 340.075 425.569 340.337 425.635C340.599 425.701 340.842 425.807 341.052 425.947C341.262 426.086 341.435 426.257 341.56 426.449C341.686 426.642 341.762 426.851 341.785 427.067C341.807 427.282 341.775 427.499 341.691 427.704L298.655 532.854C298.519 533.189 298.249 533.48 297.886 533.686C297.523 533.891 297.086 534 296.638 533.997ZM196.63 533.997C196.258 533.996 195.894 533.918 195.573 533.771C195.252 533.623 194.988 533.411 194.806 533.157C194.624 532.902 194.532 532.615 194.538 532.323C194.545 532.032 194.65 531.747 194.844 531.498L276.399 426.344C276.695 425.984 277.159 425.729 277.691 425.633C278.224 425.538 278.783 425.609 279.249 425.832C279.716 426.055 280.053 426.412 280.189 426.827C280.325 427.242 280.249 427.682 279.977 428.054L198.427 533.207C198.24 533.449 197.976 533.649 197.661 533.787C197.346 533.925 196.991 533.998 196.63 533.997ZM85.52 533.997C85.1124 533.996 84.7137 533.903 84.3727 533.728C84.0318 533.552 83.7634 533.303 83.6004 533.01C83.4375 532.716 83.3871 532.392 83.4554 532.077C83.5237 531.762 83.7077 531.469 83.9849 531.235L208.157 426.081C208.535 425.761 209.059 425.572 209.615 425.555C210.17 425.539 210.712 425.696 211.12 425.992C211.527 426.289 211.768 426.7 211.789 427.136C211.811 427.572 211.61 427.997 211.232 428.317L87.0604 533.458C86.8652 533.627 86.6274 533.762 86.3623 533.854C86.0971 533.947 85.8103 533.995 85.52 533.997ZM517.748 533.997C517.239 534.001 516.746 533.859 516.361 533.599C515.975 533.339 515.723 532.978 515.652 532.583L496.791 427.429C496.747 427.213 496.758 426.993 496.824 426.781C496.89 426.569 497.009 426.369 497.175 426.194C497.34 426.018 497.548 425.87 497.787 425.758C498.026 425.646 498.291 425.573 498.567 425.543C498.842 425.512 499.123 425.525 499.392 425.58C499.661 425.636 499.914 425.732 500.135 425.865C500.356 425.998 500.541 426.164 500.679 426.353C500.817 426.543 500.906 426.752 500.94 426.968L519.833 532.122C519.872 532.336 519.856 532.554 519.787 532.764C519.718 532.973 519.597 533.169 519.431 533.342C519.265 533.514 519.057 533.66 518.82 533.769C518.582 533.879 518.319 533.95 518.047 533.98C517.947 533.99 517.848 533.995 517.748 533.997ZM599.974 533.997C599.53 533.997 599.097 533.886 598.738 533.681C598.379 533.475 598.113 533.186 597.978 532.854L554.942 427.704C554.858 427.499 554.826 427.282 554.848 427.067C554.871 426.851 554.947 426.642 555.073 426.449C555.198 426.257 555.371 426.086 555.581 425.947C555.791 425.807 556.034 425.701 556.296 425.635C556.558 425.569 556.834 425.544 557.109 425.561C557.383 425.579 557.651 425.639 557.896 425.737C558.141 425.836 558.358 425.972 558.537 426.136C558.715 426.301 558.85 426.492 558.934 426.697L601.97 531.847C602.135 532.261 602.085 532.709 601.831 533.094C601.576 533.478 601.139 533.769 600.613 533.902C600.408 533.96 600.192 533.992 599.974 533.997ZM699.977 533.997C699.617 533.997 699.263 533.924 698.949 533.786C698.635 533.648 698.372 533.449 698.185 533.207L616.614 428.054C616.342 427.682 616.266 427.242 616.402 426.827C616.538 426.412 616.875 426.055 617.342 425.832C617.808 425.609 618.367 425.538 618.9 425.633C619.432 425.729 619.896 425.984 620.192 426.344L701.768 531.498C702.056 531.87 702.144 532.317 702.012 532.74C701.881 533.163 701.54 533.528 701.066 533.754C700.738 533.912 700.361 533.996 699.977 533.997ZM811.087 533.997C810.798 533.996 810.513 533.948 810.249 533.857C809.984 533.766 809.747 533.633 809.552 533.466L685.38 428.317C685.193 428.158 685.047 427.972 684.951 427.77C684.856 427.567 684.812 427.352 684.822 427.136C684.833 426.92 684.898 426.708 685.013 426.512C685.127 426.316 685.29 426.139 685.492 425.992C685.694 425.845 685.931 425.731 686.189 425.656C686.448 425.581 686.722 425.547 686.997 425.555C687.272 425.563 687.543 425.614 687.793 425.704C688.043 425.794 688.268 425.922 688.455 426.081L812.627 531.235C812.905 531.469 813.089 531.763 813.157 532.078C813.225 532.394 813.174 532.718 813.01 533.012C812.847 533.305 812.578 533.554 812.236 533.729C811.894 533.904 811.495 533.997 811.087 533.997Z" fill="#F1F1F1"/>
<path d="M769.359 458.476H126.134C125.578 458.476 125.045 458.302 124.652 457.994C124.259 457.686 124.038 457.268 124.038 456.832C124.038 456.396 124.259 455.977 124.652 455.669C125.045 455.361 125.578 455.188 126.134 455.188H769.359C769.915 455.188 770.448 455.361 770.841 455.669C771.234 455.977 771.455 456.396 771.455 456.832C771.455 457.268 771.234 457.686 770.841 457.994C770.448 458.302 769.915 458.476 769.359 458.476ZM778.565 480.165H89.3535C88.7977 480.165 88.2647 479.992 87.8716 479.683C87.4786 479.375 87.2578 478.957 87.2578 478.521C87.2578 478.085 87.4786 477.667 87.8716 477.358C88.2647 477.05 88.7977 476.877 89.3535 476.877H778.565C779.12 476.877 779.654 477.05 780.047 477.358C780.44 477.667 780.66 478.085 780.66 478.521C780.66 478.957 780.44 479.375 780.047 479.683C779.654 479.992 779.12 480.165 778.565 480.165Z" fill="#F1F1F1"/>
<path d="M807.605 480.167H119.84C119.284 480.167 118.751 479.993 118.358 479.685C117.965 479.377 117.744 478.959 117.744 478.523C117.744 478.087 117.965 477.668 118.358 477.36C118.751 477.052 119.284 476.879 119.84 476.879H807.605C808.161 476.879 808.694 477.052 809.087 477.36C809.48 477.668 809.701 478.087 809.701 478.523C809.701 478.959 809.48 479.377 809.087 479.685C808.694 479.993 808.161 480.167 807.605 480.167ZM719.296 109.387H176.209C175.654 109.387 175.121 109.213 174.728 108.905C174.335 108.597 174.114 108.179 174.114 107.743C174.114 107.307 174.335 106.888 174.728 106.58C175.121 106.272 175.654 106.099 176.209 106.099H719.296C719.852 106.099 720.385 106.272 720.778 106.58C721.171 106.888 721.392 107.307 721.392 107.743C721.392 108.179 721.171 108.597 720.778 108.905C720.385 109.213 719.852 109.387 719.296 109.387ZM740.301 96.3822H155.2C154.644 96.3822 154.111 96.209 153.718 95.9007C153.325 95.5923 153.104 95.1742 153.104 94.7381C153.104 94.3021 153.325 93.8839 153.718 93.5756C154.111 93.2673 154.644 93.0941 155.2 93.0941H740.301C740.857 93.0941 741.39 93.2673 741.783 93.5756C742.176 93.8839 742.396 94.3021 742.396 94.7381C742.396 95.1742 742.176 95.5923 741.783 95.9007C741.39 96.209 740.857 96.3822 740.301 96.3822ZM769.363 79.247H126.137C125.581 79.247 125.048 79.0738 124.655 78.7654C124.262 78.4571 124.042 78.0389 124.042 77.6029C124.042 77.1669 124.262 76.7487 124.655 76.4404C125.048 76.1321 125.581 75.9589 126.137 75.9589H769.363C769.919 75.9589 770.452 76.1321 770.845 76.4404C771.238 76.7487 771.459 77.1669 771.459 77.6029C771.459 78.0389 771.238 78.4571 770.845 78.7654C770.452 79.0738 769.919 79.247 769.363 79.247ZM778.569 57.5577H116.937C116.381 57.5577 115.848 57.3845 115.455 57.0762C115.062 56.7679 114.841 56.3497 114.841 55.9137C114.841 55.4777 115.062 55.0595 115.455 54.7512C115.848 54.4428 116.381 54.2696 116.937 54.2696H778.569C779.125 54.2696 779.658 54.4428 780.051 54.7512C780.444 55.0595 780.664 55.4777 780.664 55.9137C780.664 56.3497 780.444 56.7679 780.051 57.0762C779.658 57.3845 779.125 57.5577 778.569 57.5577ZM850.226 31.6971L46.1973 31.5694C45.6415 31.5694 45.1084 31.3962 44.7154 31.0878C44.3224 30.7795 44.1016 30.3613 44.1016 29.9253C44.1016 29.4893 44.3224 29.0711 44.7154 28.7628C45.1084 28.4545 45.6415 28.2812 46.1973 28.2812L850.226 28.409C850.782 28.409 851.315 28.5822 851.708 28.8905C852.101 29.1988 852.322 29.617 852.322 30.053C852.322 30.4891 852.101 30.9072 851.708 31.2155C851.315 31.5239 850.782 31.6971 850.226 31.6971Z" fill="#F1F1F1"/>
<path d="M447.75 108.881C447.195 108.881 446.662 108.707 446.268 108.399C445.875 108.091 445.655 107.672 445.655 107.236V2.08252C445.655 1.64649 445.875 1.22832 446.268 0.919997C446.662 0.611676 447.195 0.438465 447.75 0.438465C448.306 0.438465 448.839 0.611676 449.232 0.919997C449.625 1.22832 449.846 1.64649 449.846 2.08252V107.236C449.846 107.672 449.625 108.091 449.232 108.399C448.839 108.707 448.306 108.881 447.75 108.881ZM397.746 108.881C397.238 108.884 396.745 108.743 396.359 108.483C395.974 108.223 395.722 107.862 395.651 107.467L376.784 2.31269C376.716 1.88486 376.866 1.45334 377.2 1.11108C377.534 0.768824 378.026 0.543218 378.57 0.482855C379.114 0.422492 379.667 0.532203 380.109 0.788356C380.551 1.04451 380.847 1.42661 380.933 1.85236L399.826 107.002C399.865 107.216 399.849 107.434 399.78 107.643C399.711 107.853 399.59 108.049 399.424 108.222C399.258 108.394 399.051 108.539 398.813 108.649C398.575 108.758 398.313 108.83 398.04 108.86C397.943 108.873 397.845 108.88 397.746 108.881ZM339.674 108.881C339.23 108.881 338.797 108.77 338.438 108.565C338.079 108.359 337.813 108.07 337.678 107.738L294.642 2.58396C294.472 2.16864 294.519 1.71728 294.773 1.32919C295.027 0.941088 295.467 0.648036 295.996 0.514502C296.526 0.380967 297.101 0.417884 297.596 0.617136C298.09 0.816388 298.464 1.16165 298.634 1.57697L341.67 106.731C341.771 106.977 341.796 107.239 341.743 107.495C341.69 107.75 341.561 107.992 341.367 108.202C341.172 108.411 340.918 108.581 340.623 108.698C340.329 108.815 340.004 108.876 339.674 108.876V108.881ZM278.211 108.881C277.851 108.881 277.498 108.808 277.184 108.67C276.87 108.532 276.607 108.333 276.42 108.091L194.843 2.93743C194.554 2.56463 194.466 2.11702 194.598 1.69308C194.729 1.26914 195.07 0.90359 195.545 0.676854C196.021 0.450118 196.591 0.380766 197.132 0.484053C197.672 0.58734 198.138 0.854805 198.427 1.22761L279.998 106.377C280.191 106.627 280.297 106.911 280.303 107.203C280.31 107.495 280.218 107.782 280.036 108.037C279.854 108.291 279.589 108.503 279.269 108.65C278.948 108.798 278.583 108.876 278.211 108.876V108.881ZM209.681 108.881C209.392 108.881 209.106 108.834 208.841 108.744C208.576 108.653 208.337 108.521 208.141 108.354L83.969 3.20459C83.7818 3.04617 83.6363 2.86039 83.5407 2.65785C83.445 2.45531 83.4012 2.23998 83.4117 2.02415C83.4221 1.80832 83.4867 1.59622 83.6016 1.39995C83.7166 1.20369 83.8797 1.02712 84.0816 0.880304C84.2836 0.733492 84.5204 0.619318 84.7786 0.544304C85.0367 0.469291 85.3112 0.434906 85.5864 0.443112C85.8615 0.451318 86.1319 0.501956 86.382 0.592131C86.6322 0.682307 86.8573 0.810254 87.0444 0.968671L211.216 106.118C211.493 106.353 211.677 106.646 211.746 106.961C211.814 107.276 211.764 107.6 211.601 107.894C211.438 108.187 211.169 108.436 210.828 108.611C210.488 108.787 210.089 108.88 209.681 108.881ZM498.865 108.881C498.766 108.887 498.666 108.887 498.567 108.881C498.016 108.819 497.52 108.589 497.185 108.241C496.851 107.893 496.707 107.454 496.785 107.023L515.647 1.8729C515.725 1.44069 516.018 1.05043 516.463 0.787968C516.907 0.52551 517.467 0.412353 518.018 0.473398C518.568 0.534442 519.066 0.764688 519.401 1.11348C519.735 1.46226 519.879 1.90103 519.801 2.33324L500.909 107.483C500.834 107.868 500.588 108.22 500.214 108.476C499.839 108.732 499.362 108.875 498.865 108.881ZM556.938 108.881C556.719 108.881 556.502 108.855 556.293 108.802C555.768 108.669 555.332 108.378 555.079 107.993C554.826 107.608 554.777 107.16 554.942 106.747L597.977 1.59341C598.148 1.17809 598.521 0.832832 599.016 0.63358C599.51 0.434328 600.086 0.397405 600.615 0.530939C601.145 0.664474 601.585 0.957526 601.839 1.34562C602.093 1.73372 602.14 2.18508 601.97 2.6004L558.934 107.75C558.796 108.08 558.528 108.367 558.17 108.57C557.811 108.773 557.38 108.881 556.938 108.881ZM618.4 108.881C618.028 108.88 617.664 108.802 617.343 108.654C617.022 108.507 616.758 108.295 616.576 108.041C616.394 107.786 616.302 107.499 616.308 107.207C616.315 106.916 616.42 106.631 616.614 106.382L698.164 1.22761C698.453 0.854805 698.919 0.58734 699.459 0.484053C699.999 0.380766 700.57 0.450118 701.045 0.676854C701.52 0.90359 701.861 1.26914 701.993 1.69308C702.125 2.11702 702.036 2.56463 701.747 2.93743L620.171 108.087C619.986 108.327 619.727 108.525 619.417 108.664C619.107 108.803 618.757 108.878 618.4 108.881ZM686.93 108.881C686.522 108.881 686.123 108.788 685.781 108.613C685.439 108.438 685.17 108.189 685.007 107.895C684.843 107.602 684.792 107.278 684.86 106.962C684.928 106.646 685.113 106.353 685.39 106.118L809.562 0.968671C809.749 0.810254 809.974 0.682307 810.224 0.592131C810.474 0.501956 810.745 0.451318 811.02 0.443112C811.295 0.434906 811.57 0.469291 811.828 0.544304C812.086 0.619318 812.323 0.733492 812.525 0.880304C812.727 1.02712 812.89 1.20369 813.005 1.39995C813.12 1.59622 813.184 1.80832 813.195 2.02415C813.205 2.23998 813.161 2.45531 813.066 2.65785C812.97 2.86039 812.824 3.04617 812.637 3.20459L688.466 108.354C688.27 108.52 688.032 108.652 687.768 108.743C687.504 108.834 687.219 108.88 686.93 108.881Z" fill="#F1F1F1"/>
<path d="M806.15 57.5576H89.3535C88.7977 57.5576 88.2647 57.3844 87.8716 57.0761C87.4786 56.7678 87.2578 56.3496 87.2578 55.9136C87.2578 55.4776 87.4786 55.0594 87.8716 54.7511C88.2647 54.4427 88.7977 54.2695 89.3535 54.2695H806.15C806.705 54.2695 807.239 54.4427 807.632 54.7511C808.025 55.0594 808.245 55.4776 808.245 55.9136C808.245 56.3496 808.025 56.7678 807.632 57.0761C807.239 57.3844 806.705 57.5576 806.15 57.5576Z" fill="#F1F1F1"/>
<path d="M2.18328 533.997C1.74517 533.998 1.31771 533.891 0.961004 533.691C0.604296 533.492 0.336274 533.21 0.194613 532.884C0.0529525 532.559 0.0447755 532.207 0.171237 531.878C0.297699 531.549 0.55245 531.26 0.899654 531.05L174.111 425.884V108.548L0.899654 3.38148C0.45986 3.11442 0.173313 2.72123 0.10306 2.28842C0.0328065 1.85562 0.184588 1.41865 0.525029 1.07364C0.865469 0.728627 1.36668 0.503843 1.91838 0.44873C2.47009 0.393618 3.02712 0.512694 3.46692 0.779763L177.491 106.443C177.743 106.597 177.948 106.794 178.089 107.019C178.229 107.244 178.303 107.491 178.303 107.742V426.689C178.303 426.94 178.229 427.187 178.089 427.413C177.948 427.638 177.743 427.835 177.491 427.988L3.46692 533.652C3.09969 533.875 2.64812 533.997 2.18328 533.997Z" fill="#F1F1F1"/>
<path d="M155.196 441.338C154.64 441.338 154.107 441.164 153.714 440.856C153.321 440.548 153.1 440.13 153.1 439.694V94.7375C153.1 94.3014 153.321 93.8833 153.714 93.575C154.107 93.2666 154.64 93.0934 155.196 93.0934C155.751 93.0934 156.284 93.2666 156.677 93.575C157.07 93.8833 157.291 94.3014 157.291 94.7375V439.694C157.291 440.13 157.07 440.548 156.677 440.856C156.284 441.164 155.751 441.338 155.196 441.338ZM126.133 458.477C125.577 458.477 125.044 458.304 124.651 457.995C124.258 457.687 124.037 457.269 124.037 456.833V77.6023C124.037 77.1663 124.258 76.7481 124.651 76.4398C125.044 76.1314 125.577 75.9582 126.133 75.9582C126.689 75.9582 127.222 76.1314 127.615 76.4398C128.008 76.7481 128.229 77.1663 128.229 77.6023V456.833C128.229 457.269 128.008 457.687 127.615 457.995C127.222 458.304 126.689 458.477 126.133 458.477ZM89.3529 480.166C88.7971 480.166 88.264 479.993 87.871 479.685C87.478 479.376 87.2572 478.958 87.2572 478.522V55.9131C87.2572 55.477 87.478 55.0589 87.871 54.7505C88.264 54.4422 88.7971 54.269 89.3529 54.269C89.9087 54.269 90.4418 54.4422 90.8348 54.7505C91.2279 55.0589 91.4487 55.477 91.4487 55.9131V478.522C91.4487 478.958 91.2279 479.376 90.8348 479.685C90.4418 479.993 89.9087 480.166 89.3529 480.166ZM44.3457 508.591C43.7899 508.591 43.2568 508.418 42.8638 508.11C42.4708 507.801 42.25 507.383 42.25 506.947L43.2003 28.1265C43.2003 27.6904 43.421 27.2723 43.8141 26.964C44.2071 26.6556 44.7402 26.4824 45.296 26.4824C45.8518 26.4824 46.3849 26.6556 46.7779 26.964C47.1709 27.2723 47.3917 27.6904 47.3917 28.1265L46.4415 506.947C46.4415 507.383 46.2207 507.801 45.8276 508.11C45.4346 508.418 44.9015 508.591 44.3457 508.591Z" fill="#F1F1F1"/>
<path d="M176.396 268.86H2.18375C1.62793 268.86 1.09488 268.687 0.70185 268.378C0.308825 268.07 0.0880277 267.652 0.0880277 267.216C0.0880277 266.78 0.308825 266.362 0.70185 266.053C1.09488 265.745 1.62793 265.572 2.18375 265.572H176.396C176.952 265.572 177.485 265.745 177.878 266.053C178.271 266.362 178.492 266.78 178.492 267.216C178.492 267.652 178.271 268.07 177.878 268.378C177.485 268.687 176.952 268.86 176.396 268.86ZM176.396 239.608H176.223L2.01609 228.552C1.74088 228.534 1.47269 228.475 1.22685 228.376C0.981013 228.278 0.762344 228.142 0.583307 227.977C0.404269 227.812 0.268382 227.621 0.183403 227.415C0.0984239 227.209 0.0660105 226.992 0.0880277 226.776C0.110045 226.56 0.186054 226.35 0.311716 226.157C0.437377 225.964 0.610235 225.793 0.82041 225.652C1.03058 225.512 1.27397 225.405 1.53666 225.338C1.79935 225.272 2.0762 225.246 2.35142 225.264L176.564 236.316C177.12 236.333 177.644 236.523 178.021 236.844C178.399 237.164 178.598 237.59 178.576 238.026C178.554 238.462 178.311 238.873 177.903 239.169C177.494 239.465 176.952 239.621 176.396 239.604V239.608ZM176.396 205.634C176.268 205.633 176.14 205.625 176.014 205.609L1.80129 180.43C1.25451 180.351 0.770125 180.105 0.454722 179.746C0.13932 179.387 0.0187197 178.944 0.119462 178.515C0.220205 178.086 0.534035 177.706 0.991909 177.458C1.44978 177.211 2.0142 177.116 2.56099 177.195L176.773 202.374C177.285 202.45 177.742 202.673 178.056 202.999C178.37 203.325 178.518 203.731 178.47 204.138C178.423 204.545 178.185 204.924 177.801 205.2C177.418 205.476 176.917 205.631 176.396 205.634ZM176.396 169.678C176.161 169.677 175.927 169.645 175.705 169.583L1.49216 121.861C1.22703 121.793 0.981838 121.684 0.770955 121.541C0.560073 121.398 0.387749 121.223 0.264068 121.027C0.140387 120.831 0.0678454 120.617 0.0506931 120.399C0.0335407 120.18 0.0721277 119.962 0.164184 119.755C0.25624 119.549 0.399913 119.358 0.586792 119.196C0.773672 119.034 0.999998 118.902 1.2525 118.809C1.505 118.716 1.7786 118.664 2.05726 118.655C2.33593 118.646 2.61406 118.681 2.87535 118.757L177.088 166.48C177.557 166.608 177.953 166.861 178.206 167.196C178.458 167.531 178.552 167.925 178.469 168.309C178.386 168.693 178.132 169.041 177.752 169.292C177.373 169.542 176.892 169.679 176.396 169.678ZM176.391 129.588C176.049 129.587 175.713 129.521 175.411 129.395L1.19876 56.76C0.707553 56.5551 0.340245 56.2055 0.177631 55.7881C0.0150167 55.3707 0.070418 54.9197 0.331654 54.5344C0.59289 54.149 1.03856 53.8609 1.57062 53.7333C2.10268 53.6058 2.67754 53.6492 3.16875 53.8542L177.376 126.489C177.791 126.66 178.121 126.936 178.313 127.272C178.505 127.608 178.547 127.984 178.434 128.341C178.32 128.699 178.057 129.015 177.687 129.241C177.317 129.467 176.86 129.589 176.391 129.588ZM2.17851 309.813C1.62269 309.83 1.08108 309.673 0.67283 309.377C0.264575 309.081 0.0231126 308.669 0.00157449 308.233C-0.0199636 307.797 0.180185 307.372 0.55798 307.052C0.935775 306.732 1.46027 306.542 2.01609 306.525L176.223 295.481C176.499 295.464 176.775 295.489 177.038 295.555C177.301 295.622 177.545 295.728 177.755 295.868C177.966 296.009 178.139 296.18 178.265 296.373C178.391 296.566 178.467 296.776 178.489 296.992C178.512 297.208 178.48 297.425 178.395 297.631C178.31 297.837 178.175 298.028 177.996 298.193C177.817 298.359 177.599 298.494 177.353 298.593C177.107 298.692 176.839 298.752 176.564 298.769L2.35142 309.809L2.17851 309.813ZM2.17851 357.914C1.65773 357.912 1.15681 357.757 0.773354 357.481C0.389896 357.204 0.15138 356.826 0.104289 356.419C0.0571977 356.012 0.204911 355.606 0.518631 355.28C0.832351 354.954 1.28961 354.731 1.80129 354.655L176.014 329.476C176.561 329.397 177.125 329.492 177.583 329.739C178.041 329.987 178.355 330.367 178.455 330.796C178.556 331.225 178.435 331.667 178.12 332.027C177.805 332.386 177.32 332.632 176.773 332.711L2.56099 357.886C2.43507 357.905 2.30691 357.915 2.17851 357.914ZM2.18375 416.418C1.68766 416.419 1.20712 416.282 0.827653 416.032C0.44818 415.781 0.194373 415.433 0.111388 415.049C0.0284025 414.665 0.121622 414.271 0.374457 413.936C0.627292 413.601 1.02334 413.348 1.49216 413.22L175.705 365.498C176.23 365.354 176.807 365.379 177.308 365.569C177.809 365.759 178.193 366.097 178.377 366.509C178.56 366.921 178.527 367.373 178.286 367.766C178.044 368.159 177.613 368.461 177.088 368.605L2.87535 416.32C2.65401 416.384 2.41989 416.417 2.18375 416.418ZM2.18375 481.42C1.71638 481.42 1.26247 481.297 0.894167 481.072C0.525867 480.846 0.264319 480.53 0.151105 480.174C0.0378905 479.819 0.0795 479.443 0.269328 479.108C0.459157 478.773 0.786298 478.498 1.19876 478.325L175.411 405.691C175.655 405.58 175.925 405.508 176.205 405.481C176.484 405.453 176.768 405.47 177.04 405.531C177.311 405.592 177.563 405.695 177.783 405.834C178.002 405.973 178.183 406.146 178.315 406.341C178.448 406.536 178.528 406.75 178.553 406.971C178.577 407.191 178.544 407.413 178.456 407.623C178.369 407.834 178.228 408.028 178.042 408.194C177.856 408.361 177.63 408.496 177.376 408.592L3.16875 481.227C2.86556 481.354 2.52731 481.42 2.18375 481.42ZM897.457 533.997C897.001 533.997 896.558 533.88 896.194 533.664L718.026 428.005C717.769 427.851 717.56 427.653 717.416 427.425C717.273 427.198 717.198 426.947 717.198 426.694V107.746C717.198 107.493 717.273 107.242 717.416 107.015C717.56 106.787 717.769 106.589 718.026 106.435L896.21 0.783988C896.429 0.645765 896.681 0.543407 896.951 0.48299C897.221 0.422572 897.503 0.405325 897.782 0.432278C898.06 0.45923 898.329 0.52983 898.573 0.639886C898.816 0.749942 899.028 0.897209 899.198 1.07294C899.367 1.24868 899.489 1.44931 899.558 1.6629C899.626 1.87649 899.639 2.0987 899.596 2.31634C899.553 2.53398 899.455 2.74261 899.307 2.92984C899.159 3.11707 898.965 3.27908 898.735 3.40626L721.39 108.56V425.863L898.72 531.029C899.07 531.237 899.328 531.526 899.458 531.855C899.587 532.184 899.582 532.537 899.442 532.863C899.303 533.19 899.036 533.474 898.68 533.675C898.324 533.876 897.896 533.984 897.457 533.985V533.997Z" fill="#F1F1F1"/>
<path d="M740.299 441.337C739.743 441.337 739.21 441.164 738.817 440.855C738.424 440.547 738.203 440.129 738.203 439.693V94.7368C738.203 94.3007 738.424 93.8826 738.817 93.5742C739.21 93.2659 739.743 93.0927 740.299 93.0927C740.855 93.0927 741.388 93.2659 741.781 93.5742C742.174 93.8826 742.395 94.3007 742.395 94.7368V439.693C742.395 440.129 742.174 440.547 741.781 440.855C741.388 441.164 740.855 441.337 740.299 441.337ZM769.361 458.476C768.806 458.476 768.272 458.303 767.879 457.995C767.486 457.686 767.266 457.268 767.266 456.832V77.6016C767.266 77.1655 767.486 76.7474 767.879 76.439C768.272 76.1307 768.806 75.9575 769.361 75.9575C769.917 75.9575 770.45 76.1307 770.843 76.439C771.236 76.7474 771.457 77.1655 771.457 77.6016V456.832C771.457 457.268 771.236 457.686 770.843 457.995C770.45 458.303 769.917 458.476 769.361 458.476ZM807.603 480.165C807.047 480.165 806.514 479.992 806.121 479.684C805.728 479.376 805.507 478.957 805.507 478.521L804.056 55.9123C804.056 55.4763 804.277 55.0581 804.67 54.7498C805.063 54.4415 805.596 54.2683 806.152 54.2683C806.708 54.2683 807.241 54.4415 807.634 54.7498C808.027 55.0581 808.248 55.4763 808.248 55.9123L809.699 478.521C809.699 478.957 809.478 479.376 809.085 479.684C808.692 479.992 808.159 480.165 807.603 480.165ZM851.147 506.246C850.591 506.246 850.058 506.072 849.665 505.764C849.272 505.456 849.051 505.038 849.051 504.602L849.214 29.854C849.214 29.418 849.435 28.9998 849.828 28.6915C850.221 28.3832 850.754 28.21 851.31 28.21C851.866 28.21 852.399 28.3832 852.792 28.6915C853.185 28.9998 853.406 29.418 853.406 29.854L853.243 504.602C853.243 505.038 853.022 505.456 852.629 505.764C852.236 506.072 851.703 506.246 851.147 506.246Z" fill="#F1F1F1"/>
<path d="M897.46 268.86H719.124C718.568 268.86 718.035 268.687 717.642 268.378C717.249 268.07 717.028 267.652 717.028 267.216C717.028 266.78 717.249 266.362 717.642 266.053C718.035 265.745 718.568 265.572 719.124 265.572H897.475C898.031 265.572 898.564 265.745 898.957 266.053C899.35 266.362 899.571 266.78 899.571 267.216C899.571 267.652 899.35 268.07 898.957 268.378C898.564 268.687 898.031 268.86 897.475 268.86H897.46ZM719.124 239.608C718.568 239.625 718.026 239.468 717.618 239.172C717.21 238.875 716.968 238.464 716.947 238.028C716.925 237.592 717.126 237.167 717.503 236.847C717.881 236.526 718.406 236.337 718.961 236.32L897.318 225.268C897.874 225.233 898.424 225.374 898.848 225.658C899.272 225.942 899.535 226.346 899.579 226.782C899.623 227.218 899.444 227.65 899.082 227.983C898.72 228.315 898.204 228.522 897.648 228.556L719.291 239.604L719.124 239.608ZM719.124 205.634C718.604 205.629 718.105 205.473 717.723 205.196C717.341 204.919 717.105 204.541 717.059 204.134C717.013 203.728 717.162 203.323 717.476 202.998C717.789 202.672 718.246 202.45 718.757 202.374L897.109 177.196C897.383 177.151 897.666 177.149 897.94 177.192C898.215 177.234 898.476 177.319 898.708 177.442C898.94 177.565 899.139 177.723 899.292 177.907C899.445 178.091 899.549 178.297 899.599 178.513C899.648 178.729 899.642 178.951 899.581 179.165C899.52 179.38 899.404 179.582 899.242 179.761C899.079 179.939 898.872 180.091 898.633 180.206C898.395 180.321 898.129 180.397 897.853 180.43L719.501 205.609C719.376 205.625 719.25 205.634 719.124 205.634ZM719.124 169.678C718.626 169.679 718.145 169.541 717.765 169.289C717.385 169.037 717.132 168.688 717.05 168.303C716.969 167.918 717.065 167.522 717.321 167.188C717.577 166.853 717.977 166.601 718.448 166.476L896.784 118.745C897.046 118.669 897.325 118.635 897.604 118.645C897.884 118.656 898.158 118.709 898.41 118.804C898.662 118.898 898.888 119.031 899.074 119.195C899.26 119.359 899.402 119.55 899.492 119.757C899.582 119.965 899.619 120.185 899.599 120.403C899.579 120.622 899.504 120.836 899.378 121.031C899.251 121.227 899.076 121.401 898.863 121.542C898.65 121.684 898.402 121.791 898.136 121.857L719.784 169.588C719.572 169.646 719.349 169.677 719.124 169.678ZM719.124 129.588C718.655 129.587 718.199 129.464 717.83 129.236C717.461 129.009 717.2 128.691 717.089 128.333C716.978 127.975 717.023 127.599 717.217 127.264C717.412 126.929 717.743 126.654 718.16 126.485L896.511 53.8501C896.756 53.7437 897.026 53.677 897.305 53.6537C897.583 53.6305 897.865 53.6513 898.133 53.7149C898.401 53.7784 898.65 53.8835 898.865 54.0239C899.081 54.1642 899.258 54.337 899.387 54.532C899.516 54.7271 899.593 54.9404 899.615 55.1594C899.637 55.3784 899.603 55.5986 899.515 55.8071C899.427 56.0155 899.286 56.208 899.101 56.3731C898.916 56.5382 898.691 56.6726 898.439 56.7683L720.072 129.403C719.779 129.521 719.454 129.585 719.124 129.588ZM897.46 309.813H897.297L718.94 298.769C718.665 298.752 718.397 298.693 718.151 298.595C717.905 298.496 717.686 298.361 717.507 298.196C717.328 298.032 717.191 297.841 717.106 297.635C717.021 297.429 716.988 297.212 717.01 296.996C717.031 296.78 717.107 296.57 717.232 296.377C717.358 296.184 717.53 296.012 717.74 295.871C717.95 295.731 718.193 295.624 718.456 295.557C718.719 295.49 718.995 295.464 719.271 295.481L897.627 306.529C897.903 306.538 898.173 306.589 898.423 306.68C898.673 306.77 898.898 306.899 899.085 307.057C899.272 307.216 899.417 307.402 899.512 307.605C899.607 307.808 899.65 308.023 899.639 308.239C899.628 308.455 899.563 308.667 899.448 308.863C899.332 309.06 899.169 309.236 898.966 309.383C898.764 309.529 898.527 309.643 898.268 309.718C898.01 309.792 897.735 309.826 897.46 309.818V309.813ZM897.465 357.914C897.339 357.914 897.212 357.906 897.088 357.89L718.736 332.711C718.459 332.678 718.194 332.602 717.955 332.487C717.717 332.372 717.51 332.22 717.347 332.042C717.184 331.863 717.069 331.66 717.008 331.446C716.946 331.232 716.94 331.01 716.99 330.794C717.04 330.578 717.144 330.372 717.297 330.188C717.45 330.004 717.648 329.846 717.881 329.723C718.113 329.6 718.374 329.515 718.649 329.473C718.923 329.43 719.206 329.432 719.48 329.476L897.832 354.667C898.349 354.738 898.813 354.959 899.132 355.286C899.452 355.612 899.604 356.021 899.558 356.431C899.512 356.841 899.271 357.223 898.883 357.501C898.496 357.778 897.99 357.932 897.465 357.931V357.914ZM897.46 416.418C897.229 416.418 897.001 416.388 896.784 416.328L718.432 368.609C718.172 368.539 717.931 368.43 717.724 368.288C717.517 368.145 717.348 367.972 717.226 367.778C717.104 367.584 717.033 367.373 717.015 367.158C716.997 366.942 717.034 366.726 717.122 366.521C717.211 366.317 717.35 366.128 717.532 365.965C717.714 365.803 717.935 365.67 718.182 365.575C718.429 365.479 718.698 365.423 718.973 365.409C719.248 365.395 719.523 365.424 719.784 365.494L898.136 413.216C898.607 413.341 899.006 413.593 899.262 413.928C899.518 414.263 899.614 414.658 899.533 415.043C899.452 415.428 899.199 415.778 898.819 416.03C898.439 416.282 897.957 416.419 897.46 416.418ZM897.46 481.42C897.124 481.421 896.793 481.357 896.496 481.235L718.144 408.601C717.666 408.393 717.311 408.048 717.153 407.638C716.995 407.228 717.047 406.786 717.298 406.406C717.549 406.025 717.98 405.737 718.498 405.602C719.016 405.467 719.581 405.496 720.072 405.683L898.424 478.317C898.84 478.487 899.172 478.761 899.366 479.096C899.56 479.431 899.605 479.808 899.494 480.165C899.383 480.523 899.122 480.841 898.753 481.069C898.384 481.296 897.929 481.42 897.46 481.42Z" fill="#F1F1F1"/>
<path d="M41.1562 355.382L42.3194 355.214C42.6023 356.447 42.3194 357.553 41.6749 357.647L41.1562 355.382ZM57.1938 355.296C56.5546 355.395 55.8106 354.519 55.5434 353.336L56.7065 353.171L57.1938 355.296ZM65.6396 351.897L63.3081 352.23C63.3081 352.135 63.2766 352.045 63.2609 351.955L65.561 351.63C65.5872 351.716 65.6186 351.807 65.6396 351.897Z" fill="#F1F1F1"/>
</svg>
