<svg width="1081" height="400" viewBox="0 0 1081 400" fill="none" xmlns="http://www.w3.org/2000/svg">
<path d="M863.802 320.888H211.835C211.168 320.888 210.528 320.759 210.056 320.528C209.584 320.297 209.319 319.984 209.319 319.658C209.319 319.332 209.584 319.019 210.056 318.788C210.528 318.557 211.168 318.428 211.835 318.428H863.802C864.469 318.428 865.109 318.557 865.581 318.788C866.053 319.019 866.318 319.332 866.318 319.658C866.318 319.984 866.053 320.297 865.581 320.528C865.109 320.759 864.469 320.888 863.802 320.888ZM889.018 330.617H186.613C185.946 330.617 185.306 330.488 184.834 330.257C184.363 330.026 184.098 329.713 184.098 329.387C184.098 329.061 184.363 328.748 184.834 328.517C185.306 328.286 185.946 328.157 186.613 328.157H889.018C889.685 328.157 890.325 328.286 890.797 328.517C891.268 328.748 891.534 329.061 891.534 329.387C891.534 329.713 891.268 330.026 890.797 330.257C890.325 330.488 889.685 330.617 889.018 330.617ZM906.214 343.443H169.417C168.75 343.443 168.11 343.314 167.638 343.083C167.167 342.852 166.902 342.539 166.902 342.213C166.902 341.887 167.167 341.574 167.638 341.343C168.11 341.112 168.75 340.983 169.417 340.983H906.214C906.881 340.983 907.521 341.112 907.993 341.343C908.465 341.574 908.73 341.887 908.73 342.213C908.73 342.539 908.465 342.852 907.993 343.083C907.521 343.314 906.881 343.443 906.214 343.443ZM934.958 359.674H140.68C140.013 359.674 139.373 359.545 138.901 359.314C138.429 359.083 138.164 358.77 138.164 358.444C138.164 358.118 138.429 357.805 138.901 357.574C139.373 357.343 140.013 357.214 140.68 357.214H934.958C935.625 357.214 936.265 357.343 936.737 357.574C937.209 357.805 937.474 358.118 937.474 358.444C937.474 358.77 937.209 359.083 936.737 359.314C936.265 359.545 935.625 359.674 934.958 359.674ZM1020.65 379.123L59.3595 379.584C58.6923 379.584 58.0523 379.455 57.5805 379.224C57.1087 378.993 56.8436 378.68 56.8436 378.354C56.8436 378.028 57.1087 377.715 57.5805 377.484C58.0523 377.253 58.6923 377.124 59.3595 377.124L1020.65 376.662C1021.31 376.662 1021.95 376.792 1022.42 377.022C1022.9 377.253 1023.16 377.566 1023.16 377.892C1023.16 378.219 1022.9 378.532 1022.42 378.762C1021.95 378.993 1021.31 379.123 1020.65 379.123Z" fill="#F1F1F1"/>
<path d="M537.811 399.959C537.144 399.959 536.504 399.829 536.032 399.598C535.56 399.367 535.295 399.055 535.295 398.728V320.037C535.295 319.71 535.56 319.397 536.032 319.167C536.504 318.936 537.144 318.806 537.811 318.806C538.478 318.806 539.118 318.936 539.59 319.167C540.062 319.397 540.327 319.71 540.327 320.037V398.728C540.327 399.055 540.062 399.367 539.59 399.598C539.118 399.829 538.478 399.959 537.811 399.959ZM455.114 399.959C454.994 399.962 454.875 399.962 454.755 399.959C454.095 399.913 453.498 399.741 453.097 399.48C452.696 399.219 452.523 398.891 452.617 398.568L475.291 319.877C475.385 319.553 475.737 319.261 476.271 319.065C476.804 318.868 477.476 318.784 478.137 318.829C478.799 318.875 479.396 319.047 479.798 319.308C480.199 319.569 480.372 319.898 480.279 320.221L457.598 398.913C457.508 399.204 457.208 399.469 456.752 399.661C456.296 399.853 455.715 399.958 455.114 399.959ZM356.403 399.959C356.006 399.959 355.615 399.913 355.261 399.825C354.907 399.737 354.601 399.61 354.367 399.453C354.134 399.296 353.979 399.114 353.916 398.922C353.854 398.731 353.885 398.535 354.007 398.35L405.696 319.661C405.797 319.507 405.959 319.365 406.173 319.242C406.387 319.118 406.648 319.017 406.942 318.943C407.236 318.869 407.557 318.824 407.887 318.811C408.216 318.798 408.548 318.817 408.862 318.866C409.177 318.916 409.469 318.995 409.721 319.1C409.973 319.204 410.18 319.332 410.331 319.476C410.482 319.62 410.574 319.777 410.601 319.938C410.628 320.099 410.59 320.261 410.488 320.415L358.825 399.104C358.661 399.354 358.337 399.572 357.901 399.726C357.466 399.88 356.941 399.961 356.403 399.959ZM236.345 399.959C235.899 399.958 235.461 399.9 235.076 399.789C234.691 399.679 234.373 399.52 234.155 399.33C233.937 399.14 233.826 398.924 233.834 398.706C233.842 398.488 233.968 398.275 234.2 398.088L332.106 319.397C332.462 319.128 333.019 318.937 333.658 318.865C334.297 318.794 334.968 318.847 335.528 319.014C336.088 319.181 336.492 319.448 336.656 319.758C336.819 320.069 336.728 320.398 336.402 320.676L238.503 399.368C238.277 399.549 237.96 399.698 237.582 399.802C237.205 399.905 236.778 399.959 236.345 399.959V399.959ZM102.959 399.959C102.47 399.958 101.991 399.888 101.582 399.757C101.173 399.626 100.851 399.439 100.655 399.22C100.459 399.001 100.399 398.758 100.481 398.522C100.563 398.286 100.784 398.067 101.117 397.892L250.183 319.2C250.636 318.961 251.266 318.819 251.933 318.807C252.6 318.794 253.25 318.912 253.739 319.134C254.229 319.356 254.518 319.664 254.544 319.99C254.569 320.316 254.328 320.634 253.875 320.873L104.809 399.556C104.574 399.682 104.289 399.783 103.971 399.852C103.652 399.921 103.308 399.958 102.959 399.959V399.959ZM621.841 399.959C621.231 399.962 620.639 399.856 620.176 399.661C619.713 399.466 619.411 399.196 619.326 398.9L596.683 320.209C596.63 320.048 596.644 319.883 596.723 319.724C596.802 319.565 596.945 319.416 597.144 319.284C597.342 319.153 597.592 319.042 597.879 318.959C598.166 318.875 598.484 318.82 598.815 318.797C599.146 318.774 599.482 318.784 599.806 318.825C600.129 318.867 600.432 318.939 600.697 319.039C600.962 319.138 601.184 319.262 601.35 319.404C601.516 319.546 601.623 319.702 601.664 319.864L624.345 398.556C624.391 398.716 624.372 398.879 624.289 399.036C624.206 399.192 624.061 399.34 623.862 399.469C623.663 399.598 623.413 399.706 623.128 399.788C622.843 399.87 622.527 399.924 622.2 399.946C622.081 399.954 621.961 399.958 621.841 399.959V399.959ZM720.552 399.959C720.019 399.959 719.499 399.876 719.069 399.722C718.638 399.568 718.318 399.352 718.156 399.104L666.492 320.415C666.391 320.261 666.353 320.099 666.38 319.938C666.406 319.777 666.498 319.62 666.649 319.476C666.8 319.332 667.007 319.204 667.259 319.1C667.512 318.995 667.803 318.916 668.118 318.866C668.433 318.817 668.764 318.798 669.094 318.811C669.423 318.824 669.744 318.869 670.038 318.943C670.332 319.017 670.594 319.118 670.808 319.242C671.021 319.365 671.184 319.507 671.285 319.661L722.948 398.35C723.146 398.66 723.086 398.995 722.781 399.283C722.476 399.571 721.951 399.788 721.319 399.888C721.073 399.931 720.814 399.955 720.552 399.959V399.959ZM840.604 399.959C840.172 399.959 839.747 399.905 839.37 399.801C838.993 399.698 838.677 399.549 838.453 399.368L740.528 320.676C740.202 320.398 740.111 320.069 740.274 319.758C740.438 319.448 740.842 319.181 741.402 319.014C741.962 318.847 742.633 318.794 743.272 318.865C743.911 318.937 744.468 319.128 744.824 319.397L842.755 398.088C843.1 398.367 843.205 398.701 843.047 399.018C842.889 399.335 842.481 399.608 841.912 399.777C841.518 399.895 841.065 399.958 840.604 399.959ZM973.989 399.959C973.643 399.958 973.3 399.923 972.983 399.854C972.666 399.786 972.381 399.686 972.147 399.562L823.08 320.873C822.856 320.755 822.681 320.616 822.566 320.464C822.452 320.312 822.399 320.151 822.411 319.99C822.424 319.828 822.502 319.67 822.64 319.523C822.778 319.376 822.973 319.244 823.216 319.134C823.458 319.024 823.742 318.939 824.052 318.882C824.362 318.826 824.692 318.801 825.022 318.807C825.352 318.813 825.677 318.851 825.977 318.918C826.278 318.986 826.548 319.081 826.773 319.2L975.839 397.892C976.172 398.067 976.393 398.287 976.475 398.523C976.556 398.759 976.495 399.002 976.299 399.221C976.103 399.441 975.779 399.628 975.369 399.759C974.959 399.889 974.479 399.959 973.989 399.959V399.959Z" fill="#F1F1F1"/>
<path d="M923.898 343.441H151.717C151.049 343.441 150.409 343.312 149.938 343.081C149.466 342.85 149.201 342.537 149.201 342.211C149.201 341.884 149.466 341.572 149.938 341.341C150.409 341.11 151.049 340.98 151.717 340.98H923.898C924.565 340.98 925.205 341.11 925.677 341.341C926.148 341.572 926.413 341.884 926.413 342.211C926.413 342.537 926.148 342.85 925.677 343.081C925.205 343.312 924.565 343.441 923.898 343.441ZM934.949 359.672H107.563C106.896 359.672 106.256 359.543 105.784 359.312C105.312 359.081 105.047 358.768 105.047 358.442C105.047 358.116 105.312 357.803 105.784 357.572C106.256 357.341 106.896 357.212 107.563 357.212H934.949C935.616 357.212 936.256 357.341 936.728 357.572C937.199 357.803 937.464 358.116 937.464 358.442C937.464 358.768 937.199 359.081 936.728 359.312C936.256 359.543 935.616 359.672 934.949 359.672Z" fill="#F1F1F1"/>
<path d="M969.811 359.674H144.161C143.493 359.674 142.853 359.545 142.382 359.314C141.91 359.083 141.645 358.77 141.645 358.444C141.645 358.118 141.91 357.805 142.382 357.574C142.853 357.343 143.493 357.214 144.161 357.214H969.811C970.478 357.214 971.118 357.343 971.59 357.574C972.062 357.805 972.327 358.118 972.327 358.444C972.327 358.77 972.062 359.083 971.59 359.314C971.118 359.545 970.478 359.674 969.811 359.674ZM863.798 82.2019H211.831C211.164 82.2019 210.524 82.0723 210.052 81.8415C209.581 81.6108 209.316 81.2979 209.316 80.9716C209.316 80.6453 209.581 80.3323 210.052 80.1016C210.524 79.8709 211.164 79.7412 211.831 79.7412H863.798C864.465 79.7412 865.105 79.8709 865.577 80.1016C866.049 80.3323 866.314 80.6453 866.314 80.9716C866.314 81.2979 866.049 81.6108 865.577 81.8415C865.105 82.0723 864.465 82.2019 863.798 82.2019ZM889.013 72.47H186.61C185.942 72.47 185.303 72.3404 184.831 72.1097C184.359 71.8789 184.094 71.566 184.094 71.2397C184.094 70.9134 184.359 70.6004 184.831 70.3697C185.303 70.139 185.942 70.0094 186.61 70.0094H889.013C889.68 70.0094 890.32 70.139 890.792 70.3697C891.264 70.6004 891.529 70.9134 891.529 71.2397C891.529 71.566 891.264 71.8789 890.792 72.1097C890.32 72.3404 889.68 72.47 889.013 72.47ZM923.902 59.6469H151.721C151.053 59.6469 150.414 59.5173 149.942 59.2866C149.47 59.0558 149.205 58.7429 149.205 58.4166C149.205 58.0903 149.47 57.7773 149.942 57.5466C150.414 57.3159 151.053 57.1863 151.721 57.1863H923.902C924.569 57.1863 925.209 57.3159 925.681 57.5466C926.153 57.7773 926.418 58.0903 926.418 58.4166C926.418 58.7429 926.153 59.0558 925.681 59.2866C925.209 59.5173 924.569 59.6469 923.902 59.6469ZM934.953 43.4158H140.676C140.009 43.4158 139.369 43.2862 138.897 43.0555C138.425 42.8247 138.16 42.5118 138.16 42.1855C138.16 41.8592 138.425 41.5463 138.897 41.3155C139.369 41.0848 140.009 40.9552 140.676 40.9552H934.953C935.62 40.9552 936.26 41.0848 936.732 41.3155C937.204 41.5463 937.469 41.8592 937.469 42.1855C937.469 42.5118 937.204 42.8247 936.732 43.0555C936.26 43.2862 935.62 43.4158 934.953 43.4158ZM1020.98 24.0631L55.7542 23.9675C55.0869 23.9675 54.447 23.8379 53.9752 23.6071C53.5033 23.3764 53.2383 23.0635 53.2383 22.7372C53.2383 22.4109 53.5033 22.0979 53.9752 21.8672C54.447 21.6365 55.0869 21.5068 55.7542 21.5068L1020.98 21.6024C1021.64 21.6024 1022.28 21.732 1022.76 21.9628C1023.23 22.1935 1023.49 22.5064 1023.49 22.8327C1023.49 23.159 1023.23 23.472 1022.76 23.7027C1022.28 23.9334 1021.64 24.0631 1020.98 24.0631Z" fill="#F1F1F1"/>
<path d="M537.81 81.8244C537.143 81.8244 536.503 81.6948 536.031 81.4641C535.559 81.2333 535.294 80.9204 535.294 80.5941V1.90243C535.294 1.57613 535.559 1.26319 536.031 1.03246C536.503 0.801728 537.143 0.672106 537.81 0.672106C538.477 0.672106 539.117 0.801728 539.589 1.03246C540.061 1.26319 540.326 1.57613 540.326 1.90243V80.5941C540.326 80.9204 540.061 81.2333 539.589 81.4641C539.117 81.6948 538.477 81.8244 537.81 81.8244ZM477.781 81.8244C477.17 81.8274 476.579 81.7216 476.116 81.527C475.653 81.3323 475.35 81.062 475.265 80.7663L452.616 2.07468C452.535 1.75451 452.714 1.43158 453.115 1.17546C453.516 0.919329 454.107 0.750497 454.76 0.705325C455.414 0.660152 456.077 0.742254 456.607 0.933946C457.138 1.12564 457.494 1.41158 457.597 1.73019L480.278 80.4188C480.324 80.579 480.305 80.742 480.222 80.8986C480.139 81.0552 479.994 81.2023 479.795 81.3314C479.596 81.4606 479.347 81.5692 479.061 81.6512C478.776 81.7331 478.461 81.7868 478.133 81.8091C478.017 81.8187 477.899 81.8238 477.781 81.8244V81.8244ZM408.066 81.8244C407.533 81.8245 407.013 81.7417 406.582 81.588C406.152 81.4343 405.832 81.2177 405.669 80.9694L354.006 2.27768C353.801 1.96688 353.858 1.62911 354.163 1.33867C354.468 1.04824 354.996 0.828938 355.632 0.729007C356.267 0.629077 356.958 0.656704 357.552 0.805814C358.146 0.954923 358.594 1.2133 358.799 1.5241L410.462 80.2158C410.583 80.4003 410.613 80.5961 410.55 80.7874C410.487 80.9786 410.332 81.1599 410.098 81.3164C409.865 81.4729 409.559 81.6002 409.206 81.6879C408.853 81.7757 408.462 81.8214 408.066 81.8214V81.8244ZM334.281 81.8244C333.849 81.8246 333.424 81.7704 333.048 81.6669C332.671 81.5635 332.355 81.4143 332.13 81.2339L234.199 2.5422C233.852 2.26321 233.746 1.92825 233.904 1.61099C234.062 1.29374 234.472 1.02018 235.042 0.850503C235.613 0.680826 236.298 0.628927 236.946 0.706221C237.595 0.783516 238.155 0.983673 238.502 1.26266L336.426 79.9513C336.658 80.1377 336.785 80.3509 336.793 80.5691C336.801 80.7872 336.69 81.0025 336.471 81.1929C336.253 81.3832 335.935 81.5417 335.55 81.6522C335.166 81.7626 334.727 81.821 334.281 81.8214V81.8244ZM252.012 81.8244C251.665 81.8247 251.321 81.7899 251.003 81.7222C250.685 81.6544 250.399 81.5552 250.163 81.4307L101.097 2.74213C100.872 2.62358 100.697 2.48455 100.582 2.33298C100.468 2.18141 100.415 2.02026 100.428 1.85875C100.44 1.69723 100.518 1.53851 100.656 1.39163C100.794 1.24476 100.989 1.11262 101.232 1.00275C101.474 0.892888 101.759 0.807446 102.069 0.75131C102.378 0.695174 102.708 0.669443 103.038 0.675583C103.369 0.681724 103.693 0.719619 103.993 0.787101C104.294 0.854584 104.564 0.950333 104.789 1.06888L253.855 79.7575C254.188 79.933 254.408 80.1521 254.49 80.388C254.572 80.6239 254.512 80.8665 254.316 81.0858C254.121 81.3052 253.799 81.4919 253.389 81.6231C252.98 81.7543 252.501 81.8243 252.012 81.8244V81.8244ZM599.172 81.8244C599.053 81.829 598.933 81.829 598.814 81.8244C598.153 81.7787 597.557 81.6065 597.156 81.3458C596.755 81.0851 596.582 80.7572 596.675 80.4342L619.318 1.74556C619.412 1.42211 619.764 1.13006 620.298 0.933655C620.831 0.737245 621.503 0.652565 622.164 0.698247C622.826 0.74393 623.423 0.916234 623.825 1.17725C624.226 1.43826 624.399 1.76661 624.306 2.09006L601.625 80.7787C601.536 81.0668 601.24 81.3301 600.791 81.5216C600.342 81.7131 599.768 81.8204 599.172 81.8244ZM668.887 81.8244C668.625 81.8248 668.364 81.8051 668.114 81.766C667.484 81.6658 666.96 81.4481 666.656 81.1601C666.352 80.8722 666.293 80.5373 666.491 80.2281L718.155 1.53641C718.359 1.22561 718.807 0.967229 719.401 0.81812C719.995 0.66901 720.686 0.641378 721.321 0.741309C721.957 0.841239 722.485 1.06054 722.79 1.35098C723.095 1.64141 723.152 1.97918 722.947 2.28998L671.284 80.9786C671.118 81.2252 670.797 81.4398 670.366 81.5917C669.936 81.7436 669.418 81.8251 668.887 81.8244V81.8244ZM742.672 81.8244C742.226 81.8241 741.788 81.7657 741.403 81.6552C741.018 81.5448 740.7 81.3863 740.482 81.1959C740.264 81.0056 740.153 80.7903 740.161 80.5721C740.169 80.354 740.295 80.1407 740.527 79.9543L838.426 1.26266C838.773 0.983673 839.333 0.783516 839.982 0.706221C840.63 0.628926 841.315 0.680826 841.886 0.850503C842.456 1.02018 842.866 1.29374 843.024 1.61099C843.182 1.92825 843.076 2.26321 842.729 2.5422L744.798 81.2308C744.576 81.4101 744.265 81.5587 743.892 81.6626C743.52 81.7665 743.1 81.8222 742.672 81.8244V81.8244ZM824.941 81.8244C824.451 81.8249 823.972 81.7553 823.562 81.6244C823.151 81.4934 822.828 81.3067 822.632 81.0872C822.435 80.8677 822.374 80.625 822.456 80.3888C822.538 80.1526 822.759 79.9331 823.092 79.7575L972.158 1.06888C972.383 0.950333 972.653 0.854584 972.953 0.787101C973.254 0.719619 973.578 0.681724 973.909 0.675583C974.239 0.669443 974.568 0.695174 974.878 0.75131C975.188 0.807446 975.473 0.892888 975.715 1.00275C975.957 1.11262 976.153 1.24476 976.291 1.39163C976.429 1.53851 976.507 1.69723 976.519 1.85875C976.532 2.02026 976.479 2.18141 976.364 2.33298C976.25 2.48455 976.075 2.62358 975.85 2.74213L826.784 81.4307C826.549 81.5548 826.264 81.6538 825.947 81.7215C825.63 81.7893 825.287 81.8243 824.941 81.8244V81.8244Z" fill="#F1F1F1"/>
<path d="M968.064 43.4157H107.563C106.896 43.4157 106.256 43.2861 105.784 43.0554C105.312 42.8246 105.047 42.5117 105.047 42.1854C105.047 41.8591 105.312 41.5462 105.784 41.3154C106.256 41.0847 106.896 40.9551 107.563 40.9551H968.064C968.731 40.9551 969.371 41.0847 969.843 41.3154C970.315 41.5462 970.58 41.8591 970.58 42.1854C970.58 42.5117 970.315 42.8246 969.843 43.0554C969.371 43.2861 968.731 43.4157 968.064 43.4157Z" fill="#F1F1F1"/>
<path d="M2.91704 399.959C2.3911 399.96 1.87794 399.88 1.44972 399.731C1.0215 399.581 0.699746 399.37 0.529684 399.127C0.359623 398.883 0.349806 398.62 0.501622 398.374C0.653437 398.128 0.959261 397.911 1.37607 397.754L209.314 319.053V81.5754L1.37607 2.87451C0.848108 2.67465 0.504113 2.38041 0.419776 2.05652C0.335438 1.73263 0.517649 1.40562 0.926342 1.14744C1.33503 0.889248 1.93672 0.721031 2.59904 0.679788C3.26136 0.638545 3.93006 0.727655 4.45803 0.927515L213.371 80.0006C213.674 80.1155 213.919 80.2628 214.088 80.4313C214.257 80.5998 214.345 80.7849 214.346 80.9725V319.656C214.345 319.843 214.257 320.029 214.088 320.197C213.919 320.366 213.674 320.513 213.371 320.628L4.45803 399.701C4.01717 399.868 3.47508 399.959 2.91704 399.959V399.959Z" fill="#F1F1F1"/>
<path d="M186.609 330.617C185.941 330.617 185.301 330.487 184.83 330.257C184.358 330.026 184.093 329.713 184.093 329.387V71.2396C184.093 70.9133 184.358 70.6004 184.83 70.3697C185.301 70.1389 185.941 70.0093 186.609 70.0093C187.276 70.0093 187.916 70.1389 188.388 70.3697C188.859 70.6004 189.125 70.9133 189.125 71.2396V329.387C189.125 329.713 188.859 330.026 188.388 330.257C187.916 330.487 187.276 330.617 186.609 330.617ZM151.72 343.443C151.052 343.443 150.412 343.314 149.941 343.083C149.469 342.852 149.204 342.539 149.204 342.213V58.4165C149.204 58.0902 149.469 57.7773 149.941 57.5466C150.412 57.3158 151.052 57.1862 151.72 57.1862C152.387 57.1862 153.027 57.3158 153.499 57.5466C153.97 57.7773 154.236 58.0902 154.236 58.4165V342.213C154.236 342.539 153.97 342.852 153.499 343.083C153.027 343.314 152.387 343.443 151.72 343.443ZM107.566 359.674C106.899 359.674 106.259 359.545 105.787 359.314C105.315 359.083 105.05 358.77 105.05 358.444V42.1855C105.05 41.8592 105.315 41.5462 105.787 41.3155C106.259 41.0848 106.899 40.9551 107.566 40.9551C108.233 40.9551 108.873 41.0848 109.345 41.3155C109.817 41.5462 110.082 41.8592 110.082 42.1855V358.444C110.082 358.77 109.817 359.083 109.345 359.314C108.873 359.545 108.233 359.674 107.566 359.674ZM53.5354 380.946C52.8682 380.946 52.2282 380.816 51.7564 380.586C51.2846 380.355 51.0195 380.042 51.0195 379.716L52.1603 21.3915C52.1603 21.0652 52.4254 20.7522 52.8972 20.5215C53.369 20.2908 54.0089 20.1611 54.6762 20.1611C55.3434 20.1611 55.9834 20.2908 56.4552 20.5215C56.927 20.7522 57.1921 21.0652 57.1921 21.3915L56.0513 379.716C56.0513 380.042 55.7862 380.355 55.3144 380.586C54.8426 380.816 54.2027 380.946 53.5354 380.946Z" fill="#F1F1F1"/>
<path d="M212.057 201.544H2.91843C2.25118 201.544 1.61125 201.414 1.13943 201.183C0.667614 200.953 0.402551 200.64 0.402551 200.313C0.402551 199.987 0.667614 199.674 1.13943 199.443C1.61125 199.213 2.25118 199.083 2.91843 199.083H212.057C212.725 199.083 213.365 199.213 213.836 199.443C214.308 199.674 214.573 199.987 214.573 200.313C214.573 200.64 214.308 200.953 213.836 201.183C213.365 201.414 212.725 201.544 212.057 201.544ZM212.057 179.653H211.85L2.71716 171.379C2.38677 171.366 2.06482 171.322 1.76969 171.248C1.47456 171.174 1.21206 171.073 0.997125 170.949C0.782193 170.826 0.619063 170.683 0.517047 170.529C0.415031 170.374 0.376119 170.212 0.402551 170.05C0.428982 169.889 0.52023 169.731 0.671084 169.587C0.821938 169.443 1.02945 169.314 1.28176 169.209C1.53407 169.104 1.82625 169.024 2.14161 168.974C2.45696 168.925 2.78932 168.905 3.11971 168.918L212.259 177.189C212.926 177.202 213.555 177.344 214.008 177.584C214.461 177.824 214.701 178.143 214.674 178.469C214.647 178.795 214.357 179.103 213.866 179.324C213.375 179.546 212.725 179.663 212.057 179.65V179.653ZM212.057 154.228C211.904 154.228 211.75 154.222 211.598 154.21L2.4593 135.367C1.80289 135.308 1.2214 135.124 0.842761 134.855C0.464126 134.586 0.319348 134.255 0.440287 133.934C0.561227 133.613 0.937974 133.329 1.48764 133.144C2.03731 132.958 2.71488 132.888 3.37129 132.947L212.51 151.789C213.125 151.846 213.674 152.013 214.05 152.257C214.427 152.501 214.604 152.805 214.548 153.109C214.491 153.414 214.205 153.697 213.744 153.904C213.284 154.111 212.683 154.226 212.057 154.228V154.228ZM212.057 127.321C211.775 127.32 211.494 127.297 211.227 127.25L2.08819 91.537C1.7699 91.4862 1.47555 91.4049 1.22239 91.2977C0.969233 91.1906 0.76236 91.0598 0.613884 90.9131C0.465408 90.7663 0.378322 90.6065 0.357731 90.4431C0.33714 90.2797 0.383463 90.1159 0.493975 89.9614C0.604487 89.8068 0.776963 89.6646 1.00131 89.543C1.22565 89.4215 1.49736 89.3231 1.80048 89.2536C2.1036 89.184 2.43205 89.1448 2.76658 89.1381C3.10112 89.1315 3.43501 89.1575 3.74868 89.2148L212.888 124.928C213.451 125.023 213.926 125.213 214.23 125.464C214.533 125.714 214.645 126.009 214.545 126.297C214.446 126.584 214.141 126.844 213.685 127.032C213.23 127.219 212.653 127.322 212.057 127.321ZM212.051 97.3196C211.641 97.319 211.237 97.2694 210.875 97.175L1.73597 42.8192C1.14628 42.6658 0.705333 42.4042 0.510118 42.0919C0.314902 41.7795 0.381411 41.442 0.69502 41.1536C1.00863 40.8653 1.54365 40.6496 2.18238 40.5542C2.8211 40.4587 3.51122 40.4912 4.1009 40.6446L213.234 95.0004C213.732 95.1287 214.128 95.335 214.358 95.5864C214.589 95.8378 214.64 96.1196 214.503 96.3869C214.367 96.6542 214.051 96.8914 213.607 97.0605C213.162 97.2296 212.614 97.3208 212.051 97.3196ZM2.91214 232.191C2.24488 232.204 1.5947 232.086 1.1046 231.864C0.614493 231.643 0.324621 231.335 0.298765 231.008C0.272909 230.682 0.513184 230.364 0.96672 230.124C1.42026 229.885 2.0499 229.743 2.71716 229.73L211.85 221.466C212.18 221.453 212.513 221.471 212.828 221.521C213.144 221.571 213.436 221.65 213.689 221.755C213.941 221.86 214.149 221.989 214.3 222.133C214.452 222.277 214.543 222.434 214.57 222.596C214.597 222.758 214.559 222.92 214.457 223.074C214.355 223.229 214.192 223.372 213.978 223.495C213.763 223.619 213.501 223.72 213.206 223.794C212.911 223.868 212.589 223.913 212.259 223.926L3.11971 232.188L2.91214 232.191ZM2.91214 268.187C2.28695 268.185 1.68561 268.07 1.22527 267.863C0.764938 267.656 0.478604 267.373 0.422072 267.068C0.36554 266.764 0.542867 266.46 0.919482 266.216C1.2961 265.972 1.84503 265.805 2.4593 265.748L211.598 246.906C212.255 246.847 212.932 246.917 213.482 247.103C214.032 247.288 214.408 247.572 214.529 247.893C214.65 248.214 214.505 248.545 214.127 248.814C213.748 249.083 213.167 249.267 212.51 249.326L3.37129 268.166C3.22013 268.181 3.06628 268.188 2.91214 268.187V268.187ZM2.91843 311.968C2.32288 311.969 1.74601 311.867 1.29046 311.679C0.834908 311.492 0.530217 311.231 0.430594 310.944C0.330972 310.657 0.44288 310.362 0.746404 310.111C1.04993 309.861 1.52538 309.671 2.08819 309.575L211.227 273.862C211.858 273.754 212.55 273.774 213.152 273.916C213.753 274.058 214.215 274.31 214.435 274.619C214.655 274.927 214.616 275.266 214.326 275.56C214.036 275.854 213.518 276.08 212.888 276.187L3.74868 311.895C3.48297 311.943 3.20191 311.968 2.91843 311.968ZM2.91843 360.612C2.35735 360.612 1.81245 360.521 1.37031 360.352C0.928169 360.183 0.614185 359.946 0.478274 359.68C0.342362 359.414 0.392313 359.133 0.620199 358.882C0.848085 358.632 1.24081 358.425 1.73597 358.296L210.875 303.941C211.168 303.857 211.492 303.804 211.828 303.783C212.163 303.763 212.504 303.776 212.83 303.821C213.155 303.867 213.459 303.944 213.722 304.048C213.985 304.152 214.203 304.281 214.361 304.427C214.52 304.573 214.617 304.734 214.646 304.899C214.675 305.063 214.636 305.23 214.531 305.387C214.425 305.544 214.256 305.69 214.033 305.814C213.81 305.939 213.538 306.04 213.234 306.112L4.1009 360.468C3.73693 360.563 3.33086 360.612 2.91843 360.612V360.612ZM1077.68 399.958C1077.13 399.958 1076.6 399.871 1076.16 399.709L862.275 320.639C861.965 320.524 861.715 320.376 861.542 320.206C861.37 320.035 861.28 319.848 861.281 319.658V80.9747C861.28 80.7847 861.37 80.5973 861.542 80.4271C861.715 80.2568 861.965 80.1084 862.275 79.9935L1076.18 0.929675C1076.44 0.826236 1076.75 0.749636 1077.07 0.704423C1077.39 0.65921 1077.73 0.646303 1078.07 0.666473C1078.4 0.686643 1078.73 0.739476 1079.02 0.821836C1079.31 0.904196 1079.56 1.0144 1079.77 1.14591C1079.97 1.27743 1080.12 1.42756 1080.2 1.58741C1080.28 1.74725 1080.3 1.91354 1080.25 2.07641C1080.19 2.23928 1080.08 2.39541 1079.9 2.53552C1079.72 2.67563 1079.49 2.79687 1079.21 2.89205L866.313 81.5837V319.037L1079.19 397.738C1079.61 397.893 1079.92 398.109 1080.08 398.355C1080.24 398.602 1080.23 398.865 1080.06 399.11C1079.89 399.354 1079.57 399.567 1079.15 399.717C1078.72 399.868 1078.21 399.949 1077.68 399.949V399.958Z" fill="#F1F1F1"/>
<path d="M889.012 330.617C888.345 330.617 887.705 330.487 887.233 330.256C886.761 330.026 886.496 329.713 886.496 329.386V71.2393C886.496 70.913 886.761 70.6 887.233 70.3693C887.705 70.1386 888.345 70.0089 889.012 70.0089C889.679 70.0089 890.319 70.1386 890.791 70.3693C891.263 70.6 891.528 70.913 891.528 71.2393V329.386C891.528 329.713 891.263 330.026 890.791 330.256C890.319 330.487 889.679 330.617 889.012 330.617ZM923.901 343.443C923.234 343.443 922.594 343.313 922.122 343.082C921.65 342.852 921.385 342.539 921.385 342.212V58.4162C921.385 58.0899 921.65 57.7769 922.122 57.5462C922.594 57.3155 923.234 57.1859 923.901 57.1859C924.568 57.1859 925.208 57.3155 925.68 57.5462C926.152 57.7769 926.417 58.0899 926.417 58.4162V342.212C926.417 342.539 926.152 342.852 925.68 343.082C925.208 343.313 924.568 343.443 923.901 343.443ZM969.81 359.674C969.142 359.674 968.502 359.544 968.03 359.314C967.559 359.083 967.294 358.77 967.294 358.444L965.551 42.1851C965.551 41.8588 965.816 41.5459 966.288 41.3151C966.76 41.0844 967.4 40.9548 968.067 40.9548C968.735 40.9548 969.374 41.0844 969.846 41.3151C970.318 41.5459 970.583 41.8588 970.583 42.1851L972.325 358.444C972.325 358.77 972.06 359.083 971.588 359.314C971.117 359.544 970.477 359.674 969.81 359.674ZM1022.08 379.191C1021.42 379.191 1020.78 379.061 1020.3 378.83C1019.83 378.6 1019.57 378.287 1019.57 377.961L1019.76 22.6844C1019.76 22.3581 1020.03 22.0452 1020.5 21.8145C1020.97 21.5837 1021.61 21.4541 1022.28 21.4541C1022.95 21.4541 1023.59 21.5837 1024.06 21.8145C1024.53 22.0452 1024.79 22.3581 1024.79 22.6844L1024.6 377.961C1024.6 378.287 1024.33 378.6 1023.86 378.83C1023.39 379.061 1022.75 379.191 1022.08 379.191Z" fill="#F1F1F1"/>
<path d="M1077.68 201.543H863.592C862.925 201.543 862.285 201.414 861.813 201.183C861.341 200.952 861.076 200.639 861.076 200.313C861.076 199.987 861.341 199.674 861.813 199.443C862.285 199.212 862.925 199.083 863.592 199.083H1077.7C1078.37 199.083 1079.01 199.212 1079.48 199.443C1079.95 199.674 1080.22 199.987 1080.22 200.313C1080.22 200.639 1079.95 200.952 1079.48 201.183C1079.01 201.414 1078.37 201.543 1077.7 201.543H1077.68ZM863.592 179.653C862.925 179.665 862.274 179.548 861.784 179.326C861.294 179.104 861.004 178.796 860.978 178.47C860.953 178.144 861.193 177.826 861.646 177.586C862.1 177.346 862.73 177.205 863.397 177.192L1077.51 168.921C1078.18 168.895 1078.84 169 1079.35 169.213C1079.86 169.426 1080.17 169.728 1080.23 170.055C1080.28 170.381 1080.06 170.704 1079.63 170.953C1079.19 171.202 1078.57 171.356 1077.91 171.382L863.793 179.65L863.592 179.653ZM863.592 154.228C862.968 154.225 862.368 154.108 861.91 153.901C861.452 153.693 861.168 153.41 861.113 153.106C861.058 152.802 861.237 152.499 861.613 152.255C861.99 152.012 862.538 151.846 863.152 151.789L1077.26 132.946C1077.59 132.913 1077.93 132.912 1078.26 132.944C1078.59 132.975 1078.9 133.039 1079.18 133.131C1079.46 133.223 1079.7 133.341 1079.88 133.479C1080.06 133.616 1080.19 133.771 1080.25 133.932C1080.31 134.094 1080.3 134.26 1080.23 134.42C1080.15 134.581 1080.02 134.732 1079.82 134.866C1079.62 135 1079.38 135.113 1079.09 135.199C1078.8 135.285 1078.48 135.342 1078.15 135.367L864.045 154.21C863.895 154.222 863.744 154.228 863.592 154.228V154.228ZM863.592 127.321C862.995 127.322 862.416 127.218 861.96 127.03C861.504 126.841 861.2 126.58 861.103 126.291C861.005 126.003 861.12 125.708 861.428 125.457C861.735 125.207 862.215 125.018 862.78 124.925L1076.87 89.2052C1077.18 89.1485 1077.52 89.1231 1077.85 89.1306C1078.19 89.1381 1078.52 89.1784 1078.82 89.2489C1079.12 89.3195 1079.4 89.4191 1079.62 89.5416C1079.84 89.6642 1080.01 89.8074 1080.12 89.9628C1080.23 90.1181 1080.27 90.2825 1080.25 90.4462C1080.23 90.6099 1080.14 90.7696 1079.98 90.916C1079.83 91.0624 1079.62 91.1924 1079.37 91.2985C1079.11 91.4046 1078.81 91.4845 1078.49 91.5336L864.384 127.253C864.13 127.297 863.862 127.32 863.592 127.321ZM863.592 97.3192C863.029 97.319 862.482 97.2263 862.039 97.0561C861.596 96.8858 861.283 96.6478 861.15 96.3802C861.016 96.1126 861.07 95.8308 861.303 95.58C861.536 95.3292 861.935 95.1239 862.435 94.997L1076.54 40.6412C1076.84 40.5615 1077.16 40.5116 1077.49 40.4942C1077.83 40.4768 1078.17 40.4924 1078.49 40.5399C1078.81 40.5875 1079.11 40.6661 1079.37 40.7712C1079.63 40.8762 1079.84 41.0055 1079.99 41.1515C1080.15 41.2974 1080.24 41.4571 1080.27 41.6209C1080.3 41.7848 1080.25 41.9496 1080.15 42.1056C1080.04 42.2616 1079.87 42.4057 1079.65 42.5292C1079.43 42.6528 1079.16 42.7533 1078.86 42.825L864.73 97.1808C864.378 97.2695 863.988 97.3169 863.592 97.3192V97.3192ZM1077.68 232.191H1077.49L863.372 223.926C863.041 223.913 862.719 223.869 862.424 223.795C862.129 223.722 861.866 223.62 861.651 223.497C861.436 223.374 861.272 223.231 861.17 223.077C861.067 222.923 861.028 222.76 861.054 222.599C861.08 222.437 861.171 222.28 861.321 222.135C861.472 221.991 861.679 221.862 861.931 221.757C862.183 221.652 862.475 221.572 862.79 221.522C863.105 221.472 863.438 221.453 863.768 221.465L1077.88 229.733C1078.21 229.74 1078.54 229.778 1078.84 229.846C1079.14 229.913 1079.41 230.009 1079.63 230.128C1079.86 230.247 1080.03 230.386 1080.14 230.538C1080.26 230.69 1080.31 230.851 1080.3 231.013C1080.28 231.174 1080.21 231.333 1080.07 231.48C1079.93 231.626 1079.73 231.759 1079.49 231.868C1079.25 231.978 1078.96 232.063 1078.65 232.119C1078.34 232.175 1078.01 232.2 1077.68 232.194V232.191ZM1077.69 268.187C1077.54 268.187 1077.38 268.181 1077.23 268.168L863.126 249.326C862.794 249.301 862.475 249.244 862.189 249.158C861.903 249.072 861.654 248.959 861.459 248.825C861.264 248.691 861.125 248.54 861.051 248.379C860.978 248.219 860.971 248.053 861.03 247.891C861.09 247.73 861.215 247.575 861.399 247.438C861.582 247.3 861.821 247.182 862.099 247.09C862.378 246.998 862.691 246.934 863.021 246.903C863.351 246.871 863.691 246.872 864.02 246.905L1078.13 265.757C1078.75 265.81 1079.31 265.975 1079.69 266.22C1080.07 266.464 1080.25 266.77 1080.2 267.077C1080.14 267.384 1079.86 267.67 1079.39 267.877C1078.92 268.085 1078.32 268.2 1077.69 268.199V268.187ZM1077.68 311.968C1077.4 311.968 1077.13 311.945 1076.87 311.9L862.762 276.19C862.449 276.138 862.16 276.056 861.911 275.95C861.663 275.843 861.46 275.713 861.314 275.568C861.168 275.423 861.082 275.265 861.06 275.104C861.039 274.943 861.083 274.781 861.189 274.628C861.296 274.475 861.463 274.333 861.681 274.212C861.899 274.09 862.164 273.991 862.461 273.92C862.758 273.848 863.08 273.806 863.41 273.796C863.74 273.785 864.071 273.807 864.384 273.859L1078.49 309.572C1079.06 309.665 1079.54 309.854 1079.84 310.105C1080.15 310.355 1080.27 310.651 1080.17 310.939C1080.07 311.227 1079.77 311.489 1079.31 311.677C1078.86 311.866 1078.28 311.969 1077.68 311.968ZM1077.68 360.612C1077.28 360.613 1076.88 360.565 1076.52 360.474L862.416 306.118C861.842 305.963 861.415 305.704 861.226 305.397C861.036 305.091 861.099 304.76 861.4 304.475C861.702 304.191 862.219 303.975 862.84 303.874C863.462 303.773 864.14 303.794 864.73 303.934L1078.84 358.29C1079.34 358.417 1079.74 358.622 1079.97 358.873C1080.2 359.124 1080.26 359.405 1080.12 359.673C1079.99 359.941 1079.68 360.179 1079.23 360.349C1078.79 360.519 1078.24 360.612 1077.68 360.612V360.612Z" fill="#F1F1F1"/>
<path d="M49.7031 266.293L51.0994 266.166C51.4391 267.089 51.0994 267.917 50.3258 267.987L49.7031 266.293ZM68.9559 266.228C68.1886 266.302 67.2954 265.647 66.9747 264.761L68.371 264.638L68.9559 266.228ZM79.0949 263.684L76.296 263.933C76.296 263.863 76.2583 263.795 76.2394 263.727L79.0006 263.484C79.032 263.549 79.0698 263.617 79.0949 263.684Z" fill="#F1F1F1"/>
</svg>
