<svg width="298" height="207" viewBox="0 0 298 207" fill="none" xmlns="http://www.w3.org/2000/svg">
<path d="M52.8599 126.99L52.8939 126.995L52.9281 126.997C62.1997 127.665 75.4345 127.947 84.929 126.59C87.3078 126.25 89.4778 125.803 91.305 125.224C93.1163 124.65 94.6707 123.922 95.7497 122.972C96.8626 121.993 97.5126 120.729 97.3196 119.21C97.1369 117.773 96.2197 116.305 94.7071 114.793C91.1112 111.197 90.3108 108.667 90.9358 106.885C91.258 105.967 92.0058 105.07 93.2964 104.213C94.5874 103.355 96.3585 102.581 98.6052 101.893C107.639 99.128 123.497 98 143.525 97.4993C163.474 97.0006 177.457 99.0015 185.164 101.754C187.085 102.44 188.584 103.162 189.678 103.883C190.785 104.612 191.404 105.291 191.676 105.861C191.922 106.375 191.907 106.832 191.639 107.314C191.341 107.852 190.688 108.48 189.518 109.123C188.841 109.496 188.277 109.897 187.862 110.337C187.445 110.779 187.134 111.31 187.074 111.926C186.95 113.203 187.925 114.131 188.939 114.751C191.063 116.049 195.078 117.084 200.173 117.803C210.458 119.254 225.799 119.502 241.13 117.492C256.282 115.504 269.159 116.255 278.711 118.474C283.489 119.584 287.41 121.055 290.361 122.715C293.33 124.386 295.231 126.199 296.106 127.947C296.788 129.313 297.598 132.22 295.766 135.792C293.913 139.401 289.276 143.862 278.632 148.07C273.136 150.243 269.625 152.975 267.664 155.967C265.689 158.981 265.345 162.171 266.026 165.102C266.702 168.008 268.379 170.64 270.427 172.638C272.467 174.628 274.953 176.066 277.326 176.485C281.299 177.186 285.551 180.021 287.711 183.525C288.781 185.26 289.302 187.098 289.093 188.883C288.885 190.651 287.947 192.493 285.86 194.232C283.76 195.982 280.407 197.559 276.03 198.928C271.672 200.291 266.381 201.422 260.474 202.324C248.662 204.127 234.464 205 220.5 205C216.659 205 212.83 205.037 209.087 205.074C199.126 205.17 189.779 205.261 182.461 204.629C177.412 204.192 173.489 203.421 171.036 202.158C169.823 201.533 169.054 200.831 168.65 200.074C168.258 199.34 168.144 198.439 168.465 197.263C168.681 196.472 169.238 195.882 170.124 195.366C170.944 194.888 171.927 194.537 172.991 194.157C173.11 194.115 173.231 194.072 173.353 194.028C174.484 193.622 175.748 193.148 176.66 192.402C177.135 192.013 177.548 191.526 177.799 190.905C178.051 190.28 178.112 189.587 177.986 188.836C177.632 186.71 175.563 185.319 172.417 184.356C169.181 183.365 164.355 182.683 157.64 182.293C144.192 181.511 122.894 181.889 90.9496 183.501C80.3655 184.035 73.1397 182.912 68.603 181.217C66.3342 180.369 64.7791 179.394 63.8074 178.45C62.833 177.503 62.5 176.647 62.5 176C62.5 174.742 63.0409 173.615 63.953 172.526C64.876 171.423 66.1142 170.433 67.3968 169.45C67.5264 169.35 67.6571 169.25 67.7882 169.15C68.9068 168.296 70.0578 167.417 70.8651 166.519C71.778 165.502 72.4858 164.194 71.9423 162.665C71.7674 162.173 71.4201 161.725 71.0197 161.33C70.6082 160.925 70.0819 160.52 69.4649 160.125C68.2298 159.335 66.5616 158.54 64.5417 157.837C60.4976 156.431 54.961 155.369 48.4798 155.5L48.4488 155.501L48.4178 155.503C40.3921 156.165 28.379 156.111 18.411 153.825C13.4223 152.681 9.03122 150.998 5.90818 148.634C2.81705 146.294 1 143.322 1 139.5C1 135.729 2.95131 132.915 6.32783 130.799C9.74385 128.659 14.5525 127.288 20.0173 126.502C30.9302 124.933 44.077 125.747 52.8599 126.99Z" stroke="#DCDCDC" stroke-width="2"/>
<path d="M138.813 194.404C142.997 193.62 147.636 193.566 151.189 194.363C152.969 194.763 154.401 195.359 155.369 196.119C156.311 196.857 156.788 197.72 156.797 198.75C156.802 199.436 156.739 200.014 156.531 200.521C156.333 201.006 155.974 201.491 155.27 201.944C153.791 202.895 150.847 203.671 145.035 203.792C139.448 203.908 136.161 201.574 135.162 199.385C134.669 198.305 134.717 197.268 135.229 196.433C135.75 195.583 136.857 194.771 138.813 194.404Z" stroke="#DCDCDC" stroke-width="2"/>
<path d="M293.079 162.662H293.079L293.079 162.669C293.09 164.082 292.892 165.166 292.036 165.979C291.137 166.833 289.302 167.593 285.478 167.712C282.083 167.818 279.943 165.718 279.242 163.428C278.889 162.273 278.92 161.121 279.294 160.21C279.658 159.326 280.36 158.621 281.493 158.305C284.226 157.542 287.23 157.499 289.493 158.256C290.617 158.632 291.511 159.188 292.119 159.901C292.715 160.599 293.079 161.497 293.079 162.662Z" stroke="#DCDCDC" stroke-width="2"/>
<path d="M79.9936 108.607L79.9936 108.607C80.0002 109.282 79.931 109.843 79.7043 110.335C79.4867 110.807 79.0836 111.302 78.267 111.77C76.5624 112.747 73.2062 113.526 66.677 113.647C60.3213 113.765 56.5843 111.389 55.4621 109.2C54.9206 108.143 54.9733 107.148 55.534 106.332C56.1229 105.475 57.3962 104.639 59.6469 104.263C64.3669 103.475 69.6067 103.419 73.6306 104.224C75.6484 104.627 77.2829 105.232 78.3913 106.007C79.4776 106.766 79.9848 107.626 79.9936 108.607Z" stroke="#DCDCDC" stroke-width="2"/>
<path d="M44.1416 142.378C43.8131 142.328 43.4917 142.263 43.1774 142.228L42.2561 142.178C41.6877 142.194 41.1237 142.283 40.5778 142.442C39.7301 142.696 38.9114 143.038 38.1353 143.463C37.4925 143.806 36.9568 144.056 36.5069 144.263C36.1455 144.415 35.773 144.539 35.3928 144.635L34.6786 144.763H34.3215H34.1715C32.875 144.708 31.5931 144.468 30.3649 144.049C29.5078 143.806 29.0579 143.735 29.0365 143.799C29.015 143.863 29.4079 144.07 30.222 144.442C30.6363 144.62 31.1505 144.835 31.8004 145.049C32.5652 145.322 33.367 145.479 34.1786 145.513H34.3572H34.7714L35.5499 145.363C35.9692 145.259 36.3799 145.123 36.7783 144.956C37.2568 144.742 37.821 144.47 38.4638 144.135C39.7565 143.499 41.4562 142.521 43.963 143.113C44.8486 143.299 45.7271 143.563 46.6341 143.828C47.5679 144.072 48.5261 144.211 49.4909 144.242C51.1192 144.363 52.7333 144.313 54.3259 144.342C57.8469 144.285 59.5609 144.827 59.6109 144.635C59.6109 144.563 59.211 144.399 58.3468 144.135C57.0362 143.798 55.6926 143.607 54.3402 143.563C52.719 143.563 51.1264 143.563 49.548 143.47C48.6525 143.438 47.7635 143.304 46.8984 143.07C45.9771 142.835 45.0772 142.571 44.1416 142.378Z" fill="#DCDCDC"/>
<path d="M209.82 161.797C209.491 161.747 209.17 161.682 208.856 161.647L207.934 161.597C207.366 161.613 206.802 161.702 206.256 161.861C205.408 162.115 204.59 162.457 203.813 162.882C203.171 163.225 202.635 163.475 202.185 163.682C201.824 163.834 201.451 163.958 201.071 164.053L200.357 164.182H200H199.85C198.553 164.127 197.271 163.887 196.043 163.468C195.186 163.225 194.736 163.154 194.715 163.218C194.693 163.282 195.086 163.489 195.9 163.861C196.314 164.039 196.829 164.253 197.479 164.468C198.243 164.741 199.045 164.898 199.857 164.932H200.035H200.45L201.228 164.782C201.647 164.678 202.058 164.542 202.457 164.375C202.935 164.161 203.499 163.889 204.142 163.554C205.435 162.918 207.134 161.939 209.641 162.532C210.527 162.718 211.405 162.982 212.312 163.246C213.246 163.491 214.204 163.63 215.169 163.661C216.797 163.782 218.412 163.732 220.004 163.761C223.525 163.704 225.239 164.246 225.289 164.053C225.289 163.982 224.889 163.818 224.025 163.554C222.714 163.217 221.371 163.026 220.018 162.982C218.397 162.982 216.805 162.982 215.226 162.889C214.331 162.857 213.442 162.723 212.577 162.489C211.655 162.254 210.755 161.989 209.82 161.797Z" fill="#DCDCDC"/>
<path d="M138.428 108.776C137.202 108.668 135.967 108.762 134.772 109.054C133.75 109.29 132.893 109.547 132.172 109.769C131.176 110.104 130.16 110.373 129.129 110.576C128.762 110.641 128.389 110.677 128.015 110.683H127.851C127.443 110.696 127.035 110.679 126.63 110.633C126.28 110.565 125.934 110.477 125.594 110.368C125.294 110.24 124.994 110.161 124.752 110.026L124.08 109.669C123.323 109.183 122.93 108.919 122.88 108.954C122.83 108.99 123.13 109.361 123.852 109.983L124.502 110.44C124.782 110.616 125.076 110.771 125.38 110.904C125.745 111.056 126.119 111.182 126.501 111.283C126.949 111.369 127.403 111.417 127.858 111.425H128.037C128.446 111.416 128.855 111.375 129.258 111.304C130.322 111.094 131.371 110.817 132.4 110.476C133.115 110.254 133.957 110.004 134.943 109.761C136.052 109.49 137.197 109.398 138.335 109.49C139.464 109.714 140.56 110.076 141.599 110.568C142.43 110.947 143.293 111.251 144.177 111.475C144.833 111.63 145.504 111.704 146.177 111.697C146.624 111.671 147.067 111.614 147.506 111.525C148.22 111.383 148.513 111.275 148.677 111.233L148.841 111.19C149.589 110.922 150.352 110.698 151.127 110.518C151.671 110.401 152.228 110.358 152.783 110.39C153.669 110.447 154.119 110.597 154.148 110.511C154.176 110.426 153.776 110.176 152.833 109.976C152.242 109.866 151.637 109.849 151.041 109.926C150.224 110.035 149.417 110.207 148.627 110.44L148.47 110.49C148.305 110.49 147.991 110.633 147.356 110.761C146.364 110.982 145.334 110.968 144.349 110.718C143.509 110.501 142.689 110.212 141.899 109.854C140.794 109.345 139.627 108.982 138.428 108.776Z" fill="#DCDCDC"/>
<path d="M228.122 138.073C226.896 137.965 225.661 138.059 224.465 138.351C223.444 138.587 222.587 138.844 221.866 139.065C220.87 139.4 219.854 139.67 218.823 139.872C218.455 139.938 218.083 139.974 217.709 139.98H217.545C217.137 139.993 216.729 139.976 216.324 139.93C215.974 139.862 215.628 139.774 215.288 139.665C214.988 139.537 214.688 139.458 214.445 139.323L213.774 138.965C213.017 138.48 212.624 138.216 212.574 138.251C212.524 138.287 212.824 138.658 213.545 139.28L214.195 139.737C214.476 139.913 214.77 140.068 215.074 140.201C215.438 140.353 215.813 140.479 216.195 140.58C216.643 140.666 217.097 140.714 217.552 140.722H217.731C218.14 140.713 218.548 140.672 218.952 140.601C220.016 140.391 221.065 140.114 222.094 139.772C222.809 139.551 223.651 139.301 224.637 139.058C225.746 138.786 226.891 138.695 228.029 138.787C229.157 139.011 230.254 139.373 231.293 139.865C232.124 140.244 232.986 140.548 233.871 140.772C234.527 140.926 235.198 141.001 235.871 140.994C236.317 140.968 236.761 140.911 237.199 140.822C237.914 140.679 238.206 140.572 238.371 140.53L238.535 140.487C239.283 140.219 240.046 139.995 240.82 139.815C241.364 139.698 241.922 139.655 242.477 139.687C243.363 139.744 243.813 139.894 243.841 139.808C243.87 139.722 243.47 139.472 242.527 139.273C241.936 139.162 241.331 139.146 240.735 139.223C239.918 139.332 239.111 139.504 238.321 139.737L238.164 139.787C237.999 139.787 237.685 139.93 237.049 140.058C236.058 140.279 235.028 140.265 234.043 140.015C233.203 139.798 232.383 139.509 231.593 139.151C230.488 138.642 229.321 138.279 228.122 138.073Z" fill="#DCDCDC"/>
<path d="M105.733 137.779C103.903 138.269 101.993 138.379 100.119 138.1C99.124 137.977 98.1226 137.908 97.1198 137.893H95.8342L94.6058 138.1C94.2344 138.179 93.8916 138.293 93.5774 138.379C92.9489 138.564 92.4561 138.757 92.049 138.9C91.242 139.164 90.842 139.336 90.8563 139.407C90.8706 139.478 91.2991 139.443 92.1562 139.3C92.5775 139.221 93.106 139.086 93.7274 138.964C94.0416 138.914 94.3701 138.829 94.7344 138.779L95.8985 138.664H97.1126C98.0918 138.674 99.0695 138.741 100.041 138.864C101.996 139.147 103.987 139.033 105.897 138.529C106.939 138.261 108.007 138.112 109.082 138.086C109.895 138.114 110.705 138.183 111.511 138.293C112.896 138.443 113.825 138.6 114.446 138.679L115.689 138.843L117.946 139.014C118.595 139.014 119.138 139.014 119.574 139.014C120.438 139.014 120.867 138.936 120.867 138.871C120.867 138.807 120.438 138.707 119.588 138.6L118.003 138.421L115.789 138.079L114.553 137.914C113.925 137.836 113.01 137.686 111.596 137.529C110.763 137.412 109.924 137.341 109.082 137.314C107.952 137.343 106.828 137.498 105.733 137.779Z" fill="#DCDCDC"/>
<path d="M145.135 159.569C144.071 159.504 143.004 159.549 141.95 159.705C141.043 159.833 140.271 159.983 139.621 160.112C138.314 160.362 137.479 160.512 136.879 160.576C136.279 160.64 136.022 160.647 135.879 160.662H135.736C134.559 160.77 133.371 160.683 132.222 160.404C131.451 160.212 131.058 160.097 131.023 160.169C130.987 160.24 131.33 160.469 132.094 160.804C133.263 161.266 134.516 161.48 135.772 161.433H135.922C136.072 161.433 136.379 161.433 136.972 161.333C137.565 161.233 138.464 161.119 139.764 160.862C141.51 160.456 143.301 160.281 145.092 160.34C146.102 160.394 147.102 160.569 148.07 160.862C148.927 161.111 149.684 161.34 150.341 161.497C151.275 161.731 152.237 161.832 153.198 161.797C153.805 161.754 154.112 161.74 154.255 161.719H154.405C156.033 161.461 157.19 161.204 157.976 161.169C158.762 161.133 159.176 161.169 159.19 161.054C159.204 160.94 158.812 160.833 157.976 160.754C156.752 160.718 155.526 160.783 154.312 160.947C153.932 161.01 153.548 161.041 153.162 161.04C152.264 161.079 151.364 160.988 150.491 160.769C149.856 160.612 149.127 160.39 148.249 160.133C147.235 159.829 146.191 159.64 145.135 159.569Z" fill="#DCDCDC"/>
<path d="M162.197 133.201C160.369 133.506 158.522 133.692 156.669 133.758C156.408 133.774 156.145 133.774 155.884 133.758C153.741 133.758 152.648 133.558 152.613 133.758C152.577 133.958 153.613 134.372 155.862 134.558C156.135 134.582 156.41 134.582 156.684 134.558C158.565 134.492 160.44 134.303 162.297 133.994C164.125 133.707 165.975 133.578 167.825 133.608L168.611 133.658C170.753 133.715 171.846 133.93 171.889 133.758C171.932 133.587 170.889 133.165 168.661 132.88L167.846 132.83C165.956 132.796 164.067 132.92 162.197 133.201Z" fill="#DCDCDC"/>
<path d="M269.79 133.594C268.165 134.048 266.473 134.213 264.791 134.08C264.584 134.062 264.379 134.031 264.176 133.987H264.091C263.664 133.938 263.241 133.857 262.826 133.744C262.522 133.68 262.221 133.596 261.927 133.494C261.448 133.351 261.212 133.308 261.148 133.373C261.084 133.437 261.32 133.601 261.762 133.873C262.035 134.053 262.327 134.202 262.634 134.315C263.056 134.503 263.497 134.649 263.948 134.751H264.041C264.263 134.796 264.487 134.829 264.712 134.851C266.482 134.997 268.264 134.828 269.976 134.351C271.622 133.912 273.314 133.672 275.018 133.637L275.732 133.673C276.164 133.677 276.595 133.703 277.025 133.751C277.403 133.751 277.703 133.837 277.953 133.865C278.453 133.937 278.724 133.937 278.746 133.865C278.767 133.794 278.546 133.658 278.032 133.458C277.735 133.326 277.427 133.223 277.11 133.151C276.669 133.026 276.217 132.939 275.76 132.894L275.003 132.88C273.243 132.91 271.493 133.15 269.79 133.594Z" fill="#DCDCDC"/>
<path d="M215.576 192.078C213.746 192.147 211.931 192.447 210.177 192.971L208.584 193.357L207.52 193.528C207.196 193.578 206.869 193.599 206.541 193.592H206.398C205.722 193.639 205.043 193.622 204.37 193.542C203.889 193.507 203.411 193.433 202.942 193.321C202.163 193.185 201.756 193.142 201.735 193.214C201.713 193.285 202.078 193.449 202.835 193.721C203.31 193.91 203.803 194.052 204.306 194.142C205.009 194.298 205.728 194.375 206.448 194.371H206.598C206.95 194.374 207.301 194.347 207.648 194.292L208.77 194.114L210.398 193.721C212.083 193.224 213.821 192.931 215.576 192.849C216.555 192.91 217.512 193.167 218.39 193.606C219.116 193.927 219.875 194.166 220.654 194.321C221.563 194.529 222.484 194.689 223.41 194.799L224.589 194.906C225.794 194.95 227.001 194.922 228.203 194.821C229.003 194.756 229.402 194.685 229.402 194.613C229.402 194.542 229.003 194.471 228.203 194.406C227.403 194.342 226.21 194.285 224.632 194.135L223.489 194.028C222.586 193.92 221.69 193.765 220.804 193.564C220.067 193.42 219.348 193.195 218.661 192.892C217.697 192.42 216.648 192.143 215.576 192.078Z" fill="#DCDCDC"/>
<path d="M250.892 181.402C249.545 181.591 248.209 181.858 246.893 182.201C245.936 182.43 245.307 182.537 244.886 182.609L244.036 182.716C243.163 182.847 242.283 182.923 241.401 182.944C240.801 182.944 240.494 183.023 240.486 183.094C240.479 183.166 240.772 183.251 241.372 183.358C242.28 183.512 243.203 183.555 244.122 183.487L245.007 183.373C245.443 183.301 246.107 183.187 247.071 182.951C248.365 182.619 249.677 182.359 250.999 182.173C252.301 181.975 253.626 181.975 254.927 182.173C255.884 182.301 256.527 182.423 256.956 182.494L257.813 182.651C260.205 182.987 261.448 182.894 261.448 182.766C261.448 182.637 260.284 182.43 257.956 181.887L257.091 181.73C256.663 181.659 256.013 181.537 255.02 181.402C253.652 181.199 252.261 181.199 250.892 181.402Z" fill="#DCDCDC"/>
<path d="M100.076 170.682C96.5769 171.274 94.8343 171.224 93.9773 171.117C93.7251 171.108 93.4742 171.077 93.2274 171.025H93.1274L92.2989 170.91C92.0418 170.867 91.8133 170.796 91.5847 170.746L90.9777 170.61L90.5063 170.453C89.935 170.26 89.6207 170.196 89.5922 170.26C89.5636 170.325 89.7993 170.51 90.3421 170.832C90.4778 170.91 90.6277 171.003 90.7991 171.089L91.3991 171.324C91.6205 171.403 91.8633 171.51 92.1133 171.589L92.9774 171.789H93.0917C93.3529 171.842 93.6181 171.873 93.8844 171.882C95.9945 172.027 98.1147 171.878 100.184 171.439C102.201 171.026 104.247 170.766 106.304 170.66C106.74 170.66 106.961 170.66 107.068 170.66H107.176C109.561 170.61 110.746 170.946 110.796 170.76C110.846 170.575 109.697 170.046 107.225 169.882H107.111C106.847 169.864 106.582 169.864 106.318 169.882C104.221 169.992 102.134 170.259 100.076 170.682Z" fill="#DCDCDC"/>
<path d="M208.646 97.2262C202.797 95.6589 197.81 91.8322 194.782 86.5879C191.755 81.3436 190.934 75.1113 192.501 69.2621C194.069 63.4128 197.895 58.4258 203.14 55.398C208.384 52.3702 214.616 51.5497 220.465 53.117C226.315 54.6843 231.302 58.511 234.33 63.7553C237.357 68.9996 238.178 75.2319 236.611 81.0811C235.043 86.9303 231.217 91.9174 225.972 94.9452C220.728 97.973 214.496 98.7935 208.646 97.2262Z" fill="#F5F5F5" stroke="#DCDCDC" stroke-width="2"/>
<circle cx="214.403" cy="75.1567" r="17.8829" transform="rotate(-30 214.403 75.1567)" stroke="#DCDCDC" stroke-width="2"/>
<path fill-rule="evenodd" clip-rule="evenodd" d="M206.954 69.7821C206.794 69.1824 207.15 68.5659 207.749 68.4053L211.369 67.4354C211.969 67.2747 212.585 67.6306 212.746 68.2303C212.906 68.83 212.55 69.4464 211.951 69.6071L208.331 70.577C207.731 70.7377 207.115 70.3818 206.954 69.7821ZM218.757 67.7689C219.115 68.2761 218.995 68.9775 218.487 69.3356L210.006 75.3245C209.498 75.6826 208.797 75.5617 208.439 75.0545C208.081 74.5473 208.202 73.8459 208.709 73.4878L217.191 67.499C217.698 67.1409 218.399 67.2617 218.757 67.7689ZM221.126 76.6083C221.484 77.1155 221.363 77.8169 220.856 78.175L212.374 84.1638C211.867 84.5219 211.165 84.4011 210.807 83.8939C210.449 83.3867 210.57 82.6853 211.077 82.3272L219.559 76.3384C220.066 75.9802 220.768 76.1011 221.126 76.6083ZM216.819 83.4325C216.658 82.8328 217.014 82.2164 217.614 82.0557L221.234 81.0858C221.833 80.9251 222.45 81.281 222.61 81.8807C222.771 82.4804 222.415 83.0969 221.815 83.2576L218.196 84.2274C217.596 84.3881 216.98 84.0322 216.819 83.4325Z" fill="#DCDCDC"/>
<path fill-rule="evenodd" clip-rule="evenodd" d="M219.912 72.0994C220.278 72.6015 220.167 73.3046 219.665 73.6698L211.224 79.811C210.722 80.1763 210.019 80.0654 209.653 79.5634C209.288 79.0613 209.399 78.3582 209.901 77.993L218.342 71.8517C218.844 71.4865 219.547 71.5974 219.912 72.0994Z" fill="#DCDCDC"/>
<path d="M115.067 58.4668C108.779 54.8362 104.19 48.8562 102.311 41.8423C100.432 34.8285 101.415 27.3553 105.046 21.0669C108.677 14.7784 114.657 10.1898 121.671 8.31044C128.684 6.43108 136.158 7.41494 142.446 11.0456C148.734 14.6762 153.323 20.6562 155.202 27.6701C157.082 34.6839 156.098 42.1571 152.467 48.4455C148.837 54.734 142.857 59.3226 135.843 61.202C128.829 63.0813 121.356 62.0975 115.067 58.4668Z" fill="#F5F5F5" stroke="#DCDCDC" stroke-width="2"/>
<circle cx="128.585" cy="34.6941" r="21.4848" transform="rotate(-15 128.585 34.6941)" stroke="#DCDCDC" stroke-width="2"/>
<path d="M125.518 23.2012L127.823 31.8049L135.966 33.1058L125.518 23.2012Z" fill="#DCDCDC" fill-opacity="0.602"/>
<path d="M125.517 23.2007L121.42 37.0025L127.822 31.8043L125.517 23.2007Z" fill="#DCDCDC"/>
<path d="M130.187 40.6285L131.753 46.4746L136.332 34.4574L130.187 40.6285Z" fill="#DCDCDC" fill-opacity="0.602"/>
<path d="M131.753 46.4741L130.186 40.6271L121.783 38.3555L131.753 46.4741Z" fill="#DCDCDC"/>
<path d="M129.824 39.2774L135.965 33.1066L127.823 31.8076L129.824 39.2774Z" fill="#DCDCDC" fill-opacity="0.2"/>
<path d="M121.421 37.0033L129.826 39.2769L127.824 31.8071L121.421 37.0033Z" fill="#DCDCDC" fill-opacity="0.602"/>
</svg>
