<svg width="30" height="30" viewBox="0 0 30 30" fill="none" xmlns="http://www.w3.org/2000/svg">
<circle cx="15" cy="15" r="15" fill="#171717"/>
<path d="M15.4507 16.7399C15.4507 16.4999 15.5347 16.2839 15.6907 16.1039C15.8347 15.9239 16.1707 15.7079 16.6867 15.4679C17.2867 15.1679 17.6947 14.8559 17.9107 14.5199C18.1267 14.1959 18.2347 13.7879 18.2347 13.2839C18.2347 12.5399 17.9587 11.9519 17.4067 11.5079C16.8547 11.0639 16.0867 10.8359 15.1267 10.8359C14.0587 10.8359 13.2547 11.0759 12.7027 11.5559C12.1507 12.0359 11.8867 12.7439 11.8867 13.6679V13.9079H13.0747V13.7279C13.0747 13.1039 13.2427 12.6359 13.5787 12.3239C13.9147 12.0119 14.4187 11.8559 15.1027 11.8559C15.7147 11.8559 16.1827 11.9879 16.5187 12.2519C16.8547 12.5159 17.0227 12.8879 17.0227 13.3559C17.0227 13.6679 16.9387 13.9199 16.7707 14.1239C16.6027 14.3399 16.2547 14.5679 15.7147 14.8079C15.1267 15.0719 14.7427 15.3359 14.5507 15.5999C14.3587 15.8639 14.2747 16.1759 14.2747 16.5479V16.8359C14.2747 16.9319 14.2747 17.0279 14.2747 17.1479C14.2747 17.2679 14.2867 17.3399 14.2987 17.3639C14.3227 17.3399 14.3947 17.3159 14.5027 17.2919C14.6107 17.2679 14.7307 17.2559 14.8747 17.2559C15.0067 17.2559 15.1267 17.2679 15.2227 17.2919C15.3187 17.3159 15.3907 17.3399 15.4387 17.3639L15.4507 16.7399ZM15.7507 18.7679C15.7507 18.4799 15.6787 18.2639 15.5467 18.1199C15.4027 17.9759 15.1867 17.9039 14.8987 17.9039C14.5867 17.9039 14.3707 17.9759 14.2387 18.1199C14.0947 18.2639 14.0347 18.4799 14.0347 18.7679C14.0347 19.0799 14.0947 19.3079 14.2267 19.4399C14.3587 19.5719 14.5867 19.6319 14.8987 19.6319C15.1867 19.6319 15.4027 19.5719 15.5467 19.4279C15.6787 19.2839 15.7507 19.0679 15.7507 18.7679Z" fill="white"/>
</svg>
