<svg width="18" height="18" viewBox="0 0 18 18" fill="none" xmlns="http://www.w3.org/2000/svg"><path d="M17.796 12.457a.862.862 0 0 1-.653.299h-4.724l.918 4.214a.842.842 0 0 1-.171.713.858.858 0 0 1-.667.317H9.642a.857.857 0 0 1-.754-.446l-2.614-4.798h-.613a.855.855 0 0 1-.804.567h-4a.854.854 0 0 1-.857-.85V.85C0 .38.384 0 .857 0h4c.372 0 .686.238.804.567h9.768c.42 0 .779.302.846.714l1.714 10.489a.846.846 0 0 1-.193.687zM1.715 11.62H4V1.7H1.715v9.921zm12.984-9.354H5.714v8.788h1.072c.314 0 .604.171.753.446l2.615 4.798h1.283l-.917-4.214a.842.842 0 0 1 .17-.713.858.858 0 0 1 .667-.317h4.779l-1.437-8.788z" fill="currentColor"/></svg>