<svg width="52" height="52" viewBox="0 0 52 52" fill="none" xmlns="http://www.w3.org/2000/svg"><rect width="52" height="52" rx="10" fill="#E34221"/><path d="M32.665 14H38a1.333 1.333 0 0 1 1.333 1.333v21.333A1.333 1.333 0 0 1 38 38h-5.334V14zm-18.854-.164l16.76-2.394a.667.667 0 0 1 .761.66v27.795a.666.666 0 0 1-.76.66L13.81 38.164a1.333 1.333 0 0 1-1.145-1.32V15.156a1.333 1.333 0 0 1 1.145-1.32h.002zm2.854 6.83v10.667h2.667v-2.667h8v-8H16.665zm2.667 2.667h5.333V26h-5.333v-2.667z" fill="#fff"/></svg>