<svg width="300" height="606" viewBox="0 0 300 606" fill="none" xmlns="http://www.w3.org/2000/svg">
<path d="M136.673 110C134.974 110 133.597 111.377 133.597 113.076C133.597 114.774 134.974 116.151 136.673 116.151H146.924C148.623 116.151 150 114.774 150 113.076C150 111.377 148.623 110 146.924 110H136.673Z" fill="white"/>
<path d="M164.39 120.062C165.984 119.475 166.8 117.707 166.213 116.113C165.626 114.519 163.858 113.703 162.264 114.29L135.609 124.11C134.016 124.698 133.199 126.466 133.787 128.06C134.374 129.653 136.142 130.469 137.736 129.882L164.39 120.062Z" fill="white"/>
<path d="M164.39 145.098C165.984 144.511 166.8 142.743 166.213 141.149C165.626 139.555 163.858 138.739 162.264 139.326L135.609 149.146C134.016 149.734 133.199 151.502 133.787 153.096C134.374 154.689 136.142 155.505 137.736 154.918L164.39 145.098Z" fill="white"/>
<path d="M153.075 153.057C151.377 153.057 150 154.434 150 156.133C150 157.832 151.377 159.209 153.075 159.209H163.327C165.026 159.209 166.403 157.832 166.403 156.133C166.403 154.434 165.026 153.057 163.327 153.057H153.075Z" fill="white"/>
<path d="M164.431 132.35C166.017 131.74 166.808 129.961 166.198 128.375C165.588 126.79 163.809 125.999 162.223 126.609L135.569 136.86C133.983 137.47 133.192 139.25 133.802 140.835C134.412 142.42 136.191 143.211 137.777 142.602L164.431 132.35Z" fill="white"/>
<path d="M108.837 178.861V174.613H112.575C112.931 174.613 113.27 174.647 113.592 174.715C113.932 174.766 114.228 174.868 114.483 175.02C114.737 175.173 114.94 175.385 115.093 175.656C115.246 175.927 115.322 176.275 115.322 176.699C115.322 177.462 115.093 178.013 114.635 178.352C114.177 178.691 113.592 178.861 112.88 178.861H108.837ZM104.844 171.511V189.669H113.643C114.457 189.669 115.246 189.568 116.009 189.364C116.788 189.161 117.475 188.847 118.069 188.423C118.679 187.999 119.162 187.457 119.518 186.796C119.874 186.117 120.052 185.32 120.052 184.405C120.052 183.269 119.773 182.302 119.213 181.506C118.67 180.692 117.84 180.124 116.721 179.802C117.534 179.412 118.145 178.911 118.552 178.301C118.976 177.691 119.188 176.928 119.188 176.012C119.188 175.164 119.043 174.452 118.755 173.876C118.484 173.299 118.094 172.842 117.585 172.503C117.077 172.146 116.466 171.892 115.754 171.74C115.042 171.587 114.254 171.511 113.389 171.511H104.844ZM108.837 186.567V181.582H113.186C114.05 181.582 114.745 181.785 115.271 182.192C115.797 182.582 116.059 183.243 116.059 184.176C116.059 184.651 115.975 185.041 115.805 185.346C115.652 185.651 115.441 185.897 115.169 186.083C114.898 186.253 114.584 186.38 114.228 186.465C113.872 186.533 113.499 186.567 113.109 186.567H108.837Z" fill="white"/>
<path d="M125.574 183.108C125.574 182.582 125.625 182.065 125.726 181.556C125.828 181.048 125.998 180.599 126.235 180.209C126.489 179.819 126.82 179.505 127.227 179.268C127.634 179.013 128.142 178.886 128.753 178.886C129.363 178.886 129.872 179.013 130.279 179.268C130.703 179.505 131.033 179.819 131.271 180.209C131.525 180.599 131.703 181.048 131.805 181.556C131.906 182.065 131.957 182.582 131.957 183.108C131.957 183.633 131.906 184.151 131.805 184.659C131.703 185.151 131.525 185.6 131.271 186.007C131.033 186.397 130.703 186.711 130.279 186.948C129.872 187.185 129.363 187.304 128.753 187.304C128.142 187.304 127.634 187.185 127.227 186.948C126.82 186.711 126.489 186.397 126.235 186.007C125.998 185.6 125.828 185.151 125.726 184.659C125.625 184.151 125.574 183.633 125.574 183.108ZM121.962 183.108C121.962 184.159 122.123 185.109 122.446 185.956C122.768 186.804 123.225 187.533 123.819 188.143C124.412 188.737 125.124 189.195 125.955 189.517C126.786 189.839 127.718 190 128.753 190C129.787 190 130.719 189.839 131.55 189.517C132.398 189.195 133.119 188.737 133.712 188.143C134.305 187.533 134.763 186.804 135.085 185.956C135.408 185.109 135.569 184.159 135.569 183.108C135.569 182.057 135.408 181.107 135.085 180.259C134.763 179.395 134.305 178.666 133.712 178.072C133.119 177.462 132.398 176.996 131.55 176.673C130.719 176.334 129.787 176.165 128.753 176.165C127.718 176.165 126.786 176.334 125.955 176.673C125.124 176.996 124.412 177.462 123.819 178.072C123.225 178.666 122.768 179.395 122.446 180.259C122.123 181.107 121.962 182.057 121.962 183.108Z" fill="white"/>
<path d="M150.251 189.669V176.521H146.64V183.413C146.64 184.752 146.42 185.719 145.979 186.312C145.538 186.889 144.826 187.177 143.842 187.177C142.978 187.177 142.376 186.914 142.037 186.389C141.698 185.846 141.528 185.032 141.528 183.947V176.521H137.917V184.608C137.917 185.422 137.985 186.168 138.12 186.846C138.273 187.508 138.527 188.076 138.883 188.55C139.239 189.008 139.722 189.364 140.333 189.619C140.96 189.873 141.757 190 142.723 190C143.486 190 144.232 189.83 144.961 189.491C145.691 189.152 146.284 188.601 146.742 187.838H146.818V189.669H150.251Z" fill="white"/>
<path d="M152.992 176.521V189.669H156.604V182.777C156.604 181.438 156.824 180.48 157.265 179.903C157.706 179.31 158.418 179.013 159.401 179.013C160.266 179.013 160.868 179.285 161.207 179.827C161.546 180.353 161.716 181.158 161.716 182.243V189.669H165.327V181.582C165.327 180.768 165.251 180.031 165.098 179.369C164.962 178.691 164.717 178.123 164.361 177.665C164.005 177.191 163.513 176.826 162.885 176.572C162.275 176.3 161.487 176.165 160.52 176.165C159.757 176.165 159.011 176.343 158.282 176.699C157.553 177.038 156.96 177.589 156.502 178.352H156.426V176.521H152.992Z" fill="white"/>
<path d="M177.02 181.15H180.555C180.504 180.302 180.301 179.573 179.945 178.962C179.589 178.335 179.123 177.818 178.546 177.411C177.987 176.987 177.342 176.673 176.613 176.47C175.901 176.267 175.155 176.165 174.375 176.165C173.307 176.165 172.358 176.343 171.527 176.699C170.696 177.055 169.992 177.555 169.416 178.199C168.839 178.827 168.399 179.581 168.093 180.463C167.805 181.328 167.661 182.269 167.661 183.286C167.661 184.269 167.822 185.176 168.144 186.007C168.466 186.821 168.916 187.525 169.492 188.118C170.069 188.711 170.764 189.178 171.578 189.517C172.408 189.839 173.315 190 174.299 190C176.045 190 177.478 189.542 178.597 188.627C179.716 187.711 180.394 186.38 180.631 184.634H177.147C177.029 185.448 176.732 186.1 176.257 186.592C175.799 187.067 175.138 187.304 174.273 187.304C173.714 187.304 173.239 187.177 172.849 186.923C172.459 186.668 172.146 186.346 171.908 185.956C171.688 185.549 171.527 185.1 171.425 184.608C171.323 184.117 171.272 183.633 171.272 183.159C171.272 182.667 171.323 182.175 171.425 181.684C171.527 181.175 171.696 180.717 171.934 180.31C172.188 179.886 172.51 179.547 172.9 179.293C173.29 179.022 173.773 178.886 174.35 178.886C175.893 178.886 176.783 179.641 177.02 181.15Z" fill="white"/>
<path d="M191.522 181.684H185.647C185.664 181.429 185.715 181.141 185.8 180.819C185.902 180.497 186.063 180.192 186.283 179.903C186.52 179.615 186.826 179.378 187.199 179.191C187.589 178.988 188.072 178.886 188.648 178.886C189.53 178.886 190.183 179.123 190.607 179.598C191.047 180.073 191.353 180.768 191.522 181.684ZM185.647 183.973H195.133C195.201 182.955 195.117 181.98 194.879 181.048C194.642 180.115 194.252 179.285 193.709 178.555C193.184 177.826 192.505 177.25 191.675 176.826C190.844 176.385 189.869 176.165 188.75 176.165C187.75 176.165 186.834 176.343 186.003 176.699C185.189 177.055 184.486 177.547 183.892 178.174C183.299 178.784 182.841 179.513 182.519 180.361C182.197 181.209 182.036 182.124 182.036 183.108C182.036 184.125 182.188 185.058 182.494 185.905C182.816 186.753 183.265 187.482 183.842 188.093C184.418 188.703 185.122 189.178 185.952 189.517C186.783 189.839 187.716 190 188.75 190C190.242 190 191.514 189.661 192.565 188.983C193.616 188.305 194.396 187.177 194.905 185.6H191.726C191.607 186.007 191.285 186.397 190.759 186.77C190.234 187.126 189.606 187.304 188.877 187.304C187.86 187.304 187.08 187.041 186.537 186.516C185.995 185.99 185.698 185.142 185.647 183.973Z" fill="white"/>
<rect x="0.5" y="0.5" width="299" height="299" rx="29.5" stroke="#E1F25C" stroke-opacity="0.6"/>
<path d="M141 294.226L135.226 300L141 305.774L146.774 300L141 294.226ZM140 300V599.798H142V300H140Z" fill="#E1F25C"/>
<path d="M159 605.571L164.774 599.798L159 594.024L153.226 599.798L159 605.571ZM158 300V599.798H160V300H158Z" fill="#E1F25C"/>
</svg>
