<svg width="51" height="50" viewBox="0 0 51 50" fill="none" xmlns="http://www.w3.org/2000/svg">
<path d="M25.916 50C39.7231 50 50.916 38.8071 50.916 25C50.916 11.1929 39.7231 0 25.916 0C12.1089 0 0.916016 11.1929 0.916016 25C0.916016 38.8071 12.1089 50 25.916 50Z" fill="#2E6CF6"/>
<path fill-rule="evenodd" clip-rule="evenodd" d="M24.6287 7.60796C25.5784 7.10218 26.7263 7.14375 27.6369 7.71689L34.6989 12.1616C35.5714 12.7108 36.1009 13.6696 36.1009 14.7006V36.0266C36.1009 37.1294 35.4958 38.1433 34.5252 38.6669L27.6186 42.3929C26.6807 42.8989 25.5447 42.8693 24.6344 42.3153L15.9362 37.0211C15.0418 36.4768 14.4959 35.5055 14.4959 34.4585V14.8055C14.4959 13.6969 15.1073 12.6787 16.0857 12.1576L24.6287 7.60796ZM16.1578 14.9261L23.6492 19.2482L16.1578 23.5703V14.9261ZM16.1578 26.4321V35.226L24.6847 40.4158C25.595 40.9699 26.7309 40.9995 27.6688 40.4935L34.4389 36.8411V26.4321L26.7976 30.8407C25.8698 31.376 24.727 31.376 23.7992 30.8407L16.1578 26.4321ZM34.4389 23.5703L26.9475 19.2482L34.4389 14.9261V23.5703ZM33.6736 13.4647L25.2984 18.2967L17.0257 13.5239L24.5586 9.51214C25.5083 9.00636 26.6562 9.04793 27.5668 9.62108L33.6736 13.4647ZM24.4674 20.6791L16.976 25.0012L24.4674 29.3233V20.6791ZM26.1293 29.3233L33.6207 25.0012L26.1293 20.6791V29.3233ZM40.1243 14.1902C40.1243 11.9441 38.8974 9.87734 36.9256 8.80178L35.5848 11.2599C36.6571 11.8448 37.3243 12.9687 37.3243 14.1902V14.3097H40.1243V14.1902ZM13.6714 40.2722C11.6995 39.1967 10.4727 37.1299 10.4727 34.8838V34.7643H13.2726V34.8838C13.2726 36.1053 13.9398 37.2292 15.0122 37.8141L13.6714 40.2722Z" fill="white"/>
</svg>
