<svg width="51" height="50" viewBox="0 0 51 50" fill="none" xmlns="http://www.w3.org/2000/svg">
<path d="M25.916 50C39.7231 50 50.916 38.8071 50.916 25C50.916 11.1929 39.7231 0 25.916 0C12.1089 0 0.916016 11.1929 0.916016 25C0.916016 38.8071 12.1089 50 25.916 50Z" fill="#F3BA2F"/>
<path fill-rule="evenodd" clip-rule="evenodd" d="M19.4608 22.6622L26.1027 16.1887L32.7482 22.6656L36.6129 18.8987L26.1027 8.6543L15.5961 18.8953L19.4608 22.6622ZM17.0015 24.8329L13.286 21.1481L9.57031 24.833L13.2858 28.5178L17.0015 24.8329ZM26.1046 33.8123L19.4651 27.3386L15.5961 31.1006L15.6015 31.1059L26.1046 41.3468L36.611 31.1025L36.6129 31.1004L32.7474 27.3355L26.1046 33.8123ZM38.7354 28.5196L42.4511 24.8346L38.7356 21.1498L35.0199 24.8348L38.7354 28.5196ZM29.6059 25.0002H29.6044L29.6076 25.0019L29.6059 25.0038L26.1048 28.5049L22.6068 25.007L22.602 25.0019L22.6068 24.9971L23.2201 24.3838L23.5172 24.0865L26.1048 21.4992L29.6059 25.0002Z" fill="white"/>
</svg>
