<svg width="51" height="50" viewBox="0 0 51 50" fill="none" xmlns="http://www.w3.org/2000/svg">
<path d="M25.916 50C39.7231 50 50.916 38.8071 50.916 25C50.916 11.1929 39.7231 0 25.916 0C12.1089 0 0.916016 11.1929 0.916016 25C0.916016 38.8071 12.1089 50 25.916 50Z" fill="#7950DD"/>
<path d="M33.8541 19.7209C33.29 19.3986 32.5648 19.3986 31.9201 19.7209L27.4073 22.3806L24.3451 24.0731L19.9129 26.7327C19.3488 27.0551 18.6235 27.0551 17.9788 26.7327L14.5136 24.6372C13.9495 24.3148 13.5466 23.6701 13.5466 22.9447V18.915C13.5466 18.2702 13.869 17.6255 14.5136 17.2225L17.9788 15.2076C18.5429 14.8852 19.2682 14.8852 19.9129 15.2076L23.378 17.3031C23.9421 17.6255 24.3451 18.2702 24.3451 18.9956V21.6552L27.4073 19.8821V17.1419C27.4073 16.4971 27.085 15.8524 26.4403 15.4494L19.9934 11.6614C19.4293 11.3391 18.7041 11.3391 18.0594 11.6614L11.4514 15.53C10.8067 15.8524 10.4844 16.4971 10.4844 17.1419V24.7178C10.4844 25.3626 10.8067 26.0073 11.4514 26.4103L17.9788 30.1983C18.5429 30.5207 19.2682 30.5207 19.9129 30.1983L24.3451 27.6192L27.4073 25.8461L31.8395 23.2671C32.4036 22.9447 33.1289 22.9447 33.7735 23.2671L37.2387 25.282C37.8028 25.6044 38.2057 26.2491 38.2057 26.9745V31.0042C38.2057 31.649 37.8834 32.2937 37.2387 32.6967L33.8541 34.7116C33.29 35.034 32.5648 35.034 31.9201 34.7116L28.4549 32.6967C27.8908 32.3743 27.4879 31.7296 27.4879 31.0042V28.4252L24.4256 30.1983V32.8579C24.4256 33.5027 24.748 34.1474 25.3927 34.5504L31.9201 38.3384C32.4842 38.6607 33.2094 38.6607 33.8541 38.3384L40.3815 34.5504C40.9456 34.228 41.3486 33.5833 41.3486 32.8579V25.2014C41.3486 24.5566 41.0262 23.9119 40.3815 23.5089L33.8541 19.7209Z" fill="white"/>
</svg>
