<svg width="51" height="50" viewBox="0 0 51 50" fill="none" xmlns="http://www.w3.org/2000/svg">
<path d="M25.916 50C39.7231 50 50.916 38.8071 50.916 25C50.916 11.1929 39.7231 0 25.916 0C12.1089 0 0.916016 11.1929 0.916016 25C0.916016 38.8071 12.1089 50 25.916 50Z" fill="#E3453D"/>
<path fill-rule="evenodd" clip-rule="evenodd" d="M28.3007 11.7827L30.7269 16.1006C31.3176 17.1855 31.3176 18.9509 30.7269 19.9932L22.5834 34.2021C21.9716 35.2869 20.4526 36.1589 19.229 36.1589H18.7859H16.212H12.4568C10.98 36.1589 10.3682 35.1167 11.1065 33.8192L24.6087 9.93212C25.3471 8.63461 26.5286 8.63461 27.2669 9.93212L28.3007 11.7827ZM33.4682 25.6934C34.2066 24.3958 35.388 24.3958 36.1264 25.6934L40.7256 33.84C41.464 35.1163 40.8522 36.1798 39.3754 36.1798H30.1349C28.6791 36.1798 28.0673 35.1163 28.8057 33.84L33.4682 25.6934Z" fill="white"/>
</svg>
