<svg width="50" height="50" viewBox="0 0 50 50" fill="none" xmlns="http://www.w3.org/2000/svg">
<path fill-rule="evenodd" clip-rule="evenodd" d="M22.6574 0.023043C17.6485 0.623423 13.6652 2.17848 9.91003 4.99948C8.10879 6.3526 5.16146 9.33566 5.16146 9.80555C5.16146 9.93645 6.91334 9.95603 18.4136 9.95385C26.0406 9.95239 31.8425 9.91094 32.0822 9.85616C32.426 9.77753 32.7164 9.53696 33.7445 8.47877C35.2443 6.93497 35.3826 6.83353 35.9876 6.83333C36.622 6.83312 36.851 7.00162 38.0715 8.36703C38.6469 9.01073 39.2687 9.61997 39.4532 9.72088C39.7419 9.87865 40.1418 9.90907 42.3142 9.93843C44.5238 9.96832 44.8397 9.9527 44.8397 9.81367C44.8397 9.33618 41.9095 6.36552 40.0911 4.99948C36.7736 2.50736 33.3051 1.01729 29.0621 0.261529C28.0778 0.0862574 27.3039 0.0326241 25.4171 0.00919204C24.0997 -0.00726244 22.8578 -0.00101386 22.6574 0.023043ZM29.4507 13.7399C29.3208 13.812 28.7584 14.3818 28.201 15.006C27.4987 15.7925 27.0285 16.2228 26.6697 16.4072L26.1518 16.6735L13.776 16.7012L1.40036 16.7289L1.23665 17.1178C0.792167 18.1738 -0.0671109 22.4784 0.109514 22.7642C0.15315 22.8348 3.98475 22.87 11.6278 22.87C21.0747 22.87 23.1403 22.8451 23.4211 22.7277C23.609 22.6492 24.2955 22.0189 24.9523 21.322C26.1748 20.0248 26.5605 19.7457 27.1304 19.7457C27.6711 19.7457 27.9909 19.9897 29.1241 21.2669C29.8476 22.0824 30.344 22.5489 30.6233 22.6758C31.0172 22.8547 31.573 22.8655 40.4335 22.8677C46.6839 22.8693 49.8481 22.8346 49.8916 22.7642C50.0681 22.4786 49.209 18.1739 48.7649 17.1188L48.6017 16.731L41.174 16.7023C33.9512 16.6744 33.7372 16.6678 33.4174 16.4652C33.2365 16.3507 32.6364 15.7415 32.0838 15.1114C31.5312 14.4813 30.9306 13.8839 30.7491 13.7836C30.3656 13.5716 29.7886 13.5523 29.4507 13.7399ZM20.6266 26.6618C20.4548 26.738 19.8762 27.2992 19.3411 27.9087C18.7844 28.5428 18.1605 29.139 17.8831 29.3021L17.3982 29.5872L8.93662 29.6156L0.475054 29.644L0.475991 29.876C0.478699 30.5382 1.33996 33.3498 2.02875 34.9453L2.41314 35.8357L8.08317 35.8655C11.2017 35.8818 13.9172 35.8661 14.1177 35.8304C14.4088 35.7786 14.7792 35.4712 15.9564 34.3049C17.3473 32.9269 17.4576 32.8412 17.9074 32.7906C18.5714 32.7157 18.9108 32.8897 19.5488 33.6324C20.7288 35.0059 21.4367 35.6777 21.8151 35.7828C22.0539 35.8491 26.7659 35.8868 34.8738 35.8872L47.5588 35.8878L47.8252 35.289C48.5496 33.6609 49.3394 31.2105 49.4867 30.1339L49.5544 29.6392L37.2775 29.639C25.7969 29.6389 24.9771 29.6271 24.6388 29.4568C24.4398 29.3567 23.7755 28.7125 23.1627 28.0253C21.8169 26.5163 21.4268 26.3067 20.6266 26.6618ZM10.681 39.1627C10.5378 39.241 9.97741 39.8081 9.43567 40.4231C8.44517 41.5474 7.76804 42.0285 7.17234 42.0311C7.04685 42.0318 6.91813 42.0744 6.88616 42.126C6.80243 42.2616 8.71729 44.0498 9.91566 44.9552C18.8197 51.6816 31.1814 51.6816 40.0855 44.9552C41.2838 44.0498 43.1987 42.2616 43.115 42.126C43.081 42.0711 37.2362 42.032 29.0299 42.0318C15.4268 42.0315 14.9931 42.0254 14.678 41.8333C14.4994 41.7243 13.8919 41.1114 13.3283 40.4712C12.7647 39.831 12.175 39.2407 12.0181 39.1596C11.6604 38.9746 11.0224 38.9761 10.681 39.1627Z" fill="white"/>
</svg>
