<svg width="51" height="50" viewBox="0 0 51 50" fill="none" xmlns="http://www.w3.org/2000/svg">
<path d="M25.0859 50C38.893 50 50.0859 38.8071 50.0859 25C50.0859 11.1928 38.893 0 25.0859 0C11.2788 0 0.0859375 11.1928 0.0859375 25C0.0859375 38.8071 11.2788 50 25.0859 50Z" fill="#627EEA"/>
<path d="M25.1348 6.25V20.1094L36.8489 25.3438L25.1348 6.25Z" fill="white" fill-opacity="0.602"/>
<path d="M25.1395 6.25L13.4238 25.3438L25.1395 20.1094V6.25Z" fill="white"/>
<path d="M25.1348 34.3228V43.74L36.8567 27.5228L25.1348 34.3228Z" fill="white" fill-opacity="0.602"/>
<path d="M25.1395 43.74V34.3213L13.4238 27.5228L25.1395 43.74Z" fill="white"/>
<path d="M25.1348 32.1419L36.8489 25.3402L25.1348 20.109V32.1419Z" fill="white" fill-opacity="0.2"/>
<path d="M13.4238 25.3402L25.1395 32.1419V20.109L13.4238 25.3402Z" fill="white" fill-opacity="0.602"/>
</svg>
