<svg width="51" height="50" viewBox="0 0 51 50" fill="none" xmlns="http://www.w3.org/2000/svg">
<path d="M25.0859 50C38.893 50 50.0859 38.8071 50.0859 25C50.0859 11.1929 38.893 0 25.0859 0C11.2788 0 0.0859375 11.1929 0.0859375 25C0.0859375 38.8071 11.2788 50 25.0859 50Z" fill="#F2F5FA"/>
<path d="M14.2536 31.6658C14.4499 31.4683 14.7163 31.3574 14.9939 31.3574H40.6111C41.0778 31.3574 41.3114 31.9251 40.9813 32.257L35.9193 37.346C35.723 37.5435 35.4566 37.6544 35.179 37.6544H9.56183C9.09516 37.6544 8.86159 37.0866 9.19169 36.7547L14.2536 31.6658Z" fill="url(#paint0_linear_3467_156994)"/>
<path d="M14.2536 12.654C14.4499 12.4566 14.7163 12.3457 14.9939 12.3457H40.6111C41.0778 12.3457 41.3114 12.9134 40.9813 13.2453L35.9193 18.3343C35.723 18.5317 35.4566 18.6426 35.179 18.6426H9.56183C9.09516 18.6426 8.86159 18.0749 9.19169 17.743L14.2536 12.654Z" fill="url(#paint1_linear_3467_156994)"/>
<path d="M35.9193 22.0991C35.723 21.9017 35.4566 21.7908 35.179 21.7908H9.56183C9.09516 21.7908 8.86159 22.3586 9.19169 22.6904L14.2536 27.7794C14.4499 27.9768 14.7163 28.0878 14.9939 28.0878H40.6111C41.0778 28.0878 41.3114 27.52 40.9813 27.1881L35.9193 22.0991Z" fill="url(#paint2_linear_3467_156994)"/>
<defs>
<linearGradient id="paint0_linear_3467_156994" x1="30.7378" y1="5.40295" x2="12.8371" y2="39.4804" gradientUnits="userSpaceOnUse">
<stop stop-color="#00FFA3"/>
<stop offset="1" stop-color="#DC1FFF"/>
</linearGradient>
<linearGradient id="paint1_linear_3467_156994" x1="30.7378" y1="5.40326" x2="12.8371" y2="39.4807" gradientUnits="userSpaceOnUse">
<stop stop-color="#00FFA3"/>
<stop offset="1" stop-color="#DC1FFF"/>
</linearGradient>
<linearGradient id="paint2_linear_3467_156994" x1="30.7377" y1="5.40284" x2="12.8371" y2="39.4803" gradientUnits="userSpaceOnUse">
<stop stop-color="#00FFA3"/>
<stop offset="1" stop-color="#DC1FFF"/>
</linearGradient>
</defs>
</svg>
