<svg width="121" height="259" viewBox="0 0 121 259" fill="none" xmlns="http://www.w3.org/2000/svg">
<path d="M120.354 58.3536C120.549 58.1583 120.549 57.8417 120.354 57.6464L117.172 54.4645C116.976 54.2692 116.66 54.2692 116.464 54.4645C116.269 54.6597 116.269 54.9763 116.464 55.1716L119.293 58L116.464 60.8284C116.269 61.0237 116.269 61.3403 116.464 61.5355C116.66 61.7308 116.976 61.7308 117.172 61.5355L120.354 58.3536ZM120 57.5H73.5215V58.5H120V57.5ZM65.0215 66V250H66.0215V66H65.0215ZM57.5215 257.5H0V258.5H57.5215V257.5ZM65.0215 250C65.0215 254.142 61.6636 257.5 57.5215 257.5V258.5C62.2159 258.5 66.0215 254.694 66.0215 250H65.0215ZM73.5215 57.5C68.8271 57.5 65.0215 61.3056 65.0215 66H66.0215C66.0215 61.8579 69.3793 58.5 73.5215 58.5V57.5Z" fill="#E1F25C" fill-opacity="0.6"/>
</svg>
