<svg width="92" height="80" viewBox="0 0 92 80" fill="none" xmlns="http://www.w3.org/2000/svg">
<path d="M32.6726 0C30.974 0 29.5971 1.37696 29.5971 3.07553C29.5971 4.77411 30.974 6.15107 32.6726 6.15107H42.9244C44.623 6.15107 45.9999 4.77411 45.9999 3.07553C45.9999 1.37696 44.623 0 42.9244 0H32.6726Z" fill="white"/>
<path d="M60.3905 10.0622C61.9843 9.47495 62.8003 7.70686 62.2131 6.11302C61.6259 4.51918 59.8578 3.70314 58.264 4.29034L31.6094 14.1105C30.0155 14.6977 29.1995 16.4658 29.7867 18.0596C30.3739 19.6534 32.142 20.4695 33.7358 19.8823L60.3905 10.0622Z" fill="white"/>
<path d="M60.3905 35.0981C61.9843 34.5109 62.8003 32.7428 62.2131 31.149C61.6259 29.5551 59.8578 28.7391 58.264 29.3263L31.6094 39.1464C30.0155 39.7336 29.1995 41.5017 29.7867 43.0955C30.3739 44.6894 32.142 45.5054 33.7358 44.9182L60.3905 35.0981Z" fill="white"/>
<path d="M49.0755 43.0575C47.3769 43.0575 45.9999 44.4345 45.9999 46.133C45.9999 47.8316 47.3769 49.2086 49.0755 49.2086H59.3272C61.0258 49.2086 62.4028 47.8316 62.4028 46.133C62.4028 44.4345 61.0258 43.0575 59.3272 43.0575H49.0755Z" fill="white"/>
<path d="M60.4313 22.3498C62.0166 21.74 62.8075 19.9605 62.1978 18.3752C61.588 16.7898 59.8085 15.9989 58.2232 16.6087L31.5685 26.8605C29.9832 27.4702 29.1923 29.2497 29.8021 30.8351C30.4118 32.4204 32.1913 33.2113 33.7767 32.6015L60.4313 22.3498Z" fill="white"/>
<path d="M4.83663 68.8606V64.6134H8.57518C8.93123 64.6134 9.27033 64.6473 9.59247 64.7152C9.93157 64.766 10.2283 64.8678 10.4826 65.0204C10.7369 65.1729 10.9404 65.3849 11.093 65.6562C11.2456 65.9274 11.3219 66.275 11.3219 66.6989C11.3219 67.4619 11.093 68.0129 10.6352 68.352C10.1774 68.6911 9.59247 68.8606 8.88037 68.8606H4.83663ZM0.84375 61.5107V79.6694H9.64334C10.4572 79.6694 11.2456 79.5676 12.0085 79.3642C12.7885 79.1607 13.4751 78.8471 14.0686 78.4232C14.6789 77.9993 15.1622 77.4568 15.5182 76.7955C15.8743 76.1173 16.0523 75.3205 16.0523 74.4049C16.0523 73.2689 15.7725 72.3025 15.213 71.5056C14.6705 70.6918 13.8397 70.1238 12.7206 69.8016C13.5345 69.4117 14.1449 68.9115 14.5518 68.3011C14.9756 67.6907 15.1876 66.9278 15.1876 66.0122C15.1876 65.1645 15.0435 64.4524 14.7552 63.8759C14.484 63.2994 14.094 62.8416 13.5853 62.5026C13.0767 62.1465 12.4663 61.8922 11.7542 61.7396C11.0421 61.587 10.2537 61.5107 9.38901 61.5107H0.84375ZM4.83663 76.5666V71.5819H9.18555C10.0503 71.5819 10.7454 71.7854 11.271 72.1923C11.7966 72.5822 12.0594 73.2435 12.0594 74.176C12.0594 74.6507 11.9746 75.0407 11.8051 75.3459C11.6525 75.6511 11.4406 75.8969 11.1693 76.0834C10.898 76.253 10.5843 76.3801 10.2283 76.4649C9.87223 76.5327 9.49922 76.5666 9.10925 76.5666H4.83663Z" fill="white"/>
<path d="M21.5737 73.1078C21.5737 72.5822 21.6245 72.0651 21.7263 71.5565C21.828 71.0478 21.9976 70.5985 22.2349 70.2086C22.4892 69.8186 22.8199 69.5049 23.2268 69.2676C23.6337 69.0132 24.1423 68.8861 24.7527 68.8861C25.3631 68.8861 25.8717 69.0132 26.2787 69.2676C26.7025 69.5049 27.0332 69.8186 27.2705 70.2086C27.5248 70.5985 27.7029 71.0478 27.8046 71.5565C27.9063 72.0651 27.9572 72.5822 27.9572 73.1078C27.9572 73.6334 27.9063 74.1506 27.8046 74.6592C27.7029 75.1509 27.5248 75.6002 27.2705 76.0071C27.0332 76.3971 26.7025 76.7107 26.2787 76.9481C25.8717 77.1855 25.3631 77.3042 24.7527 77.3042C24.1423 77.3042 23.6337 77.1855 23.2268 76.9481C22.8199 76.7107 22.4892 76.3971 22.2349 76.0071C21.9976 75.6002 21.828 75.1509 21.7263 74.6592C21.6245 74.1506 21.5737 73.6334 21.5737 73.1078ZM17.9623 73.1078C17.9623 74.159 18.1234 75.1085 18.4455 75.9563C18.7676 76.804 19.2254 77.5331 19.8188 78.1434C20.4123 78.7369 21.1244 79.1946 21.9552 79.5168C22.786 79.8389 23.7185 80 24.7527 80C25.787 80 26.7195 79.8389 27.5503 79.5168C28.398 79.1946 29.1186 78.7369 29.712 78.1434C30.3054 77.5331 30.7632 76.804 31.0854 75.9563C31.4075 75.1085 31.5686 74.159 31.5686 73.1078C31.5686 72.0566 31.4075 71.1072 31.0854 70.2594C30.7632 69.3947 30.3054 68.6657 29.712 68.0722C29.1186 67.4619 28.398 66.9956 27.5503 66.6735C26.7195 66.3344 25.787 66.1648 24.7527 66.1648C23.7185 66.1648 22.786 66.3344 21.9552 66.6735C21.1244 66.9956 20.4123 67.4619 19.8188 68.0722C19.2254 68.6657 18.7676 69.3947 18.4455 70.2594C18.1234 71.1072 17.9623 72.0566 17.9623 73.1078Z" fill="white"/>
<path d="M46.2514 79.6694V66.5209H42.64V73.413C42.64 74.7525 42.4196 75.7189 41.9788 76.3123C41.5379 76.8888 40.8258 77.177 39.8424 77.177C38.9777 77.177 38.3758 76.9142 38.0367 76.3886C37.6976 75.846 37.5281 75.0322 37.5281 73.9471V66.5209H33.9167V74.6083C33.9167 75.4222 33.9845 76.1682 34.1202 76.8464C34.2728 77.5076 34.5271 78.0756 34.8831 78.5504C35.2392 79.0081 35.7224 79.3642 36.3328 79.6185C36.9601 79.8728 37.757 80 38.7234 80C39.4864 80 40.2324 79.8304 40.9615 79.4914C41.6905 79.1523 42.2839 78.6012 42.7417 77.8382H42.818V79.6694H46.2514Z" fill="white"/>
<path d="M48.9923 66.5209V79.6694H52.6037V72.7772C52.6037 71.4378 52.8241 70.4798 53.2649 69.9034C53.7058 69.3099 54.4179 69.0132 55.4013 69.0132C56.266 69.0132 56.8679 69.2845 57.207 69.8271C57.546 70.3527 57.7156 71.158 57.7156 72.2431V79.6694H61.327V71.5819C61.327 70.7681 61.2507 70.0305 61.0981 69.3693C60.9625 68.6911 60.7166 68.1231 60.3606 67.6653C60.0045 67.1906 59.5128 66.8261 58.8855 66.5717C58.2751 66.3005 57.4867 66.1648 56.5203 66.1648C55.7573 66.1648 55.0113 66.3428 54.2822 66.6989C53.5532 67.038 52.9598 67.589 52.502 68.352H52.4257V66.5209H48.9923Z" fill="white"/>
<path d="M73.0201 71.1495H76.5552C76.5043 70.3018 76.3009 69.5727 75.9448 68.9624C75.5888 68.335 75.1225 67.8179 74.546 67.411C73.9865 66.9871 73.3422 66.6735 72.6132 66.47C71.9011 66.2665 71.1551 66.1648 70.3751 66.1648C69.307 66.1648 68.3575 66.3428 67.5267 66.6989C66.6959 67.0549 65.9923 67.5551 65.4158 68.1994C64.8394 68.8267 64.3985 69.5812 64.0934 70.4629C63.8051 71.3276 63.661 72.2686 63.661 73.2859C63.661 74.2692 63.8221 75.1763 64.1442 76.0071C64.4664 76.821 64.9157 77.5246 65.4921 78.118C66.0686 78.7114 66.7638 79.1777 67.5776 79.5168C68.4084 79.8389 69.3155 80 70.2989 80C72.0452 80 73.4779 79.5422 74.5969 78.6267C75.7159 77.7111 76.3941 76.3801 76.6315 74.6338H73.1473C73.0286 75.4476 72.7319 76.1004 72.2571 76.5921C71.7994 77.0668 71.1381 77.3042 70.2734 77.3042C69.7139 77.3042 69.2392 77.177 68.8492 76.9227C68.4592 76.6684 68.1456 76.3462 67.9082 75.9563C67.6878 75.5493 67.5267 75.1 67.425 74.6083C67.3233 74.1167 67.2724 73.6334 67.2724 73.1587C67.2724 72.667 67.3233 72.1753 67.425 71.6836C67.5267 71.175 67.6963 70.7172 67.9336 70.3103C68.188 69.8864 68.5101 69.5473 68.9001 69.293C69.29 69.0217 69.7732 68.8861 70.3497 68.8861C71.8926 68.8861 72.7827 69.6406 73.0201 71.1495Z" fill="white"/>
<path d="M87.5221 71.6836H81.6472C81.6642 71.4293 81.715 71.1411 81.7998 70.8189C81.9015 70.4968 82.0626 70.1916 82.283 69.9034C82.5204 69.6151 82.8256 69.3778 83.1986 69.1913C83.5886 68.9878 84.0718 68.8861 84.6482 68.8861C85.5299 68.8861 86.1827 69.1234 86.6065 69.5982C87.0474 70.0729 87.3525 70.7681 87.5221 71.6836ZM81.6472 73.9725H91.1335C91.2013 72.9552 91.1165 71.9803 90.8792 71.0478C90.6418 70.1153 90.2518 69.2845 89.7093 68.5555C89.1837 67.8264 88.5055 67.2499 87.6747 66.8261C86.8439 66.3852 85.869 66.1648 84.75 66.1648C83.7496 66.1648 82.8341 66.3428 82.0033 66.6989C81.1894 67.0549 80.4858 67.5466 79.8924 68.174C79.299 68.7843 78.8412 69.5134 78.5191 70.3611C78.1969 71.2089 78.0358 72.1245 78.0358 73.1078C78.0358 74.1251 78.1884 75.0576 78.4936 75.9054C78.8158 76.7531 79.2651 77.4822 79.8415 78.0926C80.418 78.7029 81.1216 79.1777 81.9524 79.5168C82.7832 79.8389 83.7157 80 84.75 80C86.242 80 87.5136 79.6609 88.5648 78.9827C89.616 78.3045 90.3959 77.177 90.9046 75.6002H87.7256C87.6069 76.0071 87.2847 76.3971 86.7591 76.7701C86.2335 77.1261 85.6062 77.3042 84.8771 77.3042C83.8598 77.3042 83.0799 77.0414 82.5374 76.5158C81.9948 75.9902 81.6981 75.1424 81.6472 73.9725Z" fill="white"/>
</svg>
