<svg width="24" height="24" viewBox="0 0 24 24" fill="none" xmlns="http://www.w3.org/2000/svg">
<path fill-rule="evenodd" clip-rule="evenodd" d="M3 13.8746C2.99978 13.8257 3.00935 13.7772 3.02814 13.732C3.04693 13.6868 3.07457 13.6458 3.10943 13.6114C3.14429 13.5771 3.18567 13.55 3.23113 13.5319C3.27659 13.5138 3.32522 13.5049 3.37416 13.5058L5.65275 13.5411C5.85938 13.5443 6.02588 13.7147 6.02466 13.9226L6.00225 17.6242C6.00181 17.6733 6.01111 17.7221 6.02962 17.7677C6.04814 17.8133 6.07549 17.8547 6.11011 17.8897C6.14474 17.9246 6.18594 17.9524 6.23134 17.9713C6.27674 17.9902 6.32544 18 6.37463 18H7.12538C7.2248 17.9999 7.32012 17.9603 7.39037 17.89C7.46062 17.8196 7.50005 17.7242 7.5 17.6248V4.87519C7.50004 4.82587 7.50979 4.77703 7.52871 4.73148C7.54762 4.68593 7.57533 4.64455 7.61024 4.60971C7.64515 4.57487 7.68659 4.54724 7.73218 4.52842C7.77777 4.5096 7.82662 4.49994 7.87594 4.5H11.6241C11.6734 4.49988 11.7223 4.5095 11.7679 4.5283C11.8135 4.54711 11.855 4.57474 11.8899 4.6096C11.9249 4.64447 11.9526 4.68588 11.9714 4.73147C11.9903 4.77706 12 4.82593 12 4.87528V14.6247C11.9999 14.7242 12.0394 14.8196 12.1096 14.8899C12.1799 14.9603 12.2752 14.9999 12.3746 15H13.1254C13.1747 14.9999 13.2235 14.9901 13.269 14.9712C13.3145 14.9523 13.3558 14.9246 13.3906 14.8896C13.4254 14.8547 13.4529 14.8133 13.4717 14.7677C13.4905 14.7222 13.5001 14.6734 13.5 14.6241V10.8759C13.4998 10.8268 13.5094 10.7782 13.5282 10.7328C13.5471 10.6875 13.5748 10.6464 13.6098 10.6119C13.6448 10.5774 13.6863 10.5503 13.7319 10.5321C13.7775 10.5139 13.8263 10.505 13.8754 10.5059L16.1246 10.541C16.1736 10.5419 16.2224 10.533 16.2679 10.5149C16.3135 10.4967 16.3549 10.4697 16.3899 10.4353C16.4248 10.4009 16.4526 10.3599 16.4715 10.3147C16.4904 10.2695 16.5001 10.2209 16.5 10.1719V7.875C16.5001 7.82569 16.5098 7.77688 16.5288 7.73135C16.5477 7.68582 16.5754 7.64446 16.6103 7.60964C16.6452 7.57482 16.6866 7.54721 16.7322 7.5284C16.7778 7.50959 16.8266 7.49994 16.8759 7.5H20.6241C20.7236 7.4999 20.8191 7.53932 20.8896 7.6096C20.9601 7.67988 20.9998 7.77527 21 7.87481V13.1721C21 13.2714 20.9606 13.3666 20.8904 13.4369C20.8202 13.5071 20.7251 13.5467 20.6258 13.5469H19.9211C19.8719 13.5468 19.8231 13.537 19.7776 13.518C19.7322 13.4991 19.6909 13.4714 19.6561 13.4364C19.6214 13.4015 19.5938 13.3601 19.5751 13.3146C19.5563 13.269 19.5468 13.2202 19.5469 13.1709V9.42281C19.547 9.37353 19.5373 9.32471 19.5186 9.27915C19.4998 9.23359 19.4722 9.19217 19.4374 9.15726C19.4026 9.12235 19.3613 9.09463 19.3158 9.07569C19.2703 9.05675 19.2215 9.04696 19.1723 9.04688H18.4215C18.3215 9.04716 18.2257 9.08664 18.1545 9.15685C18.0833 9.22706 18.0425 9.32239 18.0409 9.42234L18.006 11.6245C18.0042 11.7246 17.9632 11.8199 17.8919 11.8901C17.8206 11.9603 17.7247 11.9997 17.6246 12H15.3754C15.326 12 15.2772 12.0098 15.2316 12.0287C15.1861 12.0476 15.1447 12.0753 15.1098 12.1102C15.0749 12.1451 15.0473 12.1865 15.0285 12.2321C15.0096 12.2777 15 12.3266 15 12.3759V16.1241C15 16.2238 14.9604 16.3194 14.8899 16.3899C14.8194 16.4604 14.7238 16.5 14.6241 16.5H10.8759C10.8266 16.5001 10.7777 16.4905 10.7321 16.4717C10.6865 16.4529 10.645 16.4253 10.6101 16.3904C10.5751 16.3555 10.5474 16.3141 10.5286 16.2685C10.5097 16.2229 10.5 16.1741 10.5 16.1247V6.37528C10.5001 6.27584 10.4607 6.18044 10.3904 6.11007C10.3201 6.03969 10.2248 6.0001 10.1254 6H9.37463C9.27521 6.0001 9.17989 6.03968 9.10964 6.11003C9.03939 6.18039 8.99995 6.27576 9 6.37519V19.1248C8.99997 19.1741 8.99021 19.223 8.9713 19.2685C8.95238 19.3141 8.92468 19.3555 8.88977 19.3903C8.85485 19.4251 8.81342 19.4528 8.76783 19.4716C8.72224 19.4904 8.67339 19.5001 8.62407 19.5H4.87594C4.77624 19.5 4.68062 19.4604 4.61011 19.3899C4.53961 19.3194 4.5 19.2238 4.5 19.1241V15.3759C4.50009 15.3267 4.49047 15.2778 4.47169 15.2323C4.45291 15.1867 4.42534 15.1453 4.39055 15.1104C4.35576 15.0755 4.31444 15.0478 4.26894 15.0288C4.22344 15.0099 4.17466 15.0001 4.12538 15H3.37463C3.32543 15 3.27672 14.9903 3.23127 14.9715C3.18581 14.9527 3.14452 14.9251 3.10973 14.8903C3.07494 14.8555 3.04735 14.8142 3.02852 14.7687C3.00969 14.7233 3 14.6746 3 14.6254V13.8746Z" fill="#121212"/>
</svg>
