<svg width="121" height="259" viewBox="0 0 121 259" fill="none" xmlns="http://www.w3.org/2000/svg">
<path d="M0.646446 58.3536C0.45118 58.1583 0.45118 57.8417 0.646446 57.6464L3.82842 54.4645C4.02369 54.2692 4.34027 54.2692 4.53553 54.4645C4.73079 54.6597 4.73079 54.9763 4.53553 55.1716L1.7071 58L4.53553 60.8284C4.73079 61.0237 4.73079 61.3403 4.53553 61.5355C4.34027 61.7308 4.02369 61.7308 3.82842 61.5355L0.646446 58.3536ZM1 57.5H47.4785V58.5H1V57.5ZM55.9785 66V250H54.9785V66H55.9785ZM63.4785 257.5H121V258.5H63.4785V257.5ZM55.9785 250C55.9785 254.142 59.3364 257.5 63.4785 257.5V258.5C58.7841 258.5 54.9785 254.694 54.9785 250H55.9785ZM47.4785 57.5C52.1729 57.5 55.9785 61.3056 55.9785 66H54.9785C54.9785 61.8579 51.6207 58.5 47.4785 58.5V57.5Z" fill="#E1F25C" fill-opacity="0.6"/>
</svg>
