<svg width="24" height="24" viewBox="0 0 24 24" fill="none" xmlns="http://www.w3.org/2000/svg">
<path d="M6.61908 17.0688C3.90468 14.1504 3.95268 9.57597 6.77268 6.73557C7.87788 5.61753 9.31495 4.88679 10.8695 4.65237L10.7867 2.15997C8.60438 2.42347 6.57551 3.41781 5.03028 4.98117C1.25148 8.78517 1.20588 14.928 4.88268 18.8184L2.79348 20.9208L9.40548 21.282L9.38748 14.2812L6.61908 17.0688ZM14.5955 2.71797L14.6135 9.71877L17.3819 6.93237C20.0963 9.85317 20.0483 14.4276 17.2283 17.2656C16.1233 18.3839 14.6861 19.1147 13.1315 19.3488L13.2143 21.84C15.3966 21.5762 17.4256 20.5824 18.9719 19.02C22.7495 15.2136 22.7951 9.07077 19.1183 5.18277L21.2075 3.07797L14.5955 2.71797Z" fill="white"/>
</svg>
