<svg width="40" height="40" viewBox="0 0 40 40" fill="none" xmlns="http://www.w3.org/2000/svg">
<circle cx="20" cy="20" r="20" fill="#EBECEF"/>
<path d="M15.0861 28.0522V16.5464H11.2274V28.0522H15.0865H15.0861ZM13.1576 14.9758C14.5029 14.9758 15.3404 14.0923 15.3404 12.9881C15.3152 11.8589 14.5029 11 13.1831 11C11.8625 11 11 11.8589 11 12.988C11 14.0922 11.8372 14.9757 13.1323 14.9757H13.1573L13.1576 14.9758ZM17.2219 28.0522H21.0802V21.6276C21.0802 21.2841 21.1054 20.9398 21.2073 20.6945C21.4861 20.0072 22.121 19.2957 23.1872 19.2957C24.583 19.2957 25.1418 20.3507 25.1418 21.8976V28.0522H29V21.4552C29 17.9212 27.0967 16.2767 24.5581 16.2767C22.4768 16.2767 21.5627 17.4297 21.0548 18.2149H21.0805V16.5468H17.2221C17.2724 17.6262 17.2218 28.0526 17.2218 28.0526L17.2219 28.0522Z" fill="#006699"/>
</svg>
