<svg width="40" height="40" viewBox="0 0 40 40" fill="none" xmlns="http://www.w3.org/2000/svg">
<circle cx="20" cy="20" r="20" fill="#EBECEF"/>
<path d="M30.8583 13.724C30.2114 14.003 29.5312 14.1973 28.8347 14.3021C29.1603 14.2461 29.6395 13.6587 29.8302 13.4209C30.12 13.0623 30.3408 12.6529 30.4815 12.2135C30.4815 12.1809 30.5141 12.1343 30.4815 12.111C30.4651 12.102 30.4467 12.0973 30.428 12.0973C30.4093 12.0973 30.3909 12.102 30.3745 12.111C29.6182 12.5214 28.8132 12.8347 27.9787 13.0433C27.9496 13.0522 27.9187 13.053 27.8892 13.0456C27.8597 13.0383 27.8327 13.023 27.8113 13.0014C27.7463 12.9239 27.6764 12.8507 27.6019 12.7823C27.2615 12.4767 26.8754 12.2265 26.4575 12.041C25.8935 11.8091 25.2843 11.7087 24.6758 11.7473C24.0855 11.7847 23.5091 11.9434 22.9825 12.2135C22.464 12.4983 22.0083 12.8852 21.6427 13.351C21.2582 13.8304 20.9806 14.3868 20.8286 14.9827C20.7033 15.5495 20.6891 16.1353 20.7868 16.7076C20.7868 16.8055 20.7868 16.8195 20.703 16.8055C17.3862 16.316 14.6647 15.1365 12.4411 12.6051C12.3434 12.4932 12.2922 12.4932 12.2132 12.6051C11.2455 14.0783 11.7154 16.4092 12.9249 17.5607C13.0877 17.7146 13.2552 17.8638 13.432 18.0036C12.8774 17.9642 12.3364 17.8136 11.841 17.5607C11.748 17.5001 11.6968 17.5328 11.6921 17.6446C11.6789 17.7998 11.6789 17.9557 11.6921 18.1108C11.7892 18.8542 12.0815 19.5584 12.5393 20.1515C12.997 20.7445 13.6037 21.2051 14.2972 21.4861C14.4663 21.5586 14.6425 21.6133 14.8229 21.6492C14.3095 21.7505 13.783 21.7663 13.2645 21.6958C13.1529 21.6725 13.111 21.7331 13.1529 21.8404C13.8367 23.7051 15.3207 24.2739 16.4092 24.5909C16.5581 24.6142 16.707 24.6142 16.8744 24.6515C16.8744 24.6515 16.8744 24.6515 16.8465 24.6795C16.5255 25.2669 15.2276 25.6631 14.6322 25.8683C13.5453 26.2595 12.3865 26.409 11.2362 26.3065C11.0548 26.2785 11.0129 26.2832 10.9664 26.3065C10.9199 26.3298 10.9664 26.3811 11.0176 26.4277C11.2502 26.5815 11.4828 26.7167 11.7247 26.8473C12.4448 27.2409 13.2062 27.5536 13.9949 27.7796C18.0793 28.9078 22.6755 28.078 25.7411 25.0244C28.1509 22.6282 28.9975 19.3229 28.9975 16.013C28.9975 15.8871 29.151 15.8125 29.2394 15.7472C29.8491 15.2712 30.3865 14.709 30.8351 14.0783C30.9127 13.9843 30.9525 13.8645 30.9467 13.7426C30.9467 13.6727 30.9467 13.6867 30.8583 13.724Z" fill="#33CCFF"/>
</svg>
