<svg width="60" height="60" viewBox="0 0 60 60" fill="none" xmlns="http://www.w3.org/2000/svg">
<rect width="60" height="60" rx="8" transform="matrix(1 0 0 -1 0 60)" fill="white"/>
<path d="M37.6159 35.7317L31.8614 29.9601L37.6106 24.2748C38.1325 23.7595 38.1364 22.9173 37.6211 22.3954C37.1058 21.8728 36.2623 21.8688 35.7403 22.3855L29.9859 28.0774L24.3171 22.3908C23.7979 21.8715 22.9569 21.8689 22.4364 22.3881C21.9171 22.9081 21.9171 23.749 22.4337 24.2683L28.0958 29.947L22.3889 35.5919C21.867 36.1085 21.8617 36.9481 22.3784 37.4702C22.6393 37.7338 22.9794 37.8655 23.3221 37.8655C23.6595 37.8655 23.9995 37.7364 24.2579 37.482L29.9727 31.8291L35.7324 37.6099C35.9921 37.8694 36.3334 38 36.6748 38C37.0148 38 37.3535 37.8694 37.6132 37.6125C38.1325 37.0946 38.1337 36.2535 37.6159 35.7317Z" fill="#272536"/>
</svg>
