<svg width="159" height="32" viewBox="0 0 159 32" fill="none" xmlns="http://www.w3.org/2000/svg">
<g style="mix-blend-mode:difference">
<path d="M50.1747 14.4V9.056H54.8787C55.3267 9.056 55.7534 9.09867 56.1587 9.184C56.5854 9.248 56.9587 9.376 57.2787 9.568C57.5987 9.76 57.8547 10.0267 58.0467 10.368C58.2387 10.7093 58.3347 11.1467 58.3347 11.68C58.3347 12.64 58.0467 13.3333 57.4707 13.76C56.8947 14.1867 56.1587 14.4 55.2627 14.4H50.1747ZM45.1507 5.152V28H56.2227C57.2467 28 58.2387 27.872 59.1987 27.616C60.18 27.36 61.044 26.9653 61.7907 26.432C62.5587 25.8987 63.1667 25.216 63.6147 24.384C64.0627 23.5307 64.2867 22.528 64.2867 21.376C64.2867 19.9467 63.9347 18.7307 63.2307 17.728C62.548 16.704 61.5027 15.9893 60.0947 15.584C61.1187 15.0933 61.8867 14.464 62.3987 13.696C62.932 12.928 63.1987 11.968 63.1987 10.816C63.1987 9.74933 63.0174 8.85333 62.6547 8.128C62.3134 7.40267 61.8227 6.82667 61.1827 6.4C60.5427 5.952 59.7747 5.632 58.8787 5.44C57.9827 5.248 56.9907 5.152 55.9027 5.152H45.1507ZM50.1747 24.096V17.824H55.6467C56.7347 17.824 57.6094 18.08 58.2707 18.592C58.932 19.0827 59.2627 19.9147 59.2627 21.088C59.2627 21.6853 59.156 22.176 58.9427 22.56C58.7507 22.944 58.484 23.2533 58.1427 23.488C57.8014 23.7013 57.4067 23.8613 56.9587 23.968C56.5107 24.0533 56.0414 24.096 55.5507 24.096H50.1747Z" fill="black"/>
<path d="M71.234 19.744C71.234 19.0827 71.298 18.432 71.426 17.792C71.554 17.152 71.7673 16.5867 72.066 16.096C72.386 15.6053 72.802 15.2107 73.314 14.912C73.826 14.592 74.466 14.432 75.234 14.432C76.002 14.432 76.642 14.592 77.154 14.912C77.6873 15.2107 78.1033 15.6053 78.402 16.096C78.722 16.5867 78.946 17.152 79.074 17.792C79.202 18.432 79.266 19.0827 79.266 19.744C79.266 20.4053 79.202 21.056 79.074 21.696C78.946 22.3147 78.722 22.88 78.402 23.392C78.1033 23.8827 77.6873 24.2773 77.154 24.576C76.642 24.8747 76.002 25.024 75.234 25.024C74.466 25.024 73.826 24.8747 73.314 24.576C72.802 24.2773 72.386 23.8827 72.066 23.392C71.7673 22.88 71.554 22.3147 71.426 21.696C71.298 21.056 71.234 20.4053 71.234 19.744ZM66.69 19.744C66.69 21.0667 66.8926 22.2613 67.298 23.328C67.7033 24.3947 68.2793 25.312 69.026 26.08C69.7726 26.8267 70.6686 27.4027 71.714 27.808C72.7593 28.2133 73.9326 28.416 75.234 28.416C76.5353 28.416 77.7086 28.2133 78.754 27.808C79.8206 27.4027 80.7273 26.8267 81.474 26.08C82.2206 25.312 82.7966 24.3947 83.202 23.328C83.6073 22.2613 83.81 21.0667 83.81 19.744C83.81 18.4213 83.6073 17.2267 83.202 16.16C82.7966 15.072 82.2206 14.1547 81.474 13.408C80.7273 12.64 79.8206 12.0533 78.754 11.648C77.7086 11.2213 76.5353 11.008 75.234 11.008C73.9326 11.008 72.7593 11.2213 71.714 11.648C70.6686 12.0533 69.7726 12.64 69.026 13.408C68.2793 14.1547 67.7033 15.072 67.298 16.16C66.8926 17.2267 66.69 18.4213 66.69 19.744Z" fill="black"/>
<path d="M102.284 28V11.456H97.7405V20.128C97.7405 21.8133 97.4631 23.0293 96.9085 23.776C96.3538 24.5013 95.4578 24.864 94.2205 24.864C93.1325 24.864 92.3751 24.5333 91.9485 23.872C91.5218 23.1893 91.3085 22.1653 91.3085 20.8V11.456H86.7645V21.632C86.7645 22.656 86.8498 23.5947 87.0205 24.448C87.2125 25.28 87.5325 25.9947 87.9805 26.592C88.4285 27.168 89.0365 27.616 89.8045 27.936C90.5938 28.256 91.5965 28.416 92.8125 28.416C93.7725 28.416 94.7111 28.2027 95.6285 27.776C96.5458 27.3493 97.2925 26.656 97.8685 25.696H97.9645V28H102.284Z" fill="black"/>
<path d="M105.733 11.456V28H110.277V19.328C110.277 17.6427 110.555 16.4373 111.109 15.712C111.664 14.9653 112.56 14.592 113.797 14.592C114.885 14.592 115.643 14.9333 116.069 15.616C116.496 16.2773 116.709 17.2907 116.709 18.656V28H121.253V17.824C121.253 16.8 121.157 15.872 120.965 15.04C120.795 14.1867 120.485 13.472 120.037 12.896C119.589 12.2987 118.971 11.84 118.181 11.52C117.413 11.1787 116.421 11.008 115.205 11.008C114.245 11.008 113.307 11.232 112.389 11.68C111.472 12.1067 110.725 12.8 110.149 13.76H110.053V11.456H105.733Z" fill="black"/>
<path d="M135.966 17.28H140.414C140.35 16.2133 140.094 15.296 139.646 14.528C139.198 13.7387 138.611 13.088 137.886 12.576C137.182 12.0427 136.371 11.648 135.454 11.392C134.558 11.136 133.619 11.008 132.638 11.008C131.294 11.008 130.099 11.232 129.054 11.68C128.009 12.128 127.123 12.7573 126.398 13.568C125.673 14.3573 125.118 15.3067 124.734 16.416C124.371 17.504 124.19 18.688 124.19 19.968C124.19 21.2053 124.393 22.3467 124.798 23.392C125.203 24.416 125.769 25.3013 126.494 26.048C127.219 26.7947 128.094 27.3813 129.118 27.808C130.163 28.2133 131.305 28.416 132.542 28.416C134.739 28.416 136.542 27.84 137.95 26.688C139.358 25.536 140.211 23.8613 140.51 21.664H136.126C135.977 22.688 135.603 23.5093 135.006 24.128C134.43 24.7253 133.598 25.024 132.51 25.024C131.806 25.024 131.209 24.864 130.718 24.544C130.227 24.224 129.833 23.8187 129.534 23.328C129.257 22.816 129.054 22.2507 128.926 21.632C128.798 21.0133 128.734 20.4053 128.734 19.808C128.734 19.1893 128.798 18.5707 128.926 17.952C129.054 17.312 129.267 16.736 129.566 16.224C129.886 15.6907 130.291 15.264 130.782 14.944C131.273 14.6027 131.881 14.432 132.606 14.432C134.547 14.432 135.667 15.3813 135.966 17.28Z" fill="black"/>
<path d="M154.213 17.952H146.821C146.842 17.632 146.906 17.2693 147.013 16.864C147.141 16.4587 147.344 16.0747 147.621 15.712C147.92 15.3493 148.304 15.0507 148.773 14.816C149.264 14.56 149.872 14.432 150.597 14.432C151.706 14.432 152.528 14.7307 153.061 15.328C153.616 15.9253 154 16.8 154.213 17.952ZM146.821 20.832H158.757C158.842 19.552 158.736 18.3253 158.437 17.152C158.138 15.9787 157.648 14.9333 156.965 14.016C156.304 13.0987 155.45 12.3733 154.405 11.84C153.36 11.2853 152.133 11.008 150.725 11.008C149.466 11.008 148.314 11.232 147.269 11.68C146.245 12.128 145.36 12.7467 144.613 13.536C143.866 14.304 143.29 15.2213 142.885 16.288C142.48 17.3547 142.277 18.5067 142.277 19.744C142.277 21.024 142.469 22.1973 142.853 23.264C143.258 24.3307 143.824 25.248 144.549 26.016C145.274 26.784 146.16 27.3813 147.205 27.808C148.25 28.2133 149.424 28.416 150.725 28.416C152.602 28.416 154.202 27.9893 155.525 27.136C156.848 26.2827 157.829 24.864 158.469 22.88H154.469C154.32 23.392 153.914 23.8827 153.253 24.352C152.592 24.8 151.802 25.024 150.885 25.024C149.605 25.024 148.624 24.6933 147.941 24.032C147.258 23.3707 146.885 22.304 146.821 20.832Z" fill="black"/>
<path d="M2.00054 0C0.895974 0 0.000543618 0.895431 0.000543618 2C0.000543618 3.10457 0.895974 4 2.00054 4H8.66721C9.77178 4 10.6672 3.10457 10.6672 2C10.6672 0.895431 9.77178 0 8.66721 0H2.00054Z" fill="black"/>
<path d="M20.0253 6.54335C21.0618 6.1615 21.5924 5.01172 21.2106 3.97526C20.8287 2.93879 19.6789 2.40812 18.6425 2.78998L1.30913 9.17595C0.272668 9.5578 -0.257998 10.7076 0.123857 11.744C0.505713 12.7805 1.65549 13.3112 2.69195 12.9293L20.0253 6.54335Z" fill="black"/>
<path d="M20.0253 22.8241C21.0618 22.4422 21.5924 21.2924 21.2106 20.256C20.8287 19.2195 19.6789 18.6888 18.6425 19.0707L1.30913 25.4566C0.272668 25.8385 -0.257998 26.9883 0.123857 28.0247C0.505713 29.0612 1.65549 29.5919 2.69195 29.21L20.0253 22.8241Z" fill="black"/>
<path d="M12.6672 28C11.5626 28 10.6672 28.8954 10.6672 30C10.6672 31.1046 11.5626 32 12.6672 32H19.3339C20.4384 32 21.3339 31.1046 21.3339 30C21.3339 28.8954 20.4384 28 19.3339 28H12.6672Z" fill="black"/>
<path d="M20.0518 14.5339C21.0828 14.1374 21.5971 12.9802 21.2006 11.9492C20.8041 10.9183 19.6469 10.404 18.6159 10.8005L1.28258 17.4672C0.251638 17.8637 -0.262667 19.0209 0.13385 20.0518C0.530367 21.0828 1.68755 21.5971 2.7185 21.2006L20.0518 14.5339Z" fill="black"/>
</g>
</svg>
