<svg width="21" height="21" viewBox="0 0 21 21" fill="none" xmlns="http://www.w3.org/2000/svg">
<path d="M10.9609 10.7812C10.9609 10.947 10.8951 11.106 10.7779 11.2232C10.6607 11.3404 10.5017 11.4062 10.3359 11.4062H4.71094C4.54518 11.4062 4.38621 11.3404 4.269 11.2232C4.15179 11.106 4.08594 10.947 4.08594 10.7812C4.08594 10.6155 4.15179 10.4565 4.269 10.3393C4.38621 10.2221 4.54518 10.1562 4.71094 10.1562H10.3359C10.5017 10.1562 10.6607 10.2221 10.7779 10.3393C10.8951 10.4565 10.9609 10.6155 10.9609 10.7812ZM4.71094 6.40625H15.3359C15.5017 6.40625 15.6607 6.3404 15.7779 6.22319C15.8951 6.10598 15.9609 5.94701 15.9609 5.78125C15.9609 5.61549 15.8951 5.45652 15.7779 5.33931C15.6607 5.2221 15.5017 5.15625 15.3359 5.15625H4.71094C4.54518 5.15625 4.38621 5.2221 4.269 5.33931C4.15179 5.45652 4.08594 5.61549 4.08594 5.78125C4.08594 5.94701 4.15179 6.10598 4.269 6.22319C4.38621 6.3404 4.54518 6.40625 4.71094 6.40625ZM9.08594 15.1562H4.71094C4.54518 15.1562 4.38621 15.2221 4.269 15.3393C4.15179 15.4565 4.08594 15.6155 4.08594 15.7812C4.08594 15.947 4.15179 16.106 4.269 16.2232C4.38621 16.3404 4.54518 16.4062 4.71094 16.4062H9.08594C9.2517 16.4062 9.41067 16.3404 9.52788 16.2232C9.64509 16.106 9.71094 15.947 9.71094 15.7812C9.71094 15.6155 9.64509 15.4565 9.52788 15.3393C9.41067 15.2221 9.2517 15.1562 9.08594 15.1562ZM18.9031 13.4641C18.8451 13.406 18.7761 13.3599 18.7003 13.3284C18.6244 13.2969 18.5431 13.2808 18.4609 13.2808C18.3788 13.2808 18.2975 13.2969 18.2216 13.3284C18.1457 13.3599 18.0768 13.406 18.0187 13.4641L15.9609 15.5227V9.53125C15.9609 9.36549 15.8951 9.20652 15.7779 9.08931C15.6607 8.9721 15.5017 8.90625 15.3359 8.90625C15.1702 8.90625 15.0112 8.9721 14.894 9.08931C14.7768 9.20652 14.7109 9.36549 14.7109 9.53125V15.5227L12.6531 13.4641C12.5358 13.3468 12.3768 13.2809 12.2109 13.2809C12.0451 13.2809 11.886 13.3468 11.7687 13.4641C11.6515 13.5813 11.5856 13.7404 11.5856 13.9062C11.5856 14.0721 11.6515 14.2312 11.7687 14.3484L14.8937 17.4734C14.9518 17.5315 15.0207 17.5776 15.0966 17.6091C15.1725 17.6406 15.2538 17.6567 15.3359 17.6567C15.4181 17.6567 15.4994 17.6406 15.5753 17.6091C15.6511 17.5776 15.7201 17.5315 15.7781 17.4734L18.9031 14.3484C18.9612 14.2904 19.0073 14.2215 19.0388 14.1456C19.0702 14.0697 19.0864 13.9884 19.0864 13.9062C19.0864 13.8241 19.0702 13.7428 19.0388 13.6669C19.0073 13.591 18.9612 13.5221 18.9031 13.4641Z" fill="white"/>
</svg>
