<svg width="19" height="18" viewBox="0 0 19 18" fill="none" xmlns="http://www.w3.org/2000/svg">
<path d="M12.3125 7.875C12.3125 7.56433 12.0607 7.3125 11.75 7.3125C11.4393 7.3125 11.1875 7.56433 11.1875 7.875V9.5625C11.1875 9.87317 11.4393 10.125 11.75 10.125C12.0607 10.125 12.3125 9.87317 12.3125 9.5625V7.875Z" fill="white"/>
<path d="M9.5 7.3125C9.81067 7.3125 10.0625 7.56433 10.0625 7.875V9.5625C10.0625 9.87317 9.81067 10.125 9.5 10.125C9.18933 10.125 8.9375 9.87317 8.9375 9.5625V7.875C8.9375 7.56433 9.18933 7.3125 9.5 7.3125Z" fill="white"/>
<path d="M7.8125 7.875C7.8125 7.56433 7.56067 7.3125 7.25 7.3125C6.93933 7.3125 6.6875 7.56433 6.6875 7.875V9.5625C6.6875 9.87317 6.93933 10.125 7.25 10.125C7.56067 10.125 7.8125 9.87317 7.8125 9.5625V7.875Z" fill="white"/>
<path d="M5 11.25C5.31066 11.25 5.5625 11.5018 5.5625 11.8125V13.5C5.5625 13.8106 5.31066 14.0625 5 14.0625C4.68934 14.0625 4.4375 13.8106 4.4375 13.5V11.8125C4.4375 11.5018 4.68934 11.25 5 11.25Z" fill="white"/>
<path d="M14.5625 11.8125C14.5625 11.5018 14.3107 11.25 14 11.25C13.6893 11.25 13.4375 11.5018 13.4375 11.8125V13.5C13.4375 13.8106 13.6893 14.0625 14 14.0625C14.3107 14.0625 14.5625 13.8106 14.5625 13.5V11.8125Z" fill="white"/>
<path d="M9.5 1.125H12.1252C12.3323 1.125 12.5002 1.2929 12.5002 1.5V3C12.5002 3.20711 12.3323 3.375 12.1252 3.375H10.0625V3.9684C12.5938 4.24821 14.5625 6.39416 14.5625 9H15.6875C16.6195 9 17.375 9.75549 17.375 10.6875V15.75C17.375 16.0607 17.1232 16.3125 16.8125 16.3125H2.1875C1.87684 16.3125 1.625 16.0607 1.625 15.75V10.6875C1.625 9.75549 2.38052 9 3.3125 9H4.4375C4.4375 6.39416 6.40631 4.24821 8.9375 3.9684V1.6875C8.9375 1.37684 9.18933 1.125 9.5 1.125ZM9.5 5.0625C7.32538 5.0625 5.5625 6.82538 5.5625 9V9.5625C5.5625 9.87317 5.31066 10.125 5 10.125H3.3125C3.00184 10.125 2.75 10.3768 2.75 10.6875V15.1875H7.53125V13.5C7.53125 13.1893 7.78308 12.9375 8.09375 12.9375H10.9062C11.2169 12.9375 11.4688 13.1893 11.4688 13.5V15.1875H16.25V10.6875C16.25 10.3768 15.9982 10.125 15.6875 10.125H14C13.6893 10.125 13.4375 9.87317 13.4375 9.5625V9C13.4375 6.82538 11.6746 5.0625 9.5 5.0625ZM10.3438 14.0625H8.65625V15.1875H10.3438V14.0625Z" fill="white"/>
</svg>
