<svg width="19" height="18" viewBox="0 0 19 18" fill="none" xmlns="http://www.w3.org/2000/svg">
<path d="M17.5 8.062L17.5 13.6425C17.5 14.6684 16.3808 15.601 14.6088 16.1606C13.0233 16.7202 11.8781 17 9.54671 17C7.12192 17 5.97674 16.7202 4.39123 16.1606C2.61923 15.601 1.5 14.6684 1.5 13.6425V5.35751C1.5 4.33161 2.61923 3.39899 4.39123 2.83941C5.97674 2.3731 7.12189 2 9.54671 2C11.8783 2 13.0233 2.3731 14.6088 2.83941C16.3808 3.39902 17.5 4.33161 17.5 5.35751V8.062ZM16.3808 12.4454C15.9145 12.7252 15.3549 13.005 14.6088 13.2848C13.0233 13.7511 11.8781 14.1242 9.54671 14.1242C7.12192 14.1242 5.97674 13.7511 4.39123 13.2848C3.64512 13.005 3.08551 12.7252 2.61923 12.4454V13.378C2.61923 13.9376 3.45864 14.4038 4.67105 14.8702C6.16325 15.3365 7.21517 15.6163 9.54656 15.6163C11.7849 15.6163 12.8366 15.3365 14.329 14.8702C15.5414 14.4038 16.3808 13.9376 16.3808 13.378V12.4454ZM2.61911 9.74075V10.7666C2.61911 11.233 3.45851 11.7925 4.67093 12.1655C6.16313 12.6319 7.21504 13.0049 9.54643 13.0049C11.7847 13.0049 12.8364 12.6319 14.3288 12.1655C15.5412 11.7924 16.3806 11.233 16.3806 10.7666V9.74075C15.9143 10.0206 15.3548 10.3004 14.6087 10.5802C13.0231 11.1398 11.878 11.4196 9.54659 11.4196C7.1218 11.4196 5.97661 11.1398 4.3911 10.5802C3.645 10.3004 3.08538 10.0205 2.61911 9.74075ZM2.61911 7.03613V8.06203C2.61911 8.52834 3.45851 9.08792 4.67093 9.46093C6.16313 10.0205 7.21504 10.3003 9.54643 10.3003C11.7847 10.3003 12.8364 10.0205 14.3288 9.46093C15.5412 9.08783 16.3806 8.52834 16.3806 8.06203V7.03613C15.9143 7.40923 15.3548 7.68893 14.6087 7.87554C13.0231 8.43516 11.878 8.71495 9.54659 8.71495C7.1218 8.71495 5.97661 8.43514 4.3911 7.87554C3.645 7.68904 3.08538 7.40923 2.61911 7.03613ZM2.61911 5.35744C2.61911 5.91706 3.45851 6.38334 4.67093 6.84965C6.16313 7.31596 7.21504 7.59575 9.54643 7.59575C11.7847 7.59575 12.8364 7.31594 14.3288 6.84965C15.5412 6.38334 16.3806 5.91706 16.3806 5.35744C16.3806 4.89113 15.5412 4.33155 14.3288 3.95854C12.8366 3.39893 11.7847 3.11914 9.54643 3.11914C7.21482 3.11914 6.163 3.39894 4.67093 3.95854C3.45851 4.33164 2.61911 4.89113 2.61911 5.35744Z" fill="white"/>
</svg>
