<svg width="18" height="18" viewBox="0 0 18 18" fill="none" xmlns="http://www.w3.org/2000/svg">
<path d="M14.625 5.0625H3.375C2.44302 5.0625 1.6875 5.81802 1.6875 6.75V13.5C1.6875 14.432 2.44302 15.1875 3.375 15.1875H14.625C15.557 15.1875 16.3125 14.432 16.3125 13.5V6.75C16.3125 5.81802 15.557 5.0625 14.625 5.0625Z" stroke="white" stroke-width="1.2" stroke-linejoin="round"/>
<path d="M14.4619 5.06193V4.00725C14.4618 3.74857 14.4046 3.4931 14.2944 3.25906C14.1842 3.02503 14.0238 2.81819 13.8244 2.65332C13.6251 2.48844 13.3919 2.3696 13.1413 2.30525C12.8908 2.24091 12.6291 2.23265 12.375 2.28107L3.11625 3.86135C2.71418 3.93797 2.35144 4.15251 2.09062 4.46795C1.82979 4.78339 1.68722 5.17997 1.6875 5.58928V7.31193" stroke="white" stroke-width="1.2" stroke-linejoin="round"/>
<path d="M12.9375 11.25C12.715 11.25 12.4975 11.184 12.3125 11.0604C12.1275 10.9368 11.9833 10.7611 11.8981 10.5555C11.813 10.35 11.7907 10.1238 11.8341 9.90552C11.8775 9.6873 11.9847 9.48684 12.142 9.32951C12.2993 9.17217 12.4998 9.06503 12.718 9.02162C12.9363 8.97821 13.1625 9.00049 13.368 9.08564C13.5736 9.17078 13.7493 9.31498 13.8729 9.49998C13.9965 9.68499 14.0625 9.9025 14.0625 10.125C14.0625 10.4234 13.944 10.7095 13.733 10.9205C13.522 11.1315 13.2359 11.25 12.9375 11.25Z" fill="white"/>
</svg>
