<svg width="18" height="18" viewBox="0 0 18 18" fill="none" xmlns="http://www.w3.org/2000/svg">
<path d="M2.39201 13.2061L8.58433 16.8857V16.8856C8.70974 16.9605 8.85341 17 8.99988 17C9.14625 17 9.29004 16.9605 9.41543 16.8856L15.6078 13.206L15.6076 13.2061C15.8505 13.061 15.9992 12.801 16 12.5202V5.47811C15.9992 5.19756 15.8506 4.93765 15.608 4.79258L9.41567 1.11439C9.29014 1.0395 9.14648 1 9 1C8.85352 1 8.70984 1.0395 8.58433 1.11439L2.39201 4.79401V4.79389C2.14987 4.93874 2.00136 5.19799 2 5.47808V12.5202C2.00079 12.801 2.14941 13.061 2.39201 13.2061L2.39201 13.2061ZM2.66909 12.7491V12.749C2.58819 12.7006 2.53872 12.6139 2.5385 12.5202V5.83322L8.56755 9.41599C8.61938 9.444 8.67403 9.46677 8.7307 9.48362V16.3492L2.66909 12.7491ZM15.3309 12.7491L9.26929 16.3499V9.48375C9.32664 9.46656 9.38208 9.44358 9.43459 9.41501L15.4616 5.83338V12.5204C15.4614 12.614 15.4119 12.7007 15.331 12.7492L15.3309 12.7491ZM8.86141 1.57142C8.94738 1.52266 9.05285 1.52266 9.13882 1.57142L15.3311 5.25104H15.331C15.3411 5.25785 15.3506 5.26533 15.3595 5.27347L9.15972 8.95595C9.0618 9.01275 8.94044 9.01275 8.84253 8.95595L2.64069 5.27205C2.64959 5.2639 2.65917 5.25642 2.6692 5.24962L8.86141 1.57142Z" fill="white" stroke="white" stroke-width="0.5"/>
</svg>
