<svg width="49" height="72" viewBox="0 0 49 72" fill="none" xmlns="http://www.w3.org/2000/svg"><path fill-rule="evenodd" clip-rule="evenodd" d="M4.501 0a4.5 4.5 0 0 0 0 9h15a4.5 4.5 0 1 0 0-9h-15zm40.556 14.723a4.5 4.5 0 0 0-3.111-8.446l-39 14.369a4.5 4.5 0 1 0 3.11 8.445l39-14.369zm0 36.631a4.5 4.5 0 0 0-3.111-8.445l-39 14.369a4.5 4.5 0 1 0 3.11 8.444l39-14.368zM28.5 63a4.5 4.5 0 1 0 0 9h15a4.5 4.5 0 1 0 0-9h-15zm16.616-30.299a4.5 4.5 0 0 0-3.231-8.4l-39 15a4.5 4.5 0 1 0 3.23 8.4l39-15z" fill="#626262"/></svg>
