<svg width="60" height="60" viewBox="0 0 60 60" fill="none" xmlns="http://www.w3.org/2000/svg">
<rect width="60" height="60" rx="30" fill="#FFDC01"/>
<path fill-rule="evenodd" clip-rule="evenodd" d="M23.9066 18.75C23.13 18.75 22.5004 19.3796 22.5004 20.1562C22.5004 20.9329 23.13 21.5625 23.9066 21.5625H28.5941C29.3708 21.5625 30.0004 20.9329 30.0004 20.1562C30.0004 19.3796 29.3708 18.75 28.5941 18.75H23.9066ZM36.5803 23.3508C37.309 23.0823 37.6822 22.2739 37.4137 21.5451C37.1452 20.8163 36.3367 20.4432 35.608 20.7117L23.4205 25.2018C22.6917 25.4703 22.3186 26.2788 22.5871 27.0075C22.8556 27.7363 23.664 28.1094 24.3928 27.8409L36.5803 23.3508ZM36.5803 34.7982C37.309 34.5297 37.6822 33.7212 37.4137 32.9925C37.1452 32.2637 36.3367 31.8906 35.608 32.1591L23.4205 36.6492C22.6917 36.9177 22.3186 37.7261 22.5871 38.4549C22.8556 39.1837 23.664 39.5568 24.3928 39.2883L36.5803 34.7982ZM31.4066 38.4375C30.63 38.4375 30.0004 39.0671 30.0004 39.8438C30.0004 40.6204 30.63 41.25 31.4066 41.25H36.0941C36.8708 41.25 37.5004 40.6204 37.5004 39.8438C37.5004 39.0671 36.8708 38.4375 36.0941 38.4375H31.4066ZM36.5989 28.9692C37.3238 28.6903 37.6854 27.8767 37.4066 27.1518C37.1278 26.4269 36.3142 26.0653 35.5893 26.3441L23.4018 31.0316C22.6769 31.3104 22.3153 32.1241 22.5941 32.8489C22.8729 33.5738 23.6866 33.9355 24.4114 33.6567L36.5989 28.9692Z" fill="white"/>
</svg>
