<svg width="42" height="42" viewBox="0 0 42 42" fill="none" xmlns="http://www.w3.org/2000/svg"><circle cx="21.5" cy="21.5" r="15.5" fill="#fff"/><path d="M41.83 20.277l-2.146-4.289-.271-4.772a1.612 1.612 0 0 0-.727-1.26L34.67 7.329l-2.627-4.015a1.611 1.611 0 0 0-1.26-.727l-4.772-.271L21.722.17a1.618 1.618 0 0 0-1.445 0l-4.289 2.146-4.772.271c-.512.029-.98.298-1.26.727L7.329 7.33 3.314 9.956c-.429.28-.698.748-.727 1.26l-.271 4.772-2.146 4.29c-.227.454-.227.99 0 1.445l2.146 4.289.271 4.772c.029.513.298.98.727 1.26l4.015 2.627 2.627 4.015c.279.427.746.697 1.255.727l4.78.273 4.287 2.144c.454.227.99.227 1.445 0l4.286-2.144 4.78-.273c.51-.03.976-.3 1.255-.727l2.627-4.015 4.015-2.627c.429-.28.699-.747.727-1.26l.271-4.772 2.146-4.29c.227-.454.227-.99 0-1.445zM21 32.307c-6.234 0-11.308-5.073-11.308-11.307 0-6.235 5.074-11.308 11.308-11.308 3.359 0 6.347 1.502 8.42 3.835L21 21.947l-2.089-2.09a1.615 1.615 0 1 0-2.284 2.285l3.23 3.23a1.61 1.61 0 0 0 1.143.474 1.61 1.61 0 0 0 1.142-.473l9.098-9.098c.668 1.443 1.068 3.033 1.068 4.725 0 6.234-5.073 11.308-11.308 11.308z" fill="#798093"/></svg>