<svg width="42" height="43" viewBox="0 0 42 43" fill="none" xmlns="http://www.w3.org/2000/svg"><path d="M32.709 16.47l-2.08-3.144C28.156 10.543 24.647 8.948 21 8.948c-7.127 0-12.923 5.798-12.923 12.923 0 7.126 5.796 12.923 12.923 12.923s12.923-5.797 12.923-12.923l-1.215-5.401z" fill="url(#paint0_linear_6413_107580)"/><path d="M41.83 21.148l-2.146-4.289-.271-4.772a1.611 1.611 0 0 0-.727-1.26L34.67 8.2l-2.627-4.015a1.611 1.611 0 0 0-1.26-.727l-4.772-.271-4.29-2.146a1.618 1.618 0 0 0-1.445 0l-4.289 2.146-4.772.271c-.512.029-.98.298-1.26.728L7.329 8.2l-4.015 2.627c-.429.28-.698.748-.727 1.26l-.271 4.772L.17 21.15c-.227.454-.227.99 0 1.445l2.146 4.289.271 4.772c.029.513.298.98.727 1.26l4.015 2.627 2.627 4.015c.279.427.746.697 1.255.727l4.78.273 4.287 2.144c.454.227.99.227 1.445 0l4.286-2.144 4.78-.273c.51-.03.976-.3 1.255-.727l2.627-4.015 4.015-2.627c.429-.28.699-.747.727-1.26l.271-4.772 2.146-4.29c.227-.454.227-.99 0-1.445zM21 33.178c-6.234 0-11.308-5.073-11.308-11.307S14.766 10.563 21 10.563c3.359 0 6.347 1.502 8.42 3.835L21 22.818l-2.089-2.09a1.615 1.615 0 1 0-2.284 2.285l3.23 3.23a1.61 1.61 0 0 0 1.143.474 1.61 1.61 0 0 0 1.142-.473l9.098-9.098c.668 1.443 1.068 3.034 1.068 4.725 0 6.234-5.073 11.308-11.308 11.308z" fill="#2663FF"/><defs><linearGradient id="paint0_linear_6413_107580" x1="21" y1="56.01" x2="21" y2="8.948" gradientUnits="userSpaceOnUse"><stop stop-color="#ADDCFF"/><stop offset=".503" stop-color="#EAF6FF"/><stop offset="1" stop-color="#EAF6FF"/></linearGradient></defs></svg>