<svg width="120" height="120" viewBox="0 0 120 120" fill="none" xmlns="http://www.w3.org/2000/svg" xmlns:xlink="http://www.w3.org/1999/xlink">
<mask id="mask0_6830_202846" style="mask-type:alpha" maskUnits="userSpaceOnUse" x="0" y="0" width="120" height="120">
<circle cx="60" cy="60" r="60" fill="#C4C4C4"/>
<circle cx="60" cy="60" r="60" fill="url(#pattern0)"/>
</mask>
<g mask="url(#mask0_6830_202846)">
<circle cx="60" cy="60" r="60" fill="#F6F7F3"/>
</g>
<path fill-rule="evenodd" clip-rule="evenodd" d="M47.1961 37C45.6083 37 44.3211 38.2872 44.3211 39.875C44.3211 41.4628 45.6083 42.75 47.1961 42.75H56.7794C58.3673 42.75 59.6544 41.4628 59.6544 39.875C59.6544 38.2872 58.3673 37 56.7794 37H47.1961ZM73.1067 46.4061C74.5966 45.8572 75.3594 44.2044 74.8105 42.7144C74.2616 41.2245 72.6088 40.4617 71.1189 41.0106L46.2022 50.1904C44.7123 50.7393 43.9494 52.3922 44.4984 53.8821C45.0473 55.372 46.7001 56.1348 48.19 55.5859L73.1067 46.4061ZM73.1067 69.8096C74.5966 69.2607 75.3594 67.6079 74.8105 66.118C74.2616 64.628 72.6088 63.8652 71.1189 64.4141L46.2022 73.594C44.7123 74.1429 43.9494 75.7957 44.4984 77.2856C45.0473 78.7755 46.7001 79.5384 48.19 78.9894L73.1067 69.8096ZM62.5294 77.25C60.9416 77.25 59.6544 78.5372 59.6544 80.125C59.6544 81.7128 60.9416 83 62.5294 83H72.1128C73.7006 83 74.9878 81.7128 74.9878 80.125C74.9878 78.5372 73.7006 77.25 72.1128 77.25H62.5294ZM73.1448 57.8918C74.6268 57.3218 75.3661 55.6583 74.7961 54.1763C74.2262 52.6944 72.5627 51.955 71.0807 52.525L46.164 62.1084C44.682 62.6784 43.9427 64.3418 44.5127 65.8238C45.0827 67.3058 46.7462 68.0451 48.2282 67.4751L73.1448 57.8918Z" fill="#626262"/>
</svg>
