<svg width="24" height="24" viewBox="0 0 24 24" fill="none" xmlns="http://www.w3.org/2000/svg">
<path d="M14.9861 15.9049C15.1129 16.0317 15.3186 16.0317 15.4455 15.9049L15.9049 15.4455C16.0317 15.3186 16.0317 15.1129 15.9049 14.9861L12.9188 12L15.9049 9.01393C16.0317 8.88708 16.0317 8.6814 15.9049 8.55454L15.4455 8.09514C15.3186 7.96829 15.1129 7.96829 14.9861 8.09514L12 11.0812L9.01393 8.09514C8.88708 7.96829 8.6814 7.96829 8.55454 8.09514L8.09514 8.55454C7.96829 8.6814 7.96829 8.88708 8.09514 9.01393L11.0812 12L8.09514 14.9861C7.96829 15.1129 7.96829 15.3186 8.09514 15.4455L8.55454 15.9049C8.6814 16.0317 8.88708 16.0317 9.01393 15.9049L12 12.9188L14.9861 15.9049Z" fill="#C1BFB3"/>
</svg>
