<svg width="40" height="40" viewBox="0 0 40 40" fill="none" xmlns="http://www.w3.org/2000/svg">
  <circle cx="20" cy="20" r="20" fill="#F3F7FF"/>
  <path d="M27.1166 16.4171L27.1162 10.9999C27.1162 10.4477 26.6685 10 26.1162 10H14.0391C13.4868 10 13.0391 10.4477 13.0391 11V29C13.0391 29.5523 13.4868 30 14.0391 30H26.1162C26.6684 30 27.1162 29.5523 27.1162 29L27.1165 20.1093M27.1165 18.2632V18.3422" stroke="#2663FF" stroke-linecap="round" stroke-linejoin="round"/>
  <line x1="13.5" y1="22.644" x2="26.6176" y2="22.644" stroke="#2663FF" stroke-linecap="round"/>
  <line x1="15.7213" y1="25.8896" x2="24.7213" y2="25.8896" stroke="#2663FF" stroke-linecap="round"/>
  <line x1="15.424" y1="24.3076" x2="19.2111" y2="24.3076" stroke="#2663FF" stroke-linecap="round"/>
  <line x1="21.2769" y1="24.3076" x2="25.0639" y2="24.3076" stroke="#2663FF" stroke-linecap="round"/>
  <circle cx="14.8546" cy="27.7777" r="0.555556" fill="#2663FF"/>
  <circle cx="17.003" cy="27.7777" r="0.555556" fill="#2663FF"/>
  <circle cx="19.1558" cy="27.7777" r="0.555556" fill="#2663FF"/>
  <circle cx="21.3042" cy="27.7777" r="0.555556" fill="#2663FF"/>
  <circle cx="22.7778" cy="15.5556" r="0.555556" fill="#2663FF"/>
  <path d="M23.9052 14.7069C23.6282 13.7892 22.976 13.0927 22.6012 12.8082C21.7116 12.2828 19.5382 11.6332 17.962 13.2381C16.3857 14.843 16.8753 16.6653 17.3171 17.3758C16.5003 18.6225 16.4274 21.1433 16.4931 22.1583H22.9057C22.2895 21.1266 22.649 20.3194 22.9057 20.0447M23.9052 14.7069C23.9944 15.0025 24.0447 15.3211 24.0342 15.6562C23.9804 17.3758 25.897 16.928 24.9656 19.3461C24.6965 20.0447 23.5737 20.2459 22.9057 20.0447M23.9052 14.7069C22.5402 13.453 21.6022 14.0685 21.3336 14.9999C21.1186 15.7451 21.7235 16.6593 22.1713 16.8922C22.04 17.0534 21.5114 17.8691 21.616 18.5401C21.7353 19.3047 22.6012 20.0447 22.9057 20.0447" stroke="#2663FF" stroke-linecap="round" stroke-linejoin="round"/>
  <path d="M16.4234 16.4623C16.3518 15.4306 17.54 15.0055 18.143 14.9219L17.9639 17.9311C17.4803 17.8714 16.4951 17.4941 16.4234 16.4623Z" fill="#F5F5F5"/>
  <path d="M18.143 14.9219C17.54 15.0055 16.3518 15.4306 16.4234 16.4623C16.4951 17.4941 17.4803 17.8714 17.9639 17.9311" stroke="#2663FF" stroke-linecap="round" stroke-linejoin="round"/>
  <circle cx="18.0002" cy="16.4447" r="0.555556" fill="#2663FF"/>
  <path d="M23.5145 17.0713C23.7832 17.2146 24.3564 17.4152 24.4997 17.0713" stroke="#2663FF" stroke-linecap="round" stroke-linejoin="round"/>
  <path d="M23.5883 18.6299H25.0571" stroke="#2663FF" stroke-linecap="round" stroke-linejoin="round"/>
  <path d="M16.8891 19.9999C17.2473 19.9641 17.4763 19.8119 17.7486 19.4536C17.7785 19.7701 17.985 20.4925 18.5726 20.8508C18.9129 20.8269 19.6724 20.5713 19.9876 19.7402C20.2265 20.5463 21.1268 22.1834 22.8178 22.2837" stroke="#2663FF" stroke-linecap="round" stroke-linejoin="round"/>
  </svg>
  