<svg width="40" height="40" viewBox="0 0 40 40" fill="none" xmlns="http://www.w3.org/2000/svg">
  <circle cx="20" cy="20" r="20" fill="#F3F7FF"/>
  <rect x="9.61237" y="14.1822" width="10.038" height="15.0553" rx="1.5" transform="rotate(-15 9.61237 14.1822)" fill="#F3F7FF" stroke="#2663FF"/>
  <path d="M14.7955 15.1004C14.9218 14.9741 15.1059 14.9247 15.2784 14.971L17.5555 15.5811C17.728 15.6273 17.8628 15.7621 17.9091 15.9346L18.5192 18.2117C18.5654 18.3843 18.5161 18.5684 18.3898 18.6947L16.7229 20.3616C16.5965 20.4879 16.4124 20.5373 16.2399 20.491L13.9628 19.8809C13.7903 19.8346 13.6555 19.6999 13.6093 19.5273L12.9991 17.2503C12.9529 17.0777 13.0022 16.8936 13.1285 16.7673L14.7955 15.1004Z" stroke="#2663FF"/>
  <path d="M14.4204 23.2523L16.1495 25.1573L15.552 22.9272C15.5131 22.7823 15.508 22.6676 15.5366 22.5832C15.5661 22.4967 15.622 22.4425 15.7043 22.4204C15.7893 22.3976 15.8661 22.4163 15.9349 22.4765C16.0032 22.5349 16.0568 22.6366 16.0956 22.7815L16.8857 25.7303C16.9739 26.0593 16.9118 26.2523 16.6994 26.3092C16.6462 26.3234 16.5957 26.326 16.5478 26.3169C16.5002 26.3096 16.4522 26.2895 16.4036 26.2569C16.355 26.2242 16.3073 26.184 16.2603 26.1363C16.2129 26.0869 16.1653 26.0366 16.1174 25.9854L14.4231 24.0986L15.0117 26.2954C15.0501 26.4386 15.0532 26.5538 15.0211 26.641C14.989 26.7282 14.9324 26.7827 14.8514 26.8044C14.7678 26.8268 14.6909 26.8081 14.6208 26.7483C14.5503 26.6868 14.4961 26.5853 14.4581 26.4438L13.6831 23.5513C13.6502 23.4286 13.635 23.3294 13.6375 23.2538C13.6422 23.1703 13.6673 23.0969 13.713 23.0335C13.7581 22.9684 13.8146 22.9268 13.8823 22.9086C13.9354 22.8944 13.9835 22.8934 14.0266 22.9056C14.071 22.9174 14.1122 22.9384 14.1501 22.9684C14.1894 22.9981 14.2316 23.0389 14.2768 23.0907C14.3233 23.1422 14.3712 23.1961 14.4204 23.2523Z" fill="#2663FF"/>
  <path d="M18.5447 22.3556L17.3798 22.6677L17.6368 23.6267L18.6105 23.3658C18.7008 23.3416 18.7749 23.3501 18.8329 23.3912C18.8917 23.4303 18.9328 23.4933 18.9561 23.5802C18.9794 23.6672 18.9753 23.7423 18.9439 23.8055C18.9125 23.8687 18.8523 23.9123 18.7633 23.9361L17.7896 24.197L18.1206 25.4323C18.1626 25.5891 18.166 25.7134 18.1308 25.805C18.0965 25.8946 18.0362 25.951 17.9499 25.9741C17.8623 25.9976 17.7803 25.9784 17.704 25.9167C17.629 25.8545 17.5707 25.7459 17.5291 25.5907L16.7562 22.706C16.7269 22.5968 16.7158 22.5048 16.7227 22.4298C16.7292 22.3532 16.7549 22.2924 16.7998 22.2475C16.8455 22.2005 16.9102 22.1658 16.9939 22.1434L18.3878 21.7699C18.482 21.7446 18.559 21.7532 18.6188 21.7957C18.6794 21.8361 18.7214 21.8998 18.7447 21.9867C18.7684 22.0754 18.7644 22.1532 18.7326 22.2202C18.7016 22.2852 18.639 22.3303 18.5447 22.3556Z" fill="#2663FF"/>
  <path d="M21.1722 21.6954L20.5271 21.8682L21.2569 24.5919C21.2989 24.7488 21.303 24.8728 21.2691 24.9641C21.2348 25.0537 21.1745 25.1101 21.0882 25.1332C21.0006 25.1567 20.9186 25.1375 20.8423 25.0758C20.7673 25.0136 20.709 24.905 20.6674 24.7498L19.9376 22.0262L19.2925 22.1991C19.1916 22.2261 19.109 22.2181 19.0448 22.1749C18.9802 22.1301 18.9353 22.0609 18.9102 21.9671C18.8841 21.8699 18.8888 21.7864 18.9242 21.7166C18.9608 21.6465 19.0277 21.5984 19.1246 21.5725L21.0043 21.0688C21.1066 21.0414 21.19 21.0501 21.2547 21.0949C21.3206 21.1394 21.3662 21.2085 21.3913 21.3023C21.4164 21.396 21.4115 21.4787 21.3766 21.5501C21.3413 21.6199 21.2731 21.6683 21.1722 21.6954Z" fill="#2663FF"/>
  <path d="M28.8329 21.8954L28.8323 21.9191M28.3981 23.518L27.3566 27.4049C27.0707 28.4719 25.974 29.105 24.9071 28.8192L18.1089 26.9976C17.042 26.7117 16.4088 25.615 16.6947 24.5481L19.8148 12.9036C20.1007 11.8366 21.1974 11.2035 22.2643 11.4894L29.0625 13.3109C30.1294 13.5968 30.7626 14.6935 30.4767 15.7604L29.2902 20.1887" stroke="#2663FF" stroke-linecap="round" stroke-linejoin="round"/>
  <path d="M25.1983 15.1004C25.072 14.9741 24.8879 14.9247 24.7154 14.971L22.4383 15.5811C22.2658 15.6273 22.131 15.7621 22.0848 15.9346L21.4746 18.2117C21.4284 18.3843 21.4777 18.5684 21.604 18.6947L23.271 20.3616C23.3973 20.4879 23.5814 20.5373 23.7539 20.491L26.031 19.8809C26.2035 19.8346 26.3383 19.6999 26.3845 19.5273L26.9947 17.2503C27.0409 17.0777 26.9916 16.8936 26.8653 16.7673L25.1983 15.1004Z" stroke="#2663FF"/>
  <path d="M25.5754 23.2523L23.8464 25.1573L24.4439 22.9272C24.4827 22.7823 24.4878 22.6676 24.4592 22.5832C24.4298 22.4967 24.3739 22.4425 24.2916 22.4204C24.2066 22.3976 24.1297 22.4163 24.061 22.4765C23.9927 22.5349 23.9391 22.6366 23.9003 22.7815L23.1102 25.7303C23.022 26.0593 23.0841 26.2523 23.2965 26.3092C23.3496 26.3234 23.4002 26.326 23.4481 26.3169C23.4956 26.3096 23.5437 26.2895 23.5923 26.2569C23.6409 26.2242 23.6886 26.184 23.7356 26.1363C23.783 26.0869 23.8306 26.0366 23.8784 25.9854L25.5728 24.0986L24.9842 26.2954C24.9458 26.4386 24.9427 26.5538 24.9748 26.641C25.0069 26.7282 25.0635 26.7827 25.1444 26.8044C25.2281 26.8268 25.3049 26.8081 25.375 26.7483C25.4456 26.6868 25.4998 26.5853 25.5377 26.4438L26.3128 23.5513C26.3457 23.4286 26.3608 23.3294 26.3583 23.2538C26.3537 23.1703 26.3285 23.0969 26.2829 23.0335C26.2377 22.9684 26.1813 22.9268 26.1136 22.9086C26.0605 22.8944 26.0124 22.8934 25.9693 22.9056C25.9249 22.9174 25.8837 22.9384 25.8457 22.9684C25.8065 22.9981 25.7643 23.0389 25.7191 23.0907C25.6725 23.1422 25.6247 23.1961 25.5754 23.2523Z" fill="#2663FF"/>
  <path d="M21.4512 22.3556L22.6161 22.6677L22.3591 23.6267L21.3854 23.3658C21.2951 23.3416 21.221 23.3501 21.163 23.3912C21.1042 23.4303 21.0631 23.4933 21.0398 23.5802C21.0165 23.6672 21.0205 23.7423 21.052 23.8055C21.0834 23.8687 21.1436 23.9123 21.2325 23.9361L22.2063 24.197L21.8753 25.4323C21.8333 25.5891 21.8299 25.7134 21.8651 25.805C21.8994 25.8946 21.9597 25.951 22.046 25.9741C22.1336 25.9976 22.2156 25.9784 22.2919 25.9167C22.3669 25.8545 22.4252 25.7459 22.4667 25.5907L23.2397 22.706C23.2689 22.5968 23.2801 22.5048 23.2731 22.4298C23.2666 22.3532 23.241 22.2924 23.1961 22.2475C23.1503 22.2005 23.0856 22.1658 23.002 22.1434L21.6081 21.7699C21.5138 21.7446 21.4368 21.7532 21.3771 21.7957C21.3164 21.8361 21.2745 21.8998 21.2512 21.9867C21.2274 22.0754 21.2315 22.1532 21.2633 22.2202C21.2943 22.2852 21.3569 22.3303 21.4512 22.3556Z" fill="#2663FF"/>
  <path d="M18.8236 21.6954L19.4688 21.8682L18.739 24.5919C18.697 24.7488 18.6929 24.8728 18.7268 24.9641C18.7611 25.0537 18.8214 25.1101 18.9077 25.1332C18.9953 25.1567 19.0773 25.1375 19.1536 25.0758C19.2286 25.0136 19.2869 24.905 19.3284 24.7498L20.0582 22.0262L20.7034 22.1991C20.8043 22.2261 20.8869 22.2181 20.9511 22.1749C21.0157 22.1301 21.0606 22.0609 21.0857 21.9671C21.1118 21.8699 21.1071 21.7864 21.0717 21.7166C21.035 21.6465 20.9682 21.5984 20.8713 21.5725L18.9915 21.0688C18.8893 21.0414 18.8059 21.0501 18.7412 21.0949C18.6752 21.1394 18.6297 21.2085 18.6046 21.3023C18.5794 21.396 18.5843 21.4787 18.6192 21.5501C18.6546 21.6199 18.7227 21.6683 18.8236 21.6954Z" fill="#2663FF"/>
  <rect x="14.5637" y="10.5" width="10.6222" height="15.905" rx="1.5" fill="#F3F7FF" stroke="#2663FF"/>
  <path d="M19.6248 12.835C19.7795 12.7457 19.9701 12.7457 20.1248 12.835L22.3273 14.1066C22.482 14.1959 22.5773 14.361 22.5773 14.5396V17.0829C22.5773 17.2615 22.482 17.4266 22.3273 17.5159L20.1248 18.7875C19.9701 18.8768 19.7795 18.8768 19.6248 18.7875L17.4222 17.5159C17.2675 17.4266 17.1722 17.2615 17.1722 17.0829V14.5396C17.1722 14.361 17.2675 14.1959 17.4222 14.1066L19.6248 12.835Z" stroke="#2663FF"/>
  <path d="M17.0082 21.0617L18.2476 23.4703V21.0393C18.2476 20.8814 18.2736 20.7634 18.3257 20.6853C18.3793 20.6054 18.4509 20.5654 18.5406 20.5654C18.6332 20.5654 18.7063 20.6054 18.7599 20.6853C18.8134 20.7634 18.8402 20.8814 18.8402 21.0393V24.2536C18.8402 24.6123 18.7244 24.7917 18.4929 24.7917C18.435 24.7917 18.3829 24.7805 18.3366 24.7582C18.2903 24.7378 18.2469 24.7043 18.2063 24.6579C18.1658 24.6114 18.1282 24.5575 18.0935 24.4962C18.0587 24.433 18.024 24.3689 17.9893 24.3038L16.7802 21.9231V24.3178C16.7802 24.4739 16.752 24.5919 16.6956 24.6718C16.6391 24.7517 16.5668 24.7917 16.4785 24.7917C16.3873 24.7917 16.3143 24.7517 16.2593 24.6718C16.2043 24.59 16.1768 24.472 16.1768 24.3178V21.1648C16.1768 21.031 16.1884 20.926 16.2115 20.8498C16.239 20.7661 16.2846 20.6983 16.3483 20.6463C16.4119 20.5924 16.4807 20.5654 16.5545 20.5654C16.6124 20.5654 16.6616 20.5775 16.7021 20.6017C16.7441 20.6258 16.7802 20.6584 16.8106 20.6992C16.8425 20.7401 16.8743 20.7931 16.9061 20.8581C16.9394 20.9232 16.9734 20.991 17.0082 21.0617Z" fill="#2663FF"/>
  <path d="M21.4471 21.2735H20.1773V22.3189H21.2387C21.3371 22.3189 21.4102 22.3477 21.458 22.4054C21.5072 22.4611 21.5318 22.5364 21.5318 22.6312C21.5318 22.7259 21.5072 22.8012 21.458 22.857C21.4088 22.9127 21.3357 22.9406 21.2387 22.9406H20.1773V24.2871C20.1773 24.4581 20.1469 24.5854 20.0861 24.669C20.0268 24.7508 19.9501 24.7917 19.856 24.7917C19.7605 24.7917 19.6824 24.7499 19.6216 24.6662C19.5623 24.5826 19.5326 24.4562 19.5326 24.2871V21.1425C19.5326 21.0236 19.5464 20.9269 19.5739 20.8526C19.6013 20.7764 19.644 20.7215 19.7019 20.6881C19.7613 20.6528 19.8365 20.6351 19.9277 20.6351H21.4471C21.5499 20.6351 21.6258 20.6649 21.675 20.7243C21.7257 20.7819 21.751 20.8581 21.751 20.9529C21.751 21.0496 21.7257 21.1276 21.675 21.1871C21.6258 21.2447 21.5499 21.2735 21.4471 21.2735Z" fill="#2663FF"/>
  <path d="M24.2993 21.3181H23.5961V24.2871C23.5961 24.4581 23.5664 24.5854 23.5071 24.669C23.4477 24.7508 23.371 24.7917 23.277 24.7917C23.1815 24.7917 23.1033 24.7499 23.0425 24.6662C22.9832 24.5826 22.9535 24.4562 22.9535 24.2871V21.3181H22.2503C22.1403 21.3181 22.0585 21.2875 22.005 21.2261C21.9514 21.1629 21.9247 21.0802 21.9247 20.978C21.9247 20.8721 21.9522 20.7885 22.0071 20.7271C22.0636 20.6658 22.1446 20.6351 22.2503 20.6351H24.2993C24.4108 20.6351 24.4933 20.6667 24.5468 20.7299C24.6018 20.7931 24.6293 20.8758 24.6293 20.978C24.6293 21.0802 24.6018 21.1629 24.5468 21.2261C24.4918 21.2875 24.4093 21.3181 24.2993 21.3181Z" fill="#2663FF"/>
  </svg>
  