<svg width="40" height="40" viewBox="0 0 40 40" fill="none" xmlns="http://www.w3.org/2000/svg">
  <circle cx="20" cy="20" r="20" fill="#F3F7FF"/>
  <path d="M21.9312 26.9658H21.7415M19.6553 26.9658H15.8622V29.2417H28.0002V26.9658H23.8277" stroke="#2663FF" stroke-linecap="round" stroke-linejoin="round"/>
  <path d="M26.4829 26.9658V24.6899H17.3794V26.9658" stroke="#2663FF" stroke-linejoin="round"/>
  <rect x="18.3382" y="14.437" width="2.27588" height="12.8966" rx="1.13794" transform="rotate(45 18.3382 14.437)" fill="#F3F7FF" stroke="#2663FF" stroke-linejoin="round"/>
  <rect x="18.3382" y="14.437" width="2.27588" height="3.79313" transform="rotate(45 18.3382 14.437)" fill="#E5E5E5" stroke="#2663FF" stroke-linejoin="round"/>
  <rect x="18.3382" y="10.1455" width="9.10352" height="4.55176" transform="rotate(45 18.3382 10.1455)" fill="#F3F7FF" stroke="#2663FF" stroke-linejoin="round"/>
  <rect x="18.338" y="8" width="2.27588" height="7.58626" rx="1.13794" transform="rotate(45 18.338 8)" fill="#F3F7FF" stroke="#2663FF" stroke-linejoin="round"/>
  <rect x="24.7747" y="14.437" width="2.27588" height="7.58626" rx="1.13794" transform="rotate(45 24.7747 14.437)" fill="#F3F7FF" stroke="#2663FF" stroke-linejoin="round"/>
  <path d="M21.5246 16.5223C21.4184 16.6285 21.2462 16.6285 21.14 16.5223L20.8545 16.2369C20.6994 16.3624 20.5442 16.4555 20.389 16.5162C20.2338 16.577 20.0813 16.608 19.9315 16.6093C19.7817 16.6107 19.6366 16.583 19.4963 16.5263C19.492 16.5246 19.4878 16.5229 19.4835 16.5211C19.2535 16.4251 19.2489 16.126 19.4251 15.9497L19.51 15.8649C19.6243 15.7506 19.8045 15.7586 19.9598 15.8037C20.0421 15.8266 20.1238 15.8314 20.2048 15.8179C20.2844 15.803 20.362 15.7726 20.4375 15.7268C20.5145 15.6795 20.5873 15.6215 20.6562 15.5527C20.7304 15.4785 20.785 15.4076 20.8201 15.3401C20.8566 15.2713 20.8775 15.2072 20.8829 15.1478C20.8883 15.0857 20.8802 15.0291 20.8586 14.9778C20.8384 14.9252 20.8073 14.8779 20.7655 14.8361C20.6859 14.7565 20.5975 14.714 20.5003 14.7086C20.4031 14.7032 20.2891 14.7349 20.1582 14.8037L19.4861 15.1762C19.2 15.3408 18.9369 15.4191 18.6967 15.411C18.4578 15.4015 18.2392 15.2976 18.0408 15.0992C17.9288 14.9872 17.8458 14.8678 17.7918 14.7409C17.7392 14.6127 17.7149 14.4805 17.719 14.3442C17.7217 14.2065 17.7527 14.0675 17.8121 13.9272C17.8728 13.7855 17.9598 13.6445 18.0732 13.5041L17.7918 13.2228C17.6856 13.1165 17.6856 12.9443 17.7918 12.8381C17.898 12.7319 18.0702 12.7319 18.1764 12.8381L18.4619 13.1236C18.5995 13.0183 18.7392 12.9394 18.8809 12.8867C19.0226 12.8341 19.1636 12.8091 19.304 12.8118C19.443 12.8132 19.5813 12.8422 19.7189 12.8989C19.7234 12.9007 19.7279 12.9026 19.7323 12.9045C19.9613 13.002 19.9685 13.3011 19.7925 13.4771L19.7127 13.557C19.6005 13.6691 19.4251 13.6625 19.2736 13.6155C19.1953 13.5912 19.1204 13.5837 19.0489 13.5932C18.9774 13.6026 18.9092 13.6263 18.8445 13.664C18.781 13.7005 18.7223 13.7457 18.6683 13.7997C18.5455 13.9225 18.4801 14.0406 18.472 14.1539C18.4639 14.2646 18.5037 14.3638 18.5914 14.4515C18.667 14.5271 18.754 14.5682 18.8525 14.575C18.9497 14.5804 19.0637 14.5486 19.1946 14.4798L19.8667 14.1074C20.0071 14.0291 20.1413 13.9704 20.2695 13.9312C20.3991 13.8908 20.5239 13.8725 20.644 13.8766C20.7628 13.8793 20.8775 13.9063 20.9881 13.9576C21.0988 14.0088 21.2054 14.0858 21.308 14.1883C21.4254 14.3057 21.5118 14.4312 21.5671 14.5648C21.6211 14.6971 21.644 14.8347 21.6359 14.9778C21.6292 15.1195 21.5927 15.2652 21.5266 15.415C21.4605 15.5621 21.366 15.7092 21.2432 15.8563L21.5246 16.1377C21.6308 16.2439 21.6308 16.4161 21.5246 16.5223Z" fill="#2663FF"/>
  <line x1="27.2423" y1="19.3277" x2="25.6736" y2="20.8965" stroke="#2663FF" stroke-linecap="round"/>
  <line x1="25.4665" y1="22.6724" x2="27.501" y2="22.6724" stroke="#2663FF" stroke-linecap="round"/>
  </svg>
  