<svg width="40" height="40" viewBox="0 0 40 40" fill="none" xmlns="http://www.w3.org/2000/svg">
  <circle cx="20" cy="20" r="20" fill="#F3F7FF"/>
  <path d="M19.9014 24.4147L19.9744 24.4375H20.0508H22.25V26.1875C22.25 26.4017 22.1479 26.651 21.8687 26.9261C21.5876 27.203 21.1553 27.4754 20.5807 27.7148C19.4337 28.1927 17.8145 28.5 16 28.5C14.1855 28.5 12.5663 28.1927 11.4193 27.7148C10.8447 27.4754 10.4124 27.203 10.1313 26.9261C9.85206 26.651 9.75 26.4017 9.75 26.1875V24.4375H11.9492H12.0256L12.0986 24.4147C13.1716 24.0787 14.5229 23.875 16 23.875C17.4771 23.875 18.8284 24.0787 19.9014 24.4147Z" stroke="#2663FF"/>
  <line x1="12" y1="25.625" x2="12" y2="27.625" stroke="#2663FF"/>
  <line x1="14.5" y1="25.625" x2="14.5" y2="27.625" stroke="#2663FF"/>
  <line x1="17" y1="25.625" x2="17" y2="27.625" stroke="#2663FF"/>
  <line x1="19.5" y1="25.625" x2="19.5" y2="27.625" stroke="#2663FF"/>
  <path d="M22.25 23.9375C22.25 24.1516 22.148 24.4009 21.8687 24.6761C21.5876 24.9529 21.1553 25.2253 20.5807 25.4647C19.4337 25.9426 17.8144 26.25 16 26.25C14.1856 26.25 12.5663 25.9426 11.4193 25.4647C10.8447 25.2253 10.4124 24.9529 10.1313 24.6761C9.85204 24.4009 9.75 24.1516 9.75 23.9375C9.75 23.7234 9.85204 23.4741 10.1313 23.1989C10.4124 22.9221 10.8447 22.6497 11.4193 22.4103C12.5663 21.9324 14.1856 21.625 16 21.625C17.8144 21.625 19.4337 21.9324 20.5807 22.4103C21.1553 22.6497 21.5876 22.9221 21.8687 23.1989C22.148 23.4741 22.25 23.7234 22.25 23.9375Z" fill="#F3F7FF" stroke="#2663FF"/>
  <path d="M17.6514 21.0397L17.7244 21.0625H17.8008H20V22.8125C20 23.0267 19.8979 23.276 19.6187 23.5511C19.3376 23.828 18.9053 24.1004 18.3307 24.3398C17.1837 24.8177 15.5645 25.125 13.75 25.125C11.9355 25.125 10.3163 24.8177 9.16933 24.3398C8.59474 24.1004 8.1624 23.828 7.88134 23.5511C7.60206 23.276 7.5 23.0267 7.5 22.8125V21.0625H9.6992H9.77564L9.84858 21.0397C10.9216 20.7037 12.2729 20.5 13.75 20.5C15.2271 20.5 16.5784 20.7037 17.6514 21.0397Z" stroke="#2663FF"/>
  <line x1="9.75" y1="22.25" x2="9.75" y2="24.25" stroke="#2663FF"/>
  <line x1="12.25" y1="22.25" x2="12.25" y2="24.25" stroke="#2663FF"/>
  <line x1="14.75" y1="22.25" x2="14.75" y2="24.25" stroke="#2663FF"/>
  <line x1="17.25" y1="22.25" x2="17.25" y2="24.25" stroke="#2663FF"/>
  <path d="M20 20.5625C20 20.7766 19.898 21.0259 19.6187 21.3011C19.3376 21.5779 18.9053 21.8503 18.3307 22.0897C17.1837 22.5676 15.5644 22.875 13.75 22.875C11.9356 22.875 10.3163 22.5676 9.16934 22.0897C8.59475 21.8503 8.1624 21.5779 7.88134 21.3011C7.60204 21.0259 7.5 20.7766 7.5 20.5625C7.5 20.3484 7.60204 20.0991 7.88134 19.8239C8.1624 19.5471 8.59475 19.2747 9.16934 19.0353C10.3163 18.5574 11.9356 18.25 13.75 18.25C15.5644 18.25 17.1837 18.5574 18.3307 19.0353C18.9053 19.2747 19.3376 19.5471 19.6187 19.8239C19.898 20.0991 20 20.3484 20 20.5625Z" fill="#F3F7FF" stroke="#2663FF"/>
  <path d="M19.9014 17.6647L19.9744 17.6875H20.0508H22.25V19.4375C22.25 19.6517 22.1479 19.901 21.8687 20.1761C21.5876 20.453 21.1553 20.7254 20.5807 20.9648C19.4337 21.4427 17.8145 21.75 16 21.75C14.1855 21.75 12.5663 21.4427 11.4193 20.9648C10.8447 20.7254 10.4124 20.453 10.1313 20.1761C9.85206 19.901 9.75 19.6517 9.75 19.4375V17.6875H11.9492H12.0256L12.0986 17.6647C13.1716 17.3287 14.5229 17.125 16 17.125C17.4771 17.125 18.8284 17.3287 19.9014 17.6647Z" stroke="#2663FF"/>
  <line x1="12" y1="18.875" x2="12" y2="20.875" stroke="#2663FF"/>
  <line x1="14.5" y1="18.875" x2="14.5" y2="20.875" stroke="#2663FF"/>
  <line x1="17" y1="18.875" x2="17" y2="20.875" stroke="#2663FF"/>
  <line x1="19.5" y1="18.875" x2="19.5" y2="20.875" stroke="#2663FF"/>
  <path d="M22.25 17.1875C22.25 17.4016 22.148 17.6509 21.8687 17.9261C21.5876 18.2029 21.1553 18.4753 20.5807 18.7147C19.4337 19.1926 17.8144 19.5 16 19.5C14.1856 19.5 12.5663 19.1926 11.4193 18.7147C10.8447 18.4753 10.4124 18.2029 10.1313 17.9261C9.85204 17.6509 9.75 17.4016 9.75 17.1875C9.75 16.9734 9.85204 16.7241 10.1313 16.4489C10.4124 16.1721 10.8447 15.8997 11.4193 15.6603C12.5663 15.1824 14.1856 14.875 16 14.875C17.8144 14.875 19.4337 15.1824 20.5807 15.6603C21.1553 15.8997 21.5876 16.1721 21.8687 16.4489C22.148 16.7241 22.25 16.9734 22.25 17.1875Z" fill="#F3F7FF" stroke="#2663FF"/>
  <path d="M17.6514 14.2897L17.7244 14.3125H17.8008H20V16.0625C20 16.2767 19.8979 16.526 19.6187 16.8011C19.3376 17.078 18.9053 17.3504 18.3307 17.5898C17.1837 18.0677 15.5645 18.375 13.75 18.375C11.9355 18.375 10.3163 18.0677 9.16933 17.5898C8.59474 17.3504 8.1624 17.078 7.88134 16.8011C7.60206 16.526 7.5 16.2767 7.5 16.0625V14.3125H9.6992H9.77564L9.84858 14.2897C10.9216 13.9537 12.2729 13.75 13.75 13.75C15.2271 13.75 16.5784 13.9537 17.6514 14.2897Z" stroke="#2663FF"/>
  <line x1="9.75" y1="15.5" x2="9.75" y2="17.5" stroke="#2663FF"/>
  <line x1="12.25" y1="15.5" x2="12.25" y2="17.5" stroke="#2663FF"/>
  <line x1="14.75" y1="15.5" x2="14.75" y2="17.5" stroke="#2663FF"/>
  <line x1="17.25" y1="15.5" x2="17.25" y2="17.5" stroke="#2663FF"/>
  <path d="M20 13.8125C20 14.0266 19.898 14.2759 19.6187 14.5511C19.3376 14.8279 18.9053 15.1003 18.3307 15.3397C17.1837 15.8176 15.5644 16.125 13.75 16.125C11.9356 16.125 10.3163 15.8176 9.16934 15.3397C8.59475 15.1003 8.1624 14.8279 7.88134 14.5511C7.60204 14.2759 7.5 14.0266 7.5 13.8125C7.5 13.5984 7.60204 13.3491 7.88134 13.0739C8.1624 12.7971 8.59475 12.5247 9.16934 12.2853C10.3163 11.8074 11.9356 11.5 13.75 11.5C15.5644 11.5 17.1837 11.8074 18.3307 12.2853C18.9053 12.5247 19.3376 12.7971 19.6187 13.0739C19.898 13.3491 20 13.5984 20 13.8125Z" fill="#F3F7FF" stroke="#2663FF"/>
  <circle cx="26.125" cy="22.25" r="6.25" fill="#F3F7FF" stroke="#2663FF"/>
  <circle cx="26.125" cy="22.25" r="4" fill="#F3F7FF" stroke="#2663FF"/>
  <path d="M26.125 20L28.0736 21.125V23.375L26.125 24.5L24.1764 23.375V21.125L26.125 20Z" stroke="#2663FF" stroke-linejoin="round"/>
  </svg>
  