<svg width="20" height="20" viewBox="0 0 20 20" fill="none" xmlns="http://www.w3.org/2000/svg">
<g clip-path="url(#clip0_6061_101464)">
<path d="M10 20C15.5234 20 20 15.5234 20 10C20 4.47656 15.5234 0 10 0C4.47656 0 0 4.47656 0 10C0 15.5234 4.47656 20 10 20ZM10 5C10.5195 5 10.9375 5.41797 10.9375 5.9375V10.3125C10.9375 10.832 10.5195 11.25 10 11.25C9.48047 11.25 9.0625 10.832 9.0625 10.3125V5.9375C9.0625 5.41797 9.48047 5 10 5ZM11.25 13.75C11.25 14.4414 10.6914 15 10 15C9.30859 15 8.75 14.4414 8.75 13.75C8.75 13.0586 9.30859 12.5 10 12.5C10.6914 12.5 11.25 13.0586 11.25 13.75Z" fill="#FF0000"/>
</g>
<defs>
<clipPath id="clip0_6061_101464">
<rect width="20" height="20" fill="white"/>
</clipPath>
</defs>
</svg>
