<svg width="20" height="20" viewBox="0 0 20 20" fill="none" xmlns="http://www.w3.org/2000/svg"><path fill-rule="evenodd" clip-rule="evenodd" d="M10 .1C4.53.1.1 4.644.1 10.252c0 4.492 2.834 8.285 6.77 9.63.494.089.68-.215.68-.482 0-.241-.013-1.04-.013-1.89-2.487.469-3.13-.622-3.328-1.193-.112-.292-.594-1.193-1.015-1.434-.347-.19-.842-.66-.013-.672.78-.013 1.337.736 1.523 1.04.89 1.535 2.314 1.104 2.883.837.087-.66.346-1.103.631-1.357-2.203-.254-4.504-1.13-4.504-5.012 0-1.104.383-2.017 1.014-2.728-.099-.254-.445-1.294.1-2.69 0 0 .828-.266 2.722 1.04a8.974 8.974 0 0 1 2.475-.342c.841 0 1.683.114 2.475.343 1.893-1.32 2.722-1.04 2.722-1.04.545 1.395.198 2.435.1 2.69.63.71 1.014 1.61 1.014 2.727 0 3.895-2.314 4.758-4.517 5.012.359.317.668.926.668 1.878 0 1.357-.012 2.448-.012 2.791 0 .267.186.584.68.482 3.911-1.345 6.745-5.151 6.745-9.63 0-5.608-4.43-10.15-9.9-10.15z" fill="#878A8E"/></svg>