<svg width="18" height="18" viewBox="0 0 18 18" fill="none" xmlns="http://www.w3.org/2000/svg"><mask id="a" style="mask-type:alpha" maskUnits="userSpaceOnUse" x="0" y="0" width="18" height="18"><path fill-rule="evenodd" clip-rule="evenodd" d="M9.002 0c-2.444 0-2.75.01-3.71.053C4.336.095 3.678.25 3.108.47a4.394 4.394 0 0 0-1.596 1.041 4.41 4.41 0 0 0-1.04 1.593C.25 3.678.094 4.332.051 5.289.012 6.252 0 6.558 0 9.002s.01 2.75.053 3.71c.042.956.197 1.614.418 2.183a4.393 4.393 0 0 0 1.041 1.596 4.4 4.4 0 0 0 1.593 1.038c.573.221 1.227.376 2.184.418.96.043 1.265.053 3.71.053 2.443 0 2.749-.01 3.709-.053.956-.042 1.614-.197 2.184-.418a4.4 4.4 0 0 0 1.593-1.038 4.4 4.4 0 0 0 1.037-1.592c.221-.573.376-1.228.418-2.184.042-.96.053-1.266.053-3.71s-.01-2.75-.053-3.71c-.042-.956-.197-1.613-.418-2.183a4.216 4.216 0 0 0-1.03-1.6A4.4 4.4 0 0 0 14.898.475C14.326.253 13.67.098 12.715.056 11.752.011 11.445 0 9.002 0zm5.884 4.195a1.08 1.08 0 1 1-2.16 0 1.08 1.08 0 0 1 2.16 0zM4.377 9.003a4.625 4.625 0 0 1 9.248 0 4.625 4.625 0 0 1-9.248 0zm1.625 0a3 3 0 1 0 6 0 3 3 0 0 0-6 0z" fill="#000"/></mask><g mask="url(#a)"><circle cx="9.375" cy="8.624" r="11.625" fill="#878A8E"/></g></svg>