<svg width="20" height="20" viewBox="0 0 20 20" fill="none" xmlns="http://www.w3.org/2000/svg">
<g clip-path="url(#clip0_6061_102709)">
<path d="M10 20C15.5234 20 20 15.5234 20 10C20 4.47656 15.5234 0 10 0C4.47656 0 0 4.47656 0 10C0 15.5234 4.47656 20 10 20Z" fill="#2663FF"/>
<path fill-rule="evenodd" clip-rule="evenodd" d="M7.24572 5.79487C7.41943 6.00953 7.38622 6.32437 7.17156 6.49808C6.15106 7.32387 5.5 8.58486 5.5 9.99828C5.5 12.4836 7.51472 14.4983 10 14.4983C12.4853 14.4983 14.5 12.4836 14.5 9.99828C14.5 8.58486 13.8489 7.32387 12.8284 6.49808C12.6138 6.32437 12.5806 6.00953 12.7543 5.79487C12.928 5.5802 13.2428 5.547 13.4575 5.72071C14.7025 6.7282 15.5 8.2703 15.5 9.99828C15.5 13.0358 13.0376 15.4983 10 15.4983C6.96243 15.4983 4.5 13.0358 4.5 9.99828C4.5 8.2703 5.29746 6.7282 6.54251 5.72071C6.75718 5.547 7.07201 5.5802 7.24572 5.79487Z" fill="white"/>
<path fill-rule="evenodd" clip-rule="evenodd" d="M4 5.83203C4 5.55589 4.22386 5.33203 4.5 5.33203H7.22222C7.49836 5.33203 7.72222 5.55589 7.72222 5.83203V8.49805C7.72222 8.77419 7.49836 8.99805 7.22222 8.99805C6.94608 8.99805 6.72222 8.77419 6.72222 8.49805V6.33203H4.5C4.22386 6.33203 4 6.10817 4 5.83203Z" fill="white"/>
</g>
<defs>
<clipPath id="clip0_6061_102709">
<rect width="20" height="20" fill="white"/>
</clipPath>
</defs>
</svg>
