<svg width="40" height="41" viewBox="0 0 40 41" fill="none" xmlns="http://www.w3.org/2000/svg">
<circle cx="20" cy="20.1592" r="20" fill="#4F75FB"/>
<g clip-path="url(#clip0_6406_202590)">
<circle cx="20" cy="20.1592" r="9.5" stroke="white"/>
<circle cx="20" cy="20.1592" r="9.5" stroke="white"/>
<path d="M11 20.1592H20H29M12 14.6592C12 14.6592 16 16.1592 20 16.1592C24 16.1592 28 14.6592 28 14.6592M27.5 26.1592C27.5 26.1592 24 24.1592 20 24.1592C16 24.1592 12.5 26.1592 12.5 26.1592" stroke="white"/>
<path d="M20 29.6592C20.6331 29.6592 21.1566 29.2738 21.5604 28.7614C21.9687 28.2434 22.3145 27.5247 22.5957 26.6813C23.1597 24.9891 23.5 22.6832 23.5 20.1592C23.5 17.6351 23.1597 15.3292 22.5957 13.6371C22.3145 12.7936 21.9687 12.075 21.5604 11.557C21.1566 11.0445 20.6331 10.6592 20 10.6592C19.3669 10.6592 18.8434 11.0445 18.4396 11.557C18.0313 12.075 17.6855 12.7936 17.4043 13.6371C16.8403 15.3292 16.5 17.6351 16.5 20.1592C16.5 22.6832 16.8403 24.9891 17.4043 26.6813C17.6855 27.5247 18.0313 28.2434 18.4396 28.7614C18.8434 29.2738 19.3669 29.6592 20 29.6592Z" stroke="white"/>
</g>
<defs>
<clipPath id="clip0_6406_202590">
<rect width="20" height="20" fill="white" transform="translate(10 10.1592)"/>
</clipPath>
</defs>
</svg>
