<svg width="40" height="41" viewBox="0 0 40 41" fill="none" xmlns="http://www.w3.org/2000/svg">
<circle cx="20" cy="20.1592" r="20" fill="#33CCFF"/>
<g clip-path="url(#clip0_6406_202591)">
<path d="M29.8564 13.8832C29.2094 14.1622 28.5293 14.3565 27.8327 14.4612C28.1584 14.4053 28.6375 13.8179 28.8283 13.5801C29.118 13.2215 29.3389 12.8121 29.4795 12.3727C29.4795 12.3401 29.5121 12.2934 29.4795 12.2701C29.4631 12.2612 29.4447 12.2565 29.4261 12.2565C29.4074 12.2565 29.389 12.2612 29.3726 12.2701C28.6162 12.6806 27.8113 12.9938 26.9768 13.2025C26.9477 13.2114 26.9167 13.2122 26.8872 13.2048C26.8577 13.1974 26.8308 13.1821 26.8093 13.1606C26.7444 13.083 26.6744 13.0099 26.6 12.9414C26.2596 12.6358 25.8734 12.3857 25.4556 12.2002C24.8915 11.9683 24.2823 11.8679 23.6739 11.9065C23.0835 11.9439 22.5071 12.1026 21.9805 12.3727C21.462 12.6575 21.0063 13.0444 20.6408 13.5102C20.2563 13.9896 19.9787 14.546 19.8267 15.1419C19.7013 15.7087 19.6871 16.2945 19.7848 16.8668C19.7848 16.9647 19.7848 16.9787 19.7011 16.9647C16.3842 16.4752 13.6628 15.2957 11.4391 12.7643C11.3415 12.6524 11.2903 12.6524 11.2112 12.7643C10.2436 14.2375 10.7134 16.5684 11.923 17.7199C12.0858 17.8737 12.2532 18.0229 12.43 18.1628C11.8755 18.1233 11.3345 17.9727 10.839 17.7199C10.746 17.6593 10.6948 17.6919 10.6902 17.8038C10.677 17.9589 10.677 18.1149 10.6902 18.27C10.7872 19.0134 11.0796 19.7176 11.5373 20.3106C11.995 20.9037 12.6017 21.3642 13.2953 21.6452C13.4644 21.7178 13.6405 21.7725 13.821 21.8084C13.3076 21.9097 12.781 21.9254 12.2625 21.855C12.1509 21.8317 12.109 21.8923 12.1509 21.9995C12.8347 23.8643 14.3187 24.4331 15.4073 24.7501C15.5562 24.7734 15.705 24.7734 15.8725 24.8107C15.8725 24.8107 15.8725 24.8107 15.8446 24.8386C15.5236 25.426 14.2257 25.8223 13.6302 26.0274C12.5434 26.4187 11.3846 26.5682 10.2343 26.4657C10.0529 26.4377 10.011 26.4423 9.96447 26.4657C9.91795 26.489 9.96447 26.5402 10.0156 26.5869C10.2482 26.7407 10.4808 26.8759 10.7227 27.0064C11.4429 27.4001 12.2042 27.7128 12.9929 27.9388C17.0774 29.067 21.6735 28.2372 24.7392 25.1836C27.1489 22.7874 27.9956 19.4821 27.9956 16.1722C27.9956 16.0463 28.1491 15.9717 28.2375 15.9064C28.8471 15.4304 29.3846 14.8682 29.8331 14.2375C29.9108 14.1434 29.9506 14.0237 29.9447 13.9018C29.9447 13.8319 29.9447 13.8459 29.8564 13.8832Z" fill="white"/>
</g>
<defs>
<clipPath id="clip0_6406_202591">
<rect width="20" height="20" fill="white" transform="translate(10 10.1592)"/>
</clipPath>
</defs>
</svg>
