<svg width="16" height="16" viewBox="0 0 16 16" fill="none" xmlns="http://www.w3.org/2000/svg">
<g clip-path="url(#clip0_14228_135033)">
<path d="M8.01008 2.91016C5.5793 2.91016 3.60938 4.88165 3.60938 7.31242C3.60938 9.7432 5.58087 11.7147 8.01164 11.7147C10.4424 11.7147 12.4139 9.7432 12.4139 7.31242C12.4123 4.88165 10.4424 2.91016 8.01008 2.91016Z" fill="#FFC700"/>
<path d="M4.99609 13.041H11.0262V13.9221H4.99609V13.041Z" fill="#FFC700"/>
<path d="M5.89844 15.1191H10.1242V16.0002H5.89844V15.1191Z" fill="#FFC700"/>
<path d="M7.54633 0.00195312H8.4274V1.76098H7.54633V0.00195312ZM2.54324 2.45066L3.16624 1.82766L4.41006 3.07148L3.78706 3.69448L2.54324 2.45066ZM0.738281 6.83968H2.49731V7.72076H0.738281V6.83968ZM13.5061 6.81156H15.2651V7.69264H13.5061V6.81156ZM11.5728 3.05187L12.8166 1.80805L13.4396 2.43106L12.1958 3.67488L11.5728 3.05187Z" fill="#FFC700"/>
</g>
<defs>
<clipPath id="clip0_14228_135033">
<rect width="16" height="16" fill="white"/>
</clipPath>
</defs>
</svg>
