<svg width="18" height="18" viewBox="0 0 18 18" fill="none" xmlns="http://www.w3.org/2000/svg"><g clip-path="url(#clip0_1832_54975)" stroke="#878A8E"><circle cx="9" cy="9" r="8.5"/><path d="M.9 9h16.2M1.8 4.05S5.4 5.4 9 5.4s7.2-1.35 7.2-1.35m-.45 10.35S12.6 12.6 9 12.6s-6.75 1.8-6.75 1.8"/><path d="M9 17.6c.592 0 1.076-.36 1.444-.828.372-.472.685-1.125.94-1.887.51-1.53.816-3.61.816-5.886 0-2.275-.307-4.356-.816-5.885-.255-.762-.568-1.415-.94-1.888C10.076.76 9.592.4 9 .4s-1.076.36-1.444.827c-.372.473-.686 1.126-.94 1.888-.51 1.529-.816 3.61-.816 5.885 0 2.276.307 4.357.816 5.886.254.762.568 1.415.94 1.887.368.467.852.827 1.444.827z"/></g><defs><clipPath id="clip0_1832_54975"><path fill="#fff" d="M0 0h18v18H0z"/></clipPath></defs></svg>