<svg width="42" height="20" viewBox="0 0 42 20" fill="none" xmlns="http://www.w3.org/2000/svg">
<path d="M16.5 10L11.5 7.11325V12.8868L16.5 10ZM0.5 10.5H12V9.5H0.5V10.5Z" fill="#F53030"/>
<path d="M25.816 15.21C24.472 15.21 23.4547 14.804 22.764 13.992C22.0733 13.18 21.728 11.99 21.728 10.422V9.736C21.728 8.17733 22.078 6.978 22.778 6.138C23.4873 5.298 24.5 4.878 25.816 4.878C27.104 4.878 28.1073 5.30733 28.826 6.166C29.554 7.01533 29.918 8.20067 29.918 9.722V10.422C29.918 11.9433 29.5587 13.124 28.84 13.964C28.1213 14.7947 27.1133 15.21 25.816 15.21ZM25.816 13.95C26.684 13.95 27.342 13.6467 27.79 13.04C28.2473 12.4333 28.476 11.542 28.476 10.366V9.792C28.476 8.60667 28.2473 7.70133 27.79 7.076C27.342 6.44133 26.684 6.124 25.816 6.124C24.9387 6.124 24.276 6.432 23.828 7.048C23.38 7.664 23.156 8.57867 23.156 9.792V10.38C23.156 11.5747 23.3753 12.4707 23.814 13.068C24.262 13.656 24.9293 13.95 25.816 13.95ZM33.2404 8.952C32.5964 8.952 32.0924 8.784 31.7284 8.448C31.3737 8.10267 31.1964 7.622 31.1964 7.006V6.922C31.1964 6.306 31.383 5.816 31.7564 5.452C32.139 5.088 32.6384 4.906 33.2544 4.906C33.8797 4.906 34.3744 5.088 34.7384 5.452C35.1117 5.80667 35.2984 6.29667 35.2984 6.922V7.006C35.2984 7.60333 35.1117 8.07933 34.7384 8.434C34.3744 8.77933 33.875 8.952 33.2404 8.952ZM32.8064 15H31.2104C31.649 14.468 32.9324 12.83 35.0604 10.086C37.1977 7.33267 38.495 5.65267 38.9524 5.046H40.4784C40.3291 5.23267 40.0304 5.61533 39.5824 6.194C39.1437 6.76333 36.885 9.69867 32.8064 15ZM33.2404 8.042C33.567 8.042 33.8284 7.944 34.0244 7.748C34.2204 7.552 34.3184 7.29067 34.3184 6.964V6.922C34.3184 6.586 34.2204 6.32 34.0244 6.124C33.8284 5.91867 33.5717 5.816 33.2544 5.816C32.937 5.816 32.6804 5.91867 32.4844 6.124C32.2884 6.32 32.1904 6.586 32.1904 6.922V6.964C32.1904 7.3 32.2837 7.566 32.4704 7.762C32.657 7.94867 32.9137 8.042 33.2404 8.042ZM38.4204 15.168C37.7764 15.168 37.277 15 36.9224 14.664C36.5677 14.3187 36.3904 13.8427 36.3904 13.236V13.138C36.3904 12.522 36.577 12.0367 36.9504 11.682C37.3237 11.318 37.8184 11.136 38.4344 11.136C39.0597 11.136 39.5544 11.318 39.9184 11.682C40.2917 12.0367 40.4784 12.522 40.4784 13.138V13.236C40.4784 13.8333 40.2917 14.3047 39.9184 14.65C39.5544 14.9953 39.055 15.168 38.4204 15.168ZM38.4344 14.272C38.761 14.272 39.0177 14.174 39.2044 13.978C39.4004 13.782 39.4984 13.5207 39.4984 13.194V13.138C39.4984 12.802 39.4004 12.536 39.2044 12.34C39.0084 12.1347 38.7517 12.032 38.4344 12.032C38.1171 12.032 37.8604 12.1347 37.6644 12.34C37.4684 12.536 37.3704 12.802 37.3704 13.138V13.194C37.3704 13.5207 37.4637 13.782 37.6504 13.978C37.8464 14.174 38.1077 14.272 38.4344 14.272Z" fill="#F53030"/>
</svg>
