<svg width="36" height="36" viewBox="0 0 36 36" fill="none" xmlns="http://www.w3.org/2000/svg">
<circle cx="18" cy="18" r="17.5" fill="white" stroke="#D7D6D9"/>
<path fill-rule="evenodd" clip-rule="evenodd" d="M18 9C13.0275 9 9 13.1294 9 18.2276C9 22.3109 11.5762 25.7597 15.1537 26.9824C15.6037 27.0631 15.7725 26.7863 15.7725 26.5441C15.7725 26.3249 15.7613 25.5982 15.7613 24.8254C13.5 25.2522 12.915 24.2602 12.735 23.7412C12.6337 23.4759 12.195 22.6569 11.8125 22.4378C11.4975 22.2647 11.0475 21.838 11.8012 21.8264C12.51 21.8149 13.0163 22.4954 13.185 22.7723C13.995 24.1679 15.2888 23.7758 15.8063 23.5335C15.885 22.9337 16.1212 22.53 16.38 22.2993C14.3775 22.0687 12.285 21.2728 12.285 17.7432C12.285 16.7397 12.6337 15.9092 13.2075 15.2633C13.1175 15.0326 12.8025 14.0867 13.2975 12.8179C13.2975 12.8179 14.0512 12.5757 15.7725 13.7638C16.4925 13.5561 17.2575 13.4523 18.0225 13.4523C18.7875 13.4523 19.5525 13.5561 20.2725 13.7638C21.9937 12.5642 22.7475 12.8179 22.7475 12.8179C23.2425 14.0867 22.9275 15.0326 22.8375 15.2633C23.4113 15.9092 23.76 16.7282 23.76 17.7432C23.76 21.2843 21.6563 22.0687 19.6538 22.2993C19.98 22.5877 20.2612 23.1414 20.2612 24.0065C20.2612 25.2407 20.25 26.2326 20.25 26.5441C20.25 26.7863 20.4187 27.0746 20.8688 26.9824C24.4238 25.7597 27 22.2993 27 18.2276C27 13.1294 22.9725 9 18 9Z" fill="#959595"/>
</svg>
