<svg width="36" height="36" viewBox="0 0 36 36" fill="none" xmlns="http://www.w3.org/2000/svg">
<circle cx="18" cy="18" r="17.55" fill="white" stroke="#D7D6D9" stroke-width="0.9"/>
<mask id="mask0_5680_194128" style="mask-type:alpha" maskUnits="userSpaceOnUse" x="9" y="9" width="18" height="18">
<path fill-rule="evenodd" clip-rule="evenodd" d="M18.0053 9C15.5605 9 15.2544 9.01055 14.2941 9.05274C13.3373 9.09494 12.6795 9.24966 12.1096 9.47119C11.5151 9.70326 11.0121 10.0092 10.5126 10.512C10.0096 11.0113 9.70354 11.5142 9.47137 12.1049C9.24976 12.6781 9.09498 13.3321 9.05277 14.2885C9.01055 15.252 9 15.5579 9 18.0018C9 20.4456 9.01055 20.7515 9.05277 21.7115C9.09498 22.6679 9.24976 23.3255 9.47137 23.8951C9.70354 24.4894 10.0096 24.9922 10.5126 25.4915C11.0121 25.9908 11.5151 26.3003 12.1061 26.5288C12.6795 26.7503 13.3338 26.9051 14.2906 26.9473C15.2509 26.9895 15.557 27 18.0018 27C20.4466 27 20.7526 26.9895 21.7129 26.9473C22.6697 26.9051 23.3275 26.7503 23.8974 26.5288C24.4884 26.3003 24.9914 25.9908 25.4909 25.4915C25.9904 24.9922 26.3 24.4894 26.5286 23.8986C26.7502 23.3255 26.905 22.6714 26.9472 21.715C26.9894 20.755 27 20.4491 27 18.0053C27 15.5614 26.9894 15.2555 26.9472 14.2956C26.905 13.3391 26.7502 12.6816 26.5286 12.1119C26.307 11.5142 26.001 11.0113 25.4979 10.512C24.9984 10.0127 24.4954 9.70326 23.9044 9.4747C23.3311 9.25317 22.6768 9.09846 21.72 9.05626C20.7561 9.01055 20.4501 9 18.0053 9ZM23.8935 13.1948C23.8935 13.7926 23.408 14.2743 22.8135 14.2743C22.2155 14.2743 21.7336 13.789 21.7336 13.1948C21.7336 12.597 22.219 12.1153 22.8135 12.1153C23.408 12.1153 23.8935 12.6005 23.8935 13.1948ZM13.3875 18.0018C13.3875 15.4489 15.4594 13.3778 18.0133 13.3778C20.5671 13.3778 22.639 15.4489 22.639 18.0018C22.639 20.5546 20.5671 22.6257 18.0133 22.6257C15.4594 22.6257 13.3875 20.5546 13.3875 18.0018ZM15.0127 18.0018C15.0127 19.658 16.3564 21.0012 18.0133 21.0012C19.6701 21.0012 21.0138 19.658 21.0138 18.0018C21.0138 16.3456 19.6701 15.0024 18.0133 15.0024C16.3564 15.0024 15.0127 16.3456 15.0127 18.0018Z" fill="black"/>
</mask>
<g mask="url(#mask0_5680_194128)">
<ellipse cx="18.3795" cy="17.625" rx="11.6295" ry="11.625" fill="#959595"/>
</g>
</svg>
