<svg width="36" height="36" viewBox="0 0 36 36" fill="none" xmlns="http://www.w3.org/2000/svg">
<circle cx="18" cy="18" r="17.5" fill="white" stroke="#D7D6D9"/>
<path d="M13.5759 25.2459V14.8907H10.1031V25.2459H13.5759ZM11.8402 13.4771C13.051 13.4771 13.8048 12.682 13.8048 11.6883C13.7821 10.6719 13.051 9.89893 11.8633 9.89893C10.6747 9.89893 9.89844 10.6719 9.89844 11.6882C9.89844 12.6819 10.652 13.477 11.8175 13.477L11.8402 13.4771ZM15.4981 25.2459H18.9706V19.4637C18.9706 19.1547 18.9933 18.8448 19.085 18.624C19.3359 18.0054 19.9073 17.3651 20.8669 17.3651C22.1232 17.3651 22.626 18.3146 22.626 19.7068V25.2459H26.0984V19.3086C26.0984 16.128 24.3854 14.648 22.1007 14.648C20.2275 14.648 19.4048 15.6856 18.9478 16.3924H18.9709V14.8911H15.4983C15.5436 15.8625 15.4981 25.2459 15.4981 25.2459Z" fill="#959595"/>
</svg>
