<svg width="36" height="36" viewBox="0 0 36 36" fill="none" xmlns="http://www.w3.org/2000/svg">
<circle cx="18" cy="18" r="17.5" fill="white" stroke="#D7D6D9"/>
<g clip-path="url(#clip0_5680_194127)">
<path d="M26.8731 12.3512C26.2908 12.6023 25.6787 12.7772 25.0518 12.8715C25.3449 12.8211 25.7761 12.2924 25.9478 12.0785C26.2086 11.7557 26.4073 11.3872 26.5339 10.9918C26.5339 10.9624 26.5632 10.9204 26.5339 10.8995C26.5192 10.8914 26.5026 10.8872 26.4858 10.8872C26.469 10.8872 26.4524 10.8914 26.4376 10.8995C25.757 11.2689 25.0325 11.5508 24.2814 11.7386C24.2553 11.7466 24.2274 11.7473 24.2009 11.7407C24.1743 11.734 24.1501 11.7203 24.1307 11.7008C24.0723 11.6311 24.0093 11.5652 23.9423 11.5037C23.636 11.2286 23.2884 11.0035 22.9124 10.8365C22.4047 10.6278 21.8564 10.5374 21.3088 10.5722C20.7775 10.6058 20.2587 10.7486 19.7848 10.9918C19.3182 11.2481 18.908 11.5963 18.579 12.0155C18.233 12.447 17.9832 12.9477 17.8464 13.484C17.7335 13.9942 17.7207 14.5214 17.8087 15.0364C17.8087 15.1246 17.8087 15.1371 17.7333 15.1246C14.7481 14.684 12.2989 13.6225 10.2976 11.3442C10.2097 11.2435 10.1636 11.2435 10.0924 11.3442C9.22157 12.6701 9.64444 14.7679 10.733 15.8043C10.8795 15.9427 11.0303 16.077 11.1894 16.2029C10.6903 16.1673 10.2034 16.0318 9.75748 15.8043C9.67374 15.7497 9.62769 15.7791 9.6235 15.8798C9.61163 16.0194 9.61163 16.1598 9.6235 16.2994C9.71086 16.9684 9.97397 17.6022 10.3859 18.1359C10.7979 18.6697 11.3439 19.0842 11.9681 19.3371C12.1203 19.4024 12.2788 19.4516 12.4412 19.4839C11.9792 19.5751 11.5053 19.5892 11.0386 19.5259C10.9382 19.5049 10.9005 19.5594 10.9382 19.6559C11.5536 21.3342 12.8892 21.8461 13.8689 22.1314C14.0029 22.1524 14.1369 22.1524 14.2876 22.186C14.2876 22.186 14.2876 22.186 14.2625 22.2111C13.9736 22.7398 12.8055 23.0964 12.2696 23.281C11.2914 23.6331 10.2485 23.7677 9.2132 23.6754C9.04991 23.6503 9.01223 23.6545 8.97036 23.6754C8.9285 23.6964 8.97036 23.7426 9.01642 23.7845C9.22576 23.923 9.4351 24.0447 9.65281 24.1621C10.3009 24.5164 10.9862 24.7978 11.696 25.0013C15.372 26.0166 19.5085 25.2698 22.2676 22.5216C24.4364 20.365 25.1984 17.3902 25.1984 14.4113C25.1984 14.298 25.3365 14.2309 25.4161 14.1721C25.9647 13.7437 26.4485 13.2377 26.8521 12.6701C26.922 12.5854 26.9579 12.4777 26.9526 12.368V12.368C26.9526 12.305 26.9526 12.3176 26.8731 12.3512Z" fill="#959595"/>
</g>
<defs>
<clipPath id="clip0_5680_194127">
<rect width="18" height="18" fill="white" transform="translate(9 9)"/>
</clipPath>
</defs>
</svg>
