<svg width="36" height="36" viewBox="0 0 36 36" fill="none" xmlns="http://www.w3.org/2000/svg">
<circle cx="18" cy="18" r="17.5" fill="white" stroke="#D7D6D9"/>
<g clip-path="url(#clip0_5680_194129)">
<circle cx="18" cy="18" r="8.5" stroke="#959595"/>
<circle cx="18" cy="18" r="8.5" stroke="#959595"/>
<path d="M9.89844 17.9998H17.9984H26.0984M10.7984 13.0498C10.7984 13.0498 14.3984 14.3998 17.9984 14.3998C21.5984 14.3998 25.1984 13.0498 25.1984 13.0498M24.7484 23.3998C24.7484 23.3998 21.5984 21.5998 17.9984 21.5998C14.3984 21.5998 11.2484 23.3998 11.2484 23.3998" stroke="#959595"/>
<path d="M18.0008 26.5999C18.5924 26.5999 19.0765 26.2397 19.4444 25.7729C19.8168 25.3003 20.1303 24.6476 20.3843 23.8856C20.8941 22.3563 21.2008 20.2754 21.2008 17.9999C21.2008 15.7244 20.8941 13.6435 20.3843 12.1142C20.1303 11.3522 19.8168 10.6995 19.4444 10.227C19.0765 9.76008 18.5924 9.3999 18.0008 9.3999C17.4091 9.3999 16.925 9.76008 16.5571 10.227C16.1847 10.6995 15.8713 11.3522 15.6173 12.1142C15.1075 13.6435 14.8008 15.7244 14.8008 17.9999C14.8008 20.2754 15.1075 22.3563 15.6173 23.8856C15.8713 24.6476 16.1847 25.3003 16.5571 25.7729C16.925 26.2397 17.4091 26.5999 18.0008 26.5999Z" stroke="#959595"/>
</g>
<defs>
<clipPath id="clip0_5680_194129">
<rect width="18" height="18" fill="white" transform="translate(9 9)"/>
</clipPath>
</defs>
</svg>
