<svg width="52" height="52" viewBox="0 0 52 52" fill="none" xmlns="http://www.w3.org/2000/svg"><rect width="52" height="52" rx="10" fill="#E6E6E6"/><path fill-rule="evenodd" clip-rule="evenodd" d="M18 15.5a1.5 1.5 0 0 1 1.5-1.5h5a1.5 1.5 0 0 1 0 3h-5a1.5 1.5 0 0 1-1.5-1.5zm15.908 1.481a1.5 1.5 0 0 1-.889 1.926l-13 4.79a1.5 1.5 0 0 1-1.037-2.815l13-4.79a1.5 1.5 0 0 1 1.926.89zm0 12.211a1.5 1.5 0 0 1-.889 1.926l-13 4.79a1.5 1.5 0 0 1-1.037-2.816l13-4.789a1.5 1.5 0 0 1 1.926.889zM26 36.5a1.5 1.5 0 0 1 1.5-1.5h5a1.5 1.5 0 0 1 0 3h-5a1.5 1.5 0 0 1-1.5-1.5zM33.9 22.962a1.5 1.5 0 0 1-.861 1.938l-13 5a1.5 1.5 0 0 1-1.077-2.8l13-5a1.5 1.5 0 0 1 1.938.862z" fill="#878A8E"/></svg>