<svg width="120" height="29" viewBox="0 0 120 29" fill="none" xmlns="http://www.w3.org/2000/svg" style="overview:visible">
  <path class="animate__animated animate__rubberBand" style="animation-delay:1s" fill-rule="evenodd" clip-rule="evenodd" d="M1.50041 2C0.671979 2 0.000406011 2.67157 0.000406011 3.5C0.000406011 4.32843 0.671979 5 1.50041 5H6.50041C7.32883 5 8.00041 4.32843 8.00041 3.5C8.00041 2.67157 7.32883 2 6.50041 2H1.50041ZM15.019 6.90751C15.7963 6.62112 16.1943 5.75879 15.9079 4.98144C15.6215 4.20409 14.7592 3.80609 13.9818 4.09249L0.981848 8.88196C0.204499 9.16835 -0.1935 10.0307 0.0928913 10.808C0.379283 11.5854 1.24162 11.9834 2.01896 11.697L15.019 6.90751ZM15.019 19.118C15.7963 18.8316 16.1943 17.9693 15.9079 17.192C15.6215 16.4146 14.7592 16.0166 13.9818 16.303L0.981848 21.0925C0.204499 21.3789 -0.1935 22.2412 0.0928913 23.0186C0.379283 23.7959 1.24162 24.1939 2.01896 23.9075L15.019 19.118ZM9.50041 23C8.67198 23 8.00041 23.6716 8.00041 24.5C8.00041 25.3284 8.67198 26 9.50041 26H14.5004C15.3288 26 16.0004 25.3284 16.0004 24.5C16.0004 23.6716 15.3288 23 14.5004 23H9.50041ZM15.0389 12.9004C15.8121 12.603 16.1978 11.7351 15.9004 10.9619C15.603 10.1887 14.7351 9.803 13.9619 10.1004L0.961936 15.1004C0.188727 15.3978 -0.197002 16.2657 0.100386 17.0389C0.397774 17.8121 1.26566 18.1978 2.03887 17.9004L15.0389 12.9004Z" fill="#1E1E1E" />
  <path class="animate__animated animate__bounce animate__delay-2s" d="M37.631 16.368H41.735C43.343 16.368 44.447 17.064 44.447 18.816C44.447 20.592 43.151 21.072 41.663 21.072H37.631V16.368ZM33.863 24H42.167C45.263 24 48.215 22.512 48.215 19.032C48.215 16.896 47.159 15.288 45.071 14.688C46.559 13.968 47.399 12.792 47.399 11.112C47.399 7.92 45.191 6.864 41.927 6.864H33.863V24ZM37.631 9.792H41.159C42.503 9.792 43.751 10.128 43.751 11.76C43.751 13.2 42.767 13.8 41.447 13.8H37.631V9.792ZM50.0175 17.808C50.0175 21.744 52.5375 24.336 56.4255 24.336C60.3375 24.336 62.8575 21.744 62.8575 17.808C62.8575 13.848 60.3375 11.256 56.4255 11.256C52.5375 11.256 50.0175 13.848 50.0175 17.808ZM53.4255 17.808C53.4255 15.816 54.1215 13.824 56.4255 13.824C58.7535 13.824 59.4495 15.816 59.4495 17.808C59.4495 19.776 58.7535 21.768 56.4255 21.768C54.1215 21.768 53.4255 19.776 53.4255 17.808ZM76.7133 11.592H73.3053V18.096C73.3053 20.616 72.5133 21.648 70.6653 21.648C69.0813 21.648 68.4813 20.64 68.4813 18.6V11.592H65.0733V19.224C65.0733 22.296 65.9853 24.336 69.6093 24.336C71.0493 24.336 72.5373 23.664 73.4013 22.272H73.4733V24H76.7133V11.592ZM79.2999 24H82.7079V17.496C82.7079 14.976 83.4999 13.944 85.3479 13.944C86.9319 13.944 87.5319 14.952 87.5319 16.992V24H90.9399V16.368C90.9399 13.296 90.0279 11.256 86.4039 11.256C84.9639 11.256 83.4759 11.928 82.6119 13.32H82.5399V11.592H79.2999V24ZM105.31 15.96C105.094 12.792 102.406 11.256 99.4785 11.256C95.4465 11.256 93.1425 14.112 93.1425 17.976C93.1425 21.696 95.6625 24.336 99.4065 24.336C102.67 24.336 104.95 22.536 105.382 19.248H102.094C101.878 20.76 100.966 21.768 99.3825 21.768C97.2465 21.768 96.5505 19.632 96.5505 17.856C96.5505 16.032 97.2705 13.824 99.4545 13.824C100.87 13.824 101.758 14.568 101.974 15.96H105.31ZM119.068 18.624C119.308 14.808 117.268 11.256 113.044 11.256C109.276 11.256 106.708 14.088 106.708 17.808C106.708 21.648 109.132 24.336 113.044 24.336C115.852 24.336 117.892 23.088 118.852 20.16H115.852C115.636 20.928 114.532 21.768 113.164 21.768C111.268 21.768 110.212 20.784 110.116 18.624H119.068ZM110.116 16.464C110.164 15.504 110.788 13.824 112.948 13.824C114.604 13.824 115.348 14.736 115.66 16.464H110.116Z" fill="#1E1E1E" />
</svg>
  