<svg width="52" height="52" viewBox="0 0 52 52" fill="none" xmlns="http://www.w3.org/2000/svg">
<circle cx="26" cy="26" r="25.5" stroke="#E5EAF0"/>
<path d="M26.0006 26C28.8006 26 31.0006 23.8 31.0006 21C31.0006 18.2 28.8006 16 26.0006 16C23.2006 16 21.0006 18.2 21.0006 21C21.0006 23.8 23.2006 26 26.0006 26ZM35.3006 34.8C34.0006 29.7 28.8006 26.5 23.7006 27.8C20.3006 28.7 17.6006 31.3 16.7006 34.8C16.6006 35.3 16.9006 35.9 17.5006 36C17.6006 36 17.7006 36 17.7006 36H34.3006C34.9006 36 35.3006 35.6 35.3006 35C35.3006 34.9 35.3006 34.8 35.3006 34.8Z" fill="#171717"/>
</svg>
