<svg width="52" height="52" viewBox="0 0 52 52" fill="none" xmlns="http://www.w3.org/2000/svg">
<circle cx="26" cy="26" r="25.5" fill="white" stroke="#F5F5F5"/>
<rect width="24" height="24" transform="translate(14 14)" fill="white"/>
<path d="M35 34H34V17C34 16.4 33.6 16 33 16H19C18.4 16 18 16.4 18 17V34H17C16.4 34 16 34.4 16 35C16 35.6 16.4 36 17 36H35C35.6 36 36 35.6 36 35C36 34.4 35.6 34 35 34ZM23 20H24C24.6 20 25 20.4 25 21C25 21.6 24.6 22 24 22H23C22.4 22 22 21.6 22 21C22 20.4 22.4 20 23 20ZM22 25C22 24.4 22.4 24 23 24H24C24.6 24 25 24.4 25 25C25 25.6 24.6 26 24 26H23C22.4 26 22 25.6 22 25ZM29 34H23V29C23 28.4 23.4 28 24 28H28C28.6 28 29 28.4 29 29V34ZM29 26H28C27.4 26 27 25.6 27 25C27 24.4 27.4 24 28 24H29C29.6 24 30 24.4 30 25C30 25.6 29.6 26 29 26ZM29 22H28C27.4 22 27 21.6 27 21C27 20.4 27.4 20 28 20H29C29.6 20 30 20.4 30 21C30 21.6 29.6 22 29 22Z" fill="#171717"/>
</svg>
