<svg width="40" height="40" viewBox="0 0 40 40" fill="none" xmlns="http://www.w3.org/2000/svg">
<rect width="40" height="40" rx="20" fill="white"/>
<path d="M13.0412 22.608L12.1712 25.8567L8.98999 25.9242C8.00911 24.1036 7.49744 22.0673 7.50124 19.9992C7.49811 17.9989 7.9775 16.0273 8.89874 14.2517L11.7312 14.7705L12.9712 17.5855C12.7049 18.3628 12.5693 19.1788 12.57 20.0005C12.57 20.918 12.7362 21.7967 13.0412 22.608Z" fill="#FBBB00"/>
<path d="M32.2809 17.6648C32.5914 19.3004 32.5727 20.9815 32.2259 22.6098C31.625 25.4247 30.0708 27.9459 27.8259 29.7473L24.2584 29.5648L23.7534 26.4136C25.226 25.5503 26.3574 24.2075 26.9584 22.6098H20.2747V17.6648H32.2809Z" fill="#518EF8"/>
<path d="M27.8255 29.7475C25.6086 31.5327 22.8468 32.5042 20.0005 32.5C17.7425 32.5008 15.5265 31.89 13.5879 30.7323C11.6493 29.5746 10.0605 27.9133 8.99048 25.925L13.0405 22.6075C13.4206 23.6214 14.0177 24.5401 14.79 25.2991C15.5623 26.0582 16.4912 26.6393 17.5115 27.0019C18.5319 27.3644 19.6192 27.4996 20.6973 27.398C21.7754 27.2964 22.8183 26.9605 23.753 26.4137L27.8255 29.7475Z" fill="#28B446"/>
<path d="M27.9799 10.3775L23.9299 13.6925C22.9812 13.102 21.9115 12.733 20.8006 12.6129C19.6896 12.4928 18.5658 12.6247 17.5128 12.9987C16.4598 13.3727 15.5046 13.9793 14.7183 14.7733C13.932 15.5673 13.3348 16.5284 12.9712 17.585L8.8999 14.2513C9.95359 12.2168 11.5463 10.5111 13.5039 9.32062C15.4615 8.13017 17.7087 7.50079 19.9999 7.50125C23.0337 7.50125 25.8149 8.58 27.9799 10.3775Z" fill="#F14336"/>
</svg>
