<svg width="52" height="52" viewBox="0 0 52 52" fill="none" xmlns="http://www.w3.org/2000/svg">
<path d="M35 23.0004C35.6 23.0004 36 22.6004 36 22.0004V19.0004C36 18.6004 35.7 18.2004 35.3 18.1004L26.3 15.1004C26.1 15.0004 25.9 15.0004 25.7 15.1004L16.7 18.1004C16.3 18.2004 16 18.6004 16 19.0004V22.0004C16 22.6004 16.4 23.0004 17 23.0004H18V30.2004C16.8 30.6004 16 31.7004 16 33.0004V35.0004C16 35.6004 16.4 36.0004 17 36.0004H35C35.6 36.0004 36 35.6004 36 35.0004V33.0004C36 31.7004 35.2 30.6004 34 30.2004V23.0004H35ZM22 30.0004H20V23.0004H22V30.0004ZM28 30.0004H24V23.0004H28V30.0004ZM32 30.0004H30V23.0004H32V30.0004Z" fill="#171717"/>
<circle cx="26" cy="26" r="25.5" stroke="#E5EAF0"/>
</svg>
