<svg width="40" height="40" viewBox="0 0 40 40" fill="none" xmlns="http://www.w3.org/2000/svg">
<rect width="40" height="40" rx="20" fill="#006699"/>
<path d="M15.4895 26.8994V16.3385H11.9478V26.8994H15.4899H15.4895ZM13.7194 14.8968C14.9542 14.8968 15.723 14.0859 15.723 13.0724C15.6998 12.0359 14.9542 11.2476 13.7429 11.2476C12.5307 11.2476 11.739 12.0359 11.739 13.0723C11.739 14.0858 12.5075 14.8967 13.6962 14.8967H13.7191L13.7194 14.8968ZM17.4499 26.8994H20.9914V21.0023C20.9914 20.6871 21.0145 20.3711 21.108 20.1459C21.364 19.515 21.9467 18.862 22.9253 18.862C24.2065 18.862 24.7194 19.8303 24.7194 21.2502V26.8994H28.2608V20.8441C28.2608 17.6004 26.5137 16.0909 24.1836 16.0909C22.2732 16.0909 21.4342 17.1492 20.9681 17.87H20.9916V16.3389H17.4501C17.4963 17.3296 17.4498 26.8997 17.4498 26.8997L17.4499 26.8994Z" fill="white"/>
</svg>
