<svg width="40" height="40" viewBox="0 0 40 40" fill="none" xmlns="http://www.w3.org/2000/svg">
<rect width="40" height="40" rx="20" fill="#33CCFF"/>
<path d="M30.8583 13.7239C30.2114 14.0029 29.5312 14.1972 28.8347 14.3019C29.1603 14.246 29.6395 13.6586 29.8302 13.4208C30.12 13.0622 30.3408 12.6528 30.4815 12.2134C30.4815 12.1808 30.5141 12.1341 30.4815 12.1108C30.4651 12.1019 30.4467 12.0971 30.428 12.0971C30.4093 12.0971 30.3909 12.1019 30.3745 12.1108C29.6182 12.5213 28.8132 12.8345 27.9787 13.0432C27.9496 13.0521 27.9187 13.0529 27.8892 13.0455C27.8597 13.0381 27.8327 13.0228 27.8113 13.0013C27.7463 12.9237 27.6764 12.8506 27.6019 12.7821C27.2615 12.4765 26.8754 12.2264 26.4575 12.0409C25.8935 11.809 25.2843 11.7086 24.6758 11.7472C24.0855 11.7846 23.5091 11.9433 22.9825 12.2134C22.464 12.4982 22.0083 12.8851 21.6427 13.3509C21.2582 13.8303 20.9806 14.3867 20.8286 14.9826C20.7033 15.5494 20.6891 16.1352 20.7868 16.7075C20.7868 16.8054 20.7868 16.8194 20.703 16.8054C17.3862 16.3159 14.6647 15.1364 12.4411 12.605C12.3434 12.4931 12.2922 12.4931 12.2132 12.605C11.2455 14.0782 11.7154 16.4091 12.9249 17.5606C13.0877 17.7144 13.2552 17.8636 13.432 18.0035C12.8774 17.964 12.3364 17.8134 11.841 17.5606C11.748 17.5 11.6968 17.5326 11.6921 17.6445C11.6789 17.7996 11.6789 17.9556 11.6921 18.1107C11.7892 18.8541 12.0815 19.5583 12.5393 20.1513C12.997 20.7444 13.6037 21.2049 14.2972 21.4859C14.4663 21.5585 14.6425 21.6132 14.8229 21.6491C14.3095 21.7504 13.783 21.7661 13.2645 21.6957C13.1529 21.6724 13.111 21.733 13.1529 21.8402C13.8367 23.705 15.3207 24.2738 16.4092 24.5908C16.5581 24.6141 16.707 24.6141 16.8744 24.6514C16.8744 24.6514 16.8744 24.6514 16.8465 24.6793C16.5255 25.2667 15.2276 25.663 14.6322 25.8681C13.5453 26.2594 12.3865 26.4089 11.2362 26.3063C11.0548 26.2784 11.0129 26.283 10.9664 26.3063C10.9199 26.3297 10.9664 26.3809 11.0176 26.4276C11.2502 26.5814 11.4828 26.7166 11.7247 26.8471C12.4448 27.2408 13.2062 27.5535 13.9949 27.7795C18.0793 28.9077 22.6755 28.0779 25.7411 25.0243C28.1509 22.6281 28.9975 19.3228 28.9975 16.0128C28.9975 15.887 29.151 15.8124 29.2394 15.7471C29.8491 15.2711 30.3865 14.7089 30.8351 14.0782C30.9127 13.9841 30.9525 13.8644 30.9467 13.7425C30.9467 13.6726 30.9467 13.6866 30.8583 13.7239Z" fill="white"/>
</svg>
