<svg width="40" height="40" viewBox="0 0 40 40" fill="none" xmlns="http://www.w3.org/2000/svg">
<rect width="40" height="40" rx="20" fill="#EBECEF"/>
<path d="M13.042 22.6077L12.172 25.8565L8.99072 25.924C8.00985 24.1034 7.49818 22.067 7.50197 19.999C7.49884 17.9986 7.97823 16.027 8.89947 14.2515L11.732 14.7702L12.972 17.5852C12.7056 18.3625 12.57 19.1786 12.5707 20.0002C12.5707 20.9177 12.737 21.7965 13.042 22.6077Z" fill="#FBBB00"/>
<path d="M32.2816 17.6646C32.5921 19.3002 32.5734 20.9813 32.2266 22.6096C31.6258 25.4245 30.0715 27.9456 27.8266 29.7471L24.2591 29.5646L23.7541 26.4133C25.2267 25.55 26.3581 24.2072 26.9591 22.6096H20.2754V17.6646H32.2816Z" fill="#518EF8"/>
<path d="M27.8252 29.7474C25.6084 31.5327 22.8466 32.5042 20.0002 32.4999C17.7423 32.5008 15.5262 31.8899 13.5876 30.7322C11.649 29.5745 10.0603 27.9133 8.99023 25.9249L13.0402 22.6074C13.4204 23.6214 14.0175 24.54 14.7898 25.2991C15.5621 26.0582 16.4909 26.6393 17.5113 27.0019C18.5317 27.3644 19.619 27.4996 20.6971 27.398C21.7752 27.2964 22.818 26.9605 23.7527 26.4137L27.8252 29.7474Z" fill="#28B446"/>
<path d="M27.9804 10.3772L23.9304 13.6922C22.9817 13.1018 21.912 12.7328 20.801 12.6126C19.6901 12.4925 18.5663 12.6244 17.5133 12.9984C16.4603 13.3724 15.5051 13.979 14.7188 14.773C13.9325 15.5671 13.3353 16.5281 12.9716 17.5847L8.90039 14.251C9.95408 12.2165 11.5468 10.5108 13.5044 9.32035C15.462 8.1299 17.7092 7.50051 20.0004 7.50098C23.0341 7.50098 25.8154 8.57973 27.9804 10.3772Z" fill="#F14336"/>
</svg>
