<svg width="40" height="40" viewBox="0 0 40 40" fill="none" xmlns="http://www.w3.org/2000/svg">
<rect width="40" height="40" rx="20" fill="#EBECEF"/>
<path d="M29.0121 10L21.1992 15.9896L22.6521 12.4597L29.0121 10Z" fill="#E17726" stroke="#E17726" stroke-width="0.25" stroke-linecap="round" stroke-linejoin="round"/>
<path d="M10.9902 10L18.7336 16.0455L17.3503 12.4597L10.9902 10Z" fill="#E27625" stroke="#E27625" stroke-width="0.25" stroke-linecap="round" stroke-linejoin="round"/>
<path d="M26.1979 23.8882L24.1191 27.1785L28.5704 28.4483L29.8455 23.9601L26.1979 23.8882Z" fill="#E27625" stroke="#E27625" stroke-width="0.25" stroke-linecap="round" stroke-linejoin="round"/>
<path d="M10.1621 23.9601L11.4295 28.4483L15.873 27.1785L13.8019 23.8882L10.1621 23.9601Z" fill="#E27625" stroke="#E27625" stroke-width="0.25" stroke-linecap="round" stroke-linejoin="round"/>
<path d="M15.6329 18.3302L14.3965 20.2629L18.8014 20.4706L18.6545 15.5591L15.6329 18.3302Z" fill="#E27625" stroke="#E27625" stroke-width="0.25" stroke-linecap="round" stroke-linejoin="round"/>
<path d="M24.3676 18.33L21.2997 15.5029L21.1992 20.4703L25.6041 20.2627L24.3676 18.33Z" fill="#E27625" stroke="#E27625" stroke-width="0.25" stroke-linecap="round" stroke-linejoin="round"/>
<path d="M15.873 27.1794L18.5391 25.8457L16.244 23.9929L15.873 27.1794Z" fill="#E27625" stroke="#E27625" stroke-width="0.25" stroke-linecap="round" stroke-linejoin="round"/>
<path d="M21.4609 25.8457L24.1193 27.1794L23.7561 23.9929L21.4609 25.8457Z" fill="#E27625" stroke="#E27625" stroke-width="0.25" stroke-linecap="round" stroke-linejoin="round"/>
<path d="M24.1193 27.1759L21.4609 25.8423L21.6773 27.6312L21.6541 28.3899L24.1193 27.1759Z" fill="#D5BFB2" stroke="#D5BFB2" stroke-width="0.25" stroke-linecap="round" stroke-linejoin="round"/>
<path d="M15.873 27.1759L18.346 28.3899L18.3305 27.6312L18.5391 25.8423L15.873 27.1759Z" fill="#D5BFB2" stroke="#D5BFB2" stroke-width="0.25" stroke-linecap="round" stroke-linejoin="round"/>
<path d="M18.3918 22.8086L16.1816 22.1377L17.7427 21.395L18.3918 22.8086Z" fill="#233447" stroke="#233447" stroke-width="0.25" stroke-linecap="round" stroke-linejoin="round"/>
<path d="M21.6074 22.8086L22.2566 21.395L23.8253 22.1377L21.6074 22.8086Z" fill="#233447" stroke="#233447" stroke-width="0.25" stroke-linecap="round" stroke-linejoin="round"/>
<path d="M15.8718 27.1785L16.2582 23.8882L13.8008 23.9601L15.8718 27.1785Z" fill="#CC6228" stroke="#CC6228" stroke-width="0.25" stroke-linecap="round" stroke-linejoin="round"/>
<path d="M23.7402 23.8882L24.1189 27.1785L26.1977 23.9601L23.7402 23.8882Z" fill="#CC6228" stroke="#CC6228" stroke-width="0.25" stroke-linecap="round" stroke-linejoin="round"/>
<path d="M25.6041 20.2644L21.1992 20.472L21.6088 22.812L22.2579 21.3984L23.8267 22.1412L25.6041 20.2644Z" fill="#CC6228" stroke="#CC6228" stroke-width="0.25" stroke-linecap="round" stroke-linejoin="round"/>
<path d="M16.1816 22.1412L17.7426 21.3984L18.3918 22.812L18.8014 20.472L14.3965 20.2644L16.1816 22.1412Z" fill="#CC6228" stroke="#CC6228" stroke-width="0.25" stroke-linecap="round" stroke-linejoin="round"/>
<path d="M14.3965 20.2644L16.2435 23.994L16.1816 22.1412L14.3965 20.2644Z" fill="#E27525" stroke="#E27525" stroke-width="0.25" stroke-linecap="round" stroke-linejoin="round"/>
<path d="M23.8254 22.1412L23.7559 23.994L25.6028 20.2644L23.8254 22.1412Z" fill="#E27525" stroke="#E27525" stroke-width="0.25" stroke-linecap="round" stroke-linejoin="round"/>
<path d="M18.8022 20.4705L18.3926 22.8104L18.9103 25.5736L19.0263 21.9319L18.8022 20.4705Z" fill="#E27525" stroke="#E27525" stroke-width="0.25" stroke-linecap="round" stroke-linejoin="round"/>
<path d="M21.1969 20.4705L20.9805 21.924L21.0887 25.5736L21.6064 22.8104L21.1969 20.4705Z" fill="#E27525" stroke="#E27525" stroke-width="0.25" stroke-linecap="round" stroke-linejoin="round"/>
<path d="M21.6076 22.8071L21.0898 25.5703L21.4608 25.8418L23.756 23.989L23.8255 22.1362L21.6076 22.8071Z" fill="#F5841F" stroke="#F5841F" stroke-width="0.25" stroke-linecap="round" stroke-linejoin="round"/>
<path d="M16.1816 22.1362L16.2435 23.989L18.5386 25.8418L18.9096 25.5703L18.3918 22.8071L16.1816 22.1362Z" fill="#F5841F" stroke="#F5841F" stroke-width="0.25" stroke-linecap="round" stroke-linejoin="round"/>
<path d="M21.6535 28.3924L21.6766 27.6337L21.4757 27.458H18.5237L18.3305 27.6337L18.346 28.3924L15.873 27.1785L16.7386 27.9132L18.4928 29.167H21.4989L23.2608 27.9132L24.1186 27.1785L21.6535 28.3924Z" fill="#C0AC9D" stroke="#C0AC9D" stroke-width="0.25" stroke-linecap="round" stroke-linejoin="round"/>
<path d="M21.4598 25.8442L21.0889 25.5728H18.9096L18.5388 25.8442L18.3301 27.6332L18.5233 27.4575H21.4753L21.6763 27.6332L21.4598 25.8442Z" fill="#161616" stroke="#161616" stroke-width="0.25" stroke-linecap="round" stroke-linejoin="round"/>
<path d="M29.3433 16.3809L30.0002 13.0747L29.011 10L21.4609 15.79L24.3666 18.3295L28.4701 19.5674L29.3742 18.4733L28.9801 18.1778L29.606 17.5869L29.1269 17.2035L29.7529 16.7084L29.3433 16.3809Z" fill="#763E1A" stroke="#763E1A" stroke-width="0.25" stroke-linecap="round" stroke-linejoin="round"/>
<path d="M10 13.0747L10.6646 16.3809L10.2396 16.7084L10.8732 17.2035L10.3941 17.5869L11.0201 18.1778L10.626 18.4733L11.5301 19.5674L15.6336 18.3295L18.5393 15.79L10.9892 10L10 13.0747Z" fill="#763E1A" stroke="#763E1A" stroke-width="0.25" stroke-linecap="round" stroke-linejoin="round"/>
<path d="M28.4698 19.5669L24.3664 18.3291L25.6028 20.2618L23.7559 23.9912L26.1979 23.9593H29.8454L28.4698 19.5669Z" fill="#F5841F" stroke="#F5841F" stroke-width="0.25" stroke-linecap="round" stroke-linejoin="round"/>
<path d="M15.6334 18.3291L11.5299 19.5669L10.1621 23.9593H13.8019L16.2439 23.9912L14.397 20.2618L15.6334 18.3291Z" fill="#F5841F" stroke="#F5841F" stroke-width="0.25" stroke-linecap="round" stroke-linejoin="round"/>
<path d="M21.1961 20.4696L21.4589 15.7897L22.6489 12.4595H17.3477L18.5377 15.7897L18.8005 20.4696L18.9009 21.939L18.9087 25.5727H21.0879L21.0957 21.939L21.1961 20.4696Z" fill="#F5841F" stroke="#F5841F" stroke-width="0.25" stroke-linecap="round" stroke-linejoin="round"/>
</svg>
