<svg width="20" height="20" viewBox="0 0 20 20" fill="none" xmlns="http://www.w3.org/2000/svg">
<g clip-path="url(#clip0_10370_117494)">
<path d="M12.2531 9.16395L13.7219 6.67179L17.6809 12.838L17.6827 14.021L17.6698 5.87803C17.6651 5.77981 17.637 5.68414 17.5876 5.5991C17.5382 5.51407 17.4691 5.44215 17.3861 5.38944L10.2586 1.28981C10.1734 1.24935 10.0802 1.22857 9.98596 1.22901C9.89168 1.22945 9.79871 1.25111 9.71394 1.29237C9.69194 1.3034 9.67062 1.31573 9.65009 1.32929L9.62529 1.34497L2.70667 5.35409L2.67974 5.3662C2.64388 5.38281 2.60966 5.40276 2.57754 5.42578C2.44779 5.51844 2.35936 5.65812 2.3311 5.81504C2.32678 5.83884 2.32383 5.86287 2.32227 5.88701L2.3331 12.5227L6.02067 6.8072C6.4849 6.04936 7.49644 5.8052 8.43544 5.81846L9.53749 5.84696L3.04376 16.2609L3.8093 16.7016L10.3808 5.85737L13.2855 5.84682L6.7309 16.9643L9.46266 18.5364L9.78906 18.7241C9.92986 18.7801 10.0861 18.7831 10.229 18.7328L17.4568 14.5442L16.0743 15.345L12.2531 9.16395ZM12.8136 17.2351L10.0547 12.9051L11.7387 10.0475L15.3619 15.7582L12.8136 17.2351Z" fill="#2D374B"/>
<path d="M10.0547 12.9052L12.8135 17.235L15.362 15.7581L11.739 10.0476L10.0547 12.9052Z" fill="#28A0F0"/>
<path d="M17.6824 14.0211L17.6805 12.8381L13.7216 6.67188L12.252 9.16375L16.0738 15.3448L17.4563 14.544C17.5233 14.4898 17.578 14.422 17.617 14.3452C17.656 14.2683 17.6783 14.1841 17.6825 14.098L17.6824 14.0211Z" fill="#28A0F0"/>
<path d="M1.0918 15.1371L3.0432 16.2615L9.53692 5.84762L8.43487 5.81911C7.49587 5.80586 6.48433 6.04987 6.0201 6.80785L2.33253 12.5234L1.09251 14.4294V15.1377L1.0918 15.1371Z" fill="white"/>
<path d="M13.2846 5.84766L10.3801 5.8582L3.80859 16.7024L6.10548 18.025L6.73006 16.9655L13.2846 5.84766Z" fill="white"/>
<path d="M18.9064 5.83261C18.8931 5.53286 18.8071 5.24084 18.6558 4.98174C18.5045 4.72263 18.2924 4.5042 18.0379 4.3453L10.817 0.192789C10.5592 0.0661139 10.2758 0.000244141 9.9886 0.000244141C9.70138 0.000244141 9.41799 0.0661139 9.16021 0.192789C9.09992 0.223148 2.13798 4.26092 2.13798 4.26092C2.04125 4.30736 1.94873 4.36211 1.86147 4.42455C1.63541 4.5853 1.44871 4.79519 1.31541 5.03845C1.1821 5.28171 1.10565 5.55201 1.0918 5.82905V14.4291L2.33182 12.523L2.32227 5.88763C2.32807 5.79666 2.35398 5.70811 2.39812 5.62835C2.44226 5.54859 2.50354 5.47962 2.57754 5.4264C2.61033 5.40288 9.69114 1.30425 9.71366 1.29299C9.79843 1.25173 9.8914 1.23007 9.98567 1.22963C10.08 1.22918 10.1731 1.24996 10.2583 1.29042L17.3858 5.39034C17.4688 5.44305 17.5379 5.51497 17.5873 5.60001C17.6367 5.68504 17.6649 5.78071 17.6695 5.87894V14.099C17.6678 14.1842 17.6479 14.2681 17.6111 14.345C17.5744 14.4219 17.5216 14.4901 17.4564 14.545L16.0738 15.3457L15.3612 15.7591L12.8127 17.236L10.2282 18.7338C10.0853 18.7842 9.92899 18.7812 9.78821 18.7251L6.73048 16.9664L6.10591 18.0257L8.85391 19.6078C8.94485 19.6594 9.0258 19.7053 9.09222 19.7427C9.19513 19.7997 9.26526 19.8389 9.28992 19.8509C9.51982 19.9516 9.76839 20.0027 10.0194 20.0009C10.2496 20.0013 10.4778 19.9583 10.6921 19.8744L18.1988 15.5272C18.4106 15.3624 18.5837 15.1533 18.7059 14.9144C18.8281 14.6755 18.8964 14.4128 18.9061 14.1446L18.9064 5.83261Z" fill="#96BEDC"/>
</g>
<defs>
<clipPath id="clip0_10370_117494">
<rect width="20" height="20" fill="white"/>
</clipPath>
</defs>
</svg>
