<svg width="30" height="36" viewBox="0 0 30 36" fill="none" xmlns="http://www.w3.org/2000/svg">
<path d="M17.6729 0L29.4546 11.9995V31.7995C29.4546 34.1197 27.6089 36 25.331 36H4.12379C1.84591 36 0 34.1181 0 31.7995V4.20047C0.000175781 1.8803 1.84605 0 4.12397 0H17.6729Z" fill="#4ED1A2"/>
<path d="M29.4546 11.9995H22.0044C19.7281 11.9995 17.6729 9.90809 17.6729 7.5877V0L29.4546 11.9995Z" fill="white" fill-opacity="0.4"/>
<path d="M18.6833 19.2869C18.695 19.2255 18.695 19.1627 18.6833 19.1015V15.691C18.681 15.6237 18.6653 15.5575 18.6372 15.4964C18.6091 15.4353 18.569 15.3804 18.5195 15.3351C18.4679 15.2913 18.4071 15.2601 18.3416 15.2437C18.2762 15.2272 18.2078 15.2261 18.1419 15.2404L10.7756 17.3249C10.6764 17.3429 10.5867 17.3956 10.5224 17.4736C10.458 17.5517 10.4231 17.6501 10.4239 17.7514V25.8982C10.1176 25.7729 9.7896 25.7098 9.4589 25.7125C9.19743 25.7093 8.9367 25.7412 8.68359 25.8072C7.48297 26.1392 6.73165 27.0868 6.96539 27.964C7.14969 28.6501 7.86055 29.0766 8.75359 29.0766C9.01489 29.068 9.27493 29.0364 9.53074 28.9821C10.6118 28.6742 11.3171 27.8917 11.2931 27.1109C11.3146 27.0581 11.3229 27.0008 11.3171 26.944V21.6383L17.7866 19.8154V23.8415C17.4802 23.7165 17.1523 23.6534 16.8216 23.656C16.5595 23.6526 16.2981 23.6845 16.0444 23.7507C14.8455 24.0826 14.0923 25.0301 14.3281 25.9055C14.5122 26.5936 15.2212 27.0183 16.1161 27.0183C16.3776 27.0216 16.6384 26.9897 16.8915 26.9236C17.9504 26.638 18.6556 25.8574 18.6556 25.0691C18.6772 25.017 18.6854 24.9603 18.6797 24.9042L18.6833 19.287V19.2869ZM11.3171 20.7075V19.1219L17.7902 17.3064V18.8938L11.3171 20.7073V20.7075Z" fill="white"/>
</svg>
