<svg width="24" height="24" viewBox="0 0 24 24" fill="none" xmlns="http://www.w3.org/2000/svg">
<circle cx="12" cy="12" r="12" fill="#F3BA2F"/>
<path d="M8.6772 10.6346L12.0002 7.31171L15.3249 10.6363L17.2585 8.70278L12.0002 3.44434L6.74365 8.70102L8.6772 10.6346Z" fill="white"/>
<path d="M7.31193 11.9999L5.37842 10.0664L3.44481 12L5.37832 13.9335L7.31193 11.9999Z" fill="white"/>
<path d="M8.67711 13.3649L12.0001 16.6878L15.3247 13.3633L17.2593 15.2958L17.2584 15.2968L12.0001 20.5551L6.74343 15.2986L6.74072 15.2959L8.67711 13.3649Z" fill="white"/>
<path d="M18.6221 13.9336L20.5557 12L18.6222 10.0665L16.6885 12.0001L18.6221 13.9336Z" fill="white"/>
<path d="M13.9614 11.9992H13.9622L12.0001 10.0371L10.5501 11.4871H10.55L10.3835 11.6537L10.0398 11.9974L10.0371 12.0001L10.0398 12.003L12.0001 13.9633L13.9622 12.0012L13.9631 12.0001L13.9614 11.9992Z" fill="white"/>
</svg>
