<svg width="12" height="12" viewBox="0 0 12 12" fill="none" xmlns="http://www.w3.org/2000/svg">
<path d="M1 8V9.5C1 9.89782 1.15804 10.2794 1.43934 10.5607C1.72064 10.842 2.10218 11 2.5 11H4C4.13261 11 4.25978 10.9473 4.35355 10.8536C4.44732 10.7598 4.5 10.6326 4.5 10.5C4.5 10.3674 4.44732 10.2402 4.35355 10.1464C4.25978 10.0527 4.13261 10 4 10H2.5C2.36739 10 2.24021 9.94732 2.14645 9.85355C2.05268 9.75978 2 9.63261 2 9.5V8C2 7.86739 1.94732 7.74021 1.85355 7.64645C1.75979 7.55268 1.63261 7.5 1.5 7.5C1.36739 7.5 1.24021 7.55268 1.14645 7.64645C1.05268 7.74021 1 7.86739 1 8ZM8 11H9.5C9.89782 11 10.2794 10.842 10.5607 10.5607C10.842 10.2794 11 9.89782 11 9.5V8C11 7.86739 10.9473 7.74021 10.8536 7.64645C10.7598 7.55268 10.6326 7.5 10.5 7.5C10.3674 7.5 10.2402 7.55268 10.1464 7.64645C10.0527 7.74021 10 7.86739 10 8V9.5C10 9.63261 9.94732 9.75978 9.85355 9.85355C9.75978 9.94732 9.63261 10 9.5 10H8C7.86739 10 7.74021 10.0527 7.64645 10.1464C7.55268 10.2402 7.5 10.3674 7.5 10.5C7.5 10.6326 7.55268 10.7598 7.64645 10.8536C7.74021 10.9473 7.86739 11 8 11ZM11 4V2.5C11 2.10218 10.842 1.72064 10.5607 1.43934C10.2794 1.15804 9.89782 1 9.5 1H8C7.86739 1 7.74021 1.05268 7.64645 1.14645C7.55268 1.24021 7.5 1.36739 7.5 1.5C7.5 1.63261 7.55268 1.75979 7.64645 1.85355C7.74021 1.94732 7.86739 2 8 2H9.5C9.63261 2 9.75978 2.05268 9.85355 2.14645C9.94732 2.24021 10 2.36739 10 2.5V4C10 4.13261 10.0527 4.25978 10.1464 4.35355C10.2402 4.44732 10.3674 4.5 10.5 4.5C10.6326 4.5 10.7598 4.44732 10.8536 4.35355C10.9473 4.25978 11 4.13261 11 4ZM4 1H2.5C2.10218 1 1.72064 1.15804 1.43934 1.43934C1.15804 1.72064 1 2.10218 1 2.5V4C1 4.13261 1.05268 4.25978 1.14645 4.35355C1.24021 4.44732 1.36739 4.5 1.5 4.5C1.63261 4.5 1.75979 4.44732 1.85355 4.35355C1.94732 4.25978 2 4.13261 2 4V2.5C2 2.36739 2.05268 2.24021 2.14645 2.14645C2.24021 2.05268 2.36739 2 2.5 2H4C4.13261 2 4.25978 1.94732 4.35355 1.85355C4.44732 1.75979 4.5 1.63261 4.5 1.5C4.5 1.36739 4.44732 1.24021 4.35355 1.14645C4.25978 1.05268 4.13261 1 4 1Z" fill="white"/>
</svg>
