<svg width="30" height="36" viewBox="0 0 30 36" fill="none" xmlns="http://www.w3.org/2000/svg">
<path d="M17.6729 0L29.4546 11.9995V31.7995C29.4546 34.1197 27.6089 36 25.331 36H4.12379C1.84591 36 0 34.1181 0 31.7995V4.20047C0.000175781 1.8803 1.84605 0 4.12397 0H17.6729Z" fill="#6A6FDF"/>
<path d="M29.4546 11.9995H22.0044C19.7281 11.9995 17.6729 9.90809 17.6729 7.5877V0L29.4546 11.9995Z" fill="white" fill-opacity="0.4"/>
<path d="M14.2373 22.8387C14.2373 25.6417 16.5064 27.9138 19.3052 27.9138C22.1042 27.9138 24.3731 25.6417 24.3731 22.8388C24.3731 20.036 22.1042 17.7637 19.3052 17.7637C16.5062 17.7637 14.2373 20.036 14.2373 22.8387V22.8387Z" fill="#787DE4"/>
<path d="M9.46582 21.0477C9.46491 23.1016 10.6995 24.9537 12.5942 25.7404C13.5206 26.1249 14.5404 26.2258 15.5242 26.0301C16.5081 25.8345 17.4116 25.3511 18.1204 24.6413C18.8299 23.9307 19.313 23.0259 19.5088 22.0411C19.7046 21.0562 19.6043 20.0354 19.2205 19.1075C18.4359 17.21 16.5871 15.9727 14.5361 15.9727C13.8701 15.9724 13.2107 16.1036 12.5956 16.3585C11.9804 16.6134 11.4215 16.9872 10.951 17.4584C9.99985 18.4107 9.46567 19.7017 9.46582 21.0477Z" fill="#9195E2"/>
<path d="M4.70365 18.9589C4.70365 21.7617 6.97253 24.034 9.77153 24.034C12.5705 24.034 14.8394 21.7617 14.8394 18.9589C14.8394 16.1559 12.5705 13.8838 9.77153 13.8838C9.10573 13.8835 8.44642 14.0146 7.83137 14.2696C7.21631 14.5245 6.65759 14.8983 6.18721 15.3695C5.23647 16.3219 4.70284 17.6129 4.70361 18.9587L4.70365 18.9589Z" fill="white"/>
</svg>
