<svg width="24" height="24" viewBox="0 0 24 24" fill="none" xmlns="http://www.w3.org/2000/svg">
<path d="M20.625 5.25H3.375C3.07663 5.25 2.79048 5.13147 2.5795 4.9205C2.36853 4.70952 2.25 4.42337 2.25 4.125C2.25 3.82663 2.36853 3.54048 2.5795 3.3295C2.79048 3.11853 3.07663 3 3.375 3H9C9 2.60218 9.15804 2.22064 9.43934 1.93934C9.72064 1.65804 10.1022 1.5 10.5 1.5H13.5C13.8978 1.5 14.2794 1.65804 14.5607 1.93934C14.842 2.22064 15 2.60218 15 3H20.625C20.9234 3 21.2095 3.11853 21.4205 3.3295C21.6315 3.54048 21.75 3.82663 21.75 4.125C21.75 4.42337 21.6315 4.70952 21.4205 4.9205C21.2095 5.13147 20.9234 5.25 20.625 5.25ZM19.5 19.5C19.5 20.2956 19.1839 21.0587 18.6213 21.6213C18.0587 22.1839 17.2956 22.5 16.5 22.5H7.5C6.70435 22.5 5.94129 22.1839 5.37868 21.6213C4.81607 21.0587 4.5 20.2956 4.5 19.5V6.75H19.5V19.5ZM10.5 10.875C10.5 10.5766 10.3815 10.2905 10.1705 10.0795C9.95952 9.86853 9.67337 9.75 9.375 9.75C9.07663 9.75 8.79048 9.86853 8.5795 10.0795C8.36853 10.2905 8.25 10.5766 8.25 10.875V17.625C8.25 17.9234 8.36853 18.2095 8.5795 18.4205C8.79048 18.6315 9.07663 18.75 9.375 18.75C9.67337 18.75 9.95952 18.6315 10.1705 18.4205C10.3815 18.2095 10.5 17.9234 10.5 17.625V10.875ZM15.75 10.875C15.75 10.5766 15.6315 10.2905 15.4205 10.0795C15.2095 9.86853 14.9234 9.75 14.625 9.75C14.3266 9.75 14.0405 9.86853 13.8295 10.0795C13.6185 10.2905 13.5 10.5766 13.5 10.875V17.625C13.5 17.9234 13.6185 18.2095 13.8295 18.4205C14.0405 18.6315 14.3266 18.75 14.625 18.75C14.9234 18.75 15.2095 18.6315 15.4205 18.4205C15.6315 18.2095 15.75 17.9234 15.75 17.625V10.875Z" fill="white"/>
</svg>
