<svg width="30" height="36" viewBox="0 0 30 36" fill="none" xmlns="http://www.w3.org/2000/svg">
<path d="M17.6729 0L29.4546 11.9995V31.7995C29.4546 34.1197 27.6089 36 25.331 36H4.12379C1.84591 36 0 34.1181 0 31.7995V4.20047C0.000175781 1.8803 1.84605 0 4.12397 0H17.6729Z" fill="#6A95DF"/>
<path d="M29.4546 11.9995H22.0044C19.7281 11.9995 17.6729 9.90809 17.6729 7.5877V0L29.4546 11.9995Z" fill="white" fill-opacity="0.4"/>
<path d="M11.5637 25.6152V27.1157H5.67285V25.6152H11.5637ZM17.4548 22.6157V24.1162H5.67285V22.6157H17.4548ZM17.4548 19.6162V21.1152H5.67285V19.6162H17.4548ZM17.4548 16.6152V18.1157H5.67285V16.6152H17.4548Z" fill="white"/>
</svg>
