<svg width="20" height="20" viewBox="0 0 20 20" fill="none" xmlns="http://www.w3.org/2000/svg">
<circle cx="10" cy="10" r="7.375" stroke="#FF0000" stroke-width="1.25"/>
<path d="M9.50126 6.98621C9.50126 7.78069 9.52332 8.56414 9.56746 9.34759C9.6116 10.131 9.65574 11.6166 9.69988 11.8152C9.74401 11.8041 9.79919 11.7931 9.86539 11.7821C9.9316 11.7821 9.99781 11.771 10.075 11.771C10.1413 11.771 10.1964 11.7821 10.2626 11.7821C10.3288 11.7931 10.384 11.8041 10.4502 11.8152C10.4944 11.5945 10.5385 10.0869 10.5826 9.29241C10.6268 8.50897 10.6488 7.73655 10.6488 6.97517V5H9.50126V6.98621ZM10.8475 13.2055C10.8475 12.9407 10.7813 12.7421 10.6599 12.6097C10.5275 12.4883 10.3288 12.4221 10.064 12.4221C9.77712 12.4221 9.5785 12.4883 9.45712 12.6097C9.3247 12.7421 9.26953 12.9407 9.26953 13.2055C9.26953 13.4924 9.3247 13.7021 9.44608 13.8234C9.55643 13.9448 9.76608 14 10.064 14C10.3288 14 10.5275 13.9448 10.6599 13.8124C10.7813 13.68 10.8475 13.4814 10.8475 13.2055Z" fill="#FF0000"/>
</svg>
