<svg width="20" height="20" viewBox="0 0 20 20" fill="none" xmlns="http://www.w3.org/2000/svg">
<circle cx="10" cy="10" r="7" stroke="#FF0000"/>
<path d="M9.53365 7.17457C9.53365 7.9194 9.55434 8.65388 9.59572 9.38836C9.6371 10.1228 9.67848 11.5155 9.71985 11.7017C9.76123 11.6914 9.81296 11.681 9.87503 11.6707C9.9371 11.6707 9.99916 11.6603 10.0716 11.6603C10.1336 11.6603 10.1854 11.6707 10.2474 11.6707C10.3095 11.681 10.3612 11.6914 10.4233 11.7017C10.4647 11.4948 10.5061 10.0815 10.5474 9.33664C10.5888 8.60215 10.6095 7.87802 10.6095 7.16422V5.3125H9.53365V7.17457ZM10.7957 13.0052C10.7957 12.7569 10.7336 12.5707 10.6199 12.4466C10.4957 12.3328 10.3095 12.2707 10.0612 12.2707C9.79227 12.2707 9.60606 12.3328 9.49227 12.4466C9.36813 12.5707 9.31641 12.7569 9.31641 13.0052C9.31641 13.2741 9.36813 13.4707 9.48192 13.5845C9.58537 13.6983 9.78192 13.75 10.0612 13.75C10.3095 13.75 10.4957 13.6983 10.6199 13.5741C10.7336 13.45 10.7957 13.2638 10.7957 13.0052Z" fill="#FF0000"/>
</svg>
