<svg width="24" height="24" viewBox="0 0 24 24" fill="none" xmlns="http://www.w3.org/2000/svg">
<g clip-path="url(#clip0_6687_115414)">
<path d="M12 24C18.6274 24 24 18.6274 24 12C24 5.37256 18.6274 0 12 0C5.37257 0 0 5.37256 0 12C0 18.6274 5.37257 24 12 24Z" fill="#627EEA"/>
<path d="M12.0234 3V9.65251L17.6462 12.165L12.0234 3Z" fill="white" fill-opacity="0.602"/>
<path d="M12.0259 3L6.40234 12.165L12.0259 9.65251V3Z" fill="white"/>
<path d="M12.0234 16.4749V20.9952L17.65 13.2109L12.0234 16.4749Z" fill="white" fill-opacity="0.602"/>
<path d="M12.0259 20.9952V16.4742L6.40234 13.2109L12.0259 20.9952Z" fill="white"/>
<path d="M12.0234 15.4281L17.6462 12.1633L12.0234 9.65234V15.4281Z" fill="white" fill-opacity="0.2"/>
<path d="M6.40234 12.1633L12.0259 15.4281V9.65234L6.40234 12.1633Z" fill="white" fill-opacity="0.602"/>
</g>
<defs>
<clipPath id="clip0_6687_115414">
<rect width="24" height="24" fill="white"/>
</clipPath>
</defs>
</svg>
