<svg width="30" height="36" viewBox="0 0 30 36" fill="none" xmlns="http://www.w3.org/2000/svg">
<path d="M17.6729 0L29.4546 11.9995V31.7995C29.4546 34.1197 27.6089 36 25.331 36H4.12379C1.84591 36 0 34.1181 0 31.7995V4.20047C0.000175781 1.8803 1.84605 0 4.12397 0H17.6729Z" fill="#DF6A6A"/>
<path d="M29.4546 11.9995H22.0044C19.7281 11.9995 17.6729 9.90809 17.6729 7.5877V0L29.4546 11.9995Z" fill="white" fill-opacity="0.4"/>
<path d="M13.7962 15.9229C13.42 15.928 13.0611 16.0815 12.7975 16.35C12.534 16.6185 12.3871 16.9802 12.3889 17.3564C12.3889 18.3332 12.9223 19.5475 13.4851 20.6882C13.0434 22.0886 12.5459 23.5876 11.9094 24.8543C10.6053 25.3745 9.44161 25.7624 8.74323 26.3368C8.60414 26.4742 8.49395 26.6381 8.41914 26.8188C8.34433 26.9995 8.30643 27.1933 8.30765 27.3889C8.30765 28.1744 8.94267 28.8224 9.71523 28.8224C9.90783 28.825 10.0989 28.7873 10.2761 28.7118C10.4533 28.6363 10.6127 28.5246 10.7443 28.3839C11.2582 27.7571 11.8653 26.6215 12.4069 25.584C13.6522 25.0849 14.9595 24.576 16.2195 24.2718C17.1393 25.026 18.4713 25.5251 19.5659 25.5251C20.3383 25.5251 20.9733 24.8788 20.9733 24.0916C20.9746 23.7157 20.8275 23.3544 20.564 23.0864C20.3005 22.8183 19.9418 22.665 19.5659 22.6599C18.6873 22.6599 17.4109 22.9789 16.4357 23.3144C15.614 22.5277 14.9245 21.6139 14.3934 20.6079C14.7682 19.4361 15.2034 18.2645 15.2034 17.3564C15.2052 16.9802 15.0583 16.6185 14.7948 16.35C14.5313 16.0815 14.1723 15.928 13.7962 15.9229ZM13.7962 16.782C14.1119 16.782 14.359 17.034 14.359 17.3548C14.359 17.785 14.1333 18.5788 13.8714 19.4296C13.5213 18.6016 13.2333 17.8064 13.2333 17.3564C13.2333 17.0342 13.4803 16.7836 13.7962 16.7836V16.782ZM14.0383 21.6879C14.4572 22.3674 14.9465 23.0009 15.4981 23.5779C14.6634 23.8101 13.8486 24.108 13.0434 24.4189C13.4329 23.5271 13.7436 22.5992 14.0383 21.6863V21.6879ZM19.5661 23.5205C19.8818 23.5205 20.1289 23.7709 20.1289 24.0932C20.1289 24.414 19.8818 24.666 19.5659 24.666C18.931 24.666 18.031 24.3748 17.3094 23.9672C18.1374 23.7284 19.0392 23.519 19.5659 23.519V23.5205H19.5661ZM11.1663 26.0864C10.7703 26.8064 10.3776 27.4772 10.1025 27.8144C10.0511 27.8637 9.99027 27.9022 9.92366 27.9275C9.85704 27.9528 9.78601 27.9644 9.71481 27.9616C9.63999 27.9618 9.56588 27.9471 9.49684 27.9183C9.4278 27.8895 9.36521 27.8471 9.31277 27.7938C9.26033 27.7404 9.21909 27.6771 9.19147 27.6075C9.16386 27.538 9.15042 27.4637 9.15196 27.3889C9.15307 27.2424 9.20578 27.101 9.30081 26.9896C9.63128 26.7295 10.3497 26.4169 11.1663 26.0864Z" fill="white"/>
</svg>
