<svg width="30" height="36" viewBox="0 0 30 36" fill="none" xmlns="http://www.w3.org/2000/svg">
<path d="M17.6729 0L29.4546 11.9995V31.7995C29.4546 34.1197 27.6089 36 25.331 36H4.12379C1.84591 36 0 34.1181 0 31.7995V4.20047C0.000175781 1.8803 1.84605 0 4.12397 0H17.6729Z" fill="#ECAE75"/>
<path d="M29.4546 11.9995H22.0044C19.7281 11.9995 17.6729 9.90809 17.6729 7.5877V0L29.4546 11.9995Z" fill="white" fill-opacity="0.4"/>
<path d="M19.6147 19.1691C19.8563 19.3999 19.9837 19.732 19.9837 20.2241C19.9837 20.7167 19.8563 21.0488 19.6147 21.2794C19.3569 21.5261 18.9203 21.7093 18.2755 21.8041H8.70043C8.10106 21.8041 7.61523 22.2583 7.61523 22.8188V27.3696C7.61523 27.7322 7.822 28.0672 8.15778 28.2485C8.32365 28.3377 8.5104 28.3845 8.7003 28.3845C8.89019 28.3845 9.07694 28.3377 9.24281 28.2485C9.57859 28.0672 9.78549 27.7322 9.78536 27.3696V23.833H18.3565C18.4075 23.833 18.4589 23.8299 18.5097 23.823C20.8275 23.5136 22.1537 22.2448 22.1537 20.2241C22.1537 18.2039 20.8276 16.9351 18.5097 16.6256C18.4589 16.6188 18.4078 16.6153 18.3565 16.6152H8.7003C8.10093 16.6152 7.61523 17.0695 7.61523 17.6299C7.61523 18.1902 8.10106 18.6445 8.7003 18.6445H18.2755C18.9203 18.7393 19.3569 18.9224 19.6147 19.1687V19.1691Z" fill="white"/>
</svg>
