<svg width="20" height="20" viewBox="0 0 20 20" fill="none" xmlns="http://www.w3.org/2000/svg">
  <path d="M17.2878 9.55853L12.2726 4.54341C12.0286 4.29933 11.6328 4.29933 11.3888 4.54341C11.1447 4.7875 11.1447 5.18322 11.3888 5.4273L15.3595 9.398H3.08684C2.7541 9.398 2.48438 9.66775 2.48438 10.0005C2.48438 10.3332 2.75412 10.6029 3.08684 10.6029H15.3595L11.3888 14.5736C11.1447 14.8177 11.1447 15.2135 11.3888 15.4575C11.5108 15.5796 11.6708 15.6406 11.8307 15.6406C11.9906 15.6406 12.1506 15.5796 12.2726 15.4575L17.2878 10.4424C17.3458 10.3844 17.3918 10.3155 17.4233 10.2396C17.4547 10.1638 17.4708 10.0825 17.4708 10.0005C17.4708 9.91839 17.4547 9.83712 17.4233 9.76129C17.3918 9.68546 17.3458 9.61656 17.2878 9.55853Z" fill="#2663FF"/>
  </svg>
  