<svg width="30" height="36" viewBox="0 0 30 36" fill="none" xmlns="http://www.w3.org/2000/svg">
<path d="M17.6729 0L29.4546 11.9995V31.7995C29.4546 34.1197 27.6089 36 25.331 36H4.12379C1.84591 36 0 34.1181 0 31.7995V4.20047C0.000175781 1.8803 1.84605 0 4.12397 0H17.6729Z" fill="#8F6ADF"/>
<path d="M29.4546 11.9995H22.0044C19.7281 11.9995 17.6729 9.90809 17.6729 7.5877V0L29.4546 11.9995Z" fill="white" fill-opacity="0.4"/>
<path opacity="0.99" d="M17.439 21.3222V23.6574L21.687 26.2378V18.748L17.439 21.3222Z" fill="white"/>
<path opacity="0.99" d="M17.9607 18H9.09151C8.88217 18.0017 8.68207 18.0864 8.53511 18.2355C8.38815 18.3846 8.30634 18.5859 8.30763 18.7952V26.1967C8.30763 26.6319 8.65628 26.9935 9.08989 26.9935H17.9671C18.1765 26.9914 18.3764 26.9063 18.5231 26.7569C18.6697 26.6075 18.7511 26.406 18.7494 26.1967V18.7888C18.7477 18.5801 18.6641 18.3805 18.5165 18.2329C18.369 18.0853 18.1693 18.0017 17.9607 18ZM11.6931 25.2851V19.7019L16.1607 22.4933L11.6931 25.2851Z" fill="white"/>
</svg>
