<svg width="295" height="239" viewBox="0 0 295 239" fill="none" xmlns="http://www.w3.org/2000/svg">
<path d="M259.187 71.7655C258.544 71.8419 257.892 71.7813 257.275 71.5875C256.657 71.3937 256.087 71.0712 255.603 70.6412C255.118 70.2112 254.731 69.6835 254.465 69.0928C254.2 68.5021 254.063 67.8619 254.063 67.2144C254.063 66.5668 254.2 65.9266 254.465 65.3359C254.731 64.7452 255.118 64.2175 255.603 63.7875C256.087 63.3575 256.657 63.035 257.275 62.8412C257.892 62.6474 258.544 62.5868 259.187 62.6632H280.829C281.143 62.6364 281.434 62.493 281.647 62.2613C281.86 62.0296 281.978 61.7265 281.978 61.412C281.978 61.0975 281.86 60.7945 281.647 60.5628C281.434 60.3311 281.143 60.1877 280.829 60.1608H259.187C258.24 60.1267 257.295 60.2838 256.409 60.6229C255.524 60.962 254.716 61.4761 254.033 62.1344C253.35 62.7928 252.808 63.5819 252.437 64.4547C252.066 65.3275 251.875 66.2661 251.875 67.2144C251.875 68.1627 252.066 69.1012 252.437 69.974C252.808 70.8468 253.35 71.636 254.033 72.2943C254.716 72.9527 255.524 73.4667 256.409 73.8058C257.295 74.1449 258.24 74.302 259.187 74.2679H285.834V71.7655H259.187Z" fill="#E8E8E8"/>
<path d="M253.577 81.5762C250.801 81.5762 248.139 82.6791 246.175 84.6422C244.212 86.6053 243.109 89.2679 243.109 92.0442C243.109 94.8204 244.212 97.483 246.175 99.4462C248.139 101.409 250.801 102.512 253.577 102.512H279.243C279.557 102.485 279.849 102.342 280.061 102.11C280.274 101.879 280.392 101.575 280.392 101.261C280.392 100.946 280.274 100.643 280.061 100.412C279.849 100.18 279.557 100.037 279.243 100.01H253.577C252.509 100.046 251.445 99.8669 250.447 99.4832C249.45 99.0994 248.54 98.5188 247.771 97.776C247.003 97.0332 246.391 96.1433 245.974 95.1594C245.557 94.1754 245.342 93.1175 245.342 92.0488C245.342 90.98 245.557 89.9221 245.974 88.9382C246.391 87.9542 247.003 87.0643 247.771 86.3215C248.54 85.5787 249.45 84.9981 250.447 84.6144C251.445 84.2306 252.509 84.0515 253.577 84.0878H284.248V81.5762H253.577Z" fill="#E8E8E8"/>
<path d="M277.352 11L277.354 11C278.094 10.9989 278.828 11.1481 279.513 11.4395L279.904 10.52L279.513 11.4395C280.198 11.7309 280.822 12.1593 281.348 12.7012C281.874 13.2432 282.292 13.888 282.576 14.599C282.86 15.3101 283.004 16.0728 283 16.8427V16.8481L283 162.152L283 162.159C283.005 162.929 282.861 163.692 282.578 164.403C282.294 165.114 281.877 165.759 281.35 166.302C280.824 166.844 280.2 167.272 279.515 167.563C278.829 167.854 278.095 168.002 277.355 168H277.352H67.6749C66.1782 168 64.7375 167.39 63.6711 166.296C62.604 165.201 62 163.711 62 162.152V16.8481C62 15.2889 62.6039 13.7986 63.6711 12.7038C64.7375 11.6098 66.1782 11 67.6749 11L277.352 11Z" fill="white" stroke="#E8E8E8" stroke-width="2"/>
<path d="M236.94 17.6224V93.1158H86.7141V17.6224C86.7141 12.9304 84.8521 8.43012 81.5371 5.10963C80.2447 3.81513 78.7727 2.74118 77.1795 1.91211H221.23C223.293 1.91211 225.336 2.31847 227.242 3.10799C229.148 3.89751 230.88 5.05472 232.339 6.51355C233.797 7.97239 234.955 9.70428 235.744 11.6103C236.534 13.5164 236.94 15.5593 236.94 17.6224Z" fill="white" stroke="#E8E8E8" stroke-width="2"/>
<path d="M217.978 25.4713L217.978 25.4698C218.223 24.1688 218.915 22.9942 219.934 22.1489C220.953 21.3037 222.235 20.8407 223.558 20.8398H277.383C278.89 20.8398 280.336 21.4385 281.401 22.5041C282.467 23.5698 283.066 25.0151 283.066 26.5221V168.308C283.066 169.815 282.467 171.26 281.401 172.326C280.336 173.391 278.89 173.99 277.383 173.99H66.3093C64.8022 173.99 63.3569 173.391 62.2913 172.326C61.2256 171.26 60.627 169.815 60.627 168.308V44.1589C60.6292 42.6524 61.2287 41.2082 62.2939 40.1429C63.3594 39.0775 64.8039 38.478 66.3106 38.4759H209.149H209.149C210.938 38.4754 212.67 37.851 214.047 36.7102C215.425 35.5694 216.361 33.9838 216.694 32.2269L217.978 25.4713Z" fill="white" stroke="#E8E8E8" stroke-width="2"/>
<path fill-rule="evenodd" clip-rule="evenodd" d="M251.062 57.5208C252.368 57.0137 253.762 56.7737 255.163 56.8151H285.833V59.3175H255.163C254.094 59.2813 253.03 59.4604 252.032 59.8441C251.035 60.2279 250.125 60.8085 249.356 61.5513C248.588 62.2941 247.977 63.184 247.559 64.1679C247.142 65.1519 246.927 66.2097 246.927 67.2785C246.927 68.3473 247.142 69.4052 247.559 70.3891C247.977 71.3731 248.588 72.263 249.356 73.0058C250.125 73.7486 251.035 74.3292 252.032 74.7129C253.03 75.0967 254.094 75.2758 255.163 75.2395H280.828C281.142 75.2664 281.434 75.4098 281.646 75.6415C281.859 75.8732 281.977 76.1762 281.977 76.4907C281.977 76.8052 281.859 77.1083 281.646 77.34C281.434 77.5717 281.142 77.7151 280.828 77.742H255.163C253.762 77.7834 252.368 77.5434 251.062 77.0362C249.757 76.529 248.566 75.7649 247.561 74.7892C246.556 73.8135 245.757 72.646 245.212 71.3559C244.666 70.0658 244.385 68.6793 244.385 67.2785C244.385 65.8778 244.666 64.4913 245.212 63.2012C245.757 61.911 246.556 60.7435 247.561 59.7678C248.566 58.7921 249.757 58.028 251.062 57.5208ZM285.834 59.3173V56.8516C287.025 56.7742 288.219 56.9421 289.343 57.3447C290.466 57.7473 291.496 58.3762 292.366 59.1924C293.237 60.0086 293.932 60.9948 294.406 62.0899C294.881 63.1851 295.126 64.366 295.126 65.5596C295.126 66.7532 294.881 67.9341 294.406 69.0293C293.932 70.1245 293.237 71.1107 292.366 71.9269C291.496 72.7431 290.466 73.3719 289.343 73.7745C288.219 74.1772 287.025 74.345 285.834 74.2677V71.7653C287.485 71.7653 289.068 71.1095 290.235 69.9423C291.402 68.7751 292.058 67.192 292.058 65.5413C292.058 63.8906 291.402 62.3075 290.235 61.1403C289.068 59.9731 287.485 59.3173 285.834 59.3173Z" fill="#E8E8E8"/>
<path fill-rule="evenodd" clip-rule="evenodd" d="M284.245 84.0878V81.5762C286.512 81.6496 288.661 82.6017 290.239 84.231C291.816 85.8604 292.698 88.0393 292.698 90.3071C292.698 92.575 291.816 94.7539 290.239 96.3833C288.661 98.0124 286.512 98.9644 284.246 99.0381V99.0401H257.6C256.652 99.0742 255.707 98.9171 254.821 98.578C253.936 98.2389 253.128 97.7248 252.445 97.0665C251.763 96.4081 251.22 95.619 250.849 94.7462C250.478 93.8734 250.287 92.9348 250.287 91.9865C250.287 91.0382 250.478 90.0997 250.849 89.2269C251.22 88.3541 251.763 87.5649 252.445 86.9066C253.128 86.2482 253.936 85.7342 254.821 85.3951C255.707 85.056 256.652 84.8988 257.6 84.933H279.241C279.555 84.9599 279.847 85.1033 280.059 85.335C280.272 85.5667 280.39 85.8697 280.39 86.1842C280.39 86.4987 280.272 86.8018 280.059 87.0335C279.847 87.2651 279.555 87.4086 279.241 87.4354H257.6C256.956 87.3589 256.305 87.4196 255.687 87.6134C255.069 87.8072 254.499 88.1297 254.015 88.5597C253.531 88.9897 253.143 89.5174 252.878 90.1081C252.612 90.6988 252.475 91.339 252.475 91.9865C252.475 92.6341 252.612 93.2743 252.878 93.865C253.143 94.4557 253.531 94.9834 254.015 95.4134C254.499 95.8434 255.069 96.1659 255.687 96.3597C256.305 96.5535 256.956 96.6141 257.6 96.5376H284.245V96.5357C285.896 96.5357 287.479 95.8799 288.646 94.7127C289.814 93.5455 290.469 91.9624 290.469 90.3117C290.469 88.661 289.814 87.0779 288.646 85.9107C287.479 84.7435 285.896 84.0878 284.245 84.0878Z" fill="#E8E8E8"/>
<path d="M187.836 237.633H43.7857C45.376 236.805 46.8457 235.734 48.1365 234.442C51.4557 231.121 53.3203 226.618 53.3203 221.922V17.6224C53.3203 15.5593 53.7267 13.5164 54.5162 11.6103C55.3057 9.70427 56.4629 7.97238 57.9217 6.51355C59.3805 5.05472 61.1124 3.8975 63.0185 3.10799C64.9246 2.31847 66.9675 1.91211 69.0306 1.91211H213.081C211.49 2.73969 210.021 3.81129 208.73 5.10277C205.411 8.42381 203.546 12.927 203.546 17.6224V221.922C203.546 226.089 201.891 230.085 198.945 233.031C195.998 235.978 192.003 237.633 187.836 237.633Z" fill="white" stroke="#E8E8E8" stroke-width="2"/>
<path d="M82.8418 27.9609H173.019C175.781 27.9609 178.019 30.1995 178.019 32.9609V73.4567C178.019 76.2182 175.781 78.4567 173.019 78.4567H82.8418C80.0804 78.4567 77.8418 76.2182 77.8418 73.4567V32.9609C77.8418 30.1995 80.0804 27.9609 82.8418 27.9609Z" fill="white" stroke="#E8E8E8" stroke-width="2"/>
<path d="M92.0571 64.7821C91.1023 64.7821 90.1624 64.7201 89.2413 64.5999L89.1119 65.5915C87.1234 65.3321 85.2162 64.8137 83.4255 64.0711L83.8085 63.1474C82.0572 62.4211 80.4219 61.4703 78.9388 60.3305L78.3294 61.1234C76.7673 59.923 75.3669 58.5226 74.1665 56.9605L74.9594 56.3512C73.8197 54.868 72.8688 53.2327 72.1426 51.4814L71.2189 51.8644C70.4763 50.0737 69.9578 48.1666 69.6984 46.178L70.69 46.0487C70.5699 45.1275 70.5078 44.1877 70.5078 43.2329C70.5078 42.278 70.5699 41.3382 70.69 40.4171L69.6984 40.2877C69.9578 38.2991 70.4763 36.392 71.2189 34.6013L72.1426 34.9843C72.8688 33.233 73.8197 31.5977 74.9594 30.1146L74.1665 29.5052C75.3669 27.9431 76.7673 26.5427 78.3294 25.3423L78.9388 26.1352C80.4219 24.9955 82.0572 24.0446 83.8085 23.3184L83.4255 22.3946C85.2162 21.6521 87.1234 21.1336 89.1119 20.8742L89.2413 21.8658C90.1624 21.7456 91.1023 21.6836 92.0571 21.6836C93.0119 21.6836 93.9517 21.7456 94.8729 21.8658L95.0022 20.8742C96.9908 21.1336 98.8979 21.6521 100.689 22.3946L100.306 23.3184C102.057 24.0446 103.692 24.9955 105.175 26.1352L105.785 25.3423C107.347 26.5427 108.747 27.9431 109.948 29.5052L109.155 30.1146C110.294 31.5977 111.245 33.233 111.972 34.9843L112.895 34.6013C113.638 36.392 114.156 38.2991 114.416 40.2877L113.424 40.4171C113.544 41.3382 113.606 42.278 113.606 43.2329C113.606 44.1877 113.544 45.1275 113.424 46.0487L114.416 46.178C114.156 48.1666 113.638 50.0737 112.895 51.8645L111.972 51.4814C111.245 53.2328 110.294 54.868 109.155 56.3512L109.948 56.9605C108.747 58.5226 107.347 59.923 105.785 61.1234L105.175 60.3305C103.692 61.4703 102.057 62.4211 100.306 63.1474L100.689 64.0711C98.8979 64.8137 96.9908 65.3321 95.0022 65.5915L94.8729 64.5999C93.9517 64.7201 93.0119 64.7821 92.0571 64.7821Z" fill="white" stroke="#E8E8E8" stroke-width="2" stroke-dasharray="6 6"/>
<path d="M92.4228 44.2994C95.938 44.2994 98.7873 41.4501 98.7873 37.9349C98.7873 34.4196 95.938 31.5703 92.4228 31.5703C88.9075 31.5703 86.0582 34.4196 86.0582 37.9349C86.0582 41.4501 88.9075 44.2994 92.4228 44.2994ZM92.4228 47.2695C86.5631 47.2695 81.8125 49.1413 81.8125 51.4481C81.8125 53.7549 86.5631 55.6293 92.4228 55.6293C98.2824 55.6293 103.033 53.7576 103.033 51.4508C103.033 49.144 98.2824 47.2695 92.4228 47.2695Z" fill="#E8E8E8"/>
<path d="M171 39H129V45H171V39Z" fill="#E8E8E8"/>
<path d="M170.678 72.1699H156.076V74.3607H170.678V72.1699Z" fill="#E8E8E8"/>
<path d="M171 56H129V57H171V56Z" fill="#E8E8E8"/>
<path d="M157 62H129V63H157V62Z" fill="#E8E8E8"/>
<path d="M82.8418 98.9609H173.019C175.781 98.9609 178.019 101.2 178.019 103.961V144.457C178.019 147.218 175.781 149.457 173.019 149.457H82.8418C80.0804 149.457 77.8418 147.218 77.8418 144.457V103.961C77.8418 101.2 80.0804 98.9609 82.8418 98.9609Z" fill="white" stroke="#E8E8E8" stroke-width="2"/>
<path d="M92.0571 135.782C91.1023 135.782 90.1624 135.72 89.2413 135.6L89.1119 136.592C87.1234 136.332 85.2162 135.814 83.4255 135.071L83.8085 134.147C82.0572 133.421 80.4219 132.47 78.9388 131.331L78.3294 132.123C76.7673 130.923 75.3669 129.523 74.1665 127.96L74.9594 127.351C73.8197 125.868 72.8688 124.233 72.1426 122.481L71.2189 122.864C70.4763 121.074 69.9578 119.167 69.6984 117.178L70.69 117.049C70.5699 116.128 70.5078 115.188 70.5078 114.233C70.5078 113.278 70.5699 112.338 70.69 111.417L69.6984 111.288C69.9578 109.299 70.4763 107.392 71.2189 105.601L72.1426 105.984C72.8688 104.233 73.8197 102.598 74.9594 101.115L74.1665 100.505C75.3669 98.9431 76.7673 97.5427 78.3294 96.3423L78.9388 97.1352C80.4219 95.9955 82.0572 95.0446 83.8085 94.3184L83.4255 93.3946C85.2162 92.6521 87.1234 92.1336 89.1119 91.8742L89.2413 92.8658C90.1624 92.7456 91.1023 92.6836 92.0571 92.6836C93.0119 92.6836 93.9517 92.7456 94.8729 92.8658L95.0022 91.8742C96.9908 92.1336 98.8979 92.6521 100.689 93.3946L100.306 94.3184C102.057 95.0446 103.692 95.9955 105.175 97.1352L105.785 96.3423C107.347 97.5427 108.747 98.9431 109.948 100.505L109.155 101.115C110.294 102.598 111.245 104.233 111.972 105.984L112.895 105.601C113.638 107.392 114.156 109.299 114.416 111.288L113.424 111.417C113.544 112.338 113.606 113.278 113.606 114.233C113.606 115.188 113.544 116.128 113.424 117.049L114.416 117.178C114.156 119.167 113.638 121.074 112.895 122.864L111.972 122.481C111.245 124.233 110.294 125.868 109.155 127.351L109.948 127.961C108.747 129.523 107.347 130.923 105.785 132.123L105.175 131.331C103.692 132.47 102.057 133.421 100.306 134.147L100.689 135.071C98.8979 135.814 96.9908 136.332 95.0022 136.592L94.8729 135.6C93.9517 135.72 93.0119 135.782 92.0571 135.782Z" fill="white" stroke="#E8E8E8" stroke-width="2" stroke-dasharray="6 6"/>
<path d="M92.4228 115.299C95.938 115.299 98.7873 112.45 98.7873 108.935C98.7873 105.42 95.938 102.57 92.4228 102.57C88.9075 102.57 86.0582 105.42 86.0582 108.935C86.0582 112.45 88.9075 115.299 92.4228 115.299ZM92.4228 118.27C86.5631 118.27 81.8125 120.141 81.8125 122.448C81.8125 124.755 86.5631 126.629 92.4228 126.629C98.2824 126.629 103.033 124.758 103.033 122.451C103.033 120.144 98.2824 118.27 92.4228 118.27Z" fill="#E8E8E8"/>
<path d="M171 110H129V116H171V110Z" fill="#E8E8E8"/>
<path d="M170.678 143.17H156.076V145.361H170.678V143.17Z" fill="#E8E8E8"/>
<path d="M171 127H129V128H171V127Z" fill="#E8E8E8"/>
<path d="M157 133H129V134H157V133Z" fill="#E8E8E8"/>
<path d="M82.8418 166.961H173.019C175.781 166.961 178.019 169.2 178.019 171.961V212.457C178.019 215.218 175.781 217.457 173.019 217.457H82.8418C80.0804 217.457 77.8418 215.218 77.8418 212.457V171.961C77.8418 169.2 80.0804 166.961 82.8418 166.961Z" fill="white" stroke="#E8E8E8" stroke-width="2"/>
<path d="M92.0571 203.782C91.1023 203.782 90.1624 203.72 89.2413 203.6L89.1119 204.592C87.1234 204.332 85.2162 203.814 83.4255 203.071L83.8085 202.147C82.0572 201.421 80.4219 200.47 78.9388 199.331L78.3294 200.123C76.7673 198.923 75.3669 197.523 74.1665 195.96L74.9594 195.351C73.8197 193.868 72.8688 192.233 72.1426 190.481L71.2189 190.864C70.4763 189.074 69.9578 187.167 69.6984 185.178L70.69 185.049C70.5699 184.128 70.5078 183.188 70.5078 182.233C70.5078 181.278 70.5699 180.338 70.69 179.417L69.6984 179.288C69.9578 177.299 70.4763 175.392 71.2189 173.601L72.1426 173.984C72.8688 172.233 73.8197 170.598 74.9594 169.115L74.1665 168.505C75.3669 166.943 76.7673 165.543 78.3294 164.342L78.9388 165.135C80.4219 163.995 82.0572 163.045 83.8085 162.318L83.4255 161.395C85.2162 160.652 87.1234 160.134 89.1119 159.874L89.2413 160.866C90.1624 160.746 91.1023 160.684 92.0571 160.684C93.0119 160.684 93.9517 160.746 94.8729 160.866L95.0022 159.874C96.9908 160.134 98.8979 160.652 100.689 161.395L100.306 162.318C102.057 163.045 103.692 163.995 105.175 165.135L105.785 164.342C107.347 165.543 108.747 166.943 109.948 168.505L109.155 169.115C110.294 170.598 111.245 172.233 111.972 173.984L112.895 173.601C113.638 175.392 114.156 177.299 114.416 179.288L113.424 179.417C113.544 180.338 113.606 181.278 113.606 182.233C113.606 183.188 113.544 184.128 113.424 185.049L114.416 185.178C114.156 187.167 113.638 189.074 112.895 190.864L111.972 190.481C111.245 192.233 110.294 193.868 109.155 195.351L109.948 195.961C108.747 197.523 107.347 198.923 105.785 200.123L105.175 199.331C103.692 200.47 102.057 201.421 100.306 202.147L100.689 203.071C98.8979 203.814 96.9908 204.332 95.0022 204.592L94.8729 203.6C93.9517 203.72 93.0119 203.782 92.0571 203.782Z" fill="white" stroke="#E8E8E8" stroke-width="2" stroke-dasharray="6 6"/>
<path d="M92.4228 183.299C95.938 183.299 98.7873 180.45 98.7873 176.935C98.7873 173.42 95.938 170.57 92.4228 170.57C88.9075 170.57 86.0582 173.42 86.0582 176.935C86.0582 180.45 88.9075 183.299 92.4228 183.299ZM92.4228 186.27C86.5631 186.27 81.8125 188.141 81.8125 190.448C81.8125 192.755 86.5631 194.629 92.4228 194.629C98.2824 194.629 103.033 192.758 103.033 190.451C103.033 188.144 98.2824 186.27 92.4228 186.27Z" fill="#E8E8E8"/>
<path d="M171 178H129V184H171V178Z" fill="#E8E8E8"/>
<path d="M170.678 211.17H156.076V213.361H170.678V211.17Z" fill="#E8E8E8"/>
<path d="M171 195H129V196H171V195Z" fill="#E8E8E8"/>
<path d="M157 201H129V202H157V201Z" fill="#E8E8E8"/>
<path d="M175.32 234.44C176.611 235.732 178.08 236.803 179.671 237.631H35.6204C31.4538 237.631 27.4579 235.975 24.5116 233.029C21.5654 230.083 19.9102 226.087 19.9102 221.92V210.738H170.136V221.92C170.136 226.616 172.001 231.119 175.32 234.44Z" fill="white" stroke="#E8E8E8" stroke-width="2"/>
<path d="M3.44826 88.6407L3.4483 88.6407L58.4481 56.3033L63.0864 64.1516L8.09063 96.5227C7.04523 97.1368 5.79877 97.3106 4.62527 97.0059C3.45178 96.7013 2.4473 95.9431 1.83262 94.8981L1.83167 94.8965C1.52642 94.3797 1.3261 93.8079 1.24214 93.2136C1.15819 92.6193 1.19226 92.0143 1.34241 91.4333C1.49257 90.8522 1.75586 90.3065 2.11721 89.8273C2.47854 89.3481 2.93087 88.9449 3.44826 88.6407Z" fill="white" stroke="#E8E8E8" stroke-width="2"/>
<path d="M58.0241 55.5888L63.5059 64.8668L55.8449 69.3779L55.477 69.2888L50.2825 60.459L50.3782 60.0878L58.0241 55.5888Z" fill="white" stroke="#E8E8E8" stroke-width="2"/>
<path d="M129.02 43.51C129.02 63.6739 112.674 80.02 92.51 80.02C72.3461 80.02 56 63.6739 56 43.51C56 23.3461 72.3461 7 92.51 7C112.674 7 129.02 23.3461 129.02 43.51Z" stroke="#E8E8E8" stroke-width="2"/>
<path d="M169.719 82.4943C169.7 82.4748 169.681 82.4556 169.662 82.4367C169.681 82.4179 169.7 82.3988 169.719 82.3793C170.191 81.9046 170.891 81.223 171.795 80.4033C173.603 78.7631 176.221 76.5749 179.455 74.3876C185.941 70.0008 194.811 65.6816 204.545 65.6816C214.279 65.6816 223.148 70.0008 229.634 74.3876C232.868 76.5749 235.486 78.7631 237.295 80.4033C238.198 81.223 238.898 81.9046 239.371 82.3793C239.39 82.3988 239.409 82.4179 239.428 82.4367C239.409 82.4556 239.39 82.4748 239.37 82.4943C238.898 82.969 238.197 83.6507 237.293 84.4704C235.485 86.1106 232.866 88.2989 229.631 90.4861C223.144 94.873 214.274 99.1921 204.545 99.1921C194.816 99.1921 185.946 94.873 179.459 90.4861C176.224 88.2988 173.605 86.1106 171.796 84.4704C170.892 83.6507 170.192 82.969 169.719 82.4943Z" fill="white" stroke="#E8E8E8" stroke-width="2"/>
<path d="M212.771 74.2227C217.314 78.765 217.314 86.1295 212.771 90.6718C208.229 95.2141 200.865 95.2141 196.322 90.6718C191.78 86.1295 191.78 78.765 196.322 74.2227C200.865 69.6804 208.229 69.6804 212.771 74.2227Z" fill="white" stroke="#E8E8E8" stroke-width="2"/>
</svg>
