<svg width="40" height="40" viewBox="0 0 40 40" fill="none" xmlns="http://www.w3.org/2000/svg">
<circle cx="20" cy="20" r="20" fill="#595FE6"/>
<path d="M26.0568 14.4416C24.9485 13.925 23.7485 13.55 22.4985 13.3333C22.4875 13.3329 22.4766 13.335 22.4665 13.3393C22.4565 13.3436 22.4474 13.3501 22.4401 13.3583C22.2901 13.6333 22.1151 13.9916 21.9985 14.2666C20.6726 14.0666 19.3243 14.0666 17.9985 14.2666C17.8818 13.9833 17.7068 13.6333 17.5485 13.3583C17.5401 13.3416 17.5151 13.3333 17.4901 13.3333C16.2401 13.55 15.0485 13.925 13.9318 14.4416C13.9235 14.4416 13.9151 14.45 13.9068 14.4583C11.6401 17.85 11.0151 21.15 11.3235 24.4166C11.3235 24.4333 11.3318 24.45 11.3485 24.4583C12.8485 25.5583 14.2901 26.225 15.7151 26.6666C15.7401 26.675 15.7651 26.6666 15.7735 26.65C16.1068 26.1916 16.4068 25.7083 16.6651 25.2C16.6818 25.1666 16.6651 25.1333 16.6318 25.125C16.1568 24.9416 15.7068 24.725 15.2651 24.475C15.2318 24.4583 15.2318 24.4083 15.2568 24.3833C15.3485 24.3166 15.4401 24.2416 15.5318 24.175C15.5485 24.1583 15.5735 24.1583 15.5901 24.1666C18.4568 25.475 21.5485 25.475 24.3818 24.1666C24.3985 24.1583 24.4235 24.1583 24.4401 24.175C24.5318 24.25 24.6235 24.3166 24.7151 24.3916C24.7485 24.4166 24.7485 24.4666 24.7068 24.4833C24.2735 24.7416 23.8151 24.95 23.3401 25.1333C23.3068 25.1416 23.2985 25.1833 23.3068 25.2083C23.5735 25.7166 23.8735 26.2 24.1985 26.6583C24.2235 26.6666 24.2485 26.675 24.2735 26.6666C25.7068 26.225 27.1485 25.5583 28.6485 24.4583C28.6651 24.45 28.6735 24.4333 28.6735 24.4166C29.0401 20.6416 28.0651 17.3666 26.0901 14.4583C26.0818 14.45 26.0735 14.4416 26.0568 14.4416ZM17.0985 22.425C16.2401 22.425 15.5235 21.6333 15.5235 20.6583C15.5235 19.6833 16.2235 18.8916 17.0985 18.8916C17.9818 18.8916 18.6818 19.6916 18.6735 20.6583C18.6735 21.6333 17.9735 22.425 17.0985 22.425ZM22.9068 22.425C22.0485 22.425 21.3318 21.6333 21.3318 20.6583C21.3318 19.6833 22.0318 18.8916 22.9068 18.8916C23.7901 18.8916 24.4901 19.6916 24.4818 20.6583C24.4818 21.6333 23.7901 22.425 22.9068 22.425Z" fill="white"/>
</svg>
