<svg width="40" height="40" viewBox="0 0 40 40" fill="none" xmlns="http://www.w3.org/2000/svg">
<circle cx="20" cy="20" r="20" fill="#3888FF"/>
<path d="M21.5279 21.6642L28.347 14.8451C28.1838 14.7464 27.9977 14.7046 27.8041 14.7046H12.3244C12.1535 14.7046 11.9826 14.7426 11.8308 14.8147L18.6803 21.6642C19.4624 22.4463 20.7382 22.4463 21.5279 21.6642ZM11.2726 15.3159C11.1663 15.4943 11.1094 15.6956 11.1094 15.912V24.8991C11.1094 25.1459 11.1853 25.3699 11.3106 25.556L16.4363 20.4682L11.2726 15.3159Z" fill="white"/>
<path d="M22.0472 22.188C21.5308 22.712 20.8398 23.0005 20.0994 23.0005C19.3628 23.0005 18.668 22.7082 18.144 22.188L16.9594 21.0034L11.8906 26.019C12.0235 26.0798 12.1678 26.1102 12.3235 26.1102H27.8032C28.012 26.1102 28.2056 26.057 28.3765 25.9545L23.3001 20.9351L22.0472 22.188ZM28.8739 15.3689L23.8317 20.4035L28.8891 25.4153C28.965 25.2597 29.0068 25.0888 29.0068 24.899V15.9118C29.0068 15.7182 28.965 15.5322 28.8739 15.3689Z" fill="white"/>
</svg>
