<svg width="22" height="22" viewBox="0 0 22 22" fill="none" xmlns="http://www.w3.org/2000/svg"><path fill-rule="evenodd" clip-rule="evenodd" d="M11 0C4.923 0 0 5.047 0 11.278c0 4.99 3.149 9.206 7.521 10.7.55.1.756-.24.756-.535 0-.268-.013-1.156-.013-2.1-2.764.52-3.479-.692-3.699-1.326-.124-.324-.66-1.325-1.128-1.593-.384-.212-.934-.733-.013-.747.866-.014 1.485.817 1.691 1.156.99 1.706 2.571 1.226 3.204.93.096-.733.385-1.226.701-1.508-2.447-.282-5.005-1.255-5.005-5.569 0-1.226.426-2.241 1.128-3.03-.11-.283-.495-1.439.11-2.99 0 0 .92-.296 3.024 1.156a9.971 9.971 0 0 1 2.75-.38c.936 0 1.87.127 2.75.38 2.104-1.466 3.025-1.156 3.025-1.156.605 1.551.22 2.707.11 2.99.702.789 1.128 1.79 1.128 3.03 0 4.328-2.571 5.287-5.019 5.569.399.352.743 1.029.743 2.086 0 1.509-.014 2.721-.014 3.102 0 .296.206.648.756.535C18.851 20.485 22 16.256 22 11.279 22 5.047 17.078 0 11 0z" fill="#171717"/></svg>