<svg width="40" height="40" viewBox="0 0 40 40" fill="none" xmlns="http://www.w3.org/2000/svg">
<circle cx="20" cy="20" r="20" fill="white"/>
<circle cx="20" cy="20" r="19.5" stroke="#121212" stroke-opacity="0.06"/>
<mask id="mask0_4479_187363" style="mask-type:alpha" maskUnits="userSpaceOnUse" x="10" y="10" width="20" height="20">
<path fill-rule="evenodd" clip-rule="evenodd" d="M20.0059 10C17.2894 10 16.9494 10.0117 15.8824 10.0586C14.8192 10.1055 14.0883 10.2774 13.4551 10.5235C12.7946 10.7814 12.2357 11.1213 11.6807 11.68C11.1218 12.2348 10.7817 12.7935 10.5237 13.4499C10.2775 14.0867 10.1055 14.8134 10.0586 15.8761C10.0117 16.9467 10 17.2866 10 20.002C10 22.7173 10.0117 23.0572 10.0586 24.1239C10.1055 25.1866 10.2775 25.9172 10.5237 26.5501C10.7817 27.2104 11.1218 27.7691 11.6807 28.3239C12.2357 28.8787 12.7946 29.2225 13.4512 29.4765C14.0883 29.7226 14.8153 29.8945 15.8784 29.9414C16.9455 29.9883 17.2855 30 20.002 30C22.7184 30 23.0584 29.9883 24.1255 29.9414C25.1886 29.8945 25.9195 29.7226 26.5527 29.4765C27.2093 29.2225 27.7682 28.8787 28.3232 28.3239C28.8782 27.7691 29.2222 27.2104 29.4763 26.554C29.7225 25.9172 29.8945 25.1905 29.9414 24.1278C29.9883 23.0611 30 22.7212 30 20.0059C30 17.2905 29.9883 16.9506 29.9414 15.884C29.8945 14.8213 29.7225 14.0906 29.4763 13.4577C29.23 12.7935 28.89 12.2348 28.3311 11.68C27.776 11.1252 27.2171 10.7814 26.5605 10.5274C25.9234 10.2813 25.1964 10.1094 24.1333 10.0625C23.0623 10.0117 22.7223 10 20.0059 10ZM26.5483 14.6609C26.5483 15.3251 26.0089 15.8603 25.3484 15.8603C24.6839 15.8603 24.1484 15.3212 24.1484 14.6609C24.1484 13.9967 24.6878 13.4614 25.3484 13.4614C26.0089 13.4614 26.5483 14.0006 26.5483 14.6609ZM14.875 20.002C14.875 17.1655 17.1771 14.8643 20.0147 14.8643C22.8523 14.8643 25.1545 17.1655 25.1545 20.002C25.1545 22.8385 22.8523 25.1397 20.0147 25.1397C17.1771 25.1397 14.875 22.8385 14.875 20.002ZM16.6807 20.002C16.6807 21.8422 18.1738 23.3347 20.0147 23.3347C21.8557 23.3347 23.3487 21.8422 23.3487 20.002C23.3487 18.1618 21.8557 16.6693 20.0147 16.6693C18.1738 16.6693 16.6807 18.1618 16.6807 20.002Z" fill="black"/>
</mask>
<g mask="url(#mask0_4479_187363)">
<ellipse cx="20.4217" cy="19.5832" rx="12.9217" ry="12.9167" fill="url(#paint0_linear_4479_187363)"/>
</g>
<defs>
<linearGradient id="paint0_linear_4479_187363" x1="20.4217" y1="45.4165" x2="46.255" y2="19.5731" gradientUnits="userSpaceOnUse">
<stop stop-color="#FFD522"/>
<stop offset="0.497382" stop-color="#F1000B"/>
<stop offset="1" stop-color="#B900B3"/>
</linearGradient>
</defs>
</svg>
