<svg width="21" height="20" viewBox="0 0 21 20" fill="none" xmlns="http://www.w3.org/2000/svg"><mask id="a" style="mask-type:alpha" maskUnits="userSpaceOnUse" x="0" y="0" width="21" height="20"><path fill-rule="evenodd" clip-rule="evenodd" d="M10.063 0c-2.72 0-3.06.012-4.128.059-1.064.046-1.796.218-2.43.465A4.89 4.89 0 0 0 1.728 1.68 4.9 4.9 0 0 0 .57 3.45C.324 4.087.152 4.813.105 5.876c-.047 1.07-.06 1.41-.06 4.126 0 2.715.013 3.055.06 4.122.047 1.063.219 1.793.465 2.426.258.66.599 1.22 1.158 1.774a4.898 4.898 0 0 0 1.773 1.152c.638.247 1.366.419 2.43.465 1.068.047 1.409.059 4.128.059 2.72 0 3.06-.012 4.128-.059 1.065-.046 1.796-.218 2.43-.464a4.898 4.898 0 0 0 1.773-1.153 4.89 4.89 0 0 0 1.154-1.77c.247-.637.419-1.363.466-2.426.047-1.067.058-1.407.058-4.122 0-2.716-.011-3.055-.058-4.122-.047-1.063-.22-1.793-.466-2.426a4.684 4.684 0 0 0-1.146-1.778A4.897 4.897 0 0 0 16.625.527c-.638-.246-1.366-.418-2.43-.464C13.123.012 12.783 0 10.063 0zm6.548 4.66a1.2 1.2 0 1 1-1.202-1.199c.662 0 1.202.54 1.202 1.2zM4.92 10.003a5.143 5.143 0 0 1 5.145-5.138 5.143 5.143 0 0 1 5.146 5.138 5.143 5.143 0 0 1-5.146 5.138 5.143 5.143 0 0 1-5.145-5.138zm1.807 0a3.336 3.336 0 0 0 3.338 3.333 3.336 3.336 0 0 0 3.338-3.333 3.336 3.336 0 0 0-3.338-3.333 3.336 3.336 0 0 0-3.338 3.333z" fill="#000"/></mask><g mask="url(#a)"><ellipse cx="10.478" cy="9.583" rx="12.936" ry="12.917" fill="url(#paint0_linear_3177_1993)"/></g><defs><linearGradient id="paint0_linear_3177_1993" x1="10.478" y1="35.416" x2="36.312" y2="9.544" gradientUnits="userSpaceOnUse"><stop stop-color="#FFD522"/><stop offset=".497" stop-color="#F1000B"/><stop offset="1" stop-color="#B900B3"/></linearGradient></defs></svg>