<svg width="18" height="18" viewBox="0 0 18 18" fill="none" xmlns="http://www.w3.org/2000/svg"><path d="M4.086 17.052V5.546H.227v11.506h3.86zM2.158 3.976c1.345 0 2.182-.884 2.182-1.988C4.315.858 3.503 0 2.183 0S0 .859 0 1.988c0 1.104.837 1.988 2.132 1.988h.025zm4.064 13.076h3.858v-6.424c0-.344.025-.688.127-.933.28-.688.914-1.4 1.98-1.4 1.396 0 1.955 1.056 1.955 2.603v6.154H18v-6.597c0-3.534-1.903-5.178-4.442-5.178-2.081 0-2.995 1.153-3.503 1.938h.026V5.547H6.222c.05 1.08 0 11.506 0 11.506z" fill="#069"/></svg>