<svg width="20" height="20" viewBox="0 0 20 20" fill="none" xmlns="http://www.w3.org/2000/svg"><path fill-rule="evenodd" clip-rule="evenodd" d="M20 2.451A2.452 2.452 0 0 0 17.549 0H2.45A2.452 2.452 0 0 0 0 2.451V17.55A2.452 2.452 0 0 0 2.451 20H17.55A2.452 2.452 0 0 0 20 17.549V2.45zm-8.924 7.55c0 2.633-2.121 4.769-4.737 4.769S1.602 12.634 1.602 10c0-2.634 2.12-4.77 4.737-4.77 2.616 0 4.737 2.136 4.737 4.77zm5.197 0c0 2.479-1.06 4.49-2.369 4.49-1.308 0-2.368-2.011-2.368-4.49 0-2.48 1.06-4.491 2.368-4.491 1.308 0 2.369 2.01 2.369 4.49zm2.125 0c0 2.22-.372 4.022-.833 4.022-.46 0-.832-1.801-.832-4.023 0-2.221.372-4.023.832-4.023.46 0 .833 1.801.833 4.023z" fill="#000"/></svg>