<svg width="22" height="18" viewBox="0 0 22 18" fill="none" xmlns="http://www.w3.org/2000/svg"><path d="M6.921 17.876c8.3 0 12.84-6.878 12.84-12.841 0-.193-.003-.391-.012-.585A9.168 9.168 0 0 0 22 2.115a8.9 8.9 0 0 1-2.59.709A4.538 4.538 0 0 0 21.393.327a9.072 9.072 0 0 1-2.865 1.095 4.52 4.52 0 0 0-7.694 4.116 12.82 12.82 0 0 1-9.3-4.713A4.519 4.519 0 0 0 2.93 6.848a4.52 4.52 0 0 1-2.045-.563v.056a4.512 4.512 0 0 0 3.622 4.426 4.488 4.488 0 0 1-2.037.077 4.523 4.523 0 0 0 4.215 3.137A9.052 9.052 0 0 1 0 15.848a12.805 12.805 0 0 0 6.921 2.028z" fill="#1D9BF0"/></svg>