<svg width="20" height="20" viewBox="0 0 20 20" fill="none" xmlns="http://www.w3.org/2000/svg"><g clip-path="url(#clip0_2040_52280)" stroke="#000"><circle cx="10" cy="10" r="9.5"/><circle cx="10" cy="10" r="9.5"/><path d="M1 10h18M2 4.5S6 6 10 6s8-1.5 8-1.5M17.5 16S14 14 10 14s-7.5 2-7.5 2"/><path d="M10 19.5c.633 0 1.157-.385 1.56-.898.409-.518.755-1.236 1.036-2.08.564-1.692.904-3.998.904-6.522s-.34-4.83-.904-6.522c-.281-.844-.627-1.562-1.036-2.08C11.157.885 10.633.5 10 .5s-1.157.385-1.56.898c-.409.518-.755 1.236-1.036 2.08C6.84 5.17 6.5 7.476 6.5 10s.34 4.83.904 6.522c.281.844.627 1.562 1.036 2.08.403.513.927.898 1.56.898z"/></g><defs><clipPath id="clip0_2040_52280"><path fill="#fff" d="M0 0h20v20H0z"/></clipPath></defs></svg>