<svg width="40" height="40" viewBox="0 0 40 40" fill="none" xmlns="http://www.w3.org/2000/svg">
<circle cx="20" cy="20" r="20" fill="#4F75FB"/>
<g clip-path="url(#clip0_4479_187345)">
<circle cx="20" cy="20" r="9.5" stroke="white"/>
<circle cx="20" cy="20" r="9.5" stroke="white"/>
<path d="M11 20H20H29M12 14.5C12 14.5 16 16 20 16C24 16 28 14.5 28 14.5M27.5 26C27.5 26 24 24 20 24C16 24 12.5 26 12.5 26" stroke="white"/>
<path d="M20 29.5C20.6331 29.5 21.1566 29.1146 21.5604 28.6022C21.9687 28.0842 22.3145 27.3655 22.5957 26.5221C23.1597 24.8299 23.5 22.5241 23.5 20C23.5 17.4759 23.1597 15.1701 22.5957 13.4779C22.3145 12.6345 21.9687 11.9158 21.5604 11.3978C21.1566 10.8854 20.6331 10.5 20 10.5C19.3669 10.5 18.8434 10.8854 18.4396 11.3978C18.0313 11.9158 17.6855 12.6345 17.4043 13.4779C16.8403 15.1701 16.5 17.4759 16.5 20C16.5 22.5241 16.8403 24.8299 17.4043 26.5221C17.6855 27.3655 18.0313 28.0842 18.4396 28.6022C18.8434 29.1146 19.3669 29.5 20 29.5Z" stroke="white"/>
</g>
<defs>
<clipPath id="clip0_4479_187345">
<rect width="20" height="20" fill="white" transform="translate(10 10)"/>
</clipPath>
</defs>
</svg>
