<svg width="248" height="241" viewBox="0 0 248 241" fill="none" xmlns="http://www.w3.org/2000/svg">
<path d="M89.8363 38.1315H10.8626C7.56868 38.1315 5.48957 40.7355 6.21877 43.9477L17.0239 91.5452C17.7531 94.7573 21.0145 97.3613 24.3084 97.3613H103.282C106.576 97.3613 108.655 94.7573 107.926 91.5452L97.1207 43.9477C96.3915 40.7355 93.1302 38.1315 89.8363 38.1315Z" fill="black"/>
<path d="M87.5456 42.0959H14.9559C12.344 42.0959 10.6874 44.126 11.2559 46.6303L20.8533 88.9074C21.4218 91.4117 24 93.4418 26.612 93.4418H99.2017C101.814 93.4418 103.47 91.4117 102.902 88.9074L93.3043 46.6303C92.7358 44.126 90.1576 42.0959 87.5456 42.0959Z" fill="white"/>
<path d="M58.9213 51.631H39.1174C37.359 51.631 36.2492 53.021 36.6384 54.7357L43.1734 83.523C43.5627 85.2377 45.3037 86.6278 47.062 86.6278H66.866C68.6243 86.6278 69.7342 85.2377 69.3449 83.523L62.8099 54.7357C62.4206 53.021 60.6796 51.631 58.9213 51.631Z" fill="#2663FF"/>
<path d="M28.6272 50.6809H21.6359C20.9007 50.6809 20.4366 51.2621 20.5994 51.9791L22.1471 58.7969C22.3099 59.5138 23.0378 60.0951 23.773 60.0951H30.7643C31.4995 60.0951 31.9636 59.5138 31.8008 58.7969L30.2531 51.9791C30.0903 51.2621 29.3624 50.6809 28.6272 50.6809Z" fill="#2663FF"/>
<path d="M31.5142 64.5232H25.038C24.1605 64.5232 23.6067 65.2168 23.8009 66.0725L25.2346 72.388C25.4289 73.2437 26.2977 73.9374 27.1751 73.9374H33.6513C34.5287 73.9374 35.0826 73.2437 34.8883 72.388L33.4547 66.0725C33.2604 65.2168 32.3916 64.5232 31.5142 64.5232Z" fill="#259C4A"/>
<path d="M34.6362 78.3605H28.1972C27.3095 78.3605 26.7492 79.0623 26.9457 79.9281L28.3711 86.2072C28.5677 87.0729 29.4466 87.7747 30.3344 87.7747H36.7733C37.661 87.7747 38.2214 87.0729 38.0248 86.2072L36.5994 79.9281C36.4029 79.0623 35.5239 78.3605 34.6362 78.3605Z" fill="#FFBB45"/>
<path d="M88.2523 52.9198H67.536C67.3714 52.9198 67.1991 52.856 67.0569 52.7425C66.9148 52.629 66.8145 52.4751 66.778 52.3145C66.7416 52.154 66.772 52.0001 66.8626 51.8866C66.9533 51.7731 67.0966 51.7093 67.2612 51.7093H87.9775C88.1421 51.7093 88.3144 51.7731 88.4566 51.8866C88.5987 52.0001 88.6991 52.154 88.7355 52.3145C88.7719 52.4751 88.7415 52.629 88.6509 52.7425C88.5603 52.856 88.4169 52.9198 88.2523 52.9198Z" fill="black"/>
<path d="M89.5257 58.5223H68.8095C68.6449 58.5223 68.4725 58.4585 68.3304 58.345C68.1882 58.2315 68.0879 58.0776 68.0515 57.9171C68.015 57.7566 68.0455 57.6026 68.1361 57.4891C68.2267 57.3756 68.3701 57.3119 68.5347 57.3119H89.2509C89.4155 57.3119 89.5879 57.3756 89.73 57.4891C89.8722 57.6026 89.9725 57.7566 90.0089 57.9171C90.0454 58.0776 90.0149 58.2315 89.9243 58.345C89.8337 58.4585 89.6903 58.5223 89.5257 58.5223Z" fill="black"/>
<path d="M84.3571 64.0954H70.0829C69.9183 64.0954 69.746 64.0317 69.6038 63.9182C69.4617 63.8047 69.3613 63.6507 69.3249 63.4902C69.2885 63.3297 69.3189 63.1758 69.4095 63.0623C69.5001 62.9488 69.6435 62.885 69.8081 62.885H84.0823C84.2469 62.885 84.4193 62.9488 84.5614 63.0623C84.7036 63.1758 84.8039 63.3297 84.8404 63.4902C84.8768 63.6507 84.8464 63.8047 84.7557 63.9182C84.6651 64.0317 84.5217 64.0954 84.3571 64.0954Z" fill="black"/>
<path d="M81.8149 68.3088H73.1821C71.662 68.3088 70.7025 69.5105 71.039 70.9929C71.3755 72.4753 72.8807 73.6771 74.4008 73.6771H83.0336C84.5537 73.6771 85.5132 72.4753 85.1767 70.9929C84.8402 69.5105 83.3351 68.3088 81.8149 68.3088Z" fill="#259C4A"/>
<path d="M91.495 73.5168C92.9226 73.5168 93.8236 72.3882 93.5076 70.996C93.1916 69.6039 91.7781 68.4753 90.3505 68.4753C88.9229 68.4753 88.0218 69.6039 88.3379 70.996C88.6539 72.3882 90.0674 73.5168 91.495 73.5168Z" fill="#FB6D6D"/>
<path d="M160.766 215.275L126.307 218.879C125.523 218.961 124.953 219.663 125.035 220.448L125.414 224.065C125.496 224.849 126.198 225.419 126.982 225.337L161.441 221.733C162.226 221.651 162.795 220.949 162.713 220.164L162.335 216.547C162.253 215.763 161.55 215.193 160.766 215.275Z" fill="black"/>
<path d="M162.981 196.49L138.768 196.332L105.865 212.542C104.803 213.066 103.991 213.987 103.605 215.106C103.219 216.225 103.29 217.451 103.803 218.517L163.845 209.605L162.981 196.49Z" fill="black"/>
<path d="M163.247 209.846L104.566 218.775C104.969 219.621 105.628 220.318 106.45 220.766C107.273 221.215 108.216 221.391 109.145 221.271L159.592 214.757C160.659 214.618 161.633 214.08 162.317 213.249C163.001 212.419 163.343 211.36 163.275 210.287L163.247 209.846Z" fill="white"/>
<path d="M108.572 222.01C107.6 222.01 106.649 221.733 105.829 221.213C105.008 220.694 104.352 219.951 103.937 219.073L103.531 218.223L163.916 209.041L163.993 210.242C164.07 211.492 163.67 212.726 162.872 213.693C162.075 214.659 160.941 215.288 159.698 215.45L109.237 221.954C109.017 221.987 108.794 222.005 108.572 222.01ZM105.74 219.304C106.144 219.775 106.659 220.138 107.238 220.36C107.817 220.583 108.443 220.658 109.058 220.578L159.506 214.064C160.34 213.954 161.107 213.551 161.672 212.927C162.236 212.303 162.56 211.499 162.586 210.658L105.74 219.304Z" fill="black"/>
<path d="M135.255 207.732C135.158 207.732 135.062 207.712 134.974 207.673C134.885 207.633 134.806 207.576 134.74 207.505L129.42 201.736C129.357 201.668 129.309 201.589 129.277 201.503C129.245 201.416 129.231 201.324 129.235 201.232C129.239 201.14 129.261 201.05 129.3 200.966C129.339 200.883 129.394 200.808 129.462 200.746C129.598 200.62 129.778 200.554 129.963 200.561C130.148 200.568 130.323 200.649 130.449 200.784L135.769 206.553C135.832 206.62 135.881 206.699 135.913 206.786C135.945 206.872 135.959 206.964 135.956 207.056C135.952 207.148 135.93 207.238 135.892 207.322C135.853 207.406 135.798 207.481 135.731 207.543C135.602 207.664 135.432 207.732 135.255 207.732Z" fill="white"/>
<path d="M129.836 210.89C129.739 210.89 129.644 210.87 129.555 210.832C129.467 210.793 129.387 210.737 129.321 210.666L124.011 204.894C123.946 204.827 123.895 204.747 123.861 204.66C123.827 204.573 123.81 204.48 123.813 204.386C123.815 204.293 123.836 204.201 123.875 204.116C123.914 204.03 123.969 203.954 124.038 203.89C124.107 203.827 124.188 203.778 124.276 203.746C124.364 203.715 124.457 203.701 124.551 203.706C124.644 203.711 124.736 203.735 124.82 203.776C124.904 203.817 124.979 203.875 125.04 203.945L130.35 209.703C130.413 209.771 130.461 209.85 130.493 209.937C130.525 210.023 130.539 210.115 130.535 210.207C130.531 210.299 130.509 210.39 130.47 210.473C130.431 210.557 130.376 210.632 130.308 210.694C130.181 210.816 130.012 210.886 129.836 210.89Z" fill="white"/>
<path d="M158.189 198.807H143.487C141.314 198.807 139.23 197.944 137.693 196.407C136.156 194.87 135.293 192.786 135.293 190.613V107.195H166.383V190.613C166.382 192.786 165.519 194.869 163.982 196.406C162.446 197.942 160.362 198.806 158.189 198.807Z" fill="#2663FF"/>
<path d="M246.573 240.275H181.196C181.01 240.275 180.832 240.201 180.701 240.07C180.57 239.939 180.496 239.761 180.496 239.575C180.496 239.389 180.57 239.211 180.701 239.08C180.832 238.949 181.01 238.875 181.196 238.875H246.573C246.758 238.875 246.936 238.949 247.068 239.08C247.199 239.211 247.273 239.389 247.273 239.575C247.273 239.761 247.199 239.939 247.068 240.07C246.936 240.201 246.758 240.275 246.573 240.275Z" fill="black"/>
<path d="M56.557 240.174H30.7977C30.6121 240.174 30.434 240.1 30.3027 239.969C30.1714 239.837 30.0977 239.659 30.0977 239.474C30.0977 239.288 30.1714 239.11 30.3027 238.979C30.434 238.847 30.6121 238.773 30.7977 238.773H56.557C56.7426 238.773 56.9207 238.847 57.052 238.979C57.1833 239.11 57.257 239.288 57.257 239.474C57.257 239.659 57.1833 239.837 57.052 239.969C56.9207 240.1 56.7426 240.174 56.557 240.174Z" fill="black"/>
<path d="M231.469 228.426H203.743C203.557 228.426 203.379 228.352 203.248 228.221C203.117 228.089 203.043 227.911 203.043 227.725C203.043 227.54 203.117 227.362 203.248 227.23C203.379 227.099 203.557 227.025 203.743 227.025H231.469C231.655 227.025 231.833 227.099 231.965 227.23C232.096 227.362 232.17 227.54 232.17 227.725C232.17 227.911 232.096 228.089 231.965 228.221C231.833 228.352 231.655 228.426 231.469 228.426Z" fill="black"/>
<path d="M210.926 162.24C210.781 162.24 210.64 162.195 210.522 162.111C210.403 162.027 210.314 161.909 210.266 161.772C210.218 161.635 210.214 161.487 210.254 161.347C210.293 161.208 210.375 161.085 210.489 160.994L228.386 146.642C228.457 146.581 228.54 146.535 228.629 146.507C228.719 146.479 228.813 146.469 228.906 146.478C229 146.487 229.09 146.514 229.173 146.559C229.256 146.603 229.328 146.664 229.387 146.737C229.446 146.81 229.489 146.894 229.514 146.985C229.54 147.075 229.547 147.169 229.535 147.262C229.523 147.355 229.493 147.445 229.446 147.526C229.399 147.607 229.336 147.678 229.261 147.734L211.364 162.086C211.24 162.186 211.085 162.24 210.926 162.24Z" fill="black"/>
<path d="M180.522 43.9668H159.527C157.607 43.9668 156.051 45.523 156.051 47.4427V60.7931C156.051 62.7127 157.607 64.2689 159.527 64.2689H180.522C182.442 64.2689 183.998 62.7127 183.998 60.7931V47.4427C183.998 45.523 182.442 43.9668 180.522 43.9668Z" fill="white"/>
<path d="M180.514 64.9699H159.512C158.405 64.969 157.343 64.5287 156.56 63.7458C155.777 62.9628 155.337 61.9012 155.336 60.7939V47.4435C155.337 46.3363 155.777 45.2747 156.56 44.4917C157.343 43.7088 158.405 43.2685 159.512 43.2676H180.514C181.62 43.2731 182.68 43.7147 183.462 44.4966C184.245 45.2784 184.687 46.3374 184.694 47.4435V60.7939C184.687 61.9001 184.245 62.959 183.462 63.7409C182.68 64.5227 181.62 64.9644 180.514 64.9699ZM159.512 44.6677C158.776 44.6687 158.07 44.9614 157.55 45.4818C157.03 46.0021 156.737 46.7076 156.736 47.4435V60.7939C156.737 61.5298 157.03 62.2353 157.55 62.7557C158.07 63.2761 158.776 63.5688 159.512 63.5697H180.514C181.251 63.5697 181.957 63.2774 182.478 62.7569C182.999 62.2365 183.292 61.5304 183.293 60.7939V47.4435C183.292 46.707 182.999 46.001 182.478 45.4805C181.957 44.9601 181.251 44.6677 180.514 44.6677H159.512Z" fill="black"/>
<path d="M188.505 30.991L178.007 49.1734C177.048 50.8359 177.617 52.9617 179.28 53.9215L190.842 60.5967C192.504 61.5566 194.63 60.987 195.59 59.3245L206.087 41.1421C207.047 39.4796 206.477 37.3538 204.815 36.394L193.253 29.7187C191.591 28.7589 189.465 29.3285 188.505 30.991Z" fill="white"/>
<path d="M192.567 61.759C191.837 61.7585 191.12 61.5653 190.488 61.199L178.937 54.5238C178.462 54.2497 178.045 53.8846 177.711 53.4495C177.377 53.0144 177.132 52.5177 176.99 51.9879C176.848 51.458 176.812 50.9054 176.883 50.3615C176.955 49.8176 177.133 49.2932 177.407 48.8182L187.908 30.6407C188.182 30.1649 188.547 29.7477 188.982 29.4131C189.417 29.0785 189.913 28.8331 190.444 28.691C190.974 28.5489 191.527 28.5129 192.071 28.5849C192.615 28.657 193.139 28.8358 193.614 29.1111L205.165 35.7828C206.124 36.3377 206.824 37.2505 207.111 38.3209C207.398 39.3913 207.248 40.5318 206.695 41.4919L196.194 59.6693C195.826 60.3057 195.298 60.8339 194.661 61.2008C194.024 61.5677 193.302 61.7602 192.567 61.759ZM191.188 59.9879C191.826 60.3545 192.584 60.4532 193.294 60.2622C194.005 60.0713 194.611 59.6063 194.979 58.9692L205.48 40.7918C205.848 40.1539 205.948 39.396 205.758 38.6846C205.568 37.9731 205.103 37.3663 204.465 36.9974L192.914 30.3222C192.598 30.1396 192.249 30.021 191.887 29.9734C191.525 29.9257 191.157 29.9499 190.804 30.0445C190.451 30.1391 190.121 30.3023 189.831 30.5247C189.541 30.7471 189.298 31.0244 189.116 31.3408L178.615 49.5182C178.432 49.8339 178.313 50.1825 178.265 50.5443C178.217 50.906 178.24 51.2737 178.335 51.6262C178.429 51.9788 178.592 52.3092 178.814 52.5986C179.037 52.888 179.314 53.1306 179.63 53.3126L191.188 59.9879Z" fill="black"/>
<path d="M193.512 44.834C193.356 44.8339 193.204 44.7815 193.081 44.685C192.958 44.5885 192.87 44.4535 192.833 44.3016C192.795 44.1498 192.81 43.9897 192.874 43.847C192.938 43.7043 193.048 43.5872 193.187 43.5144L205.7 36.9512C205.865 36.8649 206.058 36.8475 206.235 36.903C206.413 36.9585 206.561 37.0822 206.647 37.247C206.734 37.4118 206.751 37.6041 206.696 37.7817C206.64 37.9592 206.516 38.1075 206.352 38.1938L193.838 44.7535C193.737 44.8063 193.626 44.834 193.512 44.834Z" fill="black"/>
<path d="M186.321 42.4147L170.653 56.3895C169.22 57.6673 169.094 59.8645 170.372 61.2971L179.259 71.2604C180.536 72.693 182.734 72.8186 184.166 71.5408L199.835 57.5659C201.267 56.2882 201.393 54.0909 200.115 52.6583L191.229 42.695C189.951 41.2624 187.754 41.1369 186.321 42.4147Z" fill="white"/>
<path d="M181.859 73.1376C181.779 73.1376 181.698 73.1376 181.618 73.1376C181.068 73.107 180.531 72.9674 180.036 72.7271C179.542 72.4867 179.1 72.1503 178.737 71.7374L169.863 61.7789C169.499 61.3687 169.219 60.8908 169.039 60.3723C168.859 59.8538 168.783 59.305 168.816 58.7573C168.848 58.2095 168.989 57.6735 169.228 57.18C169.468 56.6864 169.803 56.2449 170.213 55.8808L185.881 41.9073C186.71 41.1728 187.797 40.7972 188.902 40.8628C190.008 40.9284 191.043 41.4299 191.779 42.2573L200.663 52.2194C201.028 52.6295 201.308 53.1075 201.487 53.626C201.667 54.1444 201.743 54.6932 201.71 55.241C201.678 55.7887 201.538 56.3247 201.298 56.8183C201.058 57.3119 200.723 57.7534 200.313 58.1175L184.635 72.077C183.873 72.7618 182.884 73.1396 181.859 73.1376ZM188.632 42.2503C187.952 42.2476 187.295 42.497 186.788 42.9504L171.12 56.9204C170.57 57.411 170.237 58.1001 170.195 58.8359C170.153 59.5718 170.405 60.2942 170.896 60.8443L179.783 70.8063C180.026 71.0786 180.32 71.3003 180.648 71.4589C180.977 71.6175 181.333 71.7099 181.697 71.7307C182.061 71.7515 182.426 71.7003 182.77 71.5802C183.114 71.46 183.432 71.2732 183.704 71.0304L199.371 57.0569C199.644 56.8142 199.865 56.5203 200.024 56.192C200.183 55.8636 200.275 55.5072 200.296 55.1431C200.317 54.779 200.265 54.4144 200.145 54.0701C200.025 53.7258 199.838 53.4085 199.595 53.1365L190.708 43.1744C190.466 42.9018 190.173 42.6798 189.845 42.5211C189.517 42.3625 189.161 42.2705 188.797 42.2503H188.632Z" fill="black"/>
<path d="M179.381 192.407H179.318L122.101 187.622L121.936 187.489L46.195 127.832C46.0686 127.735 45.976 127.601 45.9303 127.448C45.8846 127.295 45.8881 127.132 45.9404 126.981C45.9927 126.831 46.0911 126.7 46.2216 126.609C46.3521 126.517 46.5081 126.469 46.6675 126.471H156.95L183.868 186.656C183.944 186.826 183.949 187.019 183.882 187.193C183.816 187.366 183.683 187.506 183.513 187.582C183.429 187.619 183.338 187.64 183.246 187.642C183.154 187.645 183.062 187.629 182.976 187.596C182.803 187.529 182.663 187.397 182.587 187.227L156.04 127.871H48.5017L122.64 186.247L179.437 190.997C179.622 191.004 179.797 191.085 179.923 191.221C180.049 191.358 180.116 191.539 180.109 191.725C180.101 191.91 180.02 192.085 179.884 192.212C179.747 192.338 179.566 192.404 179.381 192.397V192.407Z" fill="black"/>
<path d="M122.369 187.651C122.246 187.652 122.125 187.621 122.019 187.56C121.938 187.515 121.868 187.454 121.812 187.382C121.755 187.309 121.713 187.226 121.689 187.137C121.665 187.048 121.658 186.956 121.67 186.864C121.681 186.773 121.71 186.685 121.756 186.605L163.214 113.955C163.307 113.794 163.46 113.676 163.64 113.628C163.819 113.579 164.011 113.604 164.172 113.697C164.333 113.79 164.45 113.943 164.499 114.123C164.547 114.302 164.522 114.494 164.429 114.655L122.978 187.301C122.916 187.408 122.827 187.497 122.72 187.558C122.613 187.62 122.492 187.652 122.369 187.651Z" fill="black"/>
<path d="M126.291 188.084L103.343 195.785L77.5064 221.803C76.8292 222.483 76.3881 223.363 76.2476 224.312C76.1071 225.262 76.2747 226.231 76.7258 227.078C76.9319 227.464 77.1924 227.817 77.4994 228.128L131.384 200.188L126.291 188.084Z" fill="black"/>
<path d="M99.3989 212.503C99.2828 212.503 99.1685 212.474 99.0663 212.419L92.1566 208.701C92.0757 208.657 92.0042 208.598 91.9462 208.527C91.8881 208.456 91.8447 208.374 91.8184 208.286C91.7921 208.197 91.7833 208.105 91.7927 208.014C91.8021 207.922 91.8294 207.833 91.8731 207.753C91.9168 207.672 91.9759 207.6 92.0472 207.542C92.1185 207.484 92.2006 207.441 92.2887 207.414C92.3768 207.388 92.4692 207.379 92.5606 207.389C92.6521 207.398 92.7408 207.425 92.8217 207.469L99.7279 211.197C99.865 211.271 99.9736 211.389 100.036 211.531C100.099 211.674 100.112 211.833 100.074 211.984C100.036 212.136 99.9485 212.27 99.8255 212.365C99.7026 212.461 99.5512 212.513 99.3954 212.513L99.3989 212.503Z" fill="white"/>
<path d="M216.91 104.717H166.883V58.8626C166.887 57.7553 167.329 56.6945 168.112 55.9112C168.895 55.1278 169.955 54.6852 171.062 54.6797H212.717C213.266 54.6797 213.81 54.7879 214.317 54.9982C214.824 55.2084 215.285 55.5166 215.673 55.9051C216.061 56.2935 216.369 56.7547 216.579 57.2622C216.789 57.7696 216.897 58.3135 216.896 58.8626L216.91 104.717Z" fill="#2663FF"/>
<path d="M114.244 32.9541L106.673 33.4151C103.213 33.6253 99.8122 32.4529 97.2172 30.1557C94.6222 27.8585 93.0459 24.6247 92.835 21.1654L92.4081 14.127C92.3156 12.6043 92.5241 11.0783 93.0216 9.63627C93.5191 8.1942 94.2959 6.86431 95.3076 5.72258C96.3193 4.58085 97.5461 3.64966 98.9178 2.98224C100.29 2.31482 101.779 1.92424 103.302 1.83283L109.203 1.47425C113.473 1.21832 117.67 2.66798 120.872 5.50471C124.074 8.34144 126.018 12.3332 126.278 16.6029L126.436 19.1983C126.643 22.6391 125.475 26.0214 123.189 28.6011C120.902 31.1808 117.685 32.7466 114.244 32.9541Z" fill="black"/>
<path d="M98.5861 8.37885C98.5861 8.37885 98.3641 22.1381 116.143 18.2312L115.159 6.59961L98.5861 8.37885Z" fill="black"/>
<path d="M130.668 205.845L99.252 220.454C98.5368 220.787 98.2267 221.636 98.5592 222.352L100.093 225.649C100.425 226.365 101.275 226.675 101.99 226.342L133.406 211.733C134.121 211.4 134.431 210.551 134.099 209.836L132.565 206.538C132.232 205.823 131.383 205.512 130.668 205.845Z" fill="black"/>
<path d="M130.89 200.631L78.2969 228.144C78.9522 228.813 79.8024 229.258 80.7259 229.416C81.6495 229.573 82.599 229.434 83.4389 229.019L129.028 206.462C129.993 205.986 130.74 205.16 131.118 204.152C131.495 203.144 131.475 202.03 131.061 201.037L130.89 200.631Z" fill="white"/>
<path d="M81.4679 230.18C80.7858 230.179 80.1108 230.041 79.4826 229.776C78.8544 229.51 78.2857 229.121 77.81 228.632L77.1484 227.96L131.247 199.656L131.709 200.766C132.188 201.923 132.211 203.22 131.772 204.393C131.332 205.567 130.464 206.53 129.342 207.088L83.7606 229.654C83.0473 230.004 82.2625 230.184 81.4679 230.18ZM79.5777 228.265C80.1132 228.579 80.7184 228.754 81.3386 228.775C81.9589 228.797 82.5747 228.663 83.1306 228.387L128.723 205.852C129.476 205.476 130.07 204.844 130.401 204.071C130.732 203.297 130.777 202.431 130.529 201.627L79.5777 228.265Z" fill="black"/>
<path d="M103.497 207.763C103.381 207.764 103.266 207.735 103.164 207.679L96.2582 203.951C96.0948 203.863 95.9731 203.713 95.9199 203.535C95.8668 203.357 95.8864 203.166 95.9746 203.002C96.0628 202.839 96.2123 202.717 96.3902 202.664C96.5681 202.611 96.7598 202.631 96.9232 202.719L103.829 206.447C103.968 206.521 104.077 206.641 104.14 206.785C104.202 206.929 104.214 207.091 104.174 207.243C104.133 207.395 104.043 207.529 103.917 207.623C103.791 207.718 103.637 207.767 103.479 207.763H103.497Z" fill="white"/>
<path d="M121.423 192.412L107.502 197.13C106.482 197.476 105.405 197.617 104.331 197.547C103.257 197.476 102.207 197.194 101.242 196.718C100.277 196.241 99.4156 195.579 98.7064 194.769C97.9972 193.96 97.4544 193.018 97.1091 191.999L76.8805 132.3C75.5577 128.395 75.8402 124.125 77.6658 120.429C79.4913 116.732 82.7104 113.913 86.615 112.589C90.5197 111.267 94.7899 111.549 98.4863 113.375C102.183 115.2 105.003 118.419 106.326 122.324L126.554 182.019C126.9 183.039 127.041 184.116 126.97 185.19C126.9 186.264 126.618 187.314 126.141 188.279C125.665 189.244 125.003 190.105 124.193 190.815C123.384 191.524 122.442 192.067 121.423 192.412Z" fill="#2663FF"/>
<path d="M166.792 104.773L103.005 139.314C93.7251 144.695 82.5379 142.738 78.0225 134.946C73.5035 127.154 77.3679 116.478 86.6474 111.098L149.927 74.4141L166.792 104.773Z" fill="#2663FF"/>
<path d="M106.275 136.933C106.119 136.932 105.968 136.879 105.846 136.783C105.724 136.687 105.637 136.553 105.599 136.402C105.561 136.251 105.575 136.092 105.638 135.95C105.7 135.808 105.809 135.69 105.946 135.616L111.966 132.4C112.048 132.349 112.139 132.315 112.234 132.301C112.328 132.286 112.425 132.292 112.518 132.317C112.611 132.341 112.697 132.385 112.773 132.444C112.848 132.504 112.91 132.579 112.955 132.663C113 132.748 113.028 132.841 113.036 132.937C113.043 133.032 113.031 133.129 113 133.219C112.969 133.31 112.92 133.394 112.855 133.465C112.791 133.536 112.712 133.592 112.624 133.632L106.604 136.849C106.503 136.903 106.39 136.932 106.275 136.933Z" fill="black"/>
<path d="M135.298 122.301C135.143 122.3 134.992 122.247 134.869 122.151C134.747 122.055 134.66 121.921 134.622 121.77C134.585 121.62 134.598 121.46 134.661 121.318C134.724 121.176 134.832 121.058 134.969 120.985L150.511 112.678C150.592 112.629 150.682 112.598 150.776 112.585C150.87 112.572 150.966 112.578 151.057 112.603C151.148 112.628 151.234 112.672 151.308 112.731C151.382 112.79 151.443 112.864 151.488 112.947C151.533 113.031 151.56 113.122 151.569 113.217C151.577 113.311 151.566 113.406 151.537 113.496C151.507 113.586 151.46 113.67 151.397 113.741C151.334 113.812 151.258 113.87 151.172 113.91L135.627 122.217C135.526 122.271 135.413 122.3 135.298 122.301Z" fill="black"/>
<path d="M181.567 240.73C180.766 240.731 179.964 240.691 179.166 240.611C170.065 239.712 162.067 233.778 156.613 223.914C151.24 214.194 148.979 201.778 150.253 188.953C151.527 176.127 156.176 164.398 163.352 155.923C170.639 147.319 179.653 143.08 188.747 143.98C197.841 144.88 205.846 150.809 211.3 160.677C216.673 170.394 218.93 182.81 217.66 195.635C216.389 208.46 211.737 220.19 204.561 228.664C197.918 236.512 189.835 240.73 181.567 240.73ZM186.363 146.311C169.953 146.311 155.094 164.947 152.689 189.194C151.468 201.53 153.621 213.438 158.756 222.728C163.81 231.867 171.143 237.352 179.408 238.171C196.654 239.883 212.714 220.691 215.224 195.393C217.733 170.096 205.745 148.138 188.505 146.416C187.789 146.346 187.075 146.311 186.363 146.311Z" fill="#2663FF"/>
<path d="M183.224 195.092C185.096 195.092 186.613 193.268 186.613 191.018C186.613 188.768 185.096 186.943 183.224 186.943C181.353 186.943 179.836 188.768 179.836 191.018C179.836 193.268 181.353 195.092 183.224 195.092Z" fill="black"/>
<path d="M31.9994 240.73C31.1975 240.731 30.3961 240.691 29.5981 240.611C20.4972 239.712 12.4953 233.778 7.04175 223.914C1.66868 214.194 -0.589062 201.778 0.681573 188.953C1.95221 176.127 6.6042 164.398 13.78 155.923C21.0677 147.319 30.0882 143.08 39.1752 143.98C48.2621 144.88 56.2745 150.809 61.728 160.677C67.1011 170.394 69.3624 182.81 68.0917 195.635C66.8211 208.46 62.1656 220.204 54.9898 228.664C48.3461 236.512 40.2638 240.73 31.9994 240.73ZM36.7949 146.311C20.3817 146.311 5.52259 164.947 3.12133 189.194C1.8962 201.53 4.05243 213.438 9.18747 222.728C14.2385 231.867 21.5753 237.352 29.8397 238.171C30.5502 238.244 31.2641 238.28 31.9784 238.28C48.3881 238.28 63.2472 219.644 65.652 195.393C68.1582 170.096 56.173 148.138 38.9336 146.416C38.2195 146.346 37.5066 146.311 36.7949 146.311Z" fill="#2663FF"/>
<path d="M33.6579 195.092C35.5292 195.092 37.0462 193.268 37.0462 191.018C37.0462 188.768 35.5292 186.943 33.6579 186.943C31.7865 186.943 30.2695 188.768 30.2695 191.018C30.2695 193.268 31.7865 195.092 33.6579 195.092Z" fill="black"/>
<path d="M33.6591 187.649C33.6091 187.654 33.5587 187.654 33.5086 187.649C33.4187 187.629 33.3336 187.592 33.258 187.54C33.1824 187.487 33.118 187.421 33.0682 187.343C33.0185 187.266 32.9845 187.179 32.9682 187.089C32.9518 186.998 32.9535 186.906 32.9731 186.816L49.9709 107.585C50.2094 106.497 50.8112 105.523 51.6771 104.824C52.5431 104.124 53.6215 103.74 54.7349 103.734H78.7999C78.9856 103.734 79.1637 103.808 79.2949 103.939C79.4262 104.071 79.5 104.249 79.5 104.434C79.5 104.62 79.4262 104.798 79.2949 104.929C79.1637 105.061 78.9856 105.135 78.7999 105.135H54.7349C53.9417 105.14 53.1738 105.414 52.5569 105.912C51.9401 106.411 51.5108 107.104 51.3395 107.879L34.3417 187.089C34.3095 187.246 34.2241 187.388 34.0998 187.49C33.9755 187.592 33.8199 187.648 33.6591 187.649Z" fill="black"/>
<path d="M240.049 95.4297H184.379C181.87 95.4297 179.836 97.4639 179.836 99.9732V140.056C179.836 142.565 181.87 144.599 184.379 144.599H240.049C242.559 144.599 244.593 142.565 244.593 140.056V99.9732C244.593 97.4639 242.559 95.4297 240.049 95.4297Z" fill="#259C4A"/>
<path d="M232.641 145.296C232.456 145.296 232.278 145.222 232.146 145.091C232.015 144.959 231.941 144.781 231.941 144.596V118.311C231.941 118.126 232.015 117.948 232.146 117.816C232.278 117.685 232.456 117.611 232.641 117.611C232.827 117.611 233.005 117.685 233.136 117.816C233.268 117.948 233.342 118.126 233.342 118.311V144.596C233.342 144.781 233.268 144.959 233.136 145.091C233.005 145.222 232.827 145.296 232.641 145.296Z" fill="black"/>
<path d="M195.691 100.354H186.243C185.188 100.354 184.332 101.209 184.332 102.265V107.508C184.332 108.564 185.188 109.419 186.243 109.419H195.691C196.746 109.419 197.602 108.564 197.602 107.508V102.265C197.602 101.209 196.746 100.354 195.691 100.354Z" fill="white"/>
<path d="M196.121 115.095H185.431C185.245 115.095 185.067 115.022 184.936 114.89C184.804 114.759 184.73 114.581 184.73 114.395C184.73 114.21 184.804 114.032 184.936 113.9C185.067 113.769 185.245 113.695 185.431 113.695H196.121C196.306 113.695 196.484 113.769 196.616 113.9C196.747 114.032 196.821 114.21 196.821 114.395C196.821 114.581 196.747 114.759 196.616 114.89C196.484 115.022 196.306 115.095 196.121 115.095Z" fill="black"/>
<path d="M193.296 119.351H185.431C185.245 119.351 185.067 119.278 184.936 119.146C184.804 119.015 184.73 118.837 184.73 118.651C184.73 118.466 184.804 118.288 184.936 118.156C185.067 118.025 185.245 117.951 185.431 117.951H193.296C193.482 117.951 193.66 118.025 193.791 118.156C193.922 118.288 193.996 118.466 193.996 118.651C193.996 118.837 193.922 119.015 193.791 119.146C193.66 119.278 193.482 119.351 193.296 119.351Z" fill="black"/>
<path d="M232.574 119.014C231.234 119.014 229.998 118.192 229.26 116.802L218.699 98.2849C218.606 98.1234 218.581 97.9316 218.63 97.7517C218.678 97.5719 218.796 97.4187 218.958 97.3258C219.119 97.233 219.311 97.2081 219.491 97.2567C219.671 97.3053 219.824 97.4233 219.917 97.5849L230.485 116.119C231.003 117.092 231.787 117.642 232.623 117.603C233.46 117.565 234.279 116.966 234.752 115.955L242.529 97.7249C242.565 97.6403 242.618 97.5637 242.684 97.4993C242.749 97.435 242.827 97.3842 242.912 97.3499C242.998 97.3156 243.089 97.2985 243.181 97.2995C243.273 97.3004 243.364 97.3195 243.448 97.3556C243.533 97.3917 243.609 97.4441 243.674 97.5098C243.738 97.5755 243.789 97.6532 243.823 97.7385C243.857 97.8239 243.875 97.9151 243.874 98.007C243.873 98.099 243.854 98.1899 243.818 98.2744L236.019 116.532C235.319 118.055 234.052 118.983 232.651 119.011L232.574 119.014Z" fill="black"/>
<path d="M217.99 145.127C217.805 145.127 217.627 145.053 217.495 144.922C217.364 144.791 217.29 144.613 217.29 144.427V103.028C217.14 96.661 220.402 95.2889 220.539 95.2364C220.708 95.1755 220.895 95.1825 221.06 95.256C221.225 95.3295 221.355 95.4638 221.423 95.6309C221.491 95.7979 221.492 95.9848 221.426 96.1527C221.36 96.3205 221.231 96.4562 221.067 96.5315C220.945 96.5875 218.564 97.7077 218.687 103.011V144.427C218.687 144.612 218.614 144.79 218.483 144.921C218.353 145.052 218.175 145.126 217.99 145.127Z" fill="black"/>
<path d="M176.703 114.394H146.824C145.992 114.39 145.195 114.056 144.608 113.466C144.021 112.875 143.691 112.077 143.691 111.244C143.69 110.499 143.955 109.778 144.439 109.211C144.922 108.644 145.591 108.267 146.327 108.15L176.206 103.347C176.654 103.278 177.111 103.307 177.547 103.43C177.983 103.554 178.386 103.771 178.731 104.065C179.076 104.359 179.353 104.723 179.543 105.134C179.734 105.545 179.834 105.992 179.836 106.445V111.244C179.836 112.077 179.507 112.875 178.92 113.466C178.333 114.056 177.536 114.39 176.703 114.394Z" fill="black"/>
<path d="M233.8 68.8301H195.971C193.211 68.8301 190.973 71.068 190.973 73.8286V90.4344C190.973 93.195 193.211 95.4329 195.971 95.4329H233.8C236.56 95.4329 238.798 93.195 238.798 90.4344V73.8286C238.798 71.068 236.56 68.8301 233.8 68.8301Z" fill="#FFBB45"/>
<path d="M215.923 95.9409C215.737 95.9409 215.559 95.8671 215.428 95.7358C215.296 95.6046 215.223 95.4265 215.223 95.2408V68.827C215.223 68.6414 215.296 68.4633 215.428 68.332C215.559 68.2007 215.737 68.127 215.923 68.127C216.108 68.127 216.286 68.2007 216.418 68.332C216.549 68.4633 216.623 68.6414 216.623 68.827V95.2408C216.623 95.4265 216.549 95.6046 216.418 95.7358C216.286 95.8671 216.108 95.9409 215.923 95.9409Z" fill="black"/>
<path d="M232.44 84.9396H224.099L215.323 70.4306C215.235 70.2721 215.211 70.0855 215.258 69.91C215.304 69.7345 215.417 69.5838 215.572 69.4898C215.727 69.3958 215.913 69.3658 216.09 69.4062C216.267 69.4465 216.421 69.554 216.521 69.706L224.89 83.5394H231.572L237.673 71.3407C237.756 71.1745 237.902 71.0481 238.078 70.9894C238.255 70.9306 238.447 70.9443 238.613 71.0274C238.779 71.1105 238.906 71.2562 238.965 71.4324C239.023 71.6087 239.01 71.801 238.926 71.9672L232.44 84.9396Z" fill="black"/>
<path d="M216.456 95.9425C216.327 95.9422 216.201 95.9062 216.091 95.8384C215.981 95.7707 215.892 95.6739 215.833 95.5587C215.775 95.4435 215.75 95.3144 215.76 95.1857C215.771 95.057 215.816 94.9337 215.893 94.8294L224.136 83.5547H232.386L238.47 92.9532C238.526 93.0303 238.565 93.1179 238.585 93.2107C238.606 93.3035 238.608 93.3996 238.59 93.493C238.572 93.5863 238.536 93.6751 238.482 93.7539C238.429 93.8327 238.361 93.8999 238.281 93.9513C238.201 94.0027 238.111 94.0373 238.017 94.0529C237.924 94.0686 237.828 94.065 237.735 94.0423C237.643 94.0197 237.556 93.9785 237.48 93.9212C237.404 93.8639 237.341 93.7918 237.294 93.7093L231.637 84.9408H224.847L217.023 95.6415C216.96 95.7333 216.875 95.8085 216.776 95.8608C216.678 95.9132 216.568 95.9412 216.456 95.9425Z" fill="black"/>
<path d="M168.887 1.44531H153.832C151.672 1.44531 149.922 3.19585 149.922 5.35523V18.9787C149.922 21.1381 151.672 22.8886 153.832 22.8886H168.887C171.046 22.8886 172.797 21.1381 172.797 18.9787V5.35523C172.797 3.19585 171.046 1.44531 168.887 1.44531Z" fill="white"/>
<path d="M168.887 23.5879H153.835C153.229 23.5888 152.629 23.4703 152.068 23.2391C151.508 23.0078 150.999 22.6685 150.57 22.2403C150.141 21.8122 149.8 21.3037 149.568 20.744C149.335 20.1842 149.215 19.584 149.215 18.9779V5.35446C149.214 4.74756 149.333 4.14643 149.564 3.58546C149.796 3.0245 150.136 2.5147 150.565 2.08523C150.993 1.65576 151.503 1.31505 152.063 1.08258C152.624 0.85012 153.225 0.730468 153.832 0.730469H168.883C170.106 0.73232 171.277 1.21861 172.141 2.08275C173.005 2.94689 173.492 4.11838 173.493 5.34046V18.9639C173.495 19.57 173.377 20.1705 173.146 20.731C172.915 21.2915 172.576 21.801 172.148 22.2304C171.721 22.6599 171.212 23.0008 170.653 23.2337C170.093 23.4666 169.493 23.587 168.887 23.5879ZM153.835 2.14462C152.985 2.14647 152.169 2.48524 151.568 3.0868C150.966 3.68837 150.627 4.50373 150.626 5.35446V18.9779C150.626 19.8289 150.965 20.6448 151.567 21.2466C152.168 21.8483 152.984 22.1868 153.835 22.1877H168.887C169.738 22.1868 170.554 21.8483 171.156 21.2466C171.757 20.6448 172.096 19.8289 172.097 18.9779V5.35446C172.098 4.93202 172.015 4.51353 171.855 4.1229C171.694 3.73226 171.458 3.37712 171.16 3.07776C170.861 2.77839 170.507 2.54067 170.117 2.37816C169.727 2.21565 169.309 2.13154 168.887 2.13062L153.835 2.14462Z" fill="black"/>
<path d="M166.248 12.6309C166.701 11.7695 166.92 10.8035 166.881 9.83062C166.809 8.38311 166.176 7.02057 165.116 6.03239C164.056 5.04421 162.652 4.50824 161.203 4.53831C159.754 4.56838 158.374 5.16213 157.356 6.19345C156.338 7.22477 155.762 8.6124 155.75 10.0616C155.753 10.9122 155.952 11.7506 156.331 12.5119C156.44 12.7499 156.555 12.9915 156.681 13.2295C157.638 15.2144 158.718 17.1376 159.915 18.9876C160.043 19.1872 160.219 19.3523 160.426 19.468C160.633 19.5837 160.865 19.6466 161.102 19.6511C161.339 19.6556 161.574 19.6016 161.785 19.4938C161.996 19.386 162.178 19.2277 162.313 19.0331C163.671 17.0589 164.955 14.9995 166.164 12.8549C166.188 12.8164 166.209 12.7744 166.23 12.7359L166.265 12.6764C166.23 12.6519 166.241 12.6309 166.248 12.6309Z" fill="#2663FF"/>
<path d="M161.32 12.808C162.642 12.808 163.714 11.7361 163.714 10.4138C163.714 9.09147 162.642 8.01953 161.32 8.01953C159.998 8.01953 158.926 9.09147 158.926 10.4138C158.926 11.7361 159.998 12.808 161.32 12.808Z" fill="white"/>
<path d="M95.9835 12.3398C95.9835 12.3398 92.049 14.3806 93.9498 23.4815C94.1828 24.5959 94.0604 25.7553 93.5997 26.7964L93.1762 27.745C93.0714 27.9846 93.0574 28.2541 93.1366 28.5033C93.2158 28.7525 93.3829 28.9644 93.6067 29.0996L94.8739 29.8522L96.3265 35.6103C96.3265 35.6103 97.4501 41.8935 104.416 39.3137L108.889 37.791L115.852 41.2424L126.461 29.7507L121.06 25.4732C123.129 24.7417 124.473 22.8375 124.392 20.8562C124.298 18.4935 122.243 17.2159 122.152 17.1634C121.21 16.6082 120.102 16.4014 119.023 16.5788C117.112 16.9288 115.523 18.5775 115.004 20.7617C115.001 20.7617 103.73 27.3319 95.9835 12.3398Z" fill="white"/>
<path d="M116.015 42.1196L108.843 38.5633L104.642 39.9914C102.22 40.8875 100.155 40.8735 98.5203 39.9389C96.273 38.6543 95.72 36.0885 95.6465 35.777L94.2568 30.3199L93.2417 29.7178C92.8717 29.4942 92.5963 29.143 92.4673 28.7303C92.3384 28.3177 92.3648 27.8721 92.5416 27.4776L92.9617 26.529C93.3623 25.6217 93.4665 24.6111 93.2592 23.6412C91.2745 14.0992 95.4784 11.8134 95.657 11.7189L96.28 11.4004L96.5986 12.02C99.1398 16.9205 102.315 19.9693 106.05 21.0544C108.838 21.8138 111.808 21.5416 114.412 20.2878C115.084 17.9776 116.82 16.2694 118.906 15.8914C120.152 15.6875 121.43 15.9252 122.519 16.5634C122.62 16.6229 124.987 18.0721 125.099 20.8269C125.114 21.7957 124.87 22.751 124.393 23.5941C123.915 24.4372 123.221 25.1374 122.382 25.6224L127.493 29.6723L116.015 42.1196ZM108.958 37.0511L115.711 40.3975L125.445 29.8333L119.628 25.2339L120.821 24.8103C122.571 24.1907 123.758 22.5736 123.688 20.8794C123.607 18.8877 121.808 17.7711 121.787 17.7606C120.991 17.2933 120.056 17.1176 119.144 17.2635C117.51 17.561 116.148 19.0137 115.679 20.9284L115.609 21.2189L115.35 21.3659C112.365 22.9326 108.894 23.3007 105.647 22.3951C101.748 21.2574 98.4258 18.2401 95.7655 13.4201C95.3718 13.86 95.0568 14.3644 94.8344 14.9113C94.2323 16.3114 93.7108 18.9227 94.6349 23.3507C94.9044 24.6079 94.7721 25.918 94.2568 27.0961L93.8228 28.0342C93.7869 28.1173 93.7824 28.2107 93.8101 28.2969C93.8377 28.3831 93.8957 28.4564 93.9733 28.5032L95.4855 29.4063L97.0221 35.4934C97.0221 35.5144 97.4527 37.7092 99.2308 38.7208C100.484 39.4209 102.15 39.4209 104.177 38.6613L108.958 37.0511Z" fill="black"/>
<path d="M119.461 23.4505C118.99 23.4529 118.536 23.2783 118.189 22.9613C117.841 22.6444 117.626 22.2083 117.585 21.7397C117.544 21.2712 117.682 20.8045 117.969 20.4324C118.257 20.0603 118.674 19.8101 119.138 19.7314C119.601 19.6528 120.078 19.7515 120.472 20.008C120.866 20.2644 121.15 20.6598 121.266 21.1156C121.382 21.5713 121.322 22.0541 121.098 22.4679C120.875 22.8817 120.504 23.1962 120.059 23.3489C119.867 23.4168 119.664 23.4512 119.461 23.4505ZM119.461 21.1157C119.409 21.1165 119.358 21.126 119.31 21.1437C119.203 21.1831 119.115 21.2613 119.063 21.3627C119.01 21.4642 118.998 21.5815 119.029 21.6914C119.059 21.8014 119.129 21.8959 119.226 21.9564C119.323 22.0169 119.438 22.0389 119.551 22.0181C119.663 21.9972 119.763 21.935 119.831 21.8438C119.9 21.7526 119.931 21.639 119.92 21.5255C119.909 21.4121 119.855 21.307 119.77 21.2311C119.685 21.1552 119.575 21.114 119.461 21.1157Z" fill="black"/>
<path d="M118.373 22.6585C118.235 22.6591 118.1 22.6189 117.984 22.5429C117.869 22.4669 117.779 22.3586 117.725 22.2315C117.47 21.6502 117.423 20.9987 117.592 20.3868C117.942 19.2071 119.132 18.3811 120.557 18.3286C120.743 18.3221 120.923 18.3896 121.059 18.5163C121.195 18.643 121.275 18.8185 121.281 19.0041C121.288 19.1898 121.22 19.3704 121.094 19.5063C120.967 19.6422 120.792 19.7222 120.606 19.7287C119.797 19.7567 119.111 20.1908 118.936 20.7788C118.859 21.0813 118.887 21.4012 119.017 21.6854C119.052 21.7702 119.071 21.8612 119.071 21.9532C119.072 22.0452 119.054 22.1364 119.02 22.2216C118.985 22.3068 118.933 22.3842 118.869 22.4496C118.804 22.515 118.727 22.5669 118.642 22.6025C118.557 22.6382 118.465 22.6572 118.373 22.6585Z" fill="black"/>
<path d="M99.8384 33.8384C99.6757 33.8395 99.5131 33.829 99.3518 33.8069C99.1662 33.7763 99.0003 33.6731 98.8907 33.5202C98.781 33.3672 98.7366 33.177 98.7673 32.9913C98.7979 32.8056 98.9011 32.6397 99.054 32.5301C99.207 32.4205 99.3972 32.3761 99.5829 32.4068C99.6739 32.4068 101.533 32.6658 102.87 30.5936C102.919 30.5154 102.984 30.4477 103.059 30.3946C103.135 30.3415 103.221 30.3039 103.311 30.284C103.401 30.2641 103.495 30.2623 103.586 30.2787C103.677 30.2951 103.764 30.3294 103.841 30.3796C103.919 30.4297 103.986 30.4948 104.038 30.5711C104.091 30.6473 104.128 30.7332 104.147 30.8237C104.166 30.9142 104.166 31.0076 104.149 31.0985C104.132 31.1894 104.097 31.2759 104.046 31.3531C102.635 33.5584 100.724 33.8384 99.8384 33.8384Z" fill="#D7D6D9"/>
<path d="M110.977 38.0932C110.977 38.0932 111.649 37.5227 114.988 31.25L114.312 39.7629L110.977 38.0932Z" fill="black"/>
<path d="M114.453 42.7348L126.911 29.5139C128.153 28.1094 129.714 27.0221 131.461 26.3426C135.228 24.918 139.215 25.8596 144.906 28.5583C149.384 30.7005 153.639 33.28 157.609 36.2592C165.632 42.2308 171.961 50.2361 175.577 59.5611C178.303 66.5969 179.931 75.3478 177.708 84.9178C175.444 94.6663 170.092 101.37 166.721 104.901L142.67 92.8251L114.453 42.7348Z" fill="black"/>
<path d="M153.648 79.3826C153.477 79.3812 153.313 79.3178 153.186 79.2042C153.059 79.0906 152.978 78.9346 152.958 78.7655C152.938 78.5963 152.98 78.4256 153.077 78.2853C153.173 78.145 153.318 78.0448 153.483 78.0034L164.929 75.2031C165.021 75.1749 165.117 75.1656 165.212 75.176C165.307 75.1863 165.399 75.216 165.482 75.2632C165.565 75.3104 165.638 75.3742 165.695 75.4505C165.753 75.5269 165.794 75.6142 165.817 75.7071C165.839 75.8 165.842 75.8966 165.826 75.9908C165.81 76.085 165.775 76.1749 165.722 76.2549C165.67 76.335 165.602 76.4034 165.522 76.4561C165.442 76.5088 165.352 76.5446 165.258 76.5613L153.816 79.3616C153.76 79.3738 153.704 79.3808 153.648 79.3826Z" fill="white"/>
<path d="M151.951 71.1446C148.02 58.4698 139.35 39.9178 127.329 38.6787C125.502 38.4932 119.775 37.9016 115.631 41.479C114.876 42.1416 114.209 42.898 113.646 43.7297C109.995 49.1028 111.847 55.82 112.334 57.5947C112.679 58.8452 113.138 60.0615 113.706 61.2281C116.296 66.1706 118.884 71.1143 121.47 76.0592L96.2495 84.6701C95.5891 84.8049 94.9665 85.0834 94.4258 85.4857L102.753 104.692C103.824 104.568 104.873 104.299 105.872 103.894L143.676 92.8224C146.567 91.9753 149.41 89.4796 151.076 87.0678C154.282 82.4228 153.54 76.2762 151.951 71.1446Z" fill="black"/>
<path d="M140.628 94.2985C140.462 94.2998 140.3 94.2421 140.173 94.1356C140.046 94.0291 139.96 93.8809 139.932 93.7172C139.904 93.5536 139.935 93.3853 140.019 93.2423C140.104 93.0994 140.236 92.9911 140.393 92.9368L143.358 91.8867C146.678 90.7194 149.439 88.3497 151.097 85.2454C152.755 82.1412 153.188 78.5282 152.312 75.1199C151.829 73.2157 151.262 71.308 150.635 69.4493C149.136 65.0167 147.237 60.7297 144.961 56.6415C144.871 56.479 144.849 56.2874 144.9 56.1089C144.952 55.9303 145.072 55.7794 145.234 55.6894C145.397 55.5993 145.588 55.5775 145.767 55.6287C145.945 55.6799 146.096 55.7999 146.186 55.9624C148.502 60.1203 150.435 64.4798 151.962 68.9873C152.602 70.881 153.176 72.8377 153.67 74.7594C154.634 78.5058 154.158 82.4775 152.336 85.8901C150.515 89.3028 147.48 91.9084 143.83 93.1923L140.866 94.2424C140.79 94.2749 140.71 94.2939 140.628 94.2985Z" fill="white"/>
<path d="M213.171 61.8025H171.38C171.194 61.8025 171.016 61.7287 170.885 61.5974C170.753 61.4662 170.68 61.2881 170.68 61.1024C170.68 60.9167 170.753 60.7387 170.885 60.6074C171.016 60.4761 171.194 60.4023 171.38 60.4023H213.171C213.356 60.4023 213.534 60.4761 213.666 60.6074C213.797 60.7387 213.871 60.9167 213.871 61.1024C213.871 61.2881 213.797 61.4662 213.666 61.5974C213.534 61.7287 213.356 61.8025 213.171 61.8025Z" fill="black"/>
<path d="M188.946 55.3918C188.76 55.3918 188.582 55.318 188.451 55.1867C188.32 55.0554 188.246 54.8774 188.246 54.6917V41.5653C188.246 41.3796 188.32 41.2016 188.451 41.0703C188.582 40.939 188.76 40.8652 188.946 40.8652C189.132 40.8652 189.31 40.939 189.441 41.0703C189.572 41.2016 189.646 41.3796 189.646 41.5653V54.6917C189.646 54.8774 189.572 55.0554 189.441 55.1867C189.31 55.318 189.132 55.3918 188.946 55.3918Z" fill="black"/>
<path d="M93.3648 89.5703L81.376 94.1208C80.844 94.3238 80.3014 94.4988 79.7588 94.6739C78.5792 95.0519 75.5199 96.6341 75.2679 102.847C75.2679 102.847 74.9178 110.033 79.4998 109.802C79.4998 109.802 82.1461 114.262 85.2719 112.487C85.2719 112.487 89.7419 114.987 90.7605 110.212C91.8643 109.244 92.9774 108.237 94.0999 107.191C95.892 105.522 97.5827 103.862 99.1824 102.231L93.3648 89.5703Z" fill="white"/>
<path d="M87.7228 113.853C86.8761 113.832 86.0426 113.639 85.2726 113.286C82.6438 114.48 80.2285 112.194 79.1084 110.521C78.1154 110.502 77.1693 110.095 76.4726 109.387C74.3724 107.287 74.5544 103.009 74.5614 102.827C74.8275 96.2394 78.1318 94.4752 79.539 94.0236C80.106 93.8381 80.6171 93.6736 81.1211 93.4811L93.7225 88.6855L100.023 102.39L99.6731 102.74C98.0174 104.427 96.3022 106.103 94.566 107.721C93.5159 108.697 92.4658 109.667 91.3842 110.605C91.0342 112.079 90.3026 113.055 89.2385 113.549C88.7603 113.756 88.2438 113.859 87.7228 113.853ZM85.2726 111.7L85.6226 111.893C85.6401 111.893 87.3938 112.856 88.6854 112.268C89.3855 111.953 89.8405 111.217 90.0856 110.08L90.1346 109.852L90.3061 109.698C91.4192 108.722 92.5358 107.71 93.6314 106.691C95.2311 105.2 96.8168 103.657 98.3499 102.099L93.0084 90.4602L81.6322 94.7902C81.0966 94.9932 80.5821 95.1647 79.98 95.3538C78.8529 95.7038 76.2066 97.1775 75.9756 102.89C75.9756 102.932 75.818 106.74 77.4737 108.4C77.7343 108.658 78.0483 108.856 78.3936 108.98C78.7389 109.104 79.1071 109.151 79.4724 109.117L79.8925 109.096L80.1095 109.446C80.5466 110.136 81.0819 110.759 81.6987 111.294C82.8538 112.268 83.9144 112.46 84.9365 111.879L85.2726 111.7Z" fill="black"/>
<path d="M79.4993 110.516C79.3619 110.516 79.2276 110.476 79.1131 110.4C78.9985 110.324 78.9089 110.216 78.8553 110.089C78.7818 109.918 77.1051 105.854 78.5052 102.206C78.5381 102.12 78.5876 102.042 78.6508 101.975C78.7141 101.908 78.7899 101.854 78.8739 101.817C78.958 101.779 79.0485 101.759 79.1405 101.756C79.2325 101.754 79.3241 101.769 79.4101 101.802C79.496 101.835 79.5747 101.884 79.6415 101.948C79.7084 102.011 79.7621 102.087 79.7996 102.171C79.8372 102.255 79.8578 102.345 79.8603 102.437C79.8629 102.529 79.8472 102.621 79.8144 102.707C78.6208 105.833 80.1434 109.508 80.1644 109.543C80.2367 109.714 80.2382 109.907 80.1686 110.078C80.0991 110.25 79.9641 110.388 79.7934 110.46C79.7005 110.5 79.6002 110.519 79.4993 110.516Z" fill="black"/>
<path d="M85.7102 113.093C85.5872 113.093 85.4665 113.06 85.3601 112.998C83.1934 111.752 81.9403 109.547 81.7407 106.621C81.6574 105.283 81.7754 103.94 82.0908 102.637C82.1075 102.542 82.1438 102.452 82.1973 102.371C82.2507 102.291 82.3203 102.222 82.4016 102.17C82.4828 102.118 82.574 102.083 82.6694 102.067C82.7648 102.052 82.8623 102.057 82.9558 102.081C83.0494 102.105 83.1368 102.149 83.2128 102.208C83.2888 102.268 83.3516 102.343 83.3972 102.428C83.4429 102.513 83.4704 102.607 83.4781 102.703C83.4858 102.799 83.4735 102.896 83.4419 102.987C83.4419 103.054 81.8107 109.323 86.0672 111.773C86.2003 111.851 86.3043 111.969 86.363 112.112C86.4217 112.254 86.432 112.412 86.3921 112.56C86.3523 112.709 86.2646 112.84 86.1426 112.934C86.0206 113.028 85.871 113.079 85.7172 113.079L85.7102 113.093Z" fill="black"/>
<path d="M90.759 110.926C90.7058 110.926 90.6528 110.918 90.6015 110.905C86.2085 109.9 86.1455 104.527 86.7266 101.825C86.7686 101.646 86.8789 101.491 87.0338 101.394C87.1887 101.296 87.3758 101.262 87.555 101.301C87.7342 101.339 87.8911 101.446 87.9921 101.599C88.0931 101.752 88.1302 101.939 88.0952 102.119C88.0952 102.185 86.7686 108.591 90.8955 109.543C91.0632 109.581 91.211 109.68 91.3106 109.82C91.4102 109.96 91.4548 110.132 91.4357 110.303C91.4167 110.474 91.3354 110.632 91.2074 110.747C91.0793 110.862 90.9135 110.925 90.7415 110.926H90.759Z" fill="black"/>
<path d="M225.64 46.6621H207.298C205.315 46.6621 203.707 48.27 203.707 50.2535V65.2386C203.707 67.222 205.315 68.83 207.298 68.83H225.64C227.624 68.83 229.232 67.222 229.232 65.2386V50.2535C229.232 48.27 227.624 46.6621 225.64 46.6621Z" fill="#FFC1EB"/>
<path d="M228.57 55.3943H204.337C204.151 55.3943 203.973 55.3205 203.842 55.1892C203.71 55.058 203.637 54.8799 203.637 54.6942C203.637 54.5085 203.71 54.3305 203.842 54.1992C203.973 54.0679 204.151 53.9941 204.337 53.9941H228.57C228.756 53.9941 228.934 54.0679 229.065 54.1992C229.196 54.3305 229.27 54.5085 229.27 54.6942C229.27 54.8799 229.196 55.058 229.065 55.1892C228.934 55.3205 228.756 55.3943 228.57 55.3943Z" fill="#FB6D6D"/>
<path d="M216.47 69.5274C216.284 69.5274 216.106 69.4536 215.975 69.3223C215.843 69.1911 215.77 69.013 215.77 68.8273V46.663C215.77 46.4773 215.843 46.2992 215.975 46.1679C216.106 46.0366 216.284 45.9629 216.47 45.9629C216.655 45.9629 216.833 46.0366 216.965 46.1679C217.096 46.2992 217.17 46.4773 217.17 46.663V68.8273C217.17 69.013 217.096 69.1911 216.965 69.3223C216.833 69.4536 216.655 69.5274 216.47 69.5274Z" fill="#FB6D6D"/>
<path d="M215.734 48.6061L215.769 47.458C216.039 38.4866 218.895 35.5568 221.247 34.6747C221.781 34.4755 222.351 34.3925 222.919 34.4311C223.487 34.4697 224.04 34.6291 224.541 34.8987C225.021 35.1519 225.441 35.5046 225.773 35.9332C226.105 36.3618 226.341 36.8565 226.467 37.384C227.727 42.7815 217.219 47.8851 216.77 48.1091L215.734 48.6061ZM221.738 35.9838C219.886 36.6839 217.653 39.0501 217.222 46.3064C220.372 44.5877 225.847 40.8843 225.105 37.7025C225.026 37.3676 224.876 37.0538 224.664 36.7825C224.453 36.5112 224.185 36.2889 223.88 36.1308C223.554 35.9557 223.194 35.8519 222.824 35.8266C222.455 35.8012 222.085 35.8548 221.738 35.9838Z" fill="#FB6D6D"/>
<path d="M216.812 48.6061L215.762 48.1091C215.314 47.8956 204.806 42.7815 206.066 37.384C206.191 36.8565 206.428 36.3618 206.76 35.9332C207.092 35.5046 207.512 35.1519 207.991 34.8987C208.492 34.6291 209.046 34.4697 209.614 34.4311C210.182 34.3925 210.751 34.4755 211.285 34.6747C213.637 35.5533 216.497 38.4866 216.763 47.458L216.812 48.6061ZM209.906 35.8193C209.473 35.8195 209.048 35.9265 208.667 36.1308C208.361 36.2889 208.093 36.5112 207.882 36.7825C207.67 37.0538 207.52 37.3676 207.441 37.7025C206.699 40.8878 212.16 44.5912 215.328 46.3064C214.894 39.0501 212.66 36.6769 210.809 35.9838C210.52 35.8756 210.214 35.8199 209.906 35.8193Z" fill="#FB6D6D"/>
<path d="M93.083 92.0301L97.4094 101.688C97.4094 101.688 98.3195 105.121 102.751 104.677L94.4236 85.4844C93.209 86.391 92.0049 88.2567 93.083 92.0301Z" fill="#2663FF"/>
<path d="M121.292 76.193C121.126 76.1926 120.965 76.133 120.839 76.0249C120.712 75.9167 120.629 75.7671 120.602 75.6028C120.576 75.4385 120.61 75.2703 120.696 75.1283C120.783 74.9863 120.917 74.8798 121.075 74.8278L130.176 71.828C130.353 71.77 130.545 71.7844 130.711 71.8681C130.876 71.9518 131.002 72.0979 131.06 72.2743C131.118 72.4507 131.104 72.6429 131.02 72.8087C130.936 72.9744 130.79 73.1002 130.614 73.1582L121.513 76.1545C121.442 76.1791 121.367 76.1921 121.292 76.193Z" fill="white"/>
<path d="M241.432 143.551H182.356C180.964 143.551 179.836 144.678 179.836 146.069C179.836 147.46 180.964 148.588 182.356 148.588H241.432C242.824 148.588 243.952 147.46 243.952 146.069C243.952 144.678 242.824 143.551 241.432 143.551Z" fill="black"/>
<path d="M69.2346 12.3164H47.6233C44.4896 12.3164 41.9492 14.8568 41.9492 17.9905C41.9492 21.1242 44.4896 23.6646 47.6233 23.6646H69.2346C72.3683 23.6646 74.9087 21.1242 74.9087 17.9905C74.9087 14.8568 72.3683 12.3164 69.2346 12.3164Z" fill="white"/>
<path d="M69.2341 24.369H47.6228C45.9577 24.33 44.3739 23.6411 43.21 22.4497C42.0461 21.2582 41.3945 19.6587 41.3945 17.9931C41.3945 16.3275 42.0461 14.728 43.21 13.5365C44.3739 12.3451 45.9577 11.6562 47.6228 11.6172H69.2341C70.8992 11.6562 72.483 12.3451 73.6469 13.5365C74.8108 14.728 75.4624 16.3275 75.4624 17.9931C75.4624 19.6587 74.8108 21.2582 73.6469 22.4497C72.483 23.6411 70.8992 24.33 69.2341 24.369ZM47.6228 13.0173C46.326 13.0517 45.0939 13.5911 44.1888 14.5204C43.2837 15.4498 42.7773 16.6958 42.7773 17.9931C42.7773 19.2904 43.2837 20.5364 44.1888 21.4658C45.0939 22.3952 46.326 22.9345 47.6228 22.9689H69.2341C70.5309 22.9345 71.7631 22.3952 72.6681 21.4658C73.5732 20.5364 74.0796 19.2904 74.0796 17.9931C74.0796 16.6958 73.5732 15.4498 72.6681 14.5204C71.7631 13.5911 70.5309 13.0517 69.2341 13.0173H47.6228Z" fill="black"/>
<path d="M49.4459 19.839C50.4666 19.839 51.294 19.0115 51.294 17.9908C51.294 16.97 50.4666 16.1426 49.4459 16.1426C48.4251 16.1426 47.5977 16.97 47.5977 17.9908C47.5977 19.0115 48.4251 19.839 49.4459 19.839Z" fill="#2663FF"/>
<path d="M58.4302 19.839C59.451 19.839 60.2784 19.0115 60.2784 17.9908C60.2784 16.97 59.451 16.1426 58.4302 16.1426C57.4095 16.1426 56.582 16.97 56.582 17.9908C56.582 19.0115 57.4095 19.839 58.4302 19.839Z" fill="#2663FF"/>
<path d="M67.4029 19.839C68.4236 19.839 69.2511 19.0115 69.2511 17.9908C69.2511 16.97 68.4236 16.1426 67.4029 16.1426C66.3822 16.1426 65.5547 16.97 65.5547 17.9908C65.5547 19.0115 66.3822 19.839 67.4029 19.839Z" fill="#2663FF"/>
</svg>
