<svg width="52" height="52" fill="none" xmlns="http://www.w3.org/2000/svg"><rect width="52" height="52" rx="26" fill="#FFDC01"/><path fill-rule="evenodd" clip-rule="evenodd" d="M20.72 16.25a1.219 1.219 0 0 0 0 2.438h4.062a1.219 1.219 0 0 0 0-2.438h-4.063zm10.983 3.987a1.219 1.219 0 0 0-.843-2.287l-10.562 3.892a1.219 1.219 0 1 0 .842 2.287l10.563-3.892zm0 9.921a1.219 1.219 0 1 0-.843-2.287l-10.562 3.892a1.219 1.219 0 0 0 .842 2.287l10.563-3.892zm-4.484 3.154a1.219 1.219 0 0 0 0 2.438h4.063a1.219 1.219 0 0 0 0-2.438h-4.063zm4.5-8.205a1.219 1.219 0 0 0-.875-2.275l-10.562 4.062a1.219 1.219 0 1 0 .875 2.275l10.562-4.062z" fill="#fff"/></svg>