<svg width="697" height="464" viewBox="0 0 697 464" fill="none" xmlns="http://www.w3.org/2000/svg">
<path d="M369.422 288.757C387.175 304.26 407.495 316.551 429.468 325.078C449.479 332.842 470.935 337.936 492.482 337.908C502.272 337.961 512.022 336.657 521.453 334.031C525.971 332.731 530.367 331.039 534.59 328.974C538.559 327.063 542.337 324.778 545.872 322.15C552.799 316.88 558.609 310.286 562.964 302.751C567.17 295.665 569.832 287.771 570.776 279.586C571.74 271.075 570.207 262.468 566.366 254.813C561.741 245.776 553.786 238.462 544.029 236.164C539.761 235.172 535.318 235.207 531.066 236.266C526.947 237.306 522.405 239.479 519.751 243.088C518.668 244.606 517.957 246.358 517.673 248.201C517.39 250.045 517.542 251.929 518.119 253.703C519.28 257.765 521.375 261.499 524.237 264.605C538.913 281.062 563.343 285.289 584.311 285.36C604.604 285.274 624.715 281.522 643.675 274.285C663.467 266.737 681.958 256.143 698.479 242.885C716.726 228.21 733.051 211.292 747.066 192.532C750.534 187.945 753.879 183.284 757.103 178.548C757.715 177.599 758.669 176.922 759.767 176.656C760.864 176.39 762.022 176.555 763.001 177.119C763.972 177.711 764.669 178.665 764.937 179.772C765.205 180.878 765.023 182.045 764.43 183.017C750.463 203.833 734.033 222.885 715.497 239.761C698.111 255.551 678.341 268.497 656.917 278.122C636.763 287.121 615.154 292.421 593.123 293.767C570.017 295.006 544.099 291.899 525.314 277.208C516.905 270.639 509.432 261.574 508.948 250.472C508.47 238.62 518.818 230.388 529.436 227.867C534.841 226.667 540.444 226.675 545.845 227.893C551.246 229.11 556.311 231.505 560.679 234.908C569.607 241.939 575.814 251.854 578.237 262.958C582.387 281.674 575.87 301.424 564.075 316.095C550.967 332.395 531.835 341.787 511.362 344.999C489.467 348.4 466.955 345.561 445.726 339.601C421.278 332.729 398.26 321.528 377.766 306.53C372.681 302.808 367.789 298.769 362.998 294.675C362.221 293.844 361.805 292.739 361.841 291.603C361.878 290.466 362.365 289.39 363.194 288.612C364.033 287.851 365.134 287.445 366.266 287.479C367.398 287.514 368.473 287.985 369.265 288.795L369.422 288.757Z" fill="#2663FF"/>
<path d="M-66.4012 122.984C-61.4595 148.368 -52.132 172.696 -38.8373 194.878C-26.7296 215.077 -11.5721 233.936 7.11262 248.419C15.5575 255.057 24.8824 260.491 34.8207 264.567C39.6094 266.483 44.5566 267.977 49.6057 269.031C54.3308 270.048 59.1422 270.612 63.9745 270.716C73.5231 270.815 82.9961 269.014 91.8426 265.419C100.257 262.112 107.878 257.066 114.207 250.61C120.772 243.886 125.24 235.398 127.066 226.18C129.143 215.237 127.177 203.546 120.272 194.985C117.242 191.252 113.37 188.292 108.973 186.346C104.705 184.473 99.3071 183.297 94.5784 184.637C92.6177 185.224 90.8219 186.262 89.335 187.668C87.8482 189.074 86.7117 190.809 86.0171 192.734C84.2876 197.034 83.5888 201.68 83.9765 206.298C85.61 230.436 103.928 250.547 122.044 264.725C139.682 278.315 159.631 288.605 180.928 295.1C203.156 301.888 226.308 305.161 249.546 304.799C275.235 304.371 300.768 300.706 325.54 293.891C331.632 292.252 337.669 290.467 343.65 288.534C344.82 288.125 346.102 288.18 347.232 288.689C348.362 289.197 349.253 290.12 349.722 291.267C350.165 292.435 350.126 293.731 349.613 294.869C349.101 296.008 348.157 296.896 346.989 297.339C320.874 305.968 293.813 311.411 266.393 313.55C240.7 315.523 214.856 313.427 189.816 307.34C166.298 301.567 144.01 291.609 124.018 277.942C103.167 263.457 82.8066 243.316 76.4238 217.94C73.5625 206.588 73.1919 193.704 80.2475 183.76C87.8133 173.17 102.32 173.007 113.217 177.972C118.707 180.572 123.555 184.352 127.414 189.043C131.273 193.734 134.049 199.219 135.541 205.107C138.542 217.21 137.243 229.979 131.866 241.229C122.86 260.237 103.917 272.959 83.8202 277.726C61.4903 283.021 38.5926 278.276 18.6936 267.275C-2.56389 255.479 -20.1543 237.862 -34.5314 218.405C-51.0844 195.991 -63.483 170.79 -71.1385 143.999C-73.0384 137.351 -74.5567 130.558 -75.9501 123.785C-76.0647 122.542 -75.6812 121.305 -74.8839 120.345C-74.0866 119.385 -72.9408 118.781 -71.6982 118.665C-70.4592 118.571 -69.232 118.961 -68.2744 119.753C-67.3169 120.544 -66.7035 121.677 -66.5631 122.911L-66.4012 122.984Z" fill="#2663FF"/>
<path d="M508.183 402.267L509.23 404.527C509.893 405.956 509.271 407.652 507.841 408.315L453.653 433.422C452.223 434.084 450.527 433.462 449.865 432.033L448.818 429.773C448.156 428.343 448.778 426.648 450.207 425.985L504.396 400.878C505.825 400.215 507.521 400.837 508.183 402.267Z" fill="black"/>
<path d="M507.027 383.616L480.061 390.713L443.636 407.595L449.852 421.021C450.423 422.248 451.457 423.198 452.727 423.664C453.998 424.13 455.401 424.072 456.629 423.505L504.579 401.293L507.027 383.616Z" fill="white"/>
<path d="M454.492 425.386C455.436 425.386 456.368 425.181 457.224 424.783L505.876 402.252L508.715 381.673L479.45 389.4L441.747 406.935L448.567 421.653C449.098 422.774 449.937 423.72 450.986 424.381C452.036 425.042 453.252 425.391 454.492 425.386V425.386ZM503.272 400.329L456.032 422.221C455.591 422.428 455.113 422.546 454.627 422.568C454.14 422.589 453.654 422.514 453.197 422.346C452.739 422.179 452.32 421.922 451.962 421.591C451.605 421.26 451.316 420.862 451.114 420.418L445.487 408.277L480.542 392.033L505.33 385.512L503.272 400.329Z" fill="black"/>
<path d="M500.799 411.564L531.47 397.371C532.598 396.849 533.472 395.899 533.9 394.733C534.329 393.566 534.276 392.276 533.755 391.148V391.148C531.608 386.519 527.711 382.932 522.921 381.175C518.13 379.419 512.838 379.637 508.208 381.781V381.781C505.915 382.843 503.854 384.346 502.143 386.205C500.431 388.064 499.103 390.242 498.233 392.614C497.363 394.986 496.969 397.507 497.073 400.031C497.178 402.556 497.778 405.035 498.841 407.328L500.799 411.564Z" fill="black"/>
<path d="M237.033 311.956C237.15 311.956 237.267 311.941 237.381 311.913C237.562 311.868 237.732 311.787 237.881 311.676C238.031 311.564 238.157 311.424 238.253 311.264C238.348 311.104 238.411 310.927 238.438 310.742C238.465 310.558 238.456 310.37 238.41 310.189L219.732 236.387C219.638 236.022 219.403 235.709 219.078 235.518C218.753 235.326 218.366 235.271 218.001 235.365C217.636 235.459 217.323 235.695 217.131 236.019C216.94 236.344 216.885 236.732 216.979 237.097L235.656 310.898C235.736 311.202 235.915 311.471 236.164 311.662C236.413 311.853 236.719 311.957 237.033 311.956Z" fill="black"/>
<path d="M339.606 463.444C339.67 463.451 339.734 463.451 339.798 463.444C339.983 463.42 340.161 463.359 340.323 463.265C340.485 463.172 340.626 463.047 340.74 462.899C340.853 462.751 340.936 462.581 340.984 462.401C341.032 462.22 341.043 462.032 341.019 461.847L321.908 320.766C321.883 320.579 321.822 320.4 321.728 320.237C321.634 320.074 321.509 319.931 321.359 319.817C321.21 319.703 321.04 319.619 320.858 319.57C320.677 319.522 320.487 319.51 320.301 319.534C320.114 319.559 319.935 319.62 319.772 319.714C319.609 319.808 319.467 319.934 319.352 320.083C319.238 320.232 319.154 320.403 319.106 320.584C319.057 320.766 319.045 320.955 319.07 321.142L338.201 462.216C338.248 462.556 338.415 462.868 338.674 463.094C338.932 463.319 339.263 463.444 339.606 463.444V463.444Z" fill="black"/>
<path d="M216.181 160.333L230.576 223.743C231.789 229.09 228.439 234.409 223.092 235.623L212.255 238.083C206.908 239.297 201.59 235.946 200.376 230.599L185.981 167.189C184.767 161.842 188.118 156.524 193.465 155.31L204.302 152.85C209.649 151.636 214.967 154.986 216.181 160.333Z" fill="#2663FF"/>
<path d="M236.025 463.444C236.37 463.447 236.704 463.325 236.965 463.101C237.226 462.876 237.396 462.564 237.445 462.223L257.392 321.135C257.445 320.758 257.346 320.376 257.117 320.073C256.888 319.769 256.548 319.569 256.172 319.517C255.795 319.464 255.413 319.563 255.11 319.792C254.807 320.021 254.607 320.361 254.554 320.737L234.613 461.826C234.561 462.199 234.658 462.577 234.884 462.878C235.111 463.178 235.447 463.377 235.82 463.43C235.887 463.442 235.957 463.447 236.025 463.444V463.444Z" fill="black"/>
<path d="M242.631 416.679H333.272C333.649 416.679 334.01 416.529 334.276 416.263C334.542 415.997 334.691 415.636 334.691 415.26C334.691 414.883 334.542 414.522 334.276 414.256C334.01 413.99 333.649 413.84 333.272 413.84H242.631C242.255 413.84 241.894 413.99 241.627 414.256C241.361 414.522 241.212 414.883 241.212 415.26C241.212 415.636 241.361 415.997 241.627 416.263C241.894 416.529 242.255 416.679 242.631 416.679Z" fill="black"/>
<path d="M243.89 287.64H329.798C335.215 287.64 339.605 292.031 339.605 297.447V311.129C339.605 316.545 335.215 320.936 329.798 320.936H243.89C238.474 320.936 234.083 316.545 234.083 311.129V297.447C234.083 292.031 238.474 287.64 243.89 287.64Z" fill="#2663FF"/>
<path d="M240.76 249.319H295.004V213.312H244.883C241.341 224.966 239.935 237.164 240.731 249.319H240.76Z" fill="black"/>
<path d="M358.03 454.241H417.753C419.328 454.241 420.605 455.518 420.605 457.093V459.584C420.605 461.16 419.328 462.437 417.753 462.437H358.03C356.455 462.437 355.177 461.16 355.177 459.584V457.093C355.177 455.518 356.455 454.241 358.03 454.241Z" fill="black"/>
<path d="M427.418 439.701L399.969 434.805H359.819V449.608C359.819 450.961 360.356 452.259 361.313 453.215C362.27 454.172 363.568 454.71 364.921 454.71H417.774L427.418 439.701Z" fill="white"/>
<path d="M364.92 456.126H418.532L429.766 438.676L399.961 433.382H358.391V449.604C358.393 451.335 359.081 452.993 360.306 454.216C361.53 455.439 363.189 456.126 364.92 456.126V456.126ZM416.985 453.287H364.92C363.943 453.286 363.008 452.897 362.317 452.207C361.627 451.516 361.238 450.581 361.237 449.604V436.221H399.84L425.075 440.72L416.985 453.287Z" fill="black"/>
<path d="M461.462 406.807L477.96 394.744C480.504 392.889 482.658 390.551 484.298 387.864C485.938 385.177 487.033 382.193 487.52 379.083C488.007 375.972 487.877 372.796 487.136 369.737C486.396 366.677 485.06 363.793 483.205 361.249L411.319 262.667C408.599 258.935 405.17 255.776 401.229 253.37C397.288 250.964 392.911 249.358 388.349 248.643C383.787 247.929 379.128 248.121 374.64 249.207C370.152 250.293 365.922 252.253 362.191 254.975V254.975C358.46 257.695 355.3 261.123 352.894 265.065C350.488 269.006 348.882 273.383 348.168 277.945C347.453 282.507 347.645 287.165 348.731 291.654C349.817 296.142 351.777 300.372 354.499 304.102L425.235 401.137C429.287 406.693 435.38 410.411 442.174 411.474C448.968 412.538 455.906 410.859 461.462 406.807V406.807Z" fill="black"/>
<path d="M289.934 299.782H415.539V275.101C415.537 265.606 411.764 256.5 405.049 249.786C398.334 243.072 389.227 239.301 379.731 239.301H240.757V250.605C240.757 263.648 245.938 276.156 255.161 285.379C264.383 294.601 276.892 299.782 289.934 299.782V299.782Z" fill="black"/>
<path d="M371.115 438.274H391.51C397.868 438.274 403.966 435.749 408.463 431.254C412.959 426.759 415.486 420.661 415.488 414.303V296.753H345.164V412.345C345.163 415.752 345.834 419.126 347.138 422.273C348.442 425.421 350.354 428.281 352.764 430.689C355.174 433.098 358.036 435.007 361.184 436.309C364.333 437.61 367.708 438.278 371.115 438.274Z" fill="black"/>
<path d="M453.031 407.306C453.29 407.306 453.544 407.234 453.766 407.098C453.987 406.963 454.167 406.77 454.287 406.539C454.406 406.309 454.46 406.05 454.442 405.791C454.425 405.532 454.336 405.283 454.187 405.071L416.676 351.849C416.459 351.541 416.128 351.332 415.757 351.268C415.385 351.204 415.004 351.291 414.696 351.508C414.389 351.725 414.18 352.056 414.116 352.428C414.052 352.799 414.138 353.18 414.356 353.488L451.867 406.71C451.999 406.896 452.173 407.047 452.376 407.15C452.578 407.254 452.803 407.308 453.031 407.306V407.306Z" fill="white"/>
<path d="M367.452 439.431C367.828 439.431 368.189 439.282 368.455 439.016C368.722 438.749 368.871 438.388 368.871 438.012V293.829C368.867 288.49 366.745 283.371 362.971 279.595C359.196 275.819 354.078 273.695 348.739 273.69H293.544C287.745 273.684 282.185 271.378 278.085 267.278C273.985 263.177 271.679 257.618 271.673 251.819V239.301C271.673 238.925 271.523 238.564 271.257 238.298C270.991 238.031 270.63 237.882 270.254 237.882C269.877 237.882 269.516 238.031 269.25 238.298C268.984 238.564 268.834 238.925 268.834 239.301V251.819C268.842 258.37 271.448 264.651 276.08 269.283C280.712 273.915 286.993 276.521 293.544 276.528H348.739C353.325 276.534 357.721 278.359 360.964 281.602C364.206 284.846 366.029 289.243 366.033 293.829V438.012C366.033 438.388 366.182 438.749 366.448 439.016C366.714 439.282 367.075 439.431 367.452 439.431Z" fill="white"/>
<path d="M410.025 462.441H443.825C445.069 462.441 446.262 461.947 447.142 461.067C448.021 460.187 448.516 458.994 448.516 457.75V457.75C448.514 452.647 446.486 447.753 442.877 444.144C439.268 440.535 434.374 438.507 429.27 438.505V438.505C424.166 438.505 419.271 440.533 415.662 444.142C412.053 447.751 410.025 452.646 410.025 457.75V462.441Z" fill="black"/>
<path d="M415.092 386.435C415.469 386.435 415.83 386.285 416.096 386.019C416.362 385.753 416.512 385.392 416.512 385.015V269.544C416.512 269.168 416.362 268.807 416.096 268.541C415.83 268.275 415.469 268.125 415.092 268.125C414.716 268.125 414.355 268.275 414.089 268.541C413.823 268.807 413.673 269.168 413.673 269.544V385.015C413.673 385.392 413.823 385.753 414.089 386.019C414.355 386.285 414.716 386.435 415.092 386.435Z" fill="white"/>
<path d="M495.497 157.176C494.784 157.89 493.938 158.457 493.006 158.843C492.075 159.23 491.076 159.429 490.068 159.429C489.059 159.429 488.061 159.23 487.129 158.843C486.198 158.457 485.351 157.89 484.639 157.176L450.691 123.177L461.55 112.304L495.497 146.296C496.211 147.01 496.778 147.858 497.164 148.792C497.551 149.725 497.75 150.726 497.75 151.736C497.75 152.747 497.551 153.747 497.164 154.681C496.778 155.614 496.211 156.462 495.497 157.176Z" fill="#FCFCFC"/>
<path d="M490.067 160.009C488.983 160.01 487.909 159.797 486.907 159.383C485.905 158.968 484.994 158.359 484.228 157.591L449.867 123.178L461.546 111.484L495.906 145.89C497.062 147.046 497.849 148.52 498.168 150.124C498.487 151.729 498.323 153.392 497.698 154.903C497.073 156.415 496.015 157.707 494.656 158.616C493.298 159.524 491.701 160.009 490.067 160.009ZM451.519 123.178L485.043 156.763C485.702 157.423 486.485 157.947 487.347 158.305C488.209 158.662 489.132 158.846 490.065 158.846C490.997 158.846 491.921 158.662 492.782 158.305C493.644 157.947 494.427 157.423 495.086 156.763C495.746 156.103 496.269 155.319 496.626 154.456C496.983 153.593 497.166 152.668 497.166 151.735C497.166 150.801 496.983 149.876 496.626 149.013C496.269 148.15 495.746 147.367 495.086 146.706L461.55 113.14L451.519 123.178Z" fill="black"/>
<path d="M461.551 112.313L450.691 123.187L458.38 130.885L469.239 120.012L461.551 112.313Z" fill="black"/>
<path d="M458.381 131.71L449.867 123.178L461.546 111.484L470.062 120.011L458.381 131.71ZM451.519 123.178L458.381 130.049L468.424 120.004L461.56 113.133L451.519 123.178Z" fill="black"/>
<path d="M461.817 121.121C478.377 104.539 478.377 77.6538 461.817 61.0718C445.257 44.4898 418.408 44.4898 401.848 61.0718C385.288 77.6538 385.288 104.539 401.848 121.121C418.408 137.703 445.257 137.703 461.817 121.121Z" fill="#FCFCFC"/>
<path d="M431.832 134.138C408.127 134.138 388.855 114.829 388.855 91.1044C388.855 67.3797 408.139 48.0588 431.832 48.0588C455.526 48.0588 474.809 67.3703 474.809 91.1044C474.809 114.839 455.535 134.138 431.832 134.138ZM431.832 49.2165C408.772 49.2165 390.023 68.0041 390.023 91.0927C390.023 114.181 408.784 132.957 431.832 132.957C454.881 132.957 473.641 114.172 473.641 91.0927C473.641 68.0135 454.893 49.2165 431.832 49.2165Z" fill="black"/>
<path d="M431.832 125.445C450.778 125.445 466.136 110.066 466.136 91.0951C466.136 72.1241 450.778 56.7451 431.832 56.7451C412.886 56.7451 397.527 72.1241 397.527 91.0951C397.527 110.066 412.886 125.445 431.832 125.445Z" fill="#2663FF"/>
<path d="M448.701 61.1809L401.957 107.987C404.873 113.142 409.064 117.459 414.128 120.523L461.218 73.3614C458.158 68.2935 453.848 64.0989 448.701 61.1809Z" fill="#FCFCFC"/>
<path d="M431.834 126.028C412.595 126.028 396.945 110.358 396.945 91.0931C396.945 71.8284 412.595 56.1584 431.834 56.1584C451.073 56.1584 466.722 71.8284 466.722 91.0931C466.722 110.358 451.071 126.028 431.834 126.028ZM431.834 57.3278C413.239 57.3278 398.113 72.4762 398.113 91.0931C398.113 109.71 413.239 124.858 431.834 124.858C450.428 124.858 465.554 109.712 465.554 91.0931C465.554 72.4739 450.426 57.3278 431.834 57.3278Z" fill="black"/>
<mask id="mask0_2620_54310" style="mask-type:luminance" maskUnits="userSpaceOnUse" x="397" y="56" width="70" height="70">
<path d="M431.828 125.44C450.774 125.44 466.132 110.061 466.132 91.0904C466.132 72.1195 450.774 56.7405 431.828 56.7405C412.882 56.7405 397.523 72.1195 397.523 91.0904C397.523 110.061 412.882 125.44 431.828 125.44Z" fill="white"/>
</mask>
<g mask="url(#mask0_2620_54310)">
<path d="M432.592 133.982L423.363 94.2153L424.503 93.9486L432.603 128.86L440.902 93.7686L442.04 94.0375L432.592 133.982Z" fill="black"/>
<path d="M432.593 98.2473L425.801 102.144L423.93 94.0796" fill="#FCFCFC"/>
<path d="M425.414 103.044L423.363 94.2149L424.503 93.9482L426.196 101.248L432.307 97.7441L432.888 98.7592L425.414 103.044Z" fill="black"/>
<path d="M432.598 98.2473L439.507 102.209L441.263 94.0796" fill="#FCFCFC"/>
<path d="M439.905 103.117L432.305 98.7596L432.886 97.7445L439.102 101.309L440.69 93.958L441.83 94.2059L439.905 103.117Z" fill="black"/>
<path d="M455.655 132.003H409.539V97.8123L432.597 90.8521L455.655 97.8123V132.003ZM410.707 130.834H454.487V98.6824L432.597 92.0706L410.707 98.68V130.834Z" fill="black"/>
<path d="M417.783 131.421H416.615V114.581C416.61 111.6 415.996 108.651 414.81 105.916C413.625 103.181 411.894 100.718 409.723 98.6776L410.521 97.824C412.81 99.9753 414.634 102.572 415.883 105.456C417.132 108.339 417.778 111.448 417.783 114.591V131.421Z" fill="black"/>
<path d="M448.578 131.421H447.41V114.581C447.416 111.44 448.063 108.333 449.312 105.452C450.561 102.57 452.385 99.9742 454.672 97.824L455.471 98.6776C453.3 100.718 451.568 103.181 450.383 105.916C449.198 108.651 448.583 111.6 448.578 114.581V131.421Z" fill="black"/>
<path d="M438.469 89.022V93.2458L432.595 98.2462L426.723 93.2458V89.022" fill="#FCFCFC"/>
<path d="M432.597 99.0157L426.141 93.5148V89.022H427.308V92.9745L432.597 97.4791L437.887 92.9745V89.022H439.055V93.5148L432.597 99.0157Z" fill="black"/>
<path d="M432.028 131.554L427.59 112.795V112.488L432.028 98.0789H433.144L437.57 112.488L437.582 112.795L433.144 131.554H432.028ZM428.772 112.68L432.595 128.879L436.419 112.68L432.595 100.238L428.772 112.68Z" fill="black"/>
<path d="M435.487 89.6095H429.708C427.269 89.607 424.93 88.6356 423.205 86.9085C421.48 85.1813 420.51 82.8395 420.508 80.397V74.4611C420.508 72.8714 420.821 71.2972 421.428 69.8285C422.036 68.3597 422.926 67.0252 424.049 65.9011C425.171 64.777 426.504 63.8853 427.971 63.277C429.438 62.6686 431.01 62.3555 432.597 62.3555C434.185 62.3555 435.757 62.6686 437.224 63.277C438.691 63.8853 440.023 64.777 441.146 65.9011C442.269 67.0252 443.159 68.3597 443.767 69.8285C444.374 71.2972 444.687 72.8714 444.687 74.4611V80.397C444.685 82.8395 443.714 85.1813 441.99 86.9085C440.265 88.6356 437.926 89.607 435.487 89.6095ZM432.597 63.5249C429.702 63.5286 426.926 64.682 424.879 66.7321C422.831 68.7823 421.679 71.5618 421.676 74.4611V80.397C421.678 82.5294 422.525 84.5737 424.031 86.0816C425.537 87.5894 427.579 88.4376 429.708 88.4401H435.487C437.616 88.4376 439.658 87.5894 441.164 86.0816C442.67 84.5737 443.517 82.5294 443.519 80.397V74.4611C443.515 71.5618 442.364 68.7823 440.316 66.7321C438.269 64.682 435.493 63.5286 432.597 63.5249Z" fill="black"/>
<path d="M421.676 83.3935H421.092C419.906 83.3923 418.768 82.9197 417.929 82.0796C417.09 81.2395 416.618 80.1005 416.617 78.9124V78.6247C416.619 77.4368 417.091 76.2981 417.93 75.4581C418.769 74.6181 419.906 74.1454 421.092 74.1436H421.676V83.3935ZM420.508 75.3644C419.745 75.5029 419.055 75.905 418.557 76.5007C418.06 77.0964 417.786 77.848 417.785 78.6247V78.9124C417.786 79.6891 418.059 80.441 418.557 81.0368C419.054 81.6326 419.745 82.0346 420.508 82.1727V75.3644Z" fill="black"/>
<path d="M444.103 83.8861H443.52V74.6455H444.103C445.29 74.6474 446.427 75.1201 447.266 75.9601C448.105 76.8 448.577 77.9387 448.579 79.1266V79.4143C448.575 80.6008 448.102 81.7375 447.263 82.5756C446.425 83.4136 445.288 83.8849 444.103 83.8861ZM444.687 75.857V82.6653C445.451 82.5272 446.142 82.1252 446.639 81.5294C447.137 80.9336 447.41 80.1817 447.411 79.405V79.1173C447.407 78.3423 447.133 77.5929 446.636 76.9991C446.138 76.4053 445.449 76.0045 444.687 75.8664V75.857Z" fill="black"/>
<path d="M432.072 131.668L422.278 110.623L423.299 105.705L419.508 102.15L420.517 94.8572L421.673 95.0186L420.748 101.71L424.574 105.298L423.502 110.48L433.13 131.174L432.072 131.668Z" fill="black"/>
<path d="M433.23 131.668L432.172 131.174L441.8 110.48L440.725 105.298L444.553 101.71L443.626 95.0186L444.782 94.8572L445.791 102.15L442.003 105.705L443.021 110.623L442.939 110.798L433.23 131.668Z" fill="black"/>
<mask id="mask1_2620_54310" style="mask-type:luminance" maskUnits="userSpaceOnUse" x="421" y="62" width="24" height="28">
<path d="M435.489 89.0269H429.711C427.425 89.0269 425.234 88.1179 423.618 86.4998C422.002 84.8818 421.094 82.6873 421.094 80.399V74.4632C421.093 72.9496 421.39 71.4507 421.968 70.0521C422.546 68.6535 423.393 67.3827 424.462 66.3121C425.53 65.2415 426.799 64.3923 428.195 63.8129C429.592 63.2334 431.088 62.9352 432.6 62.9352C435.651 62.9352 438.578 64.149 440.736 66.3096C442.893 68.4702 444.105 71.4006 444.105 74.4561V80.399C444.105 82.6873 443.198 84.8818 441.582 86.4998C439.966 88.1179 437.774 89.0269 435.489 89.0269Z" fill="white"/>
</mask>
<g mask="url(#mask1_2620_54310)">
<path d="M421.173 75.6161H415.621V59.1697H429.89V66.8877C429.888 69.2021 428.969 71.4211 427.335 73.0576C425.7 74.6941 423.484 75.6143 421.173 75.6161ZM416.789 74.4467H421.173C423.174 74.4449 425.093 73.6482 426.508 72.2315C427.923 70.8148 428.72 68.8939 428.722 66.8901V60.3414H416.789V74.4467Z" fill="black"/>
<path d="M445.143 74.6078H437.436C435.124 74.6059 432.908 73.6857 431.274 72.0493C429.64 70.4128 428.721 68.1937 428.719 65.8794V60.3201H445.143V74.6078ZM429.887 61.4895V65.8794C429.888 67.8832 430.684 69.8044 432.099 71.2215C433.514 72.6387 435.432 73.4359 437.433 73.4384H443.973V61.4895H429.887Z" fill="black"/>
</g>
</g>
<path d="M261.858 119.687C260.198 116.322 259.325 112.625 259.304 108.873C259.283 105.121 260.116 101.414 261.739 98.0316C263.362 94.6492 265.733 91.6801 268.673 89.349C271.613 87.0178 275.044 85.3856 278.707 84.5757C280.285 84.2303 281.725 83.4246 282.844 82.2608V82.2418C284.989 79.9988 285.356 77.987 288.399 71.8907C288.725 71.2315 288.997 70.7011 289.157 70.3979L314.5 80.2262L307.631 101.228C309.044 105.662 309.177 110.405 308.017 114.912C306.856 119.419 304.448 123.508 301.069 126.708C297.69 129.909 293.477 132.091 288.914 133.006C284.351 133.921 279.622 133.53 275.27 131.879C275.062 133.959 274.281 135.94 273.013 137.602C271.744 139.263 270.04 140.54 268.088 141.289C266.137 142.039 264.016 142.231 261.962 141.846C259.907 141.46 258 140.511 256.454 139.105C254.907 137.699 253.781 135.891 253.202 133.883C252.623 131.875 252.613 129.745 253.173 127.731C253.734 125.717 254.843 123.899 256.376 122.479C257.91 121.058 259.807 120.092 261.858 119.687V119.687Z" fill="black"/>
<path d="M336.422 132.474C329.592 132.474 324.056 126.937 324.056 120.107C324.056 113.277 329.592 107.741 336.422 107.741C343.252 107.741 348.789 113.277 348.789 120.107C348.789 126.937 343.252 132.474 336.422 132.474Z" fill="black"/>
<path d="M298.151 87.437H298.151L298.151 87.4496C298.146 89.019 298.684 90.5418 299.673 91.7599C300.663 92.978 302.043 93.8164 303.58 94.133L304.893 94.4034L304.771 95.7382L303.567 108.965L303.442 110.329H303.435L302.159 126.303H326.268L327.427 113.775L327.565 112.277L329.063 112.42L330.003 112.51C330.005 112.51 330.006 112.511 330.008 112.511C331.914 112.678 333.833 112.467 335.657 111.892C337.483 111.316 339.177 110.385 340.643 109.153C342.108 107.921 343.316 106.412 344.198 104.712C345.079 103.013 345.616 101.156 345.779 99.2485L345.78 99.2403L348.053 74.181L348.053 74.181L348.054 74.1726C348.274 71.8812 347.578 69.5957 346.116 67.8172C344.655 66.0398 342.55 64.9138 340.26 64.6856C340.259 64.6855 340.258 64.6854 340.256 64.6852L319.756 62.7734C319.755 62.7733 319.754 62.7732 319.752 62.7731C318.184 62.6356 316.605 62.8086 315.104 63.2822C313.601 63.7562 312.207 64.5221 311.002 65.5358C309.796 66.5495 308.802 67.7913 308.077 69.1898C307.352 70.5883 306.91 72.1162 306.776 73.6859L306.777 73.6859L306.776 73.6959L306.264 79.2655L306.141 80.6029L304.799 80.6281C303.018 80.6615 301.322 81.3946 300.078 82.6689C298.834 83.9432 298.142 85.6561 298.151 87.437Z" fill="white" stroke="black" stroke-width="3"/>
<path d="M304.971 91.4049C305.607 91.4049 306.229 91.2162 306.758 90.8628C307.287 90.5093 307.699 90.0069 307.943 89.4191C308.186 88.8314 308.25 88.1846 308.126 87.5606C308.002 86.9366 307.695 86.3635 307.245 85.9136C306.795 85.4637 306.222 85.1574 305.598 85.0332C304.974 84.9091 304.328 84.9728 303.74 85.2163C303.152 85.4598 302.65 85.8721 302.296 86.401C301.943 86.93 301.754 87.5519 301.754 88.1882C301.755 89.041 302.094 89.8586 302.697 90.4616C303.3 91.0646 304.118 91.4039 304.971 91.4049ZM304.971 86.4794C305.307 86.4794 305.636 86.5792 305.916 86.7661C306.196 86.953 306.414 87.2187 306.542 87.5296C306.671 87.8404 306.705 88.1825 306.639 88.5125C306.574 88.8425 306.412 89.1456 306.174 89.3835C305.936 89.6214 305.633 89.7834 305.303 89.8491C304.973 89.9147 304.631 89.881 304.32 89.7523C304.009 89.6235 303.743 89.4055 303.556 89.1257C303.369 88.8459 303.27 88.517 303.27 88.1806C303.273 87.731 303.453 87.3008 303.772 86.9837C304.09 86.6665 304.521 86.488 304.971 86.487V86.4794Z" fill="black"/>
<path d="M328.977 113.935L312.84 111.931C312.736 111.918 312.631 111.942 312.544 112C312.456 112.057 312.392 112.144 312.363 112.244C312.334 112.345 312.341 112.452 312.384 112.548C312.427 112.643 312.503 112.72 312.597 112.764L328.393 120.312L328.977 113.935Z" fill="black"/>
<path d="M307.338 89.5906C307.516 89.594 307.689 89.5347 307.828 89.4232C307.966 89.3117 308.061 89.155 308.096 88.9806C308.27 88.121 308.215 87.2308 307.937 86.399C307.659 85.5672 307.168 84.823 306.512 84.2407C305.878 83.7062 305.126 83.3313 304.318 83.1474C303.51 82.9635 302.669 82.9759 301.867 83.1837C301.674 83.2376 301.509 83.366 301.411 83.5408C301.312 83.7155 301.287 83.9223 301.34 84.1157C301.394 84.309 301.523 84.4731 301.697 84.5718C301.872 84.6705 302.079 84.6959 302.272 84.6424C302.83 84.5022 303.412 84.495 303.973 84.6213C304.534 84.7477 305.057 85.0041 305.5 85.3698C305.957 85.7753 306.298 86.2936 306.491 86.8728C306.684 87.452 306.721 88.0718 306.599 88.6699C306.579 88.7677 306.579 88.8684 306.598 88.9663C306.617 89.0643 306.655 89.1574 306.711 89.2405C306.766 89.3236 306.837 89.395 306.92 89.4505C307.003 89.506 307.096 89.5446 307.194 89.564C307.241 89.5765 307.289 89.5853 307.338 89.5906Z" fill="black"/>
<path d="M335.157 101.42C336.181 101.406 337.189 101.168 338.112 100.723C338.291 100.631 338.426 100.472 338.487 100.28C338.549 100.089 338.531 99.8809 338.44 99.7021C338.348 99.5232 338.188 99.3882 337.997 99.3267C337.805 99.2653 337.597 99.2824 337.418 99.3743C337.396 99.3743 335.649 100.261 334.073 99.7532C333.643 99.597 333.249 99.3548 332.916 99.0415C332.582 98.7282 332.316 98.3503 332.133 97.9308C332.092 97.8361 332.032 97.7509 331.957 97.6801C331.882 97.6094 331.793 97.5548 331.697 97.5195C331.6 97.4843 331.497 97.4692 331.394 97.4751C331.291 97.4811 331.19 97.508 331.098 97.5543C331.006 97.6005 330.924 97.665 330.858 97.7439C330.791 97.8229 330.742 97.9145 330.712 98.0132C330.682 98.112 330.673 98.2157 330.685 98.3182C330.697 98.4206 330.729 98.5196 330.78 98.609C331.05 99.2113 331.44 99.7518 331.927 100.197C332.414 100.642 332.987 100.982 333.611 101.197C334.111 101.352 334.633 101.428 335.157 101.42V101.42Z" fill="#D7D6D9"/>
<path d="M340.013 64.1544C337.604 63.9649 335.304 65.9465 333.951 67.7083C331.678 70.6787 330.719 74.3008 328.969 77.5592C325.495 84.0002 317.034 84.8072 310.87 82.1248L287.644 73.4597C288.22 71.607 291.198 61.1309 301.849 56.0614C306.777 53.7565 312.273 52.9502 317.656 53.7427L337.202 54.7657C339.477 54.8678 341.691 55.5358 343.643 56.7093C347.178 58.8879 351.043 63.5292 349.675 73.3309C349.363 70.9211 348.231 68.6922 346.468 67.0195C344.706 65.3467 342.421 64.3323 339.998 64.1468L340.013 64.1544Z" fill="black"/>
<path d="M350.355 131.749L361.002 167.63C361.003 167.632 361.003 167.633 361.004 167.635C363.859 177.045 362.731 187.218 359 196.185L352.986 211.737L369.514 222.485L377.543 187.968L365.897 161.548L365.889 161.531L365.882 161.513C364.112 157.207 362.584 152.85 361.15 148.467L362.575 148L361.15 148.467C358.33 139.851 354.822 135.384 352.149 133.082C351.499 132.522 350.894 132.087 350.355 131.749Z" fill="white" stroke="black" stroke-width="3"/>
<path d="M272.232 200.818L352.733 210.248C356.344 201.295 357.037 200.473 360.644 191.528C363.595 184.217 363.978 176.121 361.731 168.564L350.467 130.808C350.22 129.969 349.715 129.23 349.024 128.694C348.333 128.158 347.491 127.853 346.618 127.822L275.6 125.121C273.868 156.208 273.944 169.73 272.232 200.818Z" fill="#2663FF"/>
<path d="M359.222 100.82C356.706 102.259 355.233 104.889 353.918 107.367C352.396 110.213 351.063 113.157 349.928 116.179C347.657 122.208 346.198 128.513 345.59 134.927C344.992 141.203 345.293 147.532 346.484 153.723C347.615 159.535 349.544 165.163 352.217 170.447C354.889 175.748 358.328 180.626 362.424 184.924C362.929 185.462 363.454 185.99 364 186.508C365.053 187.527 363.447 189.133 362.394 188.114C357.978 183.821 354.226 178.895 351.262 173.497C348.28 168.101 346.066 162.315 344.685 156.307C343.25 149.988 342.728 143.496 343.135 137.029C343.552 130.342 344.874 123.743 347.064 117.411C348.171 114.199 349.488 111.064 351.008 108.026C352.376 105.29 353.838 102.362 356.138 100.281C356.725 99.7443 357.369 99.273 358.059 98.8758C359.332 98.1484 360.476 100.111 359.196 100.838L359.222 100.82Z" fill="white"/>
<path d="M302.138 232.46C302.422 223.854 300.752 215.296 297.254 207.428C293.782 199.519 288.597 192.48 282.073 186.82C278.663 183.891 274.753 180.966 270.259 180.076C268.267 179.671 266.201 179.837 264.299 180.553C263.52 180.874 262.774 181.272 262.075 181.743C261.371 182.226 260.717 182.778 260.124 183.391C257.506 186.043 255.752 189.605 254.501 193.091C252.834 197.758 251.735 202.68 250.849 207.549C248.968 217.882 248.49 228.421 249.428 238.882C249.544 240.193 249.683 241.502 249.845 242.808C249.921 243.418 249.269 243.944 248.708 243.944C248.409 243.937 248.124 243.816 247.912 243.604C247.7 243.392 247.578 243.107 247.572 242.808C246.25 231.941 246.434 220.945 248.117 210.129C248.911 204.885 250.077 199.704 251.607 194.625C252.808 190.677 254.467 186.786 257.013 183.512C259.503 180.303 262.954 177.973 267.073 177.617C272.07 177.189 276.791 179.864 280.644 182.762C287.844 188.215 293.709 195.233 297.796 203.286C301.925 211.323 304.194 220.185 304.434 229.217C304.461 230.297 304.434 231.373 304.411 232.453C304.362 233.911 302.089 233.919 302.138 232.453V232.46Z" fill="white"/>
<path d="M343.781 213.195C344.838 207.042 344.815 200.752 343.712 194.607C342.708 189.011 340.901 183.457 337.923 178.588C336.585 176.367 334.945 174.342 333.051 172.571C332.134 171.729 331.145 170.968 330.095 170.298C329.116 169.664 328.078 169.125 326.996 168.688C324.849 167.848 322.557 167.444 320.252 167.498C318.07 167.524 315.917 168.011 313.936 168.927C311.879 169.883 310.144 171.416 308.942 173.341C307.537 175.633 306.98 178.44 307.806 180.964C308.17 182.066 308.791 183.066 309.617 183.881C310.42 184.669 311.538 185.397 312.72 185.499C313.213 185.534 313.707 185.454 314.163 185.264C314.619 185.073 315.024 184.779 315.345 184.404C316.104 183.581 316.659 182.593 316.967 181.517C318.665 175.928 316.251 169.821 313.375 165.07C310.557 160.492 306.935 156.462 302.683 153.173C298.247 149.738 293.301 147.018 288.024 145.11C282.189 143.008 276.112 141.649 269.936 141.067C268.421 140.916 266.905 140.802 265.39 140.726C265.091 140.719 264.806 140.597 264.595 140.385C264.383 140.173 264.261 139.889 264.253 139.59C264.253 139.288 264.373 138.999 264.586 138.786C264.799 138.573 265.088 138.453 265.39 138.453C272.023 138.741 278.598 139.828 284.97 141.693C290.939 143.447 296.593 146.132 301.725 149.649C306.539 152.965 310.718 157.121 314.061 161.917C317.528 166.972 320.4 173.261 319.669 179.535C319.343 182.343 318.323 185.283 315.88 186.924C313.265 188.666 309.977 187.462 307.942 185.408C306.925 184.351 306.154 183.083 305.685 181.694C305.215 180.305 305.058 178.829 305.226 177.372C305.584 174.383 306.97 171.612 309.147 169.533C312.807 166.013 318.172 164.763 323.116 165.407C328.61 166.123 333.373 169.154 336.923 173.341C340.712 177.823 343.174 183.305 344.754 188.928C346.572 195.404 347.214 202.154 346.649 208.857C346.509 210.52 346.27 212.184 346.005 213.832C345.924 214.122 345.732 214.369 345.47 214.517C345.207 214.666 344.897 214.704 344.607 214.624C344.319 214.539 344.075 214.346 343.927 214.085C343.778 213.824 343.737 213.516 343.811 213.226L343.781 213.195Z" fill="white"/>
<path d="M232.563 195.817L237.427 184.497L237.428 184.496L249.552 156.251C249.552 156.251 249.552 156.251 249.552 156.251C251.297 152.189 253.043 148.125 254.788 144.058C255.129 143.266 255.454 142.481 255.775 141.706C256.612 139.686 257.423 137.729 258.414 135.858C259.764 133.31 261.376 131.075 263.646 129.367C269.671 124.841 278.664 124.015 284.659 128.528L284.66 128.528C289.711 132.33 291.258 139.405 291.158 146C291.027 153.314 288.607 160.5 285.346 167.178L285.346 167.178C283.12 171.739 281.134 176.462 279.166 181.139C278.108 183.654 277.056 186.156 275.974 188.612L270.86 200.229L270.041 202.087L272.058 202.323L348.778 211.295L348.779 211.295C351.171 211.573 353.506 212.218 355.701 213.207L232.563 195.817ZM232.563 195.817H232.615L231.704 197.915C223.686 216.372 237.186 237.324 257.615 237.324H365.88L370.128 220.275C368.607 219.471 367.055 218.673 365.473 217.878L365.472 217.878C362.159 216.212 358.902 214.655 355.701 213.207L232.563 195.817Z" fill="white" stroke="black" stroke-width="3"/>
<path d="M310.621 239.717H371.867V226.475H310.621C309.775 226.475 308.963 226.811 308.365 227.409C307.767 228.008 307.431 228.819 307.431 229.665V236.523C307.43 236.942 307.512 237.358 307.672 237.745C307.832 238.133 308.067 238.485 308.364 238.781C308.66 239.078 309.012 239.313 309.399 239.474C309.786 239.634 310.202 239.717 310.621 239.717V239.717Z" fill="black"/>
<path d="M364.95 239.718H436.733C438.071 239.73 439.378 239.31 440.458 238.52C441.538 237.73 442.334 236.613 442.727 235.334L460.304 175.743C461.44 171.882 458.451 168.037 454.31 168.037H386.611C385.214 168.021 383.853 168.477 382.749 169.333C381.645 170.189 380.863 171.393 380.53 172.75L364.95 239.718Z" fill="black"/>
<path d="M416.507 213.822C411.015 213.822 406.562 209.369 406.562 203.877C406.562 198.384 411.015 193.931 416.507 193.931C422 193.931 426.453 198.384 426.453 203.877C426.453 209.369 422 213.822 416.507 213.822Z" fill="#2663FF"/>
<path d="M172.649 239.582H473.004C473.205 239.582 473.398 239.502 473.54 239.36C473.682 239.218 473.762 239.025 473.762 238.824C473.762 238.623 473.682 238.43 473.54 238.288C473.398 238.146 473.205 238.066 473.004 238.066H172.649C172.448 238.066 172.255 238.146 172.113 238.288C171.971 238.43 171.891 238.623 171.891 238.824C171.891 239.025 171.971 239.218 172.113 239.36C172.255 239.502 172.448 239.582 172.649 239.582Z" fill="black"/>
<path d="M369.918 219.815C370.081 219.81 370.239 219.753 370.367 219.653C370.495 219.552 370.587 219.412 370.63 219.255C370.673 219.097 370.663 218.93 370.603 218.779C370.543 218.627 370.436 218.498 370.297 218.413C367.835 216.897 365.281 215.488 362.72 214.181C359.31 212.457 355.797 210.88 352.243 209.498C352.056 209.425 351.847 209.429 351.663 209.51C351.479 209.591 351.335 209.742 351.262 209.929C351.189 210.117 351.194 210.326 351.275 210.51C351.356 210.694 351.507 210.838 351.694 210.911C355.203 212.275 358.681 213.828 362.034 215.533C364.569 216.821 367.084 218.227 369.521 219.701C369.64 219.776 369.778 219.816 369.918 219.815Z" fill="black"/>
<path d="M173.016 87.8909L173.015 77.8827C173.015 77.3305 172.568 76.8828 172.015 76.8828H149.867C149.315 76.8828 148.867 77.3305 148.867 77.8828V110.191C148.867 110.744 149.315 111.191 149.867 111.191H172.015C172.568 111.191 173.015 110.744 173.015 110.191L173.016 94.2246M173.016 91.0577V91.1933" stroke="#2663FF" stroke-width="2" stroke-linecap="round" stroke-linejoin="round"/>
<line x1="149.801" y1="98.4321" x2="172.019" y2="98.4321" stroke="#2663FF" stroke-width="2" stroke-linecap="round"/>
<line x1="153.617" y1="103.996" x2="168.771" y2="103.996" stroke="#2663FF" stroke-width="2" stroke-linecap="round"/>
<line x1="153.109" y1="101.282" x2="159.321" y2="101.282" stroke="#2663FF" stroke-width="2" stroke-linecap="round"/>
<line x1="163.148" y1="101.282" x2="169.36" y2="101.282" stroke="#2663FF" stroke-width="2" stroke-linecap="round"/>
<circle cx="151.984" cy="107.378" r="0.953014" fill="#2663FF"/>
<circle cx="155.672" cy="107.378" r="0.953014" fill="#2663FF"/>
<circle cx="159.363" cy="107.378" r="0.953014" fill="#2663FF"/>
<circle cx="163.047" cy="107.378" r="0.953014" fill="#2663FF"/>
<circle cx="165.574" cy="86.4113" r="0.953014" fill="#2663FF"/>
<path d="M167.516 84.9564C167.041 83.3821 165.922 82.1874 165.279 81.6994C163.753 80.798 160.025 79.6837 157.321 82.4368C154.617 85.19 155.457 88.3159 156.215 89.5347C154.814 91.6733 154.689 95.9977 154.801 97.7388H165.802C164.745 95.969 165.361 94.5842 165.802 94.1131M167.516 84.9564C167.669 85.4635 167.755 86.01 167.737 86.585C167.645 89.5347 170.933 88.7666 169.335 92.9147C168.874 94.1131 166.948 94.4583 165.802 94.1131M167.516 84.9564C165.175 82.8055 163.566 83.8614 163.105 85.4592C162.736 86.7374 163.774 88.3057 164.542 88.7051C164.316 88.9817 163.41 90.381 163.589 91.532C163.794 92.8437 165.279 94.1131 165.802 94.1131" stroke="#2663FF" stroke-width="2" stroke-linecap="round" stroke-linejoin="round"/>
<path d="M154.681 87.9653C154.558 86.1954 156.596 85.4661 157.631 85.3228L157.324 90.4849C156.494 90.3825 154.804 89.7351 154.681 87.9653Z" fill="#F5F5F5"/>
<path d="M157.631 85.3228C156.596 85.4661 154.558 86.1954 154.681 87.9653C154.804 89.7351 156.494 90.3825 157.324 90.4849" stroke="#2663FF" stroke-width="2" stroke-linecap="round" stroke-linejoin="round"/>
<circle cx="157.387" cy="87.9359" r="0.953014" fill="#2663FF"/>
<path d="M166.844 89.0134C167.305 89.2592 168.288 89.6034 168.534 89.0134" stroke="#2663FF" stroke-width="2" stroke-linecap="round" stroke-linejoin="round"/>
<path d="M166.973 91.687H169.492" stroke="#2663FF" stroke-width="2" stroke-linecap="round" stroke-linejoin="round"/>
<path d="M155.48 94.037C156.095 93.9756 156.488 93.7144 156.955 93.0999C157.006 93.6427 157.36 94.882 158.368 95.4966C158.952 95.4556 160.255 95.0172 160.796 93.5915C161.205 94.9742 162.75 97.7826 165.651 97.9547" stroke="#2663FF" stroke-width="2" stroke-linecap="round" stroke-linejoin="round"/>
<path d="M215.915 98.8923H182.966C181.388 98.8923 180.109 100.171 180.109 101.749V102.786C180.109 104.364 181.388 105.643 182.966 105.643H215.915C217.493 105.643 218.771 104.364 218.771 102.786V101.749C218.771 100.171 217.493 98.8923 215.915 98.8923Z" fill="#2663FF"/>
<path d="M217.161 81.8073H181.726C181.531 81.8073 181.345 81.73 181.207 81.5925C181.069 81.4549 180.992 81.2684 180.992 81.0739C180.992 80.8794 181.069 80.6929 181.207 80.5554C181.345 80.4178 181.531 80.3406 181.726 80.3406H217.161C217.355 80.3406 217.542 80.4178 217.679 80.5554C217.817 80.6929 217.894 80.8794 217.894 81.0739C217.894 81.2684 217.817 81.4549 217.679 81.5925C217.542 81.73 217.355 81.8073 217.161 81.8073Z" fill="black"/>
<path d="M212.171 89.8275H181.737C181.543 89.8275 181.356 89.7503 181.219 89.6127C181.081 89.4752 181.004 89.2887 181.004 89.0942C181.004 88.8997 181.081 88.7132 181.219 88.5756C181.356 88.4381 181.543 88.3608 181.737 88.3608H212.171C212.366 88.3608 212.552 88.4381 212.69 88.5756C212.827 88.7132 212.905 88.8997 212.905 89.0942C212.905 89.2887 212.827 89.4752 212.69 89.6127C212.552 89.7503 212.366 89.8275 212.171 89.8275Z" fill="black"/>
<rect x="138.278" y="64.8029" width="91.0092" height="58.4736" rx="9.245" stroke="black" stroke-width="1.51"/>
<rect x="228.45" y="1.24719" width="46.0581" height="46.0569" rx="23.0285" stroke="black" stroke-width="1.51"/>
<path fill-rule="evenodd" clip-rule="evenodd" d="M251.447 29.1353L251.304 29.0904C250.302 28.7768 249.023 28.5818 247.611 28.5818C246.2 28.5818 244.921 28.7768 243.919 29.0904L243.775 29.1353H241.953V30.3655C241.953 30.4049 241.968 30.5314 242.181 30.7418C242.398 30.9556 242.763 31.1935 243.293 31.4142C244.348 31.854 245.875 32.1491 247.611 32.1491C249.348 32.1491 250.875 31.854 251.93 31.4142C252.46 31.1935 252.824 30.9556 253.042 30.7418C253.255 30.5314 253.27 30.4049 253.27 30.3655V29.1353H251.447ZM254.254 30.3655C254.254 31.8942 251.28 33.1332 247.611 33.1332C243.943 33.1332 240.969 31.8942 240.969 30.3655V28.1512H243.625C244.735 27.8036 246.116 27.5977 247.611 27.5977C249.107 27.5977 250.488 27.8036 251.598 28.1512H254.254V30.3655Z" fill="#2663FF"/>
<path fill-rule="evenodd" clip-rule="evenodd" d="M243.184 31.7819V29.8137H244.168V31.7819H243.184Z" fill="#2663FF"/>
<path fill-rule="evenodd" clip-rule="evenodd" d="M245.641 31.7819V29.8137H246.625V31.7819H245.641Z" fill="#2663FF"/>
<path fill-rule="evenodd" clip-rule="evenodd" d="M248.102 31.7819V29.8137H249.086V31.7819H248.102Z" fill="#2663FF"/>
<path fill-rule="evenodd" clip-rule="evenodd" d="M250.563 31.7819V29.8137H251.547V31.7819H250.563Z" fill="#2663FF"/>
<path d="M254.254 28.1516C254.254 29.6802 251.28 30.9194 247.611 30.9194C243.943 30.9194 240.969 29.6802 240.969 28.1516C240.969 26.623 243.943 25.3838 247.611 25.3838C251.28 25.3838 254.254 26.623 254.254 28.1516Z" fill="#F3F7FF"/>
<path fill-rule="evenodd" clip-rule="evenodd" d="M253.042 28.5279C253.255 28.3175 253.27 28.1909 253.27 28.1516C253.27 28.1122 253.255 27.9857 253.042 27.7753C252.824 27.5615 252.46 27.3236 251.93 27.1029C250.875 26.6631 249.348 26.3679 247.611 26.3679C245.875 26.3679 244.348 26.6631 243.293 27.1029C242.763 27.3236 242.398 27.5615 242.181 27.7753C241.968 27.9857 241.953 28.1122 241.953 28.1516C241.953 28.1909 241.968 28.3175 242.181 28.5279C242.398 28.7417 242.763 28.9795 243.293 29.2003C244.348 29.6401 245.875 29.9353 247.611 29.9353C249.348 29.9353 250.875 29.6401 251.93 29.2003C252.46 28.9795 252.824 28.7417 253.042 28.5279ZM247.611 30.9194C251.28 30.9194 254.254 29.6802 254.254 28.1516C254.254 26.623 251.28 25.3838 247.611 25.3838C243.943 25.3838 240.969 26.623 240.969 28.1516C240.969 29.6802 243.943 30.9194 247.611 30.9194Z" fill="#2663FF"/>
<path fill-rule="evenodd" clip-rule="evenodd" d="M249.233 25.8153L249.089 25.7703C248.087 25.4567 246.808 25.2617 245.397 25.2617C243.985 25.2617 242.706 25.4567 241.704 25.7703L241.561 25.8153H239.738V27.0454C239.738 27.0848 239.753 27.2114 239.967 27.4217C240.184 27.6356 240.548 27.8734 241.078 28.0942C242.133 28.5339 243.66 28.8291 245.397 28.8291C247.134 28.8291 248.66 28.5339 249.715 28.0942C250.245 27.8734 250.61 27.6356 250.827 27.4217C251.04 27.2114 251.055 27.0848 251.055 27.0454V25.8153H249.233ZM252.039 27.0454C252.039 28.5742 249.065 29.8132 245.397 29.8132C241.728 29.8132 238.754 28.5742 238.754 27.0454V24.8311H241.41C242.521 24.4836 243.901 24.2776 245.397 24.2776C246.892 24.2776 248.273 24.4836 249.383 24.8311H252.039V27.0454Z" fill="#2663FF"/>
<path fill-rule="evenodd" clip-rule="evenodd" d="M240.965 28.4599V26.4917H241.949V28.4599H240.965Z" fill="#2663FF"/>
<path fill-rule="evenodd" clip-rule="evenodd" d="M243.43 28.4599V26.4917H244.414V28.4599H243.43Z" fill="#2663FF"/>
<path fill-rule="evenodd" clip-rule="evenodd" d="M245.887 28.4599V26.4917H246.871V28.4599H245.887Z" fill="#2663FF"/>
<path fill-rule="evenodd" clip-rule="evenodd" d="M248.352 28.4599V26.4917H249.336V28.4599H248.352Z" fill="#2663FF"/>
<path d="M252.039 24.8296C252.039 26.3582 249.065 27.5974 245.397 27.5974C241.728 27.5974 238.754 26.3582 238.754 24.8296C238.754 23.301 241.728 22.0618 245.397 22.0618C249.065 22.0618 252.039 23.301 252.039 24.8296Z" fill="#F3F7FF"/>
<path fill-rule="evenodd" clip-rule="evenodd" d="M250.827 25.2058C251.04 24.9955 251.055 24.8689 251.055 24.8296C251.055 24.7902 251.04 24.6637 250.827 24.4533C250.61 24.2395 250.245 24.0016 249.715 23.7808C248.66 23.3411 247.133 23.0459 245.397 23.0459C243.66 23.0459 242.133 23.3411 241.078 23.7808C240.548 24.0016 240.184 24.2395 239.967 24.4533C239.753 24.6637 239.738 24.7902 239.738 24.8296C239.738 24.8689 239.753 24.9955 239.967 25.2058C240.184 25.4197 240.548 25.6575 241.078 25.8783C242.133 26.3181 243.66 26.6133 245.397 26.6133C247.133 26.6133 248.66 26.3181 249.715 25.8783C250.245 25.6575 250.61 25.4197 250.827 25.2058ZM245.397 27.5974C249.065 27.5974 252.039 26.3582 252.039 24.8296C252.039 23.301 249.065 22.0618 245.397 22.0618C241.728 22.0618 238.754 23.301 238.754 24.8296C238.754 26.3582 241.728 27.5974 245.397 27.5974Z" fill="#2663FF"/>
<path fill-rule="evenodd" clip-rule="evenodd" d="M251.447 22.4932L251.304 22.4483C250.302 22.1347 249.023 21.9397 247.611 21.9397C246.2 21.9397 244.921 22.1347 243.919 22.4483L243.775 22.4932H241.953V23.7234C241.953 23.7628 241.968 23.8893 242.181 24.0997C242.398 24.3135 242.763 24.5514 243.293 24.7721C244.348 25.2119 245.875 25.5071 247.611 25.5071C249.348 25.5071 250.875 25.2119 251.93 24.7721C252.46 24.5514 252.824 24.3135 253.042 24.0997C253.255 23.8893 253.27 23.7628 253.27 23.7234V22.4932H251.447ZM254.254 23.7234C254.254 25.2521 251.28 26.4912 247.611 26.4912C243.943 26.4912 240.969 25.2521 240.969 23.7234V21.5091H243.625C244.735 21.1615 246.116 20.9556 247.611 20.9556C249.107 20.9556 250.488 21.1615 251.598 21.5091H254.254V23.7234Z" fill="#2663FF"/>
<path fill-rule="evenodd" clip-rule="evenodd" d="M243.184 25.1379V23.1697H244.168V25.1379H243.184Z" fill="#2663FF"/>
<path fill-rule="evenodd" clip-rule="evenodd" d="M245.641 25.1379V23.1697H246.625V25.1379H245.641Z" fill="#2663FF"/>
<path fill-rule="evenodd" clip-rule="evenodd" d="M248.102 25.1379V23.1697H249.086V25.1379H248.102Z" fill="#2663FF"/>
<path fill-rule="evenodd" clip-rule="evenodd" d="M250.563 25.1379V23.1697H251.547V25.1379H250.563Z" fill="#2663FF"/>
<path d="M254.254 21.5095C254.254 23.0381 251.28 24.2773 247.611 24.2773C243.943 24.2773 240.969 23.0381 240.969 21.5095C240.969 19.9809 243.943 18.7417 247.611 18.7417C251.28 18.7417 254.254 19.9809 254.254 21.5095Z" fill="#F3F7FF"/>
<path fill-rule="evenodd" clip-rule="evenodd" d="M253.042 21.8858C253.255 21.6754 253.27 21.5488 253.27 21.5095C253.27 21.4702 253.255 21.3436 253.042 21.1332C252.824 20.9194 252.46 20.6816 251.93 20.4608C250.875 20.021 249.348 19.7258 247.611 19.7258C245.875 19.7258 244.348 20.021 243.293 20.4608C242.763 20.6816 242.398 20.9194 242.181 21.1332C241.968 21.3436 241.953 21.4702 241.953 21.5095C241.953 21.5488 241.968 21.6754 242.181 21.8858C242.398 22.0996 242.763 22.3374 243.293 22.5582C244.348 22.998 245.875 23.2932 247.611 23.2932C249.348 23.2932 250.875 22.998 251.93 22.5582C252.46 22.3374 252.824 22.0996 253.042 21.8858ZM247.611 24.2773C251.28 24.2773 254.254 23.0381 254.254 21.5095C254.254 19.9809 251.28 18.7417 247.611 18.7417C243.943 18.7417 240.969 19.9809 240.969 21.5095C240.969 23.0381 243.943 24.2773 247.611 24.2773Z" fill="#2663FF"/>
<path fill-rule="evenodd" clip-rule="evenodd" d="M249.233 19.1715L249.089 19.1265C248.087 18.8129 246.808 18.6179 245.397 18.6179C243.985 18.6179 242.706 18.8129 241.704 19.1265L241.561 19.1715H239.738V20.4016C239.738 20.441 239.753 20.5676 239.967 20.7779C240.184 20.9918 240.548 21.2296 241.078 21.4504C242.133 21.8901 243.66 22.1853 245.397 22.1853C247.134 22.1853 248.66 21.8901 249.715 21.4504C250.245 21.2296 250.61 20.9918 250.827 20.7779C251.04 20.5676 251.055 20.441 251.055 20.4016V19.1715H249.233ZM252.039 20.4016C252.039 21.9304 249.065 23.1694 245.397 23.1694C241.728 23.1694 238.754 21.9304 238.754 20.4016V18.1873H241.41C242.521 17.8398 243.901 17.6338 245.397 17.6338C246.892 17.6338 248.273 17.8398 249.383 18.1873H252.039V20.4016Z" fill="#2663FF"/>
<path fill-rule="evenodd" clip-rule="evenodd" d="M240.965 21.8159V19.8477H241.949V21.8159H240.965Z" fill="#2663FF"/>
<path fill-rule="evenodd" clip-rule="evenodd" d="M243.43 21.8159V19.8477H244.414V21.8159H243.43Z" fill="#2663FF"/>
<path fill-rule="evenodd" clip-rule="evenodd" d="M245.887 21.8159V19.8477H246.871V21.8159H245.887Z" fill="#2663FF"/>
<path fill-rule="evenodd" clip-rule="evenodd" d="M248.352 21.8159V19.8477H249.336V21.8159H248.352Z" fill="#2663FF"/>
<path d="M252.039 18.1875C252.039 19.7161 249.065 20.9553 245.397 20.9553C241.728 20.9553 238.754 19.7161 238.754 18.1875C238.754 16.6589 241.728 15.4197 245.397 15.4197C249.065 15.4197 252.039 16.6589 252.039 18.1875Z" fill="#F3F7FF"/>
<path fill-rule="evenodd" clip-rule="evenodd" d="M250.827 18.5638C251.04 18.3534 251.055 18.2268 251.055 18.1875C251.055 18.1481 251.04 18.0216 250.827 17.8112C250.61 17.5974 250.245 17.3595 249.715 17.1388C248.66 16.699 247.133 16.4038 245.397 16.4038C243.66 16.4038 242.133 16.699 241.078 17.1388C240.548 17.3595 240.184 17.5974 239.967 17.8112C239.753 18.0216 239.738 18.1481 239.738 18.1875C239.738 18.2268 239.753 18.3534 239.967 18.5638C240.184 18.7776 240.548 19.0154 241.078 19.2362C242.133 19.676 243.66 19.9712 245.397 19.9712C247.133 19.9712 248.66 19.676 249.715 19.2362C250.245 19.0154 250.61 18.7776 250.827 18.5638ZM245.397 20.9553C249.065 20.9553 252.039 19.7161 252.039 18.1875C252.039 16.6589 249.065 15.4197 245.397 15.4197C241.728 15.4197 238.754 16.6589 238.754 18.1875C238.754 19.7161 241.728 20.9553 245.397 20.9553Z" fill="#2663FF"/>
<path d="M264.215 26.4896C264.215 30.1583 261.241 33.1323 257.572 33.1323C253.904 33.1323 250.93 30.1583 250.93 26.4896C250.93 22.821 253.904 19.8469 257.572 19.8469C261.241 19.8469 264.215 22.821 264.215 26.4896Z" fill="#F3F7FF"/>
<path fill-rule="evenodd" clip-rule="evenodd" d="M257.572 32.1482C260.698 32.1482 263.231 29.6148 263.231 26.4896C263.231 23.3645 260.698 20.831 257.572 20.831C254.447 20.831 251.914 23.3645 251.914 26.4896C251.914 29.6148 254.447 32.1482 257.572 32.1482ZM257.572 33.1323C261.241 33.1323 264.215 30.1583 264.215 26.4896C264.215 22.821 261.241 19.8469 257.572 19.8469C253.904 19.8469 250.93 22.821 250.93 26.4896C250.93 30.1583 253.904 33.1323 257.572 33.1323Z" fill="#2663FF"/>
<path d="M262.001 26.4895C262.001 28.9353 260.019 30.918 257.573 30.918C255.127 30.918 253.145 28.9353 253.145 26.4895C253.145 24.0437 255.127 22.061 257.573 22.061C260.019 22.061 262.001 24.0437 262.001 26.4895Z" fill="#F3F7FF"/>
<path fill-rule="evenodd" clip-rule="evenodd" d="M257.573 29.9339C259.475 29.9339 261.017 28.3918 261.017 26.4895C261.017 24.5872 259.475 23.0451 257.573 23.0451C255.671 23.0451 254.129 24.5872 254.129 26.4895C254.129 28.3918 255.671 29.9339 257.573 29.9339ZM257.573 30.918C260.019 30.918 262.001 28.9353 262.001 26.4895C262.001 24.0437 260.019 22.061 257.573 22.061C255.127 22.061 253.145 24.0437 253.145 26.4895C253.145 28.9353 255.127 30.918 257.573 30.918Z" fill="#2663FF"/>
<path fill-rule="evenodd" clip-rule="evenodd" d="M257.324 23.8486C257.476 23.7607 257.664 23.7607 257.816 23.8486L259.733 24.9558C259.886 25.0437 259.979 25.2061 259.979 25.3819V27.5961C259.979 27.7719 259.886 27.9344 259.733 28.0223L257.816 29.1294C257.664 29.2173 257.476 29.2173 257.324 29.1294L255.406 28.0223C255.254 27.9344 255.16 27.7719 255.16 27.5961V25.3819C255.16 25.2061 255.254 25.0437 255.406 24.9558L257.324 23.8486ZM256.144 25.666V27.312L257.57 28.1351L258.995 27.312V25.666L257.57 24.8429L256.144 25.666Z" fill="#2663FF"/>
</svg>
