<svg width="60" height="60" viewBox="0 0 60 60" fill="none" xmlns="http://www.w3.org/2000/svg">
<rect width="60" height="60" rx="30" fill="#E6E6E6"/>
<path fill-rule="evenodd" clip-rule="evenodd" d="M20.7695 17.8831C20.7695 16.9272 21.5444 16.1523 22.5003 16.1523H28.2695C29.2254 16.1523 30.0003 16.9272 30.0003 17.8831C30.0003 18.839 29.2254 19.6139 28.2695 19.6139H22.5003C21.5444 19.6139 20.7695 18.839 20.7695 17.8831ZM39.1243 19.5925C39.4548 20.4894 38.9956 21.4844 38.0986 21.8149L23.0986 27.3412C22.2017 27.6716 21.2067 27.2124 20.8762 26.3155C20.5458 25.4185 21.005 24.4235 21.9019 24.0931L36.9019 18.5668C37.7989 18.2363 38.7939 18.6955 39.1243 19.5925ZM39.1243 33.6815C39.4548 34.5785 38.9956 35.5735 38.0986 35.9039L23.0986 41.4302C22.2017 41.7607 21.2067 41.3015 20.8762 40.4045C20.5458 39.5076 21.005 38.5126 21.9019 38.1821L36.9019 32.6558C37.7989 32.3254 38.7939 32.7846 39.1243 33.6815ZM30.0003 42.1139C30.0003 41.158 30.7752 40.3831 31.7311 40.3831H37.5003C38.4562 40.3831 39.2311 41.158 39.2311 42.1139C39.2311 43.0698 38.4562 43.8447 37.5003 43.8447H31.7311C30.7752 43.8447 30.0003 43.0698 30.0003 42.1139Z" fill="#878A8E"/>
<path fill-rule="evenodd" clip-rule="evenodd" d="M39.1157 26.4927C39.4588 27.3849 39.0138 28.3863 38.1216 28.7295L23.1216 34.4987C22.2294 34.8418 21.228 34.3968 20.8849 33.5046C20.5417 32.6124 20.9868 31.611 21.879 31.2679L36.879 25.4986C37.7711 25.1555 38.7725 25.6006 39.1157 26.4927Z" fill="#878A8E"/>
</svg>
