<svg width="16" height="16" viewBox="0 0 16 16" fill="none" xmlns="http://www.w3.org/2000/svg">
<g clip-path="url(#clip0_5757_9334)">
<circle cx="8" cy="8" r="7.5" stroke="#908E96"/>
<path d="M8.30823 9.39117C8.30823 9.19917 8.37543 9.02637 8.50023 8.88237C8.61543 8.73837 8.88423 8.56557 9.29703 8.37357C9.77703 8.13357 10.1034 7.88397 10.2762 7.61517C10.449 7.35597 10.5354 7.02957 10.5354 6.62637C10.5354 6.03117 10.3146 5.56077 9.87303 5.20557C9.43143 4.85037 8.81703 4.66797 8.04903 4.66797C7.19463 4.66797 6.55143 4.85997 6.10983 5.24397C5.66823 5.62797 5.45703 6.19437 5.45703 6.93357V7.12557H6.40743V6.98157C6.40743 6.48237 6.54183 6.10797 6.81063 5.85837C7.07943 5.60877 7.48263 5.48397 8.02983 5.48397C8.51943 5.48397 8.89383 5.58957 9.16263 5.80077C9.43143 6.01197 9.56583 6.30957 9.56583 6.68397C9.56583 6.93357 9.49863 7.13517 9.36423 7.29837C9.22983 7.47117 8.95143 7.65357 8.51943 7.84557C8.04903 8.05677 7.74183 8.26797 7.58823 8.47917C7.43463 8.69037 7.36743 8.93997 7.36743 9.23757V9.46797C7.36743 9.54477 7.36743 9.62157 7.36743 9.71757C7.36743 9.81357 7.37703 9.87117 7.38663 9.89037C7.40583 9.87117 7.46343 9.85197 7.54983 9.83277C7.63623 9.81357 7.73223 9.80397 7.84743 9.80397C7.95303 9.80397 8.04903 9.81357 8.12583 9.83277C8.20263 9.85197 8.26023 9.87117 8.29863 9.89037L8.30823 9.39117ZM8.54823 11.0136C8.54823 10.7832 8.49063 10.6104 8.38503 10.4952C8.26983 10.38 8.09703 10.3224 7.86663 10.3224C7.61703 10.3224 7.44423 10.38 7.33863 10.4952C7.22343 10.6104 7.17543 10.7832 7.17543 11.0136C7.17543 11.2632 7.22343 11.4456 7.32903 11.5512C7.43463 11.6568 7.61703 11.7048 7.86663 11.7048C8.09703 11.7048 8.26983 11.6568 8.38503 11.5416C8.49063 11.4264 8.54823 11.2536 8.54823 11.0136Z" fill="#908E96"/>
</g>
<defs>
<clipPath id="clip0_5757_9334">
<rect width="16" height="16" fill="white"/>
</clipPath>
</defs>
</svg>
