<svg width="16" height="16" viewBox="0 0 16 16" fill="none" xmlns="http://www.w3.org/2000/svg"><g clip-path="url(#clip0_2064_50819)" fill="#171717" stroke="#171717" stroke-width=".2"><path d="M4.16 12.959A6.343 6.343 0 1 0 11.21 2.41 6.343 6.343 0 0 0 4.16 12.96zm.645-9.584a5.183 5.183 0 1 1 5.76 8.62 5.183 5.183 0 0 1-5.76-8.62z"/><path d="M9.913 10.739L7.272 8.097a.58.58 0 0 1-.169-.412m2.81 3.054l-2.71-3.053m2.71 3.053a.582.582 0 0 0 .19.125l.037-.092-.037.092a.58.58 0 0 0 .222.043v-.1.1a.58.58 0 0 0 .411-.992L8.264 7.447m1.65 3.292l-1.75-3.25m-1.06.196h.1m-.1 0h.1m-.1 0V3.844a.58.58 0 0 1 1.16 0v3.603m-1.06.239V3.844a.48.48 0 1 1 .96 0v3.645m.1-.042l-.03-.03-.07.072m.1-.042v.042h-.1"/></g><defs><clipPath id="clip0_2064_50819"><path fill="#fff" d="M0 0h15.368v15.368H0z"/></clipPath></defs></svg>