<svg width="18" height="17" viewBox="0 0 18 17" fill="none" xmlns="http://www.w3.org/2000/svg"><path d="M4.577 16.246V5.891H1.105v10.355h3.473zM2.842 4.478c1.21 0 1.964-.796 1.964-1.79C4.784 1.673 4.053.9 2.865.9 1.676.9.9 1.672.9 2.69c0 .993.754 1.789 1.919 1.789h.023zM6.5 16.246h3.472v-5.782c0-.309.023-.619.115-.84.25-.618.822-1.258 1.781-1.258 1.257 0 1.76.95 1.76 2.341v5.54H17.1v-5.938c0-3.18-1.713-4.66-3.998-4.66-1.873 0-2.696 1.037-3.153 1.744h.023V5.892H6.5c.045.971 0 10.355 0 10.355z" fill="#878A8E"/></svg>