<svg width="18" height="17" viewBox="0 0 18 17" fill="none" xmlns="http://www.w3.org/2000/svg"><path d="M5.45 16.888c6.536 0 10.112-6.19 10.112-11.557 0-.174-.003-.352-.01-.526a7.875 7.875 0 0 0 1.773-2.103 6.339 6.339 0 0 1-2.04.638c.742-.508 1.297-1.306 1.563-2.246a6.63 6.63 0 0 1-2.256.986c-.537-.651-1.245-1.082-2.017-1.227a3.176 3.176 0 0 0-2.254.428c-.69.421-1.239 1.09-1.562 1.905a4.604 4.604 0 0 0-.227 2.598 9.127 9.127 0 0 1-4.056-1.231C3.214 3.822 2.1 2.796 1.208 1.543A4.575 4.575 0 0 0 .819 4.5c.205 1.007.737 1.887 1.488 2.462a3.226 3.226 0 0 1-1.61-.506v.05c0 .938.283 1.848.803 2.574.52.726 1.244 1.224 2.049 1.409a3.105 3.105 0 0 1-1.604.07c.227.806.67 1.512 1.264 2.018a3.284 3.284 0 0 0 2.055.805c-1.259 1.13-2.814 1.743-4.415 1.74-.284 0-.567-.02-.849-.06 1.626 1.193 3.518 1.826 5.45 1.825z" fill="#878A8E"/></svg>