<svg width="300" height="296" viewBox="0 0 300 296" fill="none" xmlns="http://www.w3.org/2000/svg">
<circle cx="157.125" cy="145.928" r="121.879" stroke="#F1F1F1" stroke-width="3" stroke-dasharray="12 12"/>
<g clip-path="url(#clip0_7656_84832)">
<path d="M215.302 175.253L116.308 201.779C113.165 202.621 109.949 200.753 109.094 197.614L91.4953 131.936C90.6663 128.789 92.5207 125.577 95.6605 124.722L194.655 98.1961C197.801 97.3672 201.013 99.2216 201.869 102.361L219.467 168.039C220.296 171.186 218.432 174.415 215.302 175.253ZM96.3002 127.109C94.4867 127.609 93.3957 129.479 93.8861 131.309L111.484 196.987C111.971 198.804 113.855 199.892 115.672 199.405L214.666 172.879C216.496 172.389 217.57 170.509 217.08 168.679L199.482 103.001C198.991 101.171 197.111 100.097 195.291 100.57L96.2966 127.096L96.3002 127.109Z" fill="#E8E8E8"/>
<path d="M95.6014 138.924L157.496 77.0219C158.57 75.9381 160.319 75.9386 161.407 77.0261L204.088 119.707C205.171 120.781 205.171 122.529 204.083 123.617L142.185 185.506C141.111 186.59 139.362 186.589 138.275 185.502L95.5972 142.835C94.5133 141.76 94.5103 139.999 95.6014 138.924Z" fill="white"/>
<path d="M141.832 186.425C141.302 186.567 140.767 186.639 140.211 186.632C138.562 186.633 136.996 185.986 135.83 184.82L96.2725 145.255C93.8603 142.831 93.8512 138.924 96.2718 136.498L155.061 77.7024C157.486 75.2902 161.396 75.2943 163.818 77.7016L203.389 117.264C205.801 119.688 205.797 123.598 203.389 126.02L144.603 184.829C143.844 185.601 142.88 186.144 141.832 186.425ZM158.468 78.4811C157.832 78.6517 157.268 78.9875 156.806 79.4383L98.0198 138.248C96.5622 139.704 96.5685 142.062 98.0252 143.52L137.596 183.082C139.053 184.54 141.411 184.533 142.869 183.077L201.649 124.297C203.106 122.841 203.1 120.483 201.643 119.025L162.085 79.4594C161.133 78.5062 159.759 78.1496 158.468 78.4811Z" fill="#E8E8E8"/>
<path d="M113.998 145.312L113.114 146.196L113.998 147.08L129.669 162.749L130.553 163.633L131.436 162.749L188.398 105.787L189.281 104.903L188.398 104.019L172.727 88.349L171.843 87.4652L170.96 88.3491L113.998 145.312Z" stroke="#E8E8E8" stroke-width="2.5"/>
<path d="M96.743 136.713L199.716 109.122C201.095 108.752 202.525 109.577 202.894 110.957L221.559 180.613C221.928 181.993 221.103 183.422 219.724 183.792L116.751 211.383C115.371 211.753 113.942 210.927 113.572 209.548L94.908 139.891C94.5348 138.499 95.3637 137.083 96.743 136.713Z" fill="white"/>
<path d="M197.406 108.462L98.4124 134.987C95.2727 135.843 93.4182 139.055 94.2472 142.201L111.846 207.879C112.701 211.019 115.913 212.873 119.06 212.044L218.054 185.519C221.194 184.664 223.048 181.452 222.219 178.305L204.621 112.627C203.765 109.487 200.54 107.636 197.406 108.462ZM219.832 178.944C220.322 180.775 219.231 182.645 217.418 183.145L118.424 209.67C116.603 210.144 114.723 209.07 114.233 207.24L96.6345 141.562C96.1477 139.745 97.2351 137.861 99.0486 137.361L198.043 110.836C199.873 110.345 201.743 111.436 202.233 113.267L219.832 178.944Z" fill="#E8E8E8"/>
<path d="M192.977 139.94L215.577 133.885C216.89 133.533 218.252 134.319 218.604 135.632L222.826 151.389C223.178 152.702 222.391 154.064 221.078 154.416L198.478 160.471C197.165 160.823 195.803 160.037 195.451 158.724L191.23 142.967C190.878 141.654 191.651 140.296 192.977 139.94Z" fill="white"/>
<path d="M219.498 156.105L200.691 161.144C197.667 161.955 194.556 160.158 193.746 157.134L190.544 145.185C189.734 142.161 191.53 139.05 194.554 138.239L213.36 133.2C216.384 132.39 219.495 134.186 220.306 137.21L223.508 149.16C224.318 152.184 222.522 155.295 219.498 156.105ZM195.193 140.627C193.483 141.085 192.476 142.847 192.931 144.545L196.133 156.495C196.592 158.206 198.354 159.212 200.051 158.757L218.858 153.718C220.569 153.259 221.575 151.497 221.12 149.799L217.918 137.85C217.46 136.139 215.698 135.133 214 135.587L195.193 140.627Z" fill="#E8E8E8"/>
<path d="M198.287 149.52C198.512 150.357 199.059 151.071 199.81 151.504C200.56 151.937 201.452 152.055 202.29 151.831C203.127 151.606 203.841 151.059 204.274 150.308C204.707 149.557 204.825 148.665 204.6 147.828C204.376 146.991 203.828 146.277 203.078 145.844C202.327 145.411 201.435 145.293 200.598 145.517C199.761 145.742 199.047 146.29 198.614 147.04C198.18 147.791 198.063 148.683 198.287 149.52Z" fill="white"/>
<path d="M202.478 152.534C200.343 153.106 198.153 151.831 197.581 149.695C197.009 147.56 198.284 145.37 200.42 144.798C202.555 144.226 204.745 145.502 205.313 147.624C205.889 149.772 204.614 151.962 202.478 152.534ZM200.79 146.234C199.451 146.593 198.641 147.976 199.004 149.328C199.366 150.681 200.745 151.477 202.098 151.115C203.451 150.752 204.247 149.373 203.884 148.021C203.522 146.668 202.143 145.872 200.79 146.234Z" fill="#E8E8E8"/>
<path d="M106.937 143.99L115.784 141.62C116.314 141.478 116.852 141.788 116.994 142.319L117.4 143.831C117.542 144.361 117.231 144.9 116.701 145.042L107.854 147.412C107.324 147.554 106.786 147.244 106.643 146.713L106.238 145.201C106.096 144.671 106.407 144.132 106.937 143.99ZM122.641 139.783L131.487 137.412C132.017 137.27 132.556 137.581 132.698 138.111L133.103 139.623C133.245 140.154 132.934 140.692 132.404 140.834L123.557 143.204C123.027 143.347 122.489 143.036 122.347 142.505L121.942 140.993C121.799 140.463 122.123 139.921 122.641 139.783ZM138.596 135.507L147.442 133.137C147.973 132.995 148.511 133.306 148.653 133.836L149.058 135.348C149.2 135.879 148.89 136.417 148.359 136.559L139.513 138.929C138.982 139.071 138.444 138.761 138.302 138.23L137.897 136.718C137.755 136.188 138.065 135.65 138.596 135.507ZM154.312 131.296L163.159 128.926C163.689 128.784 164.227 129.094 164.369 129.625L164.775 131.137C164.917 131.667 164.606 132.205 164.076 132.348L155.229 134.718C154.699 134.86 154.161 134.549 154.018 134.019L153.613 132.507C153.471 131.976 153.782 131.438 154.312 131.296ZM169.963 127.103L178.809 124.732C179.339 124.59 179.877 124.901 180.02 125.431L180.425 126.943C180.567 127.474 180.256 128.012 179.726 128.154L170.879 130.525C170.349 130.667 169.811 130.356 169.669 129.825L169.263 128.313C169.121 127.783 169.445 127.241 169.963 127.103ZM185.679 122.891L194.525 120.521C195.056 120.379 195.594 120.69 195.736 121.22L196.141 122.732C196.283 123.263 195.973 123.801 195.442 123.943L186.596 126.313C186.065 126.455 185.527 126.145 185.385 125.614L184.98 124.102C184.838 123.572 185.148 123.034 185.679 122.891Z" fill="#E8E8E8"/>
<path d="M120.853 195.928L129.7 193.557C130.23 193.415 130.768 193.726 130.91 194.256L131.316 195.768C131.458 196.299 131.147 196.837 130.617 196.979L121.77 199.35C121.24 199.492 120.702 199.181 120.559 198.65L120.154 197.139C120.012 196.608 120.323 196.07 120.853 195.928ZM136.557 191.72L145.403 189.35C145.933 189.208 146.472 189.518 146.614 190.049L147.019 191.561C147.161 192.091 146.85 192.629 146.32 192.772L137.473 195.142C136.943 195.284 136.405 194.973 136.263 194.443L135.858 192.931C135.715 192.4 136.039 191.859 136.557 191.72ZM152.512 187.445L161.358 185.074C161.889 184.932 162.427 185.243 162.569 185.774L162.974 187.286C163.116 187.816 162.806 188.354 162.275 188.496L153.429 190.867C152.898 191.009 152.36 190.698 152.218 190.168L151.813 188.656C151.671 188.125 151.981 187.587 152.512 187.445ZM168.228 183.234L177.075 180.863C177.605 180.721 178.143 181.032 178.285 181.562L178.691 183.074C178.833 183.605 178.522 184.143 177.992 184.285L169.145 186.655C168.615 186.798 168.077 186.487 167.934 185.956L167.529 184.444C167.387 183.914 167.698 183.376 168.228 183.234ZM183.879 179.04L192.725 176.67C193.255 176.528 193.794 176.838 193.936 177.369L194.341 178.881C194.483 179.411 194.172 179.949 193.642 180.092L184.795 182.462C184.265 182.604 183.727 182.293 183.585 181.763L183.179 180.251C183.037 179.72 183.361 179.179 183.879 179.04ZM199.595 174.829L208.441 172.459C208.972 172.316 209.51 172.627 209.652 173.158L210.057 174.67C210.199 175.2 209.889 175.738 209.358 175.88L200.512 178.251C199.981 178.393 199.443 178.082 199.301 177.552L198.896 176.04C198.754 175.509 199.065 174.971 199.595 174.829Z" fill="#E8E8E8"/>
</g>
<path d="M45.8521 183.369C38.8383 185.248 31.3651 184.264 25.0767 180.634C18.7882 177.003 14.1996 171.023 12.3202 164.009C10.4409 156.995 11.4247 149.522 15.0554 143.234C18.686 136.945 24.666 132.357 31.6799 130.477C38.6937 128.598 46.1669 129.582 52.4553 133.213C58.7438 136.843 63.3324 142.823 65.2118 149.837C67.0911 156.851 66.1073 164.324 62.4766 170.613C58.846 176.901 52.866 181.49 45.8521 183.369Z" fill="white" stroke="#E8E8E8" stroke-width="2"/>
<circle cx="38.5996" cy="157" r="21.4848" transform="rotate(-60 38.5996 157)" stroke="#E8E8E8" stroke-width="2"/>
<path fill-rule="evenodd" clip-rule="evenodd" d="M27.7183 155.892C27.1955 155.369 27.1955 154.521 27.7183 153.999L30.8734 150.843C31.3962 150.321 32.2438 150.321 32.7665 150.843C33.2893 151.366 33.2893 152.214 32.7665 152.736L29.6114 155.892C29.0886 156.414 28.241 156.414 27.7183 155.892ZM38.6912 146.788C39.3625 147.098 39.6555 147.893 39.3457 148.565L34.1646 159.79C33.8548 160.462 33.0595 160.755 32.3882 160.445C31.717 160.135 31.424 159.34 31.7338 158.668L36.9148 147.443C37.2247 146.772 38.02 146.479 38.6912 146.788ZM46.3964 154.494C47.0677 154.803 47.3607 155.599 47.0508 156.27L41.8698 167.496C41.56 168.167 40.7647 168.46 40.0934 168.15C39.4222 167.84 39.1292 167.045 39.439 166.374L44.62 155.148C44.9298 154.477 45.7251 154.184 46.3964 154.494ZM46.0181 164.095C45.4953 163.572 45.4953 162.725 46.0181 162.202L49.1733 159.047C49.696 158.524 50.5436 158.524 51.0663 159.047C51.5891 159.569 51.5891 160.417 51.0663 160.94L47.9112 164.095C47.3884 164.618 46.5409 164.618 46.0181 164.095Z" fill="#E8E8E8"/>
<path fill-rule="evenodd" clip-rule="evenodd" d="M42.4609 150.566C43.1365 150.866 43.4408 151.657 43.1405 152.332L38.0923 163.691C37.792 164.367 37.001 164.671 36.3254 164.371C35.6498 164.07 35.3456 163.279 35.6458 162.604L40.694 151.245C40.9943 150.57 41.7854 150.265 42.4609 150.566Z" fill="#E8E8E8"/>
<path d="M113.769 286.109C108.635 280.975 105.75 274.011 105.75 266.75C105.75 259.488 108.635 252.525 113.769 247.39C118.904 242.256 125.867 239.371 133.129 239.371C140.39 239.371 147.354 242.256 152.488 247.39C157.623 252.525 160.507 259.488 160.507 266.75C160.507 274.011 157.623 280.975 152.488 286.109C147.354 291.244 140.39 294.128 133.129 294.128C125.867 294.128 118.904 291.244 113.769 286.109Z" fill="white" stroke="#E8E8E8" stroke-width="2"/>
<circle cx="132.86" cy="266.481" r="21.4848" stroke="#E8E8E8" stroke-width="2"/>
<path fill-rule="evenodd" clip-rule="evenodd" d="M132.234 272.885C132.11 272.785 131.96 272.611 131.86 272.287C131.761 271.963 131.212 270.369 130.515 268.375H135.175C134.477 270.369 133.929 271.963 133.829 272.287C133.73 272.611 133.58 272.785 133.455 272.885C133.331 272.984 133.156 273.059 132.832 273.059C132.508 273.059 132.359 272.984 132.234 272.885ZM125.356 268.375H128.521C129.293 270.643 129.966 272.536 130.066 272.885C130.265 273.483 130.589 274.006 131.088 274.38C131.586 274.753 132.184 274.928 132.807 274.928C133.431 274.928 134.029 274.778 134.527 274.38C135.026 274.006 135.35 273.483 135.549 272.885C135.674 272.536 136.321 270.667 137.094 268.375H140.309C140.832 268.375 141.256 267.952 141.256 267.429C141.256 266.905 140.832 266.482 140.309 266.482H137.792H135.823H129.867H127.898H125.356C124.832 266.482 124.434 266.905 124.434 267.429C124.434 267.952 124.857 268.375 125.356 268.375ZM125.356 264.638C124.832 264.638 124.434 264.215 124.434 263.692C124.434 263.168 124.857 262.745 125.356 262.745H126.602L126.103 261.3L125.605 259.855L125.406 259.307C125.231 258.808 125.505 258.285 125.979 258.111C126.477 257.937 127.001 258.211 127.175 258.684L127.374 259.232L127.873 260.677C128.072 261.275 128.321 261.973 128.596 262.745H137.119C137.368 261.997 137.617 261.275 137.842 260.677L138.34 259.232L138.54 258.684C138.714 258.186 139.237 257.937 139.736 258.111C140.234 258.285 140.483 258.808 140.309 259.307L140.11 259.855L139.611 261.3L139.113 262.745H140.359C140.882 262.745 141.306 263.168 141.306 263.692C141.306 264.215 140.882 264.638 140.359 264.638H138.465H136.496H129.268H127.3H125.356ZM139.387 259.033L140.259 259.332C140.259 259.332 140.259 259.332 139.387 259.033ZM139.387 259.033C138.515 258.734 138.515 258.734 138.515 258.734L139.387 259.033ZM126.303 259.033L127.175 258.734C127.175 258.734 127.175 258.734 126.303 259.033ZM126.303 259.033C125.43 259.332 125.43 259.332 125.43 259.332L126.303 259.033Z" fill="#E8E8E8"/>
<path d="M252.261 222.84C247.127 217.705 244.242 210.742 244.242 203.48C244.242 196.219 247.127 189.255 252.261 184.121C257.396 178.986 264.36 176.102 271.621 176.102C278.882 176.102 285.846 178.986 290.981 184.121C296.115 189.255 299 196.219 299 203.48C299 210.742 296.115 217.705 290.981 222.84C285.846 227.974 278.882 230.859 271.621 230.859C264.36 230.859 257.396 227.974 252.261 222.84Z" fill="white" stroke="#E8E8E8" stroke-width="2"/>
<circle cx="271.485" cy="203.485" r="21.4848" stroke="#E8E8E8" stroke-width="2"/>
<path d="M267.734 207.433L267.734 211.083L264.083 211.083L264.084 207.433L267.734 207.433ZM267.734 198.567L273.992 198.567L273.992 194.916L264.083 194.917L264.084 204.825L267.734 204.825L267.734 198.567ZM276.6 194.916L276.6 198.567L280.251 198.567L280.25 194.917L276.6 194.916ZM276.6 207.433L270.342 207.433L270.342 211.083L280.25 211.083L280.251 201.175L276.6 201.175L276.6 207.433ZM273.992 204.825L273.992 201.175L270.342 201.175L270.342 204.825L273.992 204.825Z" fill="#E8E8E8"/>
<path d="M96.2392 58.4668C89.9507 54.8362 85.3621 48.8562 83.4827 41.8423C81.6034 34.8285 82.5872 27.3553 86.2179 21.0669C89.8485 14.7784 95.8285 10.1898 102.842 8.31044C109.856 6.43108 117.329 7.41494 123.618 11.0456C129.906 14.6762 134.495 20.6562 136.374 27.6701C138.254 34.6839 137.27 42.1571 133.639 48.4455C130.009 54.734 124.028 59.3226 117.015 61.202C110.001 63.0813 102.528 62.0975 96.2392 58.4668Z" fill="white" stroke="#E8E8E8" stroke-width="2"/>
<circle cx="109.757" cy="34.6941" r="21.4848" transform="rotate(-15 109.757 34.6941)" stroke="#E8E8E8" stroke-width="2"/>
<path d="M106.689 23.1992L108.995 31.8029L117.137 33.1038L106.689 23.1992Z" fill="#E8E8E8" fill-opacity="0.602"/>
<path d="M106.689 23.1997L102.592 37.0016L108.994 31.8034L106.689 23.1997Z" fill="#E8E8E8"/>
<path d="M111.36 40.6276L112.926 46.4736L117.505 34.4564L111.36 40.6276Z" fill="#E8E8E8" fill-opacity="0.602"/>
<path d="M112.925 46.4741L111.359 40.6271L102.955 38.3555L112.925 46.4741Z" fill="#E8E8E8"/>
<path d="M110.996 39.2764L117.136 33.1056L108.994 31.8066L110.996 39.2764Z" fill="#E8E8E8" fill-opacity="0.2"/>
<path d="M102.593 37.0014L110.997 39.2749L108.996 31.8051L102.593 37.0014Z" fill="#E8E8E8" fill-opacity="0.602"/>
<path d="M229.481 75.5319C229.481 68.2707 232.365 61.3068 237.5 56.1723C242.634 51.0378 249.598 48.1533 256.859 48.1533C264.121 48.1533 271.085 51.0378 276.219 56.1723C281.354 61.3068 284.238 68.2707 284.238 75.5319C284.238 82.7932 281.354 89.7571 276.219 94.8916C271.085 100.026 264.121 102.911 256.859 102.911C249.598 102.911 242.634 100.026 237.5 94.8916C232.365 89.7571 229.481 82.7932 229.481 75.5319Z" fill="white" stroke="#E8E8E8" stroke-width="2"/>
<circle cx="256.602" cy="75.437" r="21.4848" transform="rotate(45 256.602 75.437)" stroke="#E8E8E8" stroke-width="2"/>
<path d="M266.149 76.5746L268.705 74.019L258.241 63.5555L255.685 66.1111L259.543 69.9686L257.873 71.6383C254.597 68.6435 251.617 66.9004 250.876 67.642C250.134 68.3837 251.877 71.3631 254.872 74.6399L249.513 79.9982L252.262 82.7466L257.621 77.387C260.888 80.3675 263.855 82.0998 264.594 81.3604C265.333 80.6209 263.601 77.6544 260.621 74.3878L262.291 72.717L266.149 76.5746L266.149 76.5746ZM263.564 80.0281C263.076 80.5158 260.841 79.0991 258.261 76.747L258.095 76.5944L258.078 76.5768L257.923 76.4329L257.907 76.4167C257.792 76.3094 257.676 76.2002 257.559 76.0888L257.552 76.0818L257.396 75.9321L257.353 75.889L257.231 75.77L256.468 75.0065L256.35 74.8855L256.308 74.8441L256.169 74.6986L256.153 74.6829C255.988 74.5102 255.827 74.3385 255.669 74.1683L255.667 74.1661L255.511 73.9958C253.145 71.4059 251.718 69.1578 252.208 68.6677C252.698 68.1774 254.945 69.606 257.536 71.9706L255.986 73.5207C256.394 73.9732 256.839 74.443 257.314 74.9176C257.796 75.3997 258.275 75.854 258.736 76.2679L260.28 74.7237C262.635 77.3049 264.051 79.5403 263.564 80.0281Z" fill="#E8E8E8"/>
<defs>
<clipPath id="clip0_7656_84832">
<rect width="140.603" height="140.603" fill="white" transform="translate(71.0059 89.3652) rotate(-15)"/>
</clipPath>
</defs>
</svg>
