<svg width="32" height="32" viewBox="0 0 32 32" fill="none" xmlns="http://www.w3.org/2000/svg"><g clip-path="url(#clip0_8070_88702)"><path d="M.007 15.896c0 8.778 7.115 15.893 15.892 15.893 8.778 0 15.894-7.115 15.894-15.893C31.793 7.12 24.677.005 15.899.005 7.123.004.007 7.119.007 15.896z" fill="#DEE8FF"/><path d="M22.666 21.733H16.64V10.795c-.01-1.445.164-1.71.439-1.82a.937.937 0 0 1 .768 0l4.379 2.286a.754.754 0 0 1 .439.677v9.795zm-6.903 0H9.107V11.097a.78.78 0 0 1 .439-.695l5.01-2.642a1.124 1.124 0 0 1 .878 0c.329.118.329.338.329 1.819v12.154zm-2.505-1.411l.027-1.07c0-.128-.1-.228-.228-.228h-1.262c-.128 0-.229.1-.229.228v1.07a.228.228 0 0 0 .141.212.228.228 0 0 0 .088.016h1.234c.128 0 .229-.1.229-.228zm0-3.228l.027-1.088c0-.128-.1-.228-.228-.228h-1.262c-.128 0-.229.1-.229.228v1.088a.228.228 0 0 0 .141.212.226.226 0 0 0 .088.017h1.234c.128 0 .229-.1.229-.229zm0-3.218l.027-1.097c0-.128-.1-.229-.228-.229h-1.262c-.128 0-.229.101-.229.229v1.097a.228.228 0 0 0 .141.212.226.226 0 0 0 .088.017h1.234c.128 0 .229-.1.229-.229zm7.213-.009v-1.088c0-.128-.1-.229-.228-.229H18.98c-.128 0-.228.101-.228.229v1.088a.226.226 0 0 0 .228.229h1.262c.128 0 .229-.101.229-.229zm1.17 5.658l-.683-.942c.215-.249.356-.553.407-.878a1.76 1.76 0 0 0-.315-1.316 1.765 1.765 0 0 0-1.855-.677 1.765 1.765 0 0 0-1.295 2.13 1.77 1.77 0 0 0 2.561 1.141l.666.916a.316.316 0 0 0 .334.128.319.319 0 0 0 .181-.502zm-2.198-.981a1.122 1.122 0 0 1-.738-.453 1.122 1.122 0 0 1-.05-1.255c.078-.126.18-.236.3-.323a1.123 1.123 0 0 1 1.255-.05c.127.078.237.18.324.3.178.245.25.543.202.842a1.122 1.122 0 0 1-.452.737 1.12 1.12 0 0 1-.841.202z" fill="#2663FF"/></g><defs><clipPath id="clip0_8070_88702"><path fill="#fff" d="M0 0h32v32H0z"/></clipPath></defs></svg>