<svg width="32" height="32" viewBox="0 0 32 32" fill="none" xmlns="http://www.w3.org/2000/svg"><g clip-path="url(#clip0_8070_88705)"><path d="M.007 15.896c0 8.778 7.115 15.893 15.892 15.893 8.778 0 15.894-7.115 15.894-15.893C31.793 7.12 24.677.005 15.899.005 7.123.004.007 7.119.007 15.896z" fill="#DEE8FF"/><path d="M22.22 20.355h-.487v-5.2a.486.486 0 0 0-.488-.482h-1.46v5.705h-.365v-7.583a.486.486 0 0 0-.486-.482H14.99v-1.06h3.261a.354.354 0 0 0 .171-.048.268.268 0 0 0 .098-.29.27.27 0 0 0-.05-.095l-.899-1.18.877-1.18a.456.456 0 0 0 .049-.17.269.269 0 0 0-.269-.263h-3.335c-.072-.073-.194-.121-.243-.145a.409.409 0 0 0-.414.41v3.997h-1.194a.486.486 0 0 0-.487.482v7.56h-.34V14.65H10.73a.486.486 0 0 0-.488.481v5.225h-.487a.475.475 0 0 0-.462.457c0 .264.194.482.462.482h12.488c.267 0 .462-.217.462-.482s-.219-.457-.486-.457zm-7.006-.854a.558.558 0 0 1-.559.553.558.558 0 0 1-.558-.553v-5.045a.558.558 0 1 1 1.118 0v5.045zm2.36 0a.558.558 0 0 1-.56.553.558.558 0 0 1-.558-.553v-5.045c0-.303.251-.552.559-.552.307 0 .558.249.558.553V19.5z" fill="#2663FF"/></g><defs><clipPath id="clip0_8070_88705"><path fill="#fff" d="M0 0h32v32H0z"/></clipPath></defs></svg>