<svg width="20" height="20" viewBox="0 0 20 20" fill="none" xmlns="http://www.w3.org/2000/svg">
<path d="M19.9999 9.95589C20.0086 11.9337 19.4307 13.8697 18.3391 15.519C17.2475 17.1684 15.6914 18.457 13.8674 19.2219C12.0435 19.9868 10.0337 20.1937 8.09218 19.8163C6.15067 19.439 4.36466 18.4944 2.96 17.102C1.55535 15.7096 0.59513 13.9319 0.200785 11.9938C-0.193559 10.0557 -0.00432042 8.04415 0.74457 6.21358C1.49346 4.38301 2.76837 2.81562 4.40807 1.70963C6.04777 0.603636 7.97861 0.0087136 9.95643 9.50751e-05C12.6085 -0.0114615 15.1565 1.03094 17.04 2.898C18.9235 4.76506 19.9882 7.30384 19.9999 9.95589Z" fill="#8DC63F"/>
<path d="M19.2495 9.96052C19.2577 11.7897 18.7234 13.5803 17.7141 15.1058C16.7047 16.6313 15.2656 17.8233 13.5788 18.5309C11.8921 19.2386 10.0333 19.4301 8.23764 19.0813C6.44199 18.7326 4.79008 17.8592 3.49081 16.5716C2.19155 15.284 1.30329 13.64 0.938361 11.8475C0.573433 10.0551 0.748228 8.19469 1.44064 6.50159C2.13305 4.8085 3.31199 3.35875 4.82835 2.33568C6.34471 1.31261 8.1304 0.762184 9.9596 0.753996C12.4123 0.743209 14.7688 1.70706 16.511 3.43356C18.2531 5.16006 19.2381 7.50783 19.2495 9.96052Z" fill="#F9E988"/>
<path d="M10.1682 1.3517C10.7561 1.24735 11.3578 1.24735 11.9457 1.3517C12.5394 1.4457 13.1131 1.63794 13.6436 1.92054C14.1711 2.2104 14.6269 2.60388 15.0805 2.97272C15.5341 3.34156 15.9856 3.71909 16.4153 4.13214C16.854 4.53874 17.2368 5.00172 17.5537 5.50895C17.8801 6.01216 18.1475 6.55121 18.3508 7.11547C18.737 8.25025 18.8711 9.47272 18.6783 10.6387H18.6211C18.4276 9.48286 18.1653 8.38141 17.7515 7.33359C17.5573 6.80594 17.3288 6.29156 17.0675 5.79373C16.7948 5.29583 16.4943 4.81366 16.1675 4.34953C15.8351 3.88031 15.4277 3.46901 14.9617 3.13214C14.4921 2.79735 13.9523 2.58069 13.4298 2.37489C12.9073 2.16909 12.3892 1.95605 11.8443 1.79953C11.2994 1.64301 10.7457 1.52562 10.1675 1.41185L10.1682 1.3517Z" fill="white"/>
<path d="M14.6915 6.69419C14.0205 6.49999 13.3249 6.22463 12.6205 5.94636C12.5799 5.76955 12.4234 5.54926 12.1067 5.28042C11.6466 4.88115 10.7821 4.89129 10.035 5.0681C9.21036 4.8739 8.39586 4.80506 7.61398 4.99564C1.21905 6.75723 4.84514 11.0551 2.49731 15.3753C2.83137 16.084 6.4321 20.2188 11.6422 19.1094C11.6422 19.1094 9.86036 14.8275 13.8814 12.7725C17.143 11.0993 19.4995 8.00361 14.6915 6.69419Z" fill="#8BC53F"/>
<path d="M15.4804 9.5066C15.4809 9.58328 15.4585 9.65836 15.4163 9.72235C15.3741 9.78634 15.3138 9.83637 15.2431 9.86611C15.1724 9.89584 15.0945 9.90396 15.0193 9.88942C14.944 9.87488 14.8747 9.83835 14.8202 9.78444C14.7656 9.73052 14.7283 9.66165 14.713 9.58654C14.6976 9.51142 14.7048 9.43343 14.7338 9.36243C14.7627 9.29142 14.8121 9.2306 14.8756 9.18764C14.9391 9.14469 15.0139 9.12153 15.0906 9.1211C15.1933 9.12071 15.2921 9.16106 15.3651 9.23332C15.4382 9.30558 15.4797 9.40384 15.4804 9.5066Z" fill="white"/>
<path d="M10.0325 5.06458C10.4984 5.09792 12.1832 5.64429 12.618 5.94284C12.2557 4.89212 11.0361 4.75227 10.0325 5.06458Z" fill="#009345"/>
<path d="M10.4796 7.72128C10.4798 8.07502 10.375 8.42086 10.1786 8.71506C9.98217 9.00925 9.70291 9.23859 9.37613 9.37406C9.04936 9.50953 8.68975 9.54505 8.34278 9.47613C7.99582 9.40721 7.67709 9.23693 7.4269 8.98685C7.17672 8.73677 7.00631 8.4181 6.93725 8.07117C6.86818 7.72423 6.90356 7.3646 7.0389 7.03777C7.17424 6.71094 7.40346 6.43159 7.69758 6.23505C7.9917 6.0385 8.33749 5.93359 8.69124 5.93359C8.92606 5.9335 9.1586 5.97967 9.37558 6.06947C9.59255 6.15926 9.78971 6.29093 9.95579 6.45694C10.1219 6.62295 10.2536 6.82005 10.3435 7.03699C10.4334 7.25393 10.4796 7.48645 10.4796 7.72128Z" fill="white"/>
<path d="M9.94709 7.73844C9.94709 7.98724 9.87332 8.23046 9.73509 8.43733C9.59686 8.6442 9.40039 8.80544 9.17053 8.90065C8.94066 8.99587 8.68773 9.02078 8.44371 8.97224C8.19968 8.9237 7.97553 8.80389 7.7996 8.62796C7.62367 8.45203 7.50386 8.22788 7.45532 7.98386C7.40679 7.73983 7.4317 7.4869 7.52691 7.25703C7.62212 7.02717 7.78336 6.8307 7.99023 6.69248C8.1971 6.55425 8.44032 6.48047 8.68912 6.48047C9.02276 6.48047 9.34273 6.613 9.57864 6.84892C9.81456 7.08484 9.94709 7.40481 9.94709 7.73844Z" fill="#58595B"/>
<path d="M16.9286 10.298C15.4793 11.319 13.8315 12.0936 11.4938 12.0936C10.3996 12.0936 10.1778 10.9342 9.45466 11.5008C9.08147 11.7951 7.76553 12.453 6.72133 12.403C5.67712 12.353 3.98437 11.7407 3.51263 9.51172C3.32567 11.7407 3.23002 13.3827 2.39307 15.2646C4.05973 17.9335 8.03364 19.9922 11.6409 19.1052C11.2532 16.3987 13.6184 13.748 14.951 12.3914C15.4583 11.8777 16.422 11.0393 16.9286 10.2965V10.298Z" fill="#8BC53F"/>
<path d="M16.8725 10.3623C16.4225 10.7725 15.887 11.0761 15.342 11.3442C14.7905 11.6061 14.2155 11.8155 13.6247 11.9696C13.0333 12.1225 12.4167 12.2377 11.792 12.1811C11.1674 12.1246 10.529 11.9123 10.1152 11.4442L10.1348 11.4217C10.642 11.7507 11.2276 11.8667 11.8102 11.8833C12.4007 11.9013 12.9914 11.8527 13.571 11.7384C14.1566 11.6158 14.7294 11.4387 15.2819 11.2094C15.8348 10.9811 16.3819 10.7167 16.8529 10.3398L16.8725 10.3623Z" fill="#58595B"/>
</svg>
